<svg xmlns="http://www.w3.org/2000/svg" width="1005" height="600"><rect width="1005" height="600" x="0" y="0" fill="#ffffff" id="backgorund"/><g id="viz"><clipPath id="serieClipPath"><rect x="-50" y="-50" width="805" height="600"/></clipPath><g transform="translate(0,0)"><g transform="translate(50,50)" clip-path="url(#serieClipPath)"><g id="axis"><g transform="translate(0,500)" fill="none" font-size="10" font-family="sans-serif" text-anchor="middle"><path class="domain" stroke="currentColor" d="M0,6V0H705V6"/><g class="tick" opacity="1" transform="translate(0,0)"><line stroke="currentColor" y2="6"/><text fill="currentColor" y="9" dy="0.71em">2,013</text></g><g class="tick" opacity="1" transform="translate(78.33333333333333,0)"><line stroke="currentColor" y2="6"/><text fill="currentColor" y="9" dy="0.71em">2,014</text></g><g class="tick" opacity="1" transform="translate(156.66666666666666,0)"><line stroke="currentColor" y2="6"/><text fill="currentColor" y="9" dy="0.71em">2,015</text></g><g class="tick" opacity="1" transform="translate(235,0)"><line stroke="currentColor" y2="6"/><text fill="currentColor" y="9" dy="0.71em">2,016</text></g><g class="tick" opacity="1" transform="translate(313.3333333333333,0)"><line stroke="currentColor" y2="6"/><text fill="currentColor" y="9" dy="0.71em">2,017</text></g><g class="tick" opacity="1" transform="translate(391.6666666666667,0)"><line stroke="currentColor" y2="6"/><text fill="currentColor" y="9" dy="0.71em">2,018</text></g><g class="tick" opacity="1" transform="translate(470,0)"><line stroke="currentColor" y2="6"/><text fill="currentColor" y="9" dy="0.71em">2,019</text></g><g class="tick" opacity="1" transform="translate(548.3333333333334,0)"><line stroke="currentColor" y2="6"/><text fill="currentColor" y="9" dy="0.71em">2,020</text></g><g class="tick" opacity="1" transform="translate(626.6666666666666,0)"><line stroke="currentColor" y2="6"/><text fill="currentColor" y="9" dy="0.71em">2,021</text></g><g class="tick" opacity="1" transform="translate(705,0)"><line stroke="currentColor" y2="6"/><text fill="currentColor" y="9" dy="0.71em">2,022</text></g><text x="705" dy="-5" text-anchor="end" style="font-family: Arial, sans-serif; font-size: 12px; fill: rgb(123, 123, 123); font-weight: bold;">year</text></g><g transform="translate(0,0)" fill="none" font-size="10" font-family="sans-serif" text-anchor="end"><path class="domain" stroke="currentColor" d="M0,500V0"/><g class="tick" opacity="1" transform="translate(0,500)"><line stroke="currentColor" x2="-6"/><text fill="currentColor" x="-9" dy="0.32em">0</text></g><g class="tick" opacity="1" transform="translate(0,450)"><line stroke="currentColor" x2="-6"/><text fill="currentColor" x="-9" dy="0.32em">2</text></g><g class="tick" opacity="1" transform="translate(0,400)"><line stroke="currentColor" x2="-6"/><text fill="currentColor" x="-9" dy="0.32em">4</text></g><g class="tick" opacity="1" transform="translate(0,350)"><line stroke="currentColor" x2="-6"/><text fill="currentColor" x="-9" dy="0.32em">6</text></g><g class="tick" opacity="1" transform="translate(0,300)"><line stroke="currentColor" x2="-6"/><text fill="currentColor" x="-9" dy="0.32em">8</text></g><g class="tick" opacity="1" transform="translate(0,250)"><line stroke="currentColor" x2="-6"/><text fill="currentColor" x="-9" dy="0.32em">10</text></g><g class="tick" opacity="1" transform="translate(0,200)"><line stroke="currentColor" x2="-6"/><text fill="currentColor" x="-9" dy="0.32em">12</text></g><g class="tick" opacity="1" transform="translate(0,150.00000000000003)"><line stroke="currentColor" x2="-6"/><text fill="currentColor" x="-9" dy="0.32em">14</text></g><g class="tick" opacity="1" transform="translate(0,99.99999999999997)"><line stroke="currentColor" x2="-6"/><text fill="currentColor" x="-9" dy="0.32em">16</text></g><g class="tick" opacity="1" transform="translate(0,49.999999999999986)"><line stroke="currentColor" x2="-6"/><text fill="currentColor" x="-9" dy="0.32em">18</text></g><g class="tick" opacity="1" transform="translate(0,0)"><line stroke="currentColor" x2="-6"/><text fill="currentColor" x="-9" dy="0.32em">20</text></g><text x="4" text-anchor="start" dominant-baseline="hanging" style="font-family: Arial, sans-serif; font-size: 12px; fill: rgb(123, 123, 123); font-weight: bold;">rank</text></g></g><g id="viz"><g id="Byler"><path d="M705,475Z" stroke="#459295" fill="none"/><g><circle class="dot" cx="705" cy="475" r="5" fill="#459295"/></g><text font-family="sans-serif" font-size="10" class="labels" x="705" y="475" dx="0" dy="-4" text-anchor="middle">Byler</text></g><g id="MakoHaru"><path d="M0,475L78.33333333333333,300" stroke="#459295" fill="none"/><g><circle class="dot" cx="0" cy="475" r="5" fill="#459295"/><circle class="dot" cx="78.33333333333333" cy="300" r="5" fill="#459295"/></g><text font-family="sans-serif" font-size="10" class="labels" x="78.33333333333333" y="300" dx="0" dy="-4" text-anchor="middle">MakoHaru</text></g><g id="Destiel"><path d="M0,400C26.11111111111111,437.5,52.222222222222214,475,78.33333333333333,475C104.44444444444444,475,130.55555555555554,437.5,156.66666666666666,425C182.77777777777777,412.5,208.88888888888889,416.6666666666667,235,400C261.1111111111111,383.3333333333333,287.22222222222223,224.99999999999997,313.3333333333333,224.99999999999997C339.44444444444446,224.99999999999997,365.55555555555554,224.99999999999997,391.6666666666667,224.99999999999997C417.77777777777777,224.99999999999997,443.8888888888889,0,470,0C496.11111111111114,0,522.2222222222223,170.83333333333326,548.3333333333334,250C574.4444444444445,329.16666666666663,600.5555555555555,475,626.6666666666666,475C652.7777777777777,475,678.8888888888889,450,705,425" stroke="#459295" fill="none"/><g><circle class="dot" cx="0" cy="400" r="5" fill="#459295"/><circle class="dot" cx="78.33333333333333" cy="475" r="5" fill="#459295"/><circle class="dot" cx="156.66666666666666" cy="425" r="5" fill="#459295"/><circle class="dot" cx="235" cy="400" r="5" fill="#459295"/><circle class="dot" cx="313.3333333333333" cy="224.99999999999997" r="5" fill="#459295"/><circle class="dot" cx="391.6666666666667" cy="224.99999999999997" r="5" fill="#459295"/><circle class="dot" cx="470" cy="0" r="5" fill="#459295"/><circle class="dot" cx="548.3333333333334" cy="250" r="5" fill="#459295"/><circle class="dot" cx="626.6666666666666" cy="475" r="5" fill="#459295"/><circle class="dot" cx="705" cy="425" r="5" fill="#459295"/></g><text font-family="sans-serif" font-size="10" class="labels" x="470" y="0" dx="0" dy="-4" text-anchor="middle">Destiel</text></g><g id="Ineffable Husbands"><path d="M470,475C496.11111111111114,445.1388888888889,522.2222222222223,415.2777777777778,548.3333333333334,375C600.5555555555555,294.44444444444446,652.7777777777778,172.2222222222222,705,49.999999999999986" stroke="#459295" fill="none"/><g><circle class="dot" cx="470" cy="475" r="5" fill="#459295"/><circle class="dot" cx="548.3333333333334" cy="375" r="5" fill="#459295"/><circle class="dot" cx="705" cy="49.999999999999986" r="5" fill="#459295"/></g><text font-family="sans-serif" font-size="10" class="labels" x="705" y="49.999999999999986" dx="0" dy="-4" text-anchor="middle">Ineffable Husbands</text></g><g id="Clexa"><path d="M156.66666666666666,300L235,475" stroke="#eb7c68" fill="none"/><g><circle class="dot" cx="156.66666666666666" cy="300" r="5" fill="#eb7c68"/><circle class="dot" cx="235" cy="475" r="5" fill="#eb7c68"/></g><text font-family="sans-serif" font-size="10" class="labels" x="156.66666666666666" y="300" dx="0" dy="-4" text-anchor="middle">Clexa</text></g><g id="Reylo"><path d="M235,250C261.1111111111111,137.50000000000003,287.22222222222223,25.00000000000002,313.3333333333333,25.00000000000002C339.44444444444446,25.00000000000002,365.55555555555554,450,391.6666666666667,450C417.77777777777777,450,443.8888888888889,325,470,325C496.11111111111114,325,522.2222222222223,400,548.3333333333334,475" stroke="#ec9932" fill="none"/><g><circle class="dot" cx="235" cy="250" r="5" fill="#ec9932"/><circle class="dot" cx="313.3333333333333" cy="25.00000000000002" r="5" fill="#ec9932"/><circle class="dot" cx="391.6666666666667" cy="450" r="5" fill="#ec9932"/><circle class="dot" cx="470" cy="325" r="5" fill="#ec9932"/><circle class="dot" cx="548.3333333333334" cy="475" r="5" fill="#ec9932"/></g><text font-family="sans-serif" font-size="10" class="labels" x="313.3333333333333" y="25.00000000000002" dx="0" dy="-4" text-anchor="middle">Reylo</text></g><g id="Larry Stylinson"><path d="M0,425C26.11111111111111,425,52.222222222222214,425,78.33333333333333,425C104.44444444444444,425,130.55555555555554,475,156.66666666666666,475C182.77777777777777,475,208.88888888888889,450,235,425" stroke="#459295" fill="none"/><g><circle class="dot" cx="0" cy="425" r="5" fill="#459295"/><circle class="dot" cx="78.33333333333333" cy="425" r="5" fill="#459295"/><circle class="dot" cx="156.66666666666666" cy="475" r="5" fill="#459295"/><circle class="dot" cx="235" cy="425" r="5" fill="#459295"/></g><text font-family="sans-serif" font-size="10" class="labels" x="0" y="425" dx="0" dy="-4" text-anchor="middle">Larry Stylinson</text></g><g id="Klance"><path d="M235,350C261.1111111111111,412.5,287.22222222222223,475,313.3333333333333,475C339.44444444444446,475,365.55555555555554,475,391.6666666666667,475C417.77777777777777,475,443.8888888888889,466.6666666666667,470,450C496.11111111111114,433.3333333333333,522.2222222222223,216.66666666666666,548.3333333333334,0" stroke="#459295" fill="none"/><g><circle class="dot" cx="235" cy="350" r="5" fill="#459295"/><circle class="dot" cx="313.3333333333333" cy="475" r="5" fill="#459295"/><circle class="dot" cx="391.6666666666667" cy="475" r="5" fill="#459295"/><circle class="dot" cx="470" cy="450" r="5" fill="#459295"/><circle class="dot" cx="548.3333333333334" cy="0" r="5" fill="#459295"/></g><text font-family="sans-serif" font-size="10" class="labels" x="548.3333333333334" y="0" dx="0" dy="-4" text-anchor="middle">Klance</text></g></g></g><text y="4" x="4" style="font-family: Arial, sans-serif; font-size: 12px; fill: black; font-weight: bold; dominant-baseline: hanging;"/></g><g id="grid"><rect x="0" y="0" width="805" height="600" fill="none" stroke="#ccc"/></g></g><g id="legend" transform="translate(805,50)"><g transform="translate(5,0)"><g class="legendColor" transform="translate(0,0)"><g class="legendCells" transform="translate(0,15.5)"><g class="cell" transform="translate(0, 0)"><rect class="swatch" height="15" width="15" style="fill: rgb(235, 124, 104);"/><text class="label" transform="translate( 20, 12.5)" font-family="&quot;Arial&quot;, sans-serif" font-size="10px"><tspan x="0" dy="0em">F/F</tspan></text></g><g class="cell" transform="translate(0, 20.5)"><rect class="swatch" height="15" width="15" style="fill: rgb(236, 153, 50);"/><text class="label" transform="translate( 20, 12.5)" font-family="&quot;Arial&quot;, sans-serif" font-size="10px"><tspan x="0" dy="0em">F/M</tspan></text></g><g class="cell" transform="translate(0, 41)"><rect class="swatch" height="15" width="15" style="fill: rgb(69, 146, 149);"/><text class="label" transform="translate( 20, 12.5)" font-family="&quot;Arial&quot;, sans-serif" font-size="10px"><tspan x="0" dy="0em">M/M</tspan></text></g></g><text class="legendTitle" font-family="&quot;Arial&quot;, sans-serif" font-size="12px" font-weight="bold"><tspan x="0" dy="0em">pairs</tspan></text></g></g></g></svg>