<svg width="720" height="545" viewBox="0 0 720 545" fill="none" xmlns="http://www.w3.org/2000/svg">
<g clip-path="url(#clip0_15_9957)">
<path d="M729 0.625H0V544.375H729V0.625Z" fill="white"/>
<path d="M68.2487 506.26V502H592.728V506.26" stroke="black" stroke-width="0.75"/>
<path d="M68.2487 502V506.26" stroke="black" stroke-width="0.75"/>
<path d="M126.524 502V506.26" stroke="black" stroke-width="0.75"/>
<path d="M184.8 502V506.26" stroke="black" stroke-width="0.75"/>
<path d="M243.075 502V506.26" stroke="black" stroke-width="0.75"/>
<path d="M301.35 502V506.26" stroke="black" stroke-width="0.75"/>
<path d="M359.626 502V506.26" stroke="black" stroke-width="0.75"/>
<path d="M417.901 502V506.26" stroke="black" stroke-width="0.75"/>
<path d="M476.177 502V506.26" stroke="black" stroke-width="0.75"/>
<path d="M534.452 502V506.26" stroke="black" stroke-width="0.75"/>
<path d="M592.728 502V506.26" stroke="black" stroke-width="0.75"/>
<line x1="33.75" y1="471.25" x2="593.25" y2="471.25" stroke="#7B7B7B" stroke-opacity="0.5" stroke-width="0.75"/>
<line x1="33.75" y1="376.75" x2="593.25" y2="376.75" stroke="#7B7B7B" stroke-opacity="0.5" stroke-width="0.75"/>
<line x1="34.5" y1="283" x2="594" y2="283" stroke="#7B7B7B" stroke-opacity="0.5" stroke-width="0.75"/>
<line x1="33.75" y1="189.25" x2="593.25" y2="189.25" stroke="#7B7B7B" stroke-opacity="0.5" stroke-width="0.75"/>
<line x1="33.75" y1="114.25" x2="593.25" y2="114.25" stroke="#7B7B7B" stroke-opacity="0.5" stroke-width="0.75"/>
<path d="M67.5 108.625C70.6066 108.625 73.125 111.143 73.125 114.25C73.125 117.357 70.6066 119.875 67.5 119.875C64.3934 119.875 61.875 117.357 61.875 114.25C61.875 111.143 64.3934 108.625 67.5 108.625Z" fill="#449295"/>
<path d="M67.5 127.375C70.6066 127.375 73.125 129.893 73.125 133C73.125 136.107 70.6066 138.625 67.5 138.625C64.3934 138.625 61.875 136.107 61.875 133C61.875 129.893 64.3934 127.375 67.5 127.375Z" fill="#449295"/>
<path d="M67.5 146.125C70.6066 146.125 73.125 148.643 73.125 151.75C73.125 154.857 70.6066 157.375 67.5 157.375C64.3934 157.375 61.875 154.857 61.875 151.75C61.875 148.643 64.3934 146.125 67.5 146.125Z" fill="#449295"/>
<path d="M67.5 164.875C70.6066 164.875 73.125 167.393 73.125 170.5C73.125 173.607 70.6066 176.125 67.5 176.125C64.3934 176.125 61.875 173.607 61.875 170.5C61.875 167.393 64.3934 164.875 67.5 164.875Z" fill="#449295"/>
<path d="M67.5 183.625C70.6066 183.625 73.125 186.143 73.125 189.25C73.125 192.357 70.6066 194.875 67.5 194.875C64.3934 194.875 61.875 192.357 61.875 189.25C61.875 186.143 64.3934 183.625 67.5 183.625Z" fill="#449295"/>
<path d="M67.5 202.375C70.6066 202.375 73.125 204.893 73.125 208C73.125 211.107 70.6066 213.625 67.5 213.625C64.3934 213.625 61.875 211.107 61.875 208C61.875 204.893 64.3934 202.375 67.5 202.375Z" fill="#449295"/>
<path d="M67.5 221.125C70.6066 221.125 73.125 223.643 73.125 226.75C73.125 229.857 70.6066 232.375 67.5 232.375C64.3934 232.375 61.875 229.857 61.875 226.75C61.875 223.643 64.3934 221.125 67.5 221.125Z" fill="#449295"/>
<path d="M67.5 239.875C70.6066 239.875 73.125 242.393 73.125 245.5C73.125 248.607 70.6066 251.125 67.5 251.125C64.3934 251.125 61.875 248.607 61.875 245.5C61.875 242.393 64.3934 239.875 67.5 239.875Z" fill="#449295"/>
<path d="M67.5 258.625C70.6066 258.625 73.125 261.143 73.125 264.25C73.125 267.357 70.6066 269.875 67.5 269.875C64.3934 269.875 61.875 267.357 61.875 264.25C61.875 261.143 64.3934 258.625 67.5 258.625Z" fill="#449295"/>
<path d="M67.5 277.375C70.6066 277.375 73.125 279.893 73.125 283C73.125 286.107 70.6066 288.625 67.5 288.625C64.3934 288.625 61.875 286.107 61.875 283C61.875 279.893 64.3934 277.375 67.5 277.375Z" fill="#449295"/>
<path d="M67.5 296.125C70.6066 296.125 73.125 298.643 73.125 301.75C73.125 304.857 70.6066 307.375 67.5 307.375C64.3934 307.375 61.875 304.857 61.875 301.75C61.875 298.643 64.3934 296.125 67.5 296.125Z" fill="#449295"/>
<path d="M67.5 314.875C70.6066 314.875 73.125 317.393 73.125 320.5C73.125 323.607 70.6066 326.125 67.5 326.125C64.3934 326.125 61.875 323.607 61.875 320.5C61.875 317.393 64.3934 314.875 67.5 314.875Z" fill="#449295"/>
<path d="M67.5 333.625C70.6066 333.625 73.125 336.143 73.125 339.25C73.125 342.357 70.6066 344.875 67.5 344.875C64.3934 344.875 61.875 342.357 61.875 339.25C61.875 336.143 64.3934 333.625 67.5 333.625Z" fill="#EC9932"/>
<path d="M67.5 352.375C70.6066 352.375 73.125 354.893 73.125 358C73.125 361.107 70.6066 363.625 67.5 363.625C64.3934 363.625 61.875 361.107 61.875 358C61.875 354.893 64.3934 352.375 67.5 352.375Z" fill="#449295"/>
<path d="M67.5 371.125C70.6066 371.125 73.125 373.643 73.125 376.75C73.125 379.857 70.6066 382.375 67.5 382.375C64.3934 382.375 61.875 379.857 61.875 376.75C61.875 373.643 64.3934 371.125 67.5 371.125Z" fill="#449295"/>
<path d="M67.5 389.875C70.6066 389.875 73.125 392.393 73.125 395.5C73.125 398.607 70.6066 401.125 67.5 401.125C64.3934 401.125 61.875 398.607 61.875 395.5C61.875 392.393 64.3934 389.875 67.5 389.875Z" fill="#449295"/>
<path d="M67.5 408.625C70.6066 408.625 73.125 411.143 73.125 414.25C73.125 417.357 70.6066 419.875 67.5 419.875C64.3934 419.875 61.875 417.357 61.875 414.25C61.875 411.143 64.3934 408.625 67.5 408.625Z" fill="#449295"/>
<path d="M67.5 427.375C70.6066 427.375 73.125 429.893 73.125 433C73.125 436.107 70.6066 438.625 67.5 438.625C64.3934 438.625 61.875 436.107 61.875 433C61.875 429.893 64.3934 427.375 67.5 427.375Z" fill="#449295"/>
<path d="M67.5 446.125C70.6066 446.125 73.125 448.643 73.125 451.75C73.125 454.857 70.6066 457.375 67.5 457.375C64.3934 457.375 61.875 454.857 61.875 451.75C61.875 448.643 64.3934 446.125 67.5 446.125Z" fill="#EC9932"/>
<path d="M67.5 464.875C70.6066 464.875 73.125 467.393 73.125 470.5C73.125 473.607 70.6066 476.125 67.5 476.125C64.3934 476.125 61.875 473.607 61.875 470.5C61.875 467.393 64.3934 464.875 67.5 464.875Z" fill="#449295"/>
<path d="M126 108.625C129.107 108.625 131.625 111.143 131.625 114.25C131.625 117.357 129.107 119.875 126 119.875C122.893 119.875 120.375 117.357 120.375 114.25C120.375 111.143 122.893 108.625 126 108.625Z" fill="#449295"/>
<path d="M126 127.375C129.107 127.375 131.625 129.893 131.625 133C131.625 136.107 129.107 138.625 126 138.625C122.893 138.625 120.375 136.107 120.375 133C120.375 129.893 122.893 127.375 126 127.375Z" fill="#449295"/>
<path d="M126 146.125C129.107 146.125 131.625 148.643 131.625 151.75C131.625 154.857 129.107 157.375 126 157.375C122.893 157.375 120.375 154.857 120.375 151.75C120.375 148.643 122.893 146.125 126 146.125Z" fill="#449295"/>
<path d="M126 164.875C129.107 164.875 131.625 167.393 131.625 170.5C131.625 173.607 129.107 176.125 126 176.125C122.893 176.125 120.375 173.607 120.375 170.5C120.375 167.393 122.893 164.875 126 164.875Z" fill="#EC9932"/>
<path d="M126 183.625C129.107 183.625 131.625 186.143 131.625 189.25C131.625 192.357 129.107 194.875 126 194.875C122.893 194.875 120.375 192.357 120.375 189.25C120.375 186.143 122.893 183.625 126 183.625Z" fill="#449295"/>
<path d="M126 202.375C129.107 202.375 131.625 204.893 131.625 208C131.625 211.107 129.107 213.625 126 213.625C122.893 213.625 120.375 211.107 120.375 208C120.375 204.893 122.893 202.375 126 202.375Z" fill="#449295"/>
<path d="M126 221.125C129.107 221.125 131.625 223.643 131.625 226.75C131.625 229.857 129.107 232.375 126 232.375C122.893 232.375 120.375 229.857 120.375 226.75C120.375 223.643 122.893 221.125 126 221.125Z" fill="#449295"/>
<path d="M126 239.875C129.107 239.875 131.625 242.393 131.625 245.5C131.625 248.607 129.107 251.125 126 251.125C122.893 251.125 120.375 248.607 120.375 245.5C120.375 242.393 122.893 239.875 126 239.875Z" fill="#449295"/>
<path d="M126 258.625C129.107 258.625 131.625 261.143 131.625 264.25C131.625 267.357 129.107 269.875 126 269.875C122.893 269.875 120.375 267.357 120.375 264.25C120.375 261.143 122.893 258.625 126 258.625Z" fill="#449295"/>
<path d="M126 277.375C129.107 277.375 131.625 279.893 131.625 283C131.625 286.107 129.107 288.625 126 288.625C122.893 288.625 120.375 286.107 120.375 283C120.375 279.893 122.893 277.375 126 277.375Z" fill="#449295"/>
<path d="M126 296.125C129.107 296.125 131.625 298.643 131.625 301.75C131.625 304.857 129.107 307.375 126 307.375C122.893 307.375 120.375 304.857 120.375 301.75C120.375 298.643 122.893 296.125 126 296.125Z" fill="#449295"/>
<path d="M126 314.875C129.107 314.875 131.625 317.393 131.625 320.5C131.625 323.607 129.107 326.125 126 326.125C122.893 326.125 120.375 323.607 120.375 320.5C120.375 317.393 122.893 314.875 126 314.875Z" fill="#EC9932"/>
<path d="M126 333.625C129.107 333.625 131.625 336.143 131.625 339.25C131.625 342.357 129.107 344.875 126 344.875C122.893 344.875 120.375 342.357 120.375 339.25C120.375 336.143 122.893 333.625 126 333.625Z" fill="#EC9932"/>
<path d="M126 352.375C129.107 352.375 131.625 354.893 131.625 358C131.625 361.107 129.107 363.625 126 363.625C122.893 363.625 120.375 361.107 120.375 358C120.375 354.893 122.893 352.375 126 352.375Z" fill="#449295"/>
<path d="M126 371.125C129.107 371.125 131.625 373.643 131.625 376.75C131.625 379.857 129.107 382.375 126 382.375C122.893 382.375 120.375 379.857 120.375 376.75C120.375 373.643 122.893 371.125 126 371.125Z" fill="#449295"/>
<path d="M126 389.875C129.107 389.875 131.625 392.393 131.625 395.5C131.625 398.607 129.107 401.125 126 401.125C122.893 401.125 120.375 398.607 120.375 395.5C120.375 392.393 122.893 389.875 126 389.875Z" fill="#EC9932"/>
<path d="M126 408.625C129.107 408.625 131.625 411.143 131.625 414.25C131.625 417.357 129.107 419.875 126 419.875C122.893 419.875 120.375 417.357 120.375 414.25C120.375 411.143 122.893 408.625 126 408.625Z" fill="#449295"/>
<path d="M126 427.375C129.107 427.375 131.625 429.893 131.625 433C131.625 436.107 129.107 438.625 126 438.625C122.893 438.625 120.375 436.107 120.375 433C120.375 429.893 122.893 427.375 126 427.375Z" fill="#EC9932"/>
<path d="M126 446.125C129.107 446.125 131.625 448.643 131.625 451.75C131.625 454.857 129.107 457.375 126 457.375C122.893 457.375 120.375 454.857 120.375 451.75C120.375 448.643 122.893 446.125 126 446.125Z" fill="#449295"/>
<path d="M126 464.875C129.107 464.875 131.625 467.393 131.625 470.5C131.625 473.607 129.107 476.125 126 476.125C122.893 476.125 120.375 473.607 120.375 470.5C120.375 467.393 122.893 464.875 126 464.875Z" fill="#C368EB"/>
<path d="M184.5 108.625C187.607 108.625 190.125 111.143 190.125 114.25C190.125 117.357 187.607 119.875 184.5 119.875C181.393 119.875 178.875 117.357 178.875 114.25C178.875 111.143 181.393 108.625 184.5 108.625Z" fill="#449295"/>
<path d="M184.5 127.375C187.607 127.375 190.125 129.893 190.125 133C190.125 136.107 187.607 138.625 184.5 138.625C181.393 138.625 178.875 136.107 178.875 133C178.875 129.893 181.393 127.375 184.5 127.375Z" fill="#449295"/>
<path d="M184.5 146.125C187.607 146.125 190.125 148.643 190.125 151.75C190.125 154.857 187.607 157.375 184.5 157.375C181.393 157.375 178.875 154.857 178.875 151.75C178.875 148.643 181.393 146.125 184.5 146.125Z" fill="#449295"/>
<path d="M184.5 164.875C187.607 164.875 190.125 167.393 190.125 170.5C190.125 173.607 187.607 176.125 184.5 176.125C181.393 176.125 178.875 173.607 178.875 170.5C178.875 167.393 181.393 164.875 184.5 164.875Z" fill="#EC9932"/>
<path d="M184.5 183.625C187.607 183.625 190.125 186.143 190.125 189.25C190.125 192.357 187.607 194.875 184.5 194.875C181.393 194.875 178.875 192.357 178.875 189.25C178.875 186.143 181.393 183.625 184.5 183.625Z" fill="#EC9932"/>
<path d="M184.5 202.375C187.607 202.375 190.125 204.893 190.125 208C190.125 211.107 187.607 213.625 184.5 213.625C181.393 213.625 178.875 211.107 178.875 208C178.875 204.893 181.393 202.375 184.5 202.375Z" fill="#C368EB"/>
<path d="M184.5 221.125C187.607 221.125 190.125 223.643 190.125 226.75C190.125 229.857 187.607 232.375 184.5 232.375C181.393 232.375 178.875 229.857 178.875 226.75C178.875 223.643 181.393 221.125 184.5 221.125Z" fill="#EC9932"/>
<path d="M184.5 239.875C187.607 239.875 190.125 242.393 190.125 245.5C190.125 248.607 187.607 251.125 184.5 251.125C181.393 251.125 178.875 248.607 178.875 245.5C178.875 242.393 181.393 239.875 184.5 239.875Z" fill="#C368EB"/>
<path d="M184.5 258.625C187.607 258.625 190.125 261.143 190.125 264.25C190.125 267.357 187.607 269.875 184.5 269.875C181.393 269.875 178.875 267.357 178.875 264.25C178.875 261.143 181.393 258.625 184.5 258.625Z" fill="#449295"/>
<path d="M184.5 277.375C187.607 277.375 190.125 279.893 190.125 283C190.125 286.107 187.607 288.625 184.5 288.625C181.393 288.625 178.875 286.107 178.875 283C178.875 279.893 181.393 277.375 184.5 277.375Z" fill="#C368EB"/>
<path d="M184.5 296.125C187.607 296.125 190.125 298.643 190.125 301.75C190.125 304.857 187.607 307.375 184.5 307.375C181.393 307.375 178.875 304.857 178.875 301.75C178.875 298.643 181.393 296.125 184.5 296.125Z" fill="#EC9932"/>
<path d="M184.5 314.875C187.607 314.875 190.125 317.393 190.125 320.5C190.125 323.607 187.607 326.125 184.5 326.125C181.393 326.125 178.875 323.607 178.875 320.5C178.875 317.393 181.393 314.875 184.5 314.875Z" fill="#449295"/>
<path d="M184.5 333.625C187.607 333.625 190.125 336.143 190.125 339.25C190.125 342.357 187.607 344.875 184.5 344.875C181.393 344.875 178.875 342.357 178.875 339.25C178.875 336.143 181.393 333.625 184.5 333.625Z" fill="#449295"/>
<path d="M184.5 352.375C187.607 352.375 190.125 354.893 190.125 358C190.125 361.107 187.607 363.625 184.5 363.625C181.393 363.625 178.875 361.107 178.875 358C178.875 354.893 181.393 352.375 184.5 352.375Z" fill="#C368EB"/>
<path d="M184.5 371.125C187.607 371.125 190.125 373.643 190.125 376.75C190.125 379.857 187.607 382.375 184.5 382.375C181.393 382.375 178.875 379.857 178.875 376.75C178.875 373.643 181.393 371.125 184.5 371.125Z" fill="#449295"/>
<path d="M184.5 389.875C187.607 389.875 190.125 392.393 190.125 395.5C190.125 398.607 187.607 401.125 184.5 401.125C181.393 401.125 178.875 398.607 178.875 395.5C178.875 392.393 181.393 389.875 184.5 389.875Z" fill="#449295"/>
<path d="M184.5 408.625C187.607 408.625 190.125 411.143 190.125 414.25C190.125 417.357 187.607 419.875 184.5 419.875C181.393 419.875 178.875 417.357 178.875 414.25C178.875 411.143 181.393 408.625 184.5 408.625Z" fill="#EC9932"/>
<path d="M184.5 427.375C187.607 427.375 190.125 429.893 190.125 433C190.125 436.107 187.607 438.625 184.5 438.625C181.393 438.625 178.875 436.107 178.875 433C178.875 429.893 181.393 427.375 184.5 427.375Z" fill="#449295"/>
<path d="M184.5 446.125C187.607 446.125 190.125 448.643 190.125 451.75C190.125 454.857 187.607 457.375 184.5 457.375C181.393 457.375 178.875 454.857 178.875 451.75C178.875 448.643 181.393 446.125 184.5 446.125Z" fill="#449295"/>
<path d="M184.5 464.875C187.607 464.875 190.125 467.393 190.125 470.5C190.125 473.607 187.607 476.125 184.5 476.125C181.393 476.125 178.875 473.607 178.875 470.5C178.875 467.393 181.393 464.875 184.5 464.875Z" fill="#449295"/>
<path d="M242.25 108.625C245.357 108.625 247.875 111.143 247.875 114.25C247.875 117.357 245.357 119.875 242.25 119.875C239.143 119.875 236.625 117.357 236.625 114.25C236.625 111.143 239.143 108.625 242.25 108.625Z" fill="#C368EB"/>
<path d="M242.25 127.375C245.357 127.375 247.875 129.893 247.875 133C247.875 136.107 245.357 138.625 242.25 138.625C239.143 138.625 236.625 136.107 236.625 133C236.625 129.893 239.143 127.375 242.25 127.375Z" fill="#449295"/>
<path d="M242.25 146.125C245.357 146.125 247.875 148.643 247.875 151.75C247.875 154.857 245.357 157.375 242.25 157.375C239.143 157.375 236.625 154.857 236.625 151.75C236.625 148.643 239.143 146.125 242.25 146.125Z" fill="#449295"/>
<path d="M242.25 164.875C245.357 164.875 247.875 167.393 247.875 170.5C247.875 173.607 245.357 176.125 242.25 176.125C239.143 176.125 236.625 173.607 236.625 170.5C236.625 167.393 239.143 164.875 242.25 164.875Z" fill="#449295"/>
<path d="M242.25 183.625C245.357 183.625 247.875 186.143 247.875 189.25C247.875 192.357 245.357 194.875 242.25 194.875C239.143 194.875 236.625 192.357 236.625 189.25C236.625 186.143 239.143 183.625 242.25 183.625Z" fill="#449295"/>
<path d="M242.25 202.375C245.357 202.375 247.875 204.893 247.875 208C247.875 211.107 245.357 213.625 242.25 213.625C239.143 213.625 236.625 211.107 236.625 208C236.625 204.893 239.143 202.375 242.25 202.375Z" fill="#449295"/>
<path d="M242.25 221.125C245.357 221.125 247.875 223.643 247.875 226.75C247.875 229.857 245.357 232.375 242.25 232.375C239.143 232.375 236.625 229.857 236.625 226.75C236.625 223.643 239.143 221.125 242.25 221.125Z" fill="#449295"/>
<path d="M242.25 239.875C245.357 239.875 247.875 242.393 247.875 245.5C247.875 248.607 245.357 251.125 242.25 251.125C239.143 251.125 236.625 248.607 236.625 245.5C236.625 242.393 239.143 239.875 242.25 239.875Z" fill="#449295"/>
<path d="M242.25 258.625C245.357 258.625 247.875 261.143 247.875 264.25C247.875 267.357 245.357 269.875 242.25 269.875C239.143 269.875 236.625 267.357 236.625 264.25C236.625 261.143 239.143 258.625 242.25 258.625Z" fill="#449295"/>
<path d="M242.25 277.375C245.357 277.375 247.875 279.893 247.875 283C247.875 286.107 245.357 288.625 242.25 288.625C239.143 288.625 236.625 286.107 236.625 283C236.625 279.893 239.143 277.375 242.25 277.375Z" fill="#EC9932"/>
<path d="M242.25 296.125C245.357 296.125 247.875 298.643 247.875 301.75C247.875 304.857 245.357 307.375 242.25 307.375C239.143 307.375 236.625 304.857 236.625 301.75C236.625 298.643 239.143 296.125 242.25 296.125Z" fill="#C368EB"/>
<path d="M242.25 314.875C245.357 314.875 247.875 317.393 247.875 320.5C247.875 323.607 245.357 326.125 242.25 326.125C239.143 326.125 236.625 323.607 236.625 320.5C236.625 317.393 239.143 314.875 242.25 314.875Z" fill="#EC9932"/>
<path d="M242.25 333.625C245.357 333.625 247.875 336.143 247.875 339.25C247.875 342.357 245.357 344.875 242.25 344.875C239.143 344.875 236.625 342.357 236.625 339.25C236.625 336.143 239.143 333.625 242.25 333.625Z" fill="#EC9932"/>
<path d="M242.25 352.375C245.357 352.375 247.875 354.893 247.875 358C247.875 361.107 245.357 363.625 242.25 363.625C239.143 363.625 236.625 361.107 236.625 358C236.625 354.893 239.143 352.375 242.25 352.375Z" fill="#EC9932"/>
<path d="M242.25 371.125C245.357 371.125 247.875 373.643 247.875 376.75C247.875 379.857 245.357 382.375 242.25 382.375C239.143 382.375 236.625 379.857 236.625 376.75C236.625 373.643 239.143 371.125 242.25 371.125Z" fill="#EC9932"/>
<path d="M242.25 389.875C245.357 389.875 247.875 392.393 247.875 395.5C247.875 398.607 245.357 401.125 242.25 401.125C239.143 401.125 236.625 398.607 236.625 395.5C236.625 392.393 239.143 389.875 242.25 389.875Z" fill="#EC9932"/>
<path d="M242.25 408.625C245.357 408.625 247.875 411.143 247.875 414.25C247.875 417.357 245.357 419.875 242.25 419.875C239.143 419.875 236.625 417.357 236.625 414.25C236.625 411.143 239.143 408.625 242.25 408.625Z" fill="#449295"/>
<path d="M242.25 427.375C245.357 427.375 247.875 429.893 247.875 433C247.875 436.107 245.357 438.625 242.25 438.625C239.143 438.625 236.625 436.107 236.625 433C236.625 429.893 239.143 427.375 242.25 427.375Z" fill="#EC9932"/>
<path d="M242.25 446.125C245.357 446.125 247.875 448.643 247.875 451.75C247.875 454.857 245.357 457.375 242.25 457.375C239.143 457.375 236.625 454.857 236.625 451.75C236.625 448.643 239.143 446.125 242.25 446.125Z" fill="#EC9932"/>
<path d="M242.25 464.875C245.357 464.875 247.875 467.393 247.875 470.5C247.875 473.607 245.357 476.125 242.25 476.125C239.143 476.125 236.625 473.607 236.625 470.5C236.625 467.393 239.143 464.875 242.25 464.875Z" fill="#449295"/>
<path d="M300.75 108.625C303.857 108.625 306.375 111.143 306.375 114.25C306.375 117.357 303.857 119.875 300.75 119.875C297.643 119.875 295.125 117.357 295.125 114.25C295.125 111.143 297.643 108.625 300.75 108.625Z" fill="#449295"/>
<path d="M300.75 127.375C303.857 127.375 306.375 129.893 306.375 133C306.375 136.107 303.857 138.625 300.75 138.625C297.643 138.625 295.125 136.107 295.125 133C295.125 129.893 297.643 127.375 300.75 127.375Z" fill="#449295"/>
<path d="M300.75 146.125C303.857 146.125 306.375 148.643 306.375 151.75C306.375 154.857 303.857 157.375 300.75 157.375C297.643 157.375 295.125 154.857 295.125 151.75C295.125 148.643 297.643 146.125 300.75 146.125Z" fill="#449295"/>
<path d="M300.75 164.875C303.857 164.875 306.375 167.393 306.375 170.5C306.375 173.607 303.857 176.125 300.75 176.125C297.643 176.125 295.125 173.607 295.125 170.5C295.125 167.393 297.643 164.875 300.75 164.875Z" fill="#449295"/>
<path d="M300.75 183.625C303.857 183.625 306.375 186.143 306.375 189.25C306.375 192.357 303.857 194.875 300.75 194.875C297.643 194.875 295.125 192.357 295.125 189.25C295.125 186.143 297.643 183.625 300.75 183.625Z" fill="#449295"/>
<path d="M300.75 202.375C303.857 202.375 306.375 204.893 306.375 208C306.375 211.107 303.857 213.625 300.75 213.625C297.643 213.625 295.125 211.107 295.125 208C295.125 204.893 297.643 202.375 300.75 202.375Z" fill="#C368EB"/>
<path d="M300.75 221.125C303.857 221.125 306.375 223.643 306.375 226.75C306.375 229.857 303.857 232.375 300.75 232.375C297.643 232.375 295.125 229.857 295.125 226.75C295.125 223.643 297.643 221.125 300.75 221.125Z" fill="#449295"/>
<path d="M300.75 239.875C303.857 239.875 306.375 242.393 306.375 245.5C306.375 248.607 303.857 251.125 300.75 251.125C297.643 251.125 295.125 248.607 295.125 245.5C295.125 242.393 297.643 239.875 300.75 239.875Z" fill="#449295"/>
<path d="M300.75 258.625C303.857 258.625 306.375 261.143 306.375 264.25C306.375 267.357 303.857 269.875 300.75 269.875C297.643 269.875 295.125 267.357 295.125 264.25C295.125 261.143 297.643 258.625 300.75 258.625Z" fill="#C368EB"/>
<path d="M300.75 277.375C303.857 277.375 306.375 279.893 306.375 283C306.375 286.107 303.857 288.625 300.75 288.625C297.643 288.625 295.125 286.107 295.125 283C295.125 279.893 297.643 277.375 300.75 277.375Z" fill="#C368EB"/>
<path d="M300.75 296.125C303.857 296.125 306.375 298.643 306.375 301.75C306.375 304.857 303.857 307.375 300.75 307.375C297.643 307.375 295.125 304.857 295.125 301.75C295.125 298.643 297.643 296.125 300.75 296.125Z" fill="#449295"/>
<path d="M300.75 314.875C303.857 314.875 306.375 317.393 306.375 320.5C306.375 323.607 303.857 326.125 300.75 326.125C297.643 326.125 295.125 323.607 295.125 320.5C295.125 317.393 297.643 314.875 300.75 314.875Z" fill="#449295"/>
<path d="M300.75 333.625C303.857 333.625 306.375 336.143 306.375 339.25C306.375 342.357 303.857 344.875 300.75 344.875C297.643 344.875 295.125 342.357 295.125 339.25C295.125 336.143 297.643 333.625 300.75 333.625Z" fill="#EC9932"/>
<path d="M300.75 352.375C303.857 352.375 306.375 354.893 306.375 358C306.375 361.107 303.857 363.625 300.75 363.625C297.643 363.625 295.125 361.107 295.125 358C295.125 354.893 297.643 352.375 300.75 352.375Z" fill="#449295"/>
<path d="M300.75 371.125C303.857 371.125 306.375 373.643 306.375 376.75C306.375 379.857 303.857 382.375 300.75 382.375C297.643 382.375 295.125 379.857 295.125 376.75C295.125 373.643 297.643 371.125 300.75 371.125Z" fill="#EC9932"/>
<path d="M300.75 389.875C303.857 389.875 306.375 392.393 306.375 395.5C306.375 398.607 303.857 401.125 300.75 401.125C297.643 401.125 295.125 398.607 295.125 395.5C295.125 392.393 297.643 389.875 300.75 389.875Z" fill="#EC9932"/>
<path d="M300.75 408.625C303.857 408.625 306.375 411.143 306.375 414.25C306.375 417.357 303.857 419.875 300.75 419.875C297.643 419.875 295.125 417.357 295.125 414.25C295.125 411.143 297.643 408.625 300.75 408.625Z" fill="#EC9932"/>
<path d="M300.75 427.375C303.857 427.375 306.375 429.893 306.375 433C306.375 436.107 303.857 438.625 300.75 438.625C297.643 438.625 295.125 436.107 295.125 433C295.125 429.893 297.643 427.375 300.75 427.375Z" fill="#C368EB"/>
<path d="M300.75 446.125C303.857 446.125 306.375 448.643 306.375 451.75C306.375 454.857 303.857 457.375 300.75 457.375C297.643 457.375 295.125 454.857 295.125 451.75C295.125 448.643 297.643 446.125 300.75 446.125Z" fill="#EC9932"/>
<path d="M300.75 464.875C303.857 464.875 306.375 467.393 306.375 470.5C306.375 473.607 303.857 476.125 300.75 476.125C297.643 476.125 295.125 473.607 295.125 470.5C295.125 467.393 297.643 464.875 300.75 464.875Z" fill="#449295"/>
<path d="M359.25 108.625C362.357 108.625 364.875 111.143 364.875 114.25C364.875 117.357 362.357 119.875 359.25 119.875C356.143 119.875 353.625 117.357 353.625 114.25C353.625 111.143 356.143 108.625 359.25 108.625Z" fill="#449295"/>
<path d="M359.25 127.375C362.357 127.375 364.875 129.893 364.875 133C364.875 136.107 362.357 138.625 359.25 138.625C356.143 138.625 353.625 136.107 353.625 133C353.625 129.893 356.143 127.375 359.25 127.375Z" fill="#EC9932"/>
<path d="M359.25 146.125C362.357 146.125 364.875 148.643 364.875 151.75C364.875 154.857 362.357 157.375 359.25 157.375C356.143 157.375 353.625 154.857 353.625 151.75C353.625 148.643 356.143 146.125 359.25 146.125Z" fill="#449295"/>
<path d="M359.25 164.875C362.357 164.875 364.875 167.393 364.875 170.5C364.875 173.607 362.357 176.125 359.25 176.125C356.143 176.125 353.625 173.607 353.625 170.5C353.625 167.393 356.143 164.875 359.25 164.875Z" fill="#449295"/>
<path d="M359.25 183.625C362.357 183.625 364.875 186.143 364.875 189.25C364.875 192.357 362.357 194.875 359.25 194.875C356.143 194.875 353.625 192.357 353.625 189.25C353.625 186.143 356.143 183.625 359.25 183.625Z" fill="#449295"/>
<path d="M359.25 202.375C362.357 202.375 364.875 204.893 364.875 208C364.875 211.107 362.357 213.625 359.25 213.625C356.143 213.625 353.625 211.107 353.625 208C353.625 204.893 356.143 202.375 359.25 202.375Z" fill="#449295"/>
<path d="M359.25 221.125C362.357 221.125 364.875 223.643 364.875 226.75C364.875 229.857 362.357 232.375 359.25 232.375C356.143 232.375 353.625 229.857 353.625 226.75C353.625 223.643 356.143 221.125 359.25 221.125Z" fill="#EC9932"/>
<path d="M359.25 239.875C362.357 239.875 364.875 242.393 364.875 245.5C364.875 248.607 362.357 251.125 359.25 251.125C356.143 251.125 353.625 248.607 353.625 245.5C353.625 242.393 356.143 239.875 359.25 239.875Z" fill="#449295"/>
<path d="M359.25 258.625C362.357 258.625 364.875 261.143 364.875 264.25C364.875 267.357 362.357 269.875 359.25 269.875C356.143 269.875 353.625 267.357 353.625 264.25C353.625 261.143 356.143 258.625 359.25 258.625Z" fill="#449295"/>
<path d="M359.25 277.375C362.357 277.375 364.875 279.893 364.875 283C364.875 286.107 362.357 288.625 359.25 288.625C356.143 288.625 353.625 286.107 353.625 283C353.625 279.893 356.143 277.375 359.25 277.375Z" fill="#449295"/>
<path d="M359.25 296.125C362.357 296.125 364.875 298.643 364.875 301.75C364.875 304.857 362.357 307.375 359.25 307.375C356.143 307.375 353.625 304.857 353.625 301.75C353.625 298.643 356.143 296.125 359.25 296.125Z" fill="#449295"/>
<path d="M359.25 314.875C362.357 314.875 364.875 317.393 364.875 320.5C364.875 323.607 362.357 326.125 359.25 326.125C356.143 326.125 353.625 323.607 353.625 320.5C353.625 317.393 356.143 314.875 359.25 314.875Z" fill="#C368EB"/>
<path d="M359.25 333.625C362.357 333.625 364.875 336.143 364.875 339.25C364.875 342.357 362.357 344.875 359.25 344.875C356.143 344.875 353.625 342.357 353.625 339.25C353.625 336.143 356.143 333.625 359.25 333.625Z" fill="#C368EB"/>
<path d="M359.25 352.375C362.357 352.375 364.875 354.893 364.875 358C364.875 361.107 362.357 363.625 359.25 363.625C356.143 363.625 353.625 361.107 353.625 358C353.625 354.893 356.143 352.375 359.25 352.375Z" fill="#449295"/>
<path d="M359.25 371.125C362.357 371.125 364.875 373.643 364.875 376.75C364.875 379.857 362.357 382.375 359.25 382.375C356.143 382.375 353.625 379.857 353.625 376.75C353.625 373.643 356.143 371.125 359.25 371.125Z" fill="#C368EB"/>
<path d="M359.25 389.875C362.357 389.875 364.875 392.393 364.875 395.5C364.875 398.607 362.357 401.125 359.25 401.125C356.143 401.125 353.625 398.607 353.625 395.5C353.625 392.393 356.143 389.875 359.25 389.875Z" fill="#449295"/>
<path d="M359.25 408.625C362.357 408.625 364.875 411.143 364.875 414.25C364.875 417.357 362.357 419.875 359.25 419.875C356.143 419.875 353.625 417.357 353.625 414.25C353.625 411.143 356.143 408.625 359.25 408.625Z" fill="#449295"/>
<path d="M359.25 427.375C362.357 427.375 364.875 429.893 364.875 433C364.875 436.107 362.357 438.625 359.25 438.625C356.143 438.625 353.625 436.107 353.625 433C353.625 429.893 356.143 427.375 359.25 427.375Z" fill="#449295"/>
<path d="M359.25 446.125C362.357 446.125 364.875 448.643 364.875 451.75C364.875 454.857 362.357 457.375 359.25 457.375C356.143 457.375 353.625 454.857 353.625 451.75C353.625 448.643 356.143 446.125 359.25 446.125Z" fill="#449295"/>
<path d="M359.25 464.875C362.357 464.875 364.875 467.393 364.875 470.5C364.875 473.607 362.357 476.125 359.25 476.125C356.143 476.125 353.625 473.607 353.625 470.5C353.625 467.393 356.143 464.875 359.25 464.875Z" fill="#EC9932"/>
<path d="M417.75 108.625C420.857 108.625 423.375 111.143 423.375 114.25C423.375 117.357 420.857 119.875 417.75 119.875C414.643 119.875 412.125 117.357 412.125 114.25C412.125 111.143 414.643 108.625 417.75 108.625Z" fill="#449295"/>
<path d="M417.75 127.375C420.857 127.375 423.375 129.893 423.375 133C423.375 136.107 420.857 138.625 417.75 138.625C414.643 138.625 412.125 136.107 412.125 133C412.125 129.893 414.643 127.375 417.75 127.375Z" fill="#449295"/>
<path d="M417.75 146.125C420.857 146.125 423.375 148.643 423.375 151.75C423.375 154.857 420.857 157.375 417.75 157.375C414.643 157.375 412.125 154.857 412.125 151.75C412.125 148.643 414.643 146.125 417.75 146.125Z" fill="#C368EB"/>
<path d="M417.75 164.875C420.857 164.875 423.375 167.393 423.375 170.5C423.375 173.607 420.857 176.125 417.75 176.125C414.643 176.125 412.125 173.607 412.125 170.5C412.125 167.393 414.643 164.875 417.75 164.875Z" fill="#449295"/>
<path d="M417.75 183.625C420.857 183.625 423.375 186.143 423.375 189.25C423.375 192.357 420.857 194.875 417.75 194.875C414.643 194.875 412.125 192.357 412.125 189.25C412.125 186.143 414.643 183.625 417.75 183.625Z" fill="#449295"/>
<path d="M417.75 202.375C420.857 202.375 423.375 204.893 423.375 208C423.375 211.107 420.857 213.625 417.75 213.625C414.643 213.625 412.125 211.107 412.125 208C412.125 204.893 414.643 202.375 417.75 202.375Z" fill="#449295"/>
<path d="M417.75 221.125C420.857 221.125 423.375 223.643 423.375 226.75C423.375 229.857 420.857 232.375 417.75 232.375C414.643 232.375 412.125 229.857 412.125 226.75C412.125 223.643 414.643 221.125 417.75 221.125Z" fill="#EC9932"/>
<path d="M417.75 239.875C420.857 239.875 423.375 242.393 423.375 245.5C423.375 248.607 420.857 251.125 417.75 251.125C414.643 251.125 412.125 248.607 412.125 245.5C412.125 242.393 414.643 239.875 417.75 239.875Z" fill="#449295"/>
<path d="M417.75 258.625C420.857 258.625 423.375 261.143 423.375 264.25C423.375 267.357 420.857 269.875 417.75 269.875C414.643 269.875 412.125 267.357 412.125 264.25C412.125 261.143 414.643 258.625 417.75 258.625Z" fill="#EC9932"/>
<path d="M417.75 277.375C420.857 277.375 423.375 279.893 423.375 283C423.375 286.107 420.857 288.625 417.75 288.625C414.643 288.625 412.125 286.107 412.125 283C412.125 279.893 414.643 277.375 417.75 277.375Z" fill="#449295"/>
<path d="M417.75 296.125C420.857 296.125 423.375 298.643 423.375 301.75C423.375 304.857 420.857 307.375 417.75 307.375C414.643 307.375 412.125 304.857 412.125 301.75C412.125 298.643 414.643 296.125 417.75 296.125Z" fill="#EC9932"/>
<path d="M417.75 314.875C420.857 314.875 423.375 317.393 423.375 320.5C423.375 323.607 420.857 326.125 417.75 326.125C414.643 326.125 412.125 323.607 412.125 320.5C412.125 317.393 414.643 314.875 417.75 314.875Z" fill="#C368EB"/>
<path d="M417.75 333.625C420.857 333.625 423.375 336.143 423.375 339.25C423.375 342.357 420.857 344.875 417.75 344.875C414.643 344.875 412.125 342.357 412.125 339.25C412.125 336.143 414.643 333.625 417.75 333.625Z" fill="#C368EB"/>
<path d="M417.75 352.375C420.857 352.375 423.375 354.893 423.375 358C423.375 361.107 420.857 363.625 417.75 363.625C414.643 363.625 412.125 361.107 412.125 358C412.125 354.893 414.643 352.375 417.75 352.375Z" fill="#449295"/>
<path d="M417.75 371.125C420.857 371.125 423.375 373.643 423.375 376.75C423.375 379.857 420.857 382.375 417.75 382.375C414.643 382.375 412.125 379.857 412.125 376.75C412.125 373.643 414.643 371.125 417.75 371.125Z" fill="#C368EB"/>
<path d="M417.75 389.875C420.857 389.875 423.375 392.393 423.375 395.5C423.375 398.607 420.857 401.125 417.75 401.125C414.643 401.125 412.125 398.607 412.125 395.5C412.125 392.393 414.643 389.875 417.75 389.875Z" fill="#449295"/>
<path d="M417.75 408.625C420.857 408.625 423.375 411.143 423.375 414.25C423.375 417.357 420.857 419.875 417.75 419.875C414.643 419.875 412.125 417.357 412.125 414.25C412.125 411.143 414.643 408.625 417.75 408.625Z" fill="#EC9932"/>
<path d="M417.75 427.375C420.857 427.375 423.375 429.893 423.375 433C423.375 436.107 420.857 438.625 417.75 438.625C414.643 438.625 412.125 436.107 412.125 433C412.125 429.893 414.643 427.375 417.75 427.375Z" fill="#449295"/>
<path d="M417.75 446.125C420.857 446.125 423.375 448.643 423.375 451.75C423.375 454.857 420.857 457.375 417.75 457.375C414.643 457.375 412.125 454.857 412.125 451.75C412.125 448.643 414.643 446.125 417.75 446.125Z" fill="#449295"/>
<path d="M417.75 464.875C420.857 464.875 423.375 467.393 423.375 470.5C423.375 473.607 420.857 476.125 417.75 476.125C414.643 476.125 412.125 473.607 412.125 470.5C412.125 467.393 414.643 464.875 417.75 464.875Z" fill="#449295"/>
<path d="M475.5 108.625C478.607 108.625 481.125 111.143 481.125 114.25C481.125 117.357 478.607 119.875 475.5 119.875C472.393 119.875 469.875 117.357 469.875 114.25C469.875 111.143 472.393 108.625 475.5 108.625Z" fill="#EC9932"/>
<path d="M475.5 127.375C478.607 127.375 481.125 129.893 481.125 133C481.125 136.107 478.607 138.625 475.5 138.625C472.393 138.625 469.875 136.107 469.875 133C469.875 129.893 472.393 127.375 475.5 127.375Z" fill="#C368EB"/>
<path d="M475.5 146.125C478.607 146.125 481.125 148.643 481.125 151.75C481.125 154.857 478.607 157.375 475.5 157.375C472.393 157.375 469.875 154.857 469.875 151.75C469.875 148.643 472.393 146.125 475.5 146.125Z" fill="#449295"/>
<path d="M475.5 164.875C478.607 164.875 481.125 167.393 481.125 170.5C481.125 173.607 478.607 176.125 475.5 176.125C472.393 176.125 469.875 173.607 469.875 170.5C469.875 167.393 472.393 164.875 475.5 164.875Z" fill="#449295"/>
<path d="M475.5 183.625C478.607 183.625 481.125 186.143 481.125 189.25C481.125 192.357 478.607 194.875 475.5 194.875C472.393 194.875 469.875 192.357 469.875 189.25C469.875 186.143 472.393 183.625 475.5 183.625Z" fill="#449295"/>
<path d="M475.5 202.375C478.607 202.375 481.125 204.893 481.125 208C481.125 211.107 478.607 213.625 475.5 213.625C472.393 213.625 469.875 211.107 469.875 208C469.875 204.893 472.393 202.375 475.5 202.375Z" fill="#449295"/>
<path d="M475.5 221.125C478.607 221.125 481.125 223.643 481.125 226.75C481.125 229.857 478.607 232.375 475.5 232.375C472.393 232.375 469.875 229.857 469.875 226.75C469.875 223.643 472.393 221.125 475.5 221.125Z" fill="#C368EB"/>
<path d="M475.5 239.875C478.607 239.875 481.125 242.393 481.125 245.5C481.125 248.607 478.607 251.125 475.5 251.125C472.393 251.125 469.875 248.607 469.875 245.5C469.875 242.393 472.393 239.875 475.5 239.875Z" fill="#C368EB"/>
<path d="M475.5 258.625C478.607 258.625 481.125 261.143 481.125 264.25C481.125 267.357 478.607 269.875 475.5 269.875C472.393 269.875 469.875 267.357 469.875 264.25C469.875 261.143 472.393 258.625 475.5 258.625Z" fill="#449295"/>
<path d="M475.5 277.375C478.607 277.375 481.125 279.893 481.125 283C481.125 286.107 478.607 288.625 475.5 288.625C472.393 288.625 469.875 286.107 469.875 283C469.875 279.893 472.393 277.375 475.5 277.375Z" fill="#449295"/>
<path d="M475.5 296.125C478.607 296.125 481.125 298.643 481.125 301.75C481.125 304.857 478.607 307.375 475.5 307.375C472.393 307.375 469.875 304.857 469.875 301.75C469.875 298.643 472.393 296.125 475.5 296.125Z" fill="#449295"/>
<path d="M475.5 314.875C478.607 314.875 481.125 317.393 481.125 320.5C481.125 323.607 478.607 326.125 475.5 326.125C472.393 326.125 469.875 323.607 469.875 320.5C469.875 317.393 472.393 314.875 475.5 314.875Z" fill="#C368EB"/>
<path d="M475.5 333.625C478.607 333.625 481.125 336.143 481.125 339.25C481.125 342.357 478.607 344.875 475.5 344.875C472.393 344.875 469.875 342.357 469.875 339.25C469.875 336.143 472.393 333.625 475.5 333.625Z" fill="#449295"/>
<path d="M475.5 352.375C478.607 352.375 481.125 354.893 481.125 358C481.125 361.107 478.607 363.625 475.5 363.625C472.393 363.625 469.875 361.107 469.875 358C469.875 354.893 472.393 352.375 475.5 352.375Z" fill="#449295"/>
<path d="M475.5 371.125C478.607 371.125 481.125 373.643 481.125 376.75C481.125 379.857 478.607 382.375 475.5 382.375C472.393 382.375 469.875 379.857 469.875 376.75C469.875 373.643 472.393 371.125 475.5 371.125Z" fill="#449295"/>
<path d="M475.5 389.875C478.607 389.875 481.125 392.393 481.125 395.5C481.125 398.607 478.607 401.125 475.5 401.125C472.393 401.125 469.875 398.607 469.875 395.5C469.875 392.393 472.393 389.875 475.5 389.875Z" fill="#449295"/>
<path d="M475.5 408.625C478.607 408.625 481.125 411.143 481.125 414.25C481.125 417.357 478.607 419.875 475.5 419.875C472.393 419.875 469.875 417.357 469.875 414.25C469.875 411.143 472.393 408.625 475.5 408.625Z" fill="#449295"/>
<path d="M475.5 427.375C478.607 427.375 481.125 429.893 481.125 433C481.125 436.107 478.607 438.625 475.5 438.625C472.393 438.625 469.875 436.107 469.875 433C469.875 429.893 472.393 427.375 475.5 427.375Z" fill="#449295"/>
<path d="M475.5 446.125C478.607 446.125 481.125 448.643 481.125 451.75C481.125 454.857 478.607 457.375 475.5 457.375C472.393 457.375 469.875 454.857 469.875 451.75C469.875 448.643 472.393 446.125 475.5 446.125Z" fill="#EC9932"/>
<path d="M475.5 464.875C478.607 464.875 481.125 467.393 481.125 470.5C481.125 473.607 478.607 476.125 475.5 476.125C472.393 476.125 469.875 473.607 469.875 470.5C469.875 467.393 472.393 464.875 475.5 464.875Z" fill="#449295"/>
<path d="M534 108.625C537.107 108.625 539.625 111.143 539.625 114.25C539.625 117.357 537.107 119.875 534 119.875C530.893 119.875 528.375 117.357 528.375 114.25C528.375 111.143 530.893 108.625 534 108.625Z" fill="#449295"/>
<path d="M534 127.375C537.107 127.375 539.625 129.893 539.625 133C539.625 136.107 537.107 138.625 534 138.625C530.893 138.625 528.375 136.107 528.375 133C528.375 129.893 530.893 127.375 534 127.375Z" fill="#C368EB"/>
<path d="M534 146.125C537.107 146.125 539.625 148.643 539.625 151.75C539.625 154.857 537.107 157.375 534 157.375C530.893 157.375 528.375 154.857 528.375 151.75C528.375 148.643 530.893 146.125 534 146.125Z" fill="#449295"/>
<path d="M534 164.875C537.107 164.875 539.625 167.393 539.625 170.5C539.625 173.607 537.107 176.125 534 176.125C530.893 176.125 528.375 173.607 528.375 170.5C528.375 167.393 530.893 164.875 534 164.875Z" fill="#449295"/>
<path d="M534 183.625C537.107 183.625 539.625 186.143 539.625 189.25C539.625 192.357 537.107 194.875 534 194.875C530.893 194.875 528.375 192.357 528.375 189.25C528.375 186.143 530.893 183.625 534 183.625Z" fill="#449295"/>
<path d="M534 202.375C537.107 202.375 539.625 204.893 539.625 208C539.625 211.107 537.107 213.625 534 213.625C530.893 213.625 528.375 211.107 528.375 208C528.375 204.893 530.893 202.375 534 202.375Z" fill="#449295"/>
<path d="M534 221.125C537.107 221.125 539.625 223.643 539.625 226.75C539.625 229.857 537.107 232.375 534 232.375C530.893 232.375 528.375 229.857 528.375 226.75C528.375 223.643 530.893 221.125 534 221.125Z" fill="#C368EB"/>
<path d="M534 239.875C537.107 239.875 539.625 242.393 539.625 245.5C539.625 248.607 537.107 251.125 534 251.125C530.893 251.125 528.375 248.607 528.375 245.5C528.375 242.393 530.893 239.875 534 239.875Z" fill="#449295"/>
<path d="M534 258.625C537.107 258.625 539.625 261.143 539.625 264.25C539.625 267.357 537.107 269.875 534 269.875C530.893 269.875 528.375 267.357 528.375 264.25C528.375 261.143 530.893 258.625 534 258.625Z" fill="#C368EB"/>
<path d="M534 277.375C537.107 277.375 539.625 279.893 539.625 283C539.625 286.107 537.107 288.625 534 288.625C530.893 288.625 528.375 286.107 528.375 283C528.375 279.893 530.893 277.375 534 277.375Z" fill="#449295"/>
<path d="M534 296.125C537.107 296.125 539.625 298.643 539.625 301.75C539.625 304.857 537.107 307.375 534 307.375C530.893 307.375 528.375 304.857 528.375 301.75C528.375 298.643 530.893 296.125 534 296.125Z" fill="#449295"/>
<path d="M534 314.875C537.107 314.875 539.625 317.393 539.625 320.5C539.625 323.607 537.107 326.125 534 326.125C530.893 326.125 528.375 323.607 528.375 320.5C528.375 317.393 530.893 314.875 534 314.875Z" fill="#C368EB"/>
<path d="M534 333.625C537.107 333.625 539.625 336.143 539.625 339.25C539.625 342.357 537.107 344.875 534 344.875C530.893 344.875 528.375 342.357 528.375 339.25C528.375 336.143 530.893 333.625 534 333.625Z" fill="#449295"/>
<path d="M534 352.375C537.107 352.375 539.625 354.893 539.625 358C539.625 361.107 537.107 363.625 534 363.625C530.893 363.625 528.375 361.107 528.375 358C528.375 354.893 530.893 352.375 534 352.375Z" fill="#449295"/>
<path d="M534 371.125C537.107 371.125 539.625 373.643 539.625 376.75C539.625 379.857 537.107 382.375 534 382.375C530.893 382.375 528.375 379.857 528.375 376.75C528.375 373.643 530.893 371.125 534 371.125Z" fill="#449295"/>
<path d="M534 389.875C537.107 389.875 539.625 392.393 539.625 395.5C539.625 398.607 537.107 401.125 534 401.125C530.893 401.125 528.375 398.607 528.375 395.5C528.375 392.393 530.893 389.875 534 389.875Z" fill="#449295"/>
<path d="M534 408.625C537.107 408.625 539.625 411.143 539.625 414.25C539.625 417.357 537.107 419.875 534 419.875C530.893 419.875 528.375 417.357 528.375 414.25C528.375 411.143 530.893 408.625 534 408.625Z" fill="#C368EB"/>
<path d="M534 427.375C537.107 427.375 539.625 429.893 539.625 433C539.625 436.107 537.107 438.625 534 438.625C530.893 438.625 528.375 436.107 528.375 433C528.375 429.893 530.893 427.375 534 427.375Z" fill="#449295"/>
<path d="M534 446.125C537.107 446.125 539.625 448.643 539.625 451.75C539.625 454.857 537.107 457.375 534 457.375C530.893 457.375 528.375 454.857 528.375 451.75C528.375 448.643 530.893 446.125 534 446.125Z" fill="#449295"/>
<path d="M534 464.875C537.107 464.875 539.625 467.393 539.625 470.5C539.625 473.607 537.107 476.125 534 476.125C530.893 476.125 528.375 473.607 528.375 470.5C528.375 467.393 530.893 464.875 534 464.875Z" fill="#449295"/>
<path d="M592.5 108.625C595.607 108.625 598.125 111.143 598.125 114.25C598.125 117.357 595.607 119.875 592.5 119.875C589.393 119.875 586.875 117.357 586.875 114.25C586.875 111.143 589.393 108.625 592.5 108.625Z" fill="#449295"/>
<path d="M592.5 127.375C595.607 127.375 598.125 129.893 598.125 133C598.125 136.107 595.607 138.625 592.5 138.625C589.393 138.625 586.875 136.107 586.875 133C586.875 129.893 589.393 127.375 592.5 127.375Z" fill="#449295"/>
<path d="M592.5 146.125C595.607 146.125 598.125 148.643 598.125 151.75C598.125 154.857 595.607 157.375 592.5 157.375C589.393 157.375 586.875 154.857 586.875 151.75C586.875 148.643 589.393 146.125 592.5 146.125Z" fill="#449295"/>
<path d="M592.5 164.875C595.607 164.875 598.125 167.393 598.125 170.5C598.125 173.607 595.607 176.125 592.5 176.125C589.393 176.125 586.875 173.607 586.875 170.5C586.875 167.393 589.393 164.875 592.5 164.875Z" fill="#449295"/>
<path d="M592.5 183.625C595.607 183.625 598.125 186.143 598.125 189.25C598.125 192.357 595.607 194.875 592.5 194.875C589.393 194.875 586.875 192.357 586.875 189.25C586.875 186.143 589.393 183.625 592.5 183.625Z" fill="#C368EB"/>
<path d="M592.5 202.375C595.607 202.375 598.125 204.893 598.125 208C598.125 211.107 595.607 213.625 592.5 213.625C589.393 213.625 586.875 211.107 586.875 208C586.875 204.893 589.393 202.375 592.5 202.375Z" fill="#449295"/>
<path d="M592.5 221.125C595.607 221.125 598.125 223.643 598.125 226.75C598.125 229.857 595.607 232.375 592.5 232.375C589.393 232.375 586.875 229.857 586.875 226.75C586.875 223.643 589.393 221.125 592.5 221.125Z" fill="#C368EB"/>
<path d="M592.5 239.875C595.607 239.875 598.125 242.393 598.125 245.5C598.125 248.607 595.607 251.125 592.5 251.125C589.393 251.125 586.875 248.607 586.875 245.5C586.875 242.393 589.393 239.875 592.5 239.875Z" fill="#449295"/>
<path d="M592.5 258.625C595.607 258.625 598.125 261.143 598.125 264.25C598.125 267.357 595.607 269.875 592.5 269.875C589.393 269.875 586.875 267.357 586.875 264.25C586.875 261.143 589.393 258.625 592.5 258.625Z" fill="#449295"/>
<path d="M592.5 277.375C595.607 277.375 598.125 279.893 598.125 283C598.125 286.107 595.607 288.625 592.5 288.625C589.393 288.625 586.875 286.107 586.875 283C586.875 279.893 589.393 277.375 592.5 277.375Z" fill="#C368EB"/>
<path d="M592.5 296.125C595.607 296.125 598.125 298.643 598.125 301.75C598.125 304.857 595.607 307.375 592.5 307.375C589.393 307.375 586.875 304.857 586.875 301.75C586.875 298.643 589.393 296.125 592.5 296.125Z" fill="#449295"/>
<path d="M592.5 314.875C595.607 314.875 598.125 317.393 598.125 320.5C598.125 323.607 595.607 326.125 592.5 326.125C589.393 326.125 586.875 323.607 586.875 320.5C586.875 317.393 589.393 314.875 592.5 314.875Z" fill="#C368EB"/>
<path d="M592.5 333.625C595.607 333.625 598.125 336.143 598.125 339.25C598.125 342.357 595.607 344.875 592.5 344.875C589.393 344.875 586.875 342.357 586.875 339.25C586.875 336.143 589.393 333.625 592.5 333.625Z" fill="#EC9932"/>
<path d="M592.5 352.375C595.607 352.375 598.125 354.893 598.125 358C598.125 361.107 595.607 363.625 592.5 363.625C589.393 363.625 586.875 361.107 586.875 358C586.875 354.893 589.393 352.375 592.5 352.375Z" fill="#EC9932"/>
<path d="M592.5 371.125C595.607 371.125 598.125 373.643 598.125 376.75C598.125 379.857 595.607 382.375 592.5 382.375C589.393 382.375 586.875 379.857 586.875 376.75C586.875 373.643 589.393 371.125 592.5 371.125Z" fill="#EC9932"/>
<path d="M592.5 389.875C595.607 389.875 598.125 392.393 598.125 395.5C598.125 398.607 595.607 401.125 592.5 401.125C589.393 401.125 586.875 398.607 586.875 395.5C586.875 392.393 589.393 389.875 592.5 389.875Z" fill="#449295"/>
<path d="M592.5 408.625C595.607 408.625 598.125 411.143 598.125 414.25C598.125 417.357 595.607 419.875 592.5 419.875C589.393 419.875 586.875 417.357 586.875 414.25C586.875 411.143 589.393 408.625 592.5 408.625Z" fill="#449295"/>
<path d="M592.5 427.375C595.607 427.375 598.125 429.893 598.125 433C598.125 436.107 595.607 438.625 592.5 438.625C589.393 438.625 586.875 436.107 586.875 433C586.875 429.893 589.393 427.375 592.5 427.375Z" fill="#449295"/>
<path d="M592.5 446.125C595.607 446.125 598.125 448.643 598.125 451.75C598.125 454.857 595.607 457.375 592.5 457.375C589.393 457.375 586.875 454.857 586.875 451.75C586.875 448.643 589.393 446.125 592.5 446.125Z" fill="#449295"/>
<path d="M592.5 464.875C595.607 464.875 598.125 467.393 598.125 470.5C598.125 473.607 595.607 476.125 592.5 476.125C589.393 476.125 586.875 473.607 586.875 470.5C586.875 467.393 589.393 464.875 592.5 464.875Z" fill="#449295"/>
<path d="M606.375 111.625C607.825 111.625 609 112.8 609 114.25C609 115.7 607.825 116.875 606.375 116.875C604.925 116.875 603.75 115.7 603.75 114.25C603.75 112.8 604.925 111.625 606.375 111.625Z" fill="#7B7B7B" fill-opacity="0.75"/>
<path d="M606.375 186.625C607.825 186.625 609 187.8 609 189.25C609 190.7 607.825 191.875 606.375 191.875C604.925 191.875 603.75 190.7 603.75 189.25C603.75 187.8 604.925 186.625 606.375 186.625Z" fill="#7B7B7B" fill-opacity="0.75"/>
<path d="M606.375 130.375C607.825 130.375 609 131.55 609 133C609 134.45 607.825 135.625 606.375 135.625C604.925 135.625 603.75 134.45 603.75 133C603.75 131.55 604.925 130.375 606.375 130.375Z" fill="#7B7B7B" fill-opacity="0.75"/>
<path d="M485.557 134.5L489.872 134.861L488.027 130.943L485.557 134.5ZM505.057 103.375C504.682 103.375 504.682 103.375 504.682 103.375C504.682 103.375 504.682 103.375 504.682 103.375C504.682 103.376 504.682 103.377 504.682 103.378C504.682 103.38 504.682 103.383 504.682 103.388C504.682 103.397 504.682 103.411 504.681 103.43C504.681 103.468 504.68 103.525 504.678 103.6C504.674 103.751 504.666 103.975 504.65 104.264C504.619 104.841 504.555 105.678 504.428 106.711C504.173 108.779 503.663 111.627 502.645 114.752C500.607 121.004 496.542 128.327 488.433 132.731L488.791 133.39C497.128 128.862 501.285 121.342 503.358 114.984C504.395 111.804 504.913 108.906 505.172 106.803C505.302 105.751 505.367 104.897 505.399 104.305C505.416 104.008 505.424 103.778 505.428 103.62C505.43 103.541 505.431 103.481 505.431 103.44C505.432 103.419 505.432 103.403 505.432 103.392C505.432 103.387 505.432 103.383 505.432 103.38C505.432 103.378 505.432 103.377 505.432 103.377C505.432 103.376 505.432 103.376 505.432 103.376C505.432 103.375 505.432 103.375 505.057 103.375Z" fill="black"/>
<path d="M524.824 134.5L520.509 134.861L522.354 130.943L524.824 134.5ZM505.324 103.375C505.699 103.375 505.699 103.375 505.699 103.375C505.699 103.375 505.699 103.375 505.699 103.375C505.699 103.376 505.699 103.377 505.699 103.378C505.699 103.38 505.699 103.383 505.699 103.388C505.699 103.397 505.699 103.411 505.7 103.43C505.7 103.468 505.701 103.525 505.703 103.6C505.707 103.751 505.715 103.975 505.731 104.264C505.762 104.841 505.826 105.678 505.953 106.711C506.208 108.779 506.718 111.627 507.736 114.752C509.774 121.004 513.839 128.327 521.948 132.731L521.59 133.39C513.253 128.862 509.096 121.342 507.023 114.984C505.986 111.804 505.468 108.906 505.209 106.803C505.079 105.751 505.014 104.897 504.982 104.305C504.965 104.008 504.957 103.778 504.953 103.62C504.951 103.541 504.95 103.481 504.95 103.44C504.949 103.419 504.949 103.403 504.949 103.392C504.949 103.387 504.949 103.383 504.949 103.38C504.949 103.378 504.949 103.377 504.949 103.377C504.949 103.376 504.949 103.376 504.949 103.376C504.949 103.375 504.949 103.375 505.324 103.375Z" fill="black"/>
<path d="M655.223 456.625H640.5V471.345H655.223V456.625Z" fill="#C368EB"/>
<path d="M655.223 436.23H640.5V450.951H655.223V436.23Z" fill="#EC9932"/>
<path d="M655.223 416.125H640.5V430.845H655.223V416.125Z" fill="#459295"/>
<line x1="611.25" y1="114.25" x2="618.75" y2="114.25" stroke="black" stroke-width="0.75"/>
<path d="M611.25 133H618.75" stroke="black" stroke-width="0.75"/>
<line x1="611.25" y1="189.25" x2="618.75" y2="189.25" stroke="black" stroke-width="0.75"/>
<line x1="618.375" y1="113.875" x2="618.375" y2="188.875" stroke="black" stroke-width="0.75"/>
<path d="M197.754 88.3902C197.831 88.1979 197.738 87.9797 197.545 87.9028L194.412 86.6488C194.22 86.5719 194.001 86.6654 193.924 86.8577C193.847 87.05 193.941 87.2682 194.133 87.3452L196.919 88.4597L195.804 91.245C195.727 91.4373 195.821 91.6555 196.013 91.7325C196.205 91.8094 196.423 91.7159 196.5 91.5237L197.754 88.3902ZM184.686 105.25C185.555 100.402 186.722 97.135 188.675 94.6386C190.626 92.144 193.394 90.3775 197.554 88.5956L197.258 87.9062C193.053 89.708 190.15 91.5363 188.084 94.1765C186.021 96.8149 184.825 100.223 183.947 105.118L184.686 105.25Z" fill="black"/>
</g>
<defs>
<clipPath id="clip0_15_9957">
<rect width="720" height="543.75" fill="white" transform="translate(0 0.625)"/>
</clipPath>
</defs>
</svg>
