<svg width="960" height="725" viewBox="0 0 960 725" fill="none" xmlns="http://www.w3.org/2000/svg">
<g clip-path="url(#clip0_15_9004)">
<path d="M972 0H0V725H972V0Z" fill="white"/>
<path d="M90.9983 674.18V668.5H790.304V674.18" stroke="black"/>
<path d="M90.9983 668.5V674.18" stroke="black"/>
<path d="M168.699 668.5V674.18" stroke="black"/>
<path d="M246.4 668.5V674.18" stroke="black"/>
<path d="M324.1 668.5V674.18" stroke="black"/>
<path d="M401.801 668.5V674.18" stroke="black"/>
<path d="M479.501 668.5V674.18" stroke="black"/>
<path d="M557.202 668.5V674.18" stroke="black"/>
<path d="M634.902 668.5V674.18" stroke="black"/>
<path d="M712.603 668.5V674.18" stroke="black"/>
<path d="M790.304 668.5V674.18" stroke="black"/>
<line x1="45" y1="627.5" x2="791.001" y2="627.5" stroke="#7B7B7B" stroke-opacity="0.5"/>
<line x1="45" y1="501.5" x2="791.001" y2="501.5" stroke="#7B7B7B" stroke-opacity="0.5"/>
<line x1="46" y1="376.5" x2="792.001" y2="376.5" stroke="#7B7B7B" stroke-opacity="0.5"/>
<line x1="45" y1="251.5" x2="791.001" y2="251.5" stroke="#7B7B7B" stroke-opacity="0.5"/>
<line x1="45" y1="151.5" x2="791.001" y2="151.5" stroke="#7B7B7B" stroke-opacity="0.5"/>
<path d="M90 144C94.1421 144 97.5 147.358 97.5 151.5C97.5 155.642 94.1421 159 90 159C85.8579 159 82.5 155.642 82.5 151.5C82.5 147.358 85.8579 144 90 144Z" fill="#449295"/>
<path d="M90 169C94.1421 169 97.5 172.358 97.5 176.5C97.5 180.642 94.1421 184 90 184C85.8579 184 82.5 180.642 82.5 176.5C82.5 172.358 85.8579 169 90 169Z" fill="#449295"/>
<path d="M90 194C94.1421 194 97.5 197.358 97.5 201.5C97.5 205.642 94.1421 209 90 209C85.8579 209 82.5 205.642 82.5 201.5C82.5 197.358 85.8579 194 90 194Z" fill="#449295"/>
<path d="M90 219C94.1421 219 97.5 222.358 97.5 226.5C97.5 230.642 94.1421 234 90 234C85.8579 234 82.5 230.642 82.5 226.5C82.5 222.358 85.8579 219 90 219Z" fill="#449295"/>
<path d="M90 244C94.1421 244 97.5 247.358 97.5 251.5C97.5 255.642 94.1421 259 90 259C85.8579 259 82.5 255.642 82.5 251.5C82.5 247.358 85.8579 244 90 244Z" fill="#449295"/>
<path d="M90 269C94.1421 269 97.5 272.358 97.5 276.5C97.5 280.642 94.1421 284 90 284C85.8579 284 82.5 280.642 82.5 276.5C82.5 272.358 85.8579 269 90 269Z" fill="#449295"/>
<path d="M90 294C94.1421 294 97.5 297.358 97.5 301.5C97.5 305.642 94.1421 309 90 309C85.8579 309 82.5 305.642 82.5 301.5C82.5 297.358 85.8579 294 90 294Z" fill="#449295"/>
<path d="M90 319C94.1421 319 97.5 322.358 97.5 326.5C97.5 330.642 94.1421 334 90 334C85.8579 334 82.5 330.642 82.5 326.5C82.5 322.358 85.8579 319 90 319Z" fill="#449295"/>
<path d="M90 344C94.1421 344 97.5 347.358 97.5 351.5C97.5 355.642 94.1421 359 90 359C85.8579 359 82.5 355.642 82.5 351.5C82.5 347.358 85.8579 344 90 344Z" fill="#449295"/>
<path d="M90 369C94.1421 369 97.5 372.358 97.5 376.5C97.5 380.642 94.1421 384 90 384C85.8579 384 82.5 380.642 82.5 376.5C82.5 372.358 85.8579 369 90 369Z" fill="#449295"/>
<path d="M90 394C94.1421 394 97.5 397.358 97.5 401.5C97.5 405.642 94.1421 409 90 409C85.8579 409 82.5 405.642 82.5 401.5C82.5 397.358 85.8579 394 90 394Z" fill="#449295"/>
<path d="M90 419C94.1421 419 97.5 422.358 97.5 426.5C97.5 430.642 94.1421 434 90 434C85.8579 434 82.5 430.642 82.5 426.5C82.5 422.358 85.8579 419 90 419Z" fill="#449295"/>
<path d="M90 444C94.1421 444 97.5 447.358 97.5 451.5C97.5 455.642 94.1421 459 90 459C85.8579 459 82.5 455.642 82.5 451.5C82.5 447.358 85.8579 444 90 444Z" fill="#EC9932"/>
<path d="M90 469C94.1421 469 97.5 472.358 97.5 476.5C97.5 480.642 94.1421 484 90 484C85.8579 484 82.5 480.642 82.5 476.5C82.5 472.358 85.8579 469 90 469Z" fill="#449295"/>
<path d="M90 494C94.1421 494 97.5 497.358 97.5 501.5C97.5 505.642 94.1421 509 90 509C85.8579 509 82.5 505.642 82.5 501.5C82.5 497.358 85.8579 494 90 494Z" fill="#449295"/>
<path d="M90 519C94.1421 519 97.5 522.358 97.5 526.5C97.5 530.642 94.1421 534 90 534C85.8579 534 82.5 530.642 82.5 526.5C82.5 522.358 85.8579 519 90 519Z" fill="#449295"/>
<path d="M90 544C94.1421 544 97.5 547.358 97.5 551.5C97.5 555.642 94.1421 559 90 559C85.8579 559 82.5 555.642 82.5 551.5C82.5 547.358 85.8579 544 90 544Z" fill="#449295"/>
<path d="M90 569C94.1421 569 97.5 572.358 97.5 576.5C97.5 580.642 94.1421 584 90 584C85.8579 584 82.5 580.642 82.5 576.5C82.5 572.358 85.8579 569 90 569Z" fill="#449295"/>
<path d="M90 594C94.1421 594 97.5 597.358 97.5 601.5C97.5 605.642 94.1421 609 90 609C85.8579 609 82.5 605.642 82.5 601.5C82.5 597.358 85.8579 594 90 594Z" fill="#EC9932"/>
<path d="M90 619C94.1421 619 97.5 622.358 97.5 626.5C97.5 630.642 94.1421 634 90 634C85.8579 634 82.5 630.642 82.5 626.5C82.5 622.358 85.8579 619 90 619Z" fill="#449295"/>
<path d="M168 144C172.142 144 175.5 147.358 175.5 151.5C175.5 155.642 172.142 159 168 159C163.858 159 160.5 155.642 160.5 151.5C160.5 147.358 163.858 144 168 144Z" fill="#449295"/>
<path d="M168 169C172.142 169 175.5 172.358 175.5 176.5C175.5 180.642 172.142 184 168 184C163.858 184 160.5 180.642 160.5 176.5C160.5 172.358 163.858 169 168 169Z" fill="#449295"/>
<path d="M168 194C172.142 194 175.5 197.358 175.5 201.5C175.5 205.642 172.142 209 168 209C163.858 209 160.5 205.642 160.5 201.5C160.5 197.358 163.858 194 168 194Z" fill="#449295"/>
<path d="M168 219C172.142 219 175.5 222.358 175.5 226.5C175.5 230.642 172.142 234 168 234C163.858 234 160.5 230.642 160.5 226.5C160.5 222.358 163.858 219 168 219Z" fill="#EC9932"/>
<path d="M168 244C172.142 244 175.5 247.358 175.5 251.5C175.5 255.642 172.142 259 168 259C163.858 259 160.5 255.642 160.5 251.5C160.5 247.358 163.858 244 168 244Z" fill="#449295"/>
<path d="M168 269C172.142 269 175.5 272.358 175.5 276.5C175.5 280.642 172.142 284 168 284C163.858 284 160.5 280.642 160.5 276.5C160.5 272.358 163.858 269 168 269Z" fill="#449295"/>
<path d="M168 294C172.142 294 175.5 297.358 175.5 301.5C175.5 305.642 172.142 309 168 309C163.858 309 160.5 305.642 160.5 301.5C160.5 297.358 163.858 294 168 294Z" fill="#449295"/>
<path d="M168 319C172.142 319 175.5 322.358 175.5 326.5C175.5 330.642 172.142 334 168 334C163.858 334 160.5 330.642 160.5 326.5C160.5 322.358 163.858 319 168 319Z" fill="#449295"/>
<path d="M168 344C172.142 344 175.5 347.358 175.5 351.5C175.5 355.642 172.142 359 168 359C163.858 359 160.5 355.642 160.5 351.5C160.5 347.358 163.858 344 168 344Z" fill="#449295"/>
<path d="M168 369C172.142 369 175.5 372.358 175.5 376.5C175.5 380.642 172.142 384 168 384C163.858 384 160.5 380.642 160.5 376.5C160.5 372.358 163.858 369 168 369Z" fill="#449295"/>
<path d="M168 394C172.142 394 175.5 397.358 175.5 401.5C175.5 405.642 172.142 409 168 409C163.858 409 160.5 405.642 160.5 401.5C160.5 397.358 163.858 394 168 394Z" fill="#449295"/>
<path d="M168 419C172.142 419 175.5 422.358 175.5 426.5C175.5 430.642 172.142 434 168 434C163.858 434 160.5 430.642 160.5 426.5C160.5 422.358 163.858 419 168 419Z" fill="#EC9932"/>
<path d="M168 444C172.142 444 175.5 447.358 175.5 451.5C175.5 455.642 172.142 459 168 459C163.858 459 160.5 455.642 160.5 451.5C160.5 447.358 163.858 444 168 444Z" fill="#EC9932"/>
<path d="M168 469C172.142 469 175.5 472.358 175.5 476.5C175.5 480.642 172.142 484 168 484C163.858 484 160.5 480.642 160.5 476.5C160.5 472.358 163.858 469 168 469Z" fill="#449295"/>
<path d="M168 494C172.142 494 175.5 497.358 175.5 501.5C175.5 505.642 172.142 509 168 509C163.858 509 160.5 505.642 160.5 501.5C160.5 497.358 163.858 494 168 494Z" fill="#449295"/>
<path d="M168 519C172.142 519 175.5 522.358 175.5 526.5C175.5 530.642 172.142 534 168 534C163.858 534 160.5 530.642 160.5 526.5C160.5 522.358 163.858 519 168 519Z" fill="#EC9932"/>
<path d="M168 544C172.142 544 175.5 547.358 175.5 551.5C175.5 555.642 172.142 559 168 559C163.858 559 160.5 555.642 160.5 551.5C160.5 547.358 163.858 544 168 544Z" fill="#449295"/>
<path d="M168 569C172.142 569 175.5 572.358 175.5 576.5C175.5 580.642 172.142 584 168 584C163.858 584 160.5 580.642 160.5 576.5C160.5 572.358 163.858 569 168 569Z" fill="#EC9932"/>
<path d="M168 594C172.142 594 175.5 597.358 175.5 601.5C175.5 605.642 172.142 609 168 609C163.858 609 160.5 605.642 160.5 601.5C160.5 597.358 163.858 594 168 594Z" fill="#449295"/>
<path d="M168 619C172.142 619 175.5 622.358 175.5 626.5C175.5 630.642 172.142 634 168 634C163.858 634 160.5 630.642 160.5 626.5C160.5 622.358 163.858 619 168 619Z" fill="#C368EB"/>
<path d="M246 144C250.142 144 253.5 147.358 253.5 151.5C253.5 155.642 250.142 159 246 159C241.858 159 238.5 155.642 238.5 151.5C238.5 147.358 241.858 144 246 144Z" fill="#449295"/>
<path d="M246 169C250.142 169 253.5 172.358 253.5 176.5C253.5 180.642 250.142 184 246 184C241.858 184 238.5 180.642 238.5 176.5C238.5 172.358 241.858 169 246 169Z" fill="#449295"/>
<path d="M246 194C250.142 194 253.5 197.358 253.5 201.5C253.5 205.642 250.142 209 246 209C241.858 209 238.5 205.642 238.5 201.5C238.5 197.358 241.858 194 246 194Z" fill="#449295"/>
<path d="M246 219C250.142 219 253.5 222.358 253.5 226.5C253.5 230.642 250.142 234 246 234C241.858 234 238.5 230.642 238.5 226.5C238.5 222.358 241.858 219 246 219Z" fill="#EC9932"/>
<path d="M246 244C250.142 244 253.5 247.358 253.5 251.5C253.5 255.642 250.142 259 246 259C241.858 259 238.5 255.642 238.5 251.5C238.5 247.358 241.858 244 246 244Z" fill="#EC9932"/>
<path d="M246 269C250.142 269 253.5 272.358 253.5 276.5C253.5 280.642 250.142 284 246 284C241.858 284 238.5 280.642 238.5 276.5C238.5 272.358 241.858 269 246 269Z" fill="#C368EB"/>
<path d="M246 294C250.142 294 253.5 297.358 253.5 301.5C253.5 305.642 250.142 309 246 309C241.858 309 238.5 305.642 238.5 301.5C238.5 297.358 241.858 294 246 294Z" fill="#EC9932"/>
<path d="M246 319C250.142 319 253.5 322.358 253.5 326.5C253.5 330.642 250.142 334 246 334C241.858 334 238.5 330.642 238.5 326.5C238.5 322.358 241.858 319 246 319Z" fill="#C368EB"/>
<path d="M246 344C250.142 344 253.5 347.358 253.5 351.5C253.5 355.642 250.142 359 246 359C241.858 359 238.5 355.642 238.5 351.5C238.5 347.358 241.858 344 246 344Z" fill="#449295"/>
<path d="M246 369C250.142 369 253.5 372.358 253.5 376.5C253.5 380.642 250.142 384 246 384C241.858 384 238.5 380.642 238.5 376.5C238.5 372.358 241.858 369 246 369Z" fill="#C368EB"/>
<path d="M246 394C250.142 394 253.5 397.358 253.5 401.5C253.5 405.642 250.142 409 246 409C241.858 409 238.5 405.642 238.5 401.5C238.5 397.358 241.858 394 246 394Z" fill="#EC9932"/>
<path d="M246 419C250.142 419 253.5 422.358 253.5 426.5C253.5 430.642 250.142 434 246 434C241.858 434 238.5 430.642 238.5 426.5C238.5 422.358 241.858 419 246 419Z" fill="#449295"/>
<path d="M246 444C250.142 444 253.5 447.358 253.5 451.5C253.5 455.642 250.142 459 246 459C241.858 459 238.5 455.642 238.5 451.5C238.5 447.358 241.858 444 246 444Z" fill="#449295"/>
<path d="M246 469C250.142 469 253.5 472.358 253.5 476.5C253.5 480.642 250.142 484 246 484C241.858 484 238.5 480.642 238.5 476.5C238.5 472.358 241.858 469 246 469Z" fill="#C368EB"/>
<path d="M246 494C250.142 494 253.5 497.358 253.5 501.5C253.5 505.642 250.142 509 246 509C241.858 509 238.5 505.642 238.5 501.5C238.5 497.358 241.858 494 246 494Z" fill="#449295"/>
<path d="M246 519C250.142 519 253.5 522.358 253.5 526.5C253.5 530.642 250.142 534 246 534C241.858 534 238.5 530.642 238.5 526.5C238.5 522.358 241.858 519 246 519Z" fill="#449295"/>
<path d="M246 544C250.142 544 253.5 547.358 253.5 551.5C253.5 555.642 250.142 559 246 559C241.858 559 238.5 555.642 238.5 551.5C238.5 547.358 241.858 544 246 544Z" fill="#EC9932"/>
<path d="M246 569C250.142 569 253.5 572.358 253.5 576.5C253.5 580.642 250.142 584 246 584C241.858 584 238.5 580.642 238.5 576.5C238.5 572.358 241.858 569 246 569Z" fill="#449295"/>
<path d="M246 594C250.142 594 253.5 597.358 253.5 601.5C253.5 605.642 250.142 609 246 609C241.858 609 238.5 605.642 238.5 601.5C238.5 597.358 241.858 594 246 594Z" fill="#449295"/>
<path d="M246 619C250.142 619 253.5 622.358 253.5 626.5C253.5 630.642 250.142 634 246 634C241.858 634 238.5 630.642 238.5 626.5C238.5 622.358 241.858 619 246 619Z" fill="#449295"/>
<path d="M323 144C327.142 144 330.5 147.358 330.5 151.5C330.5 155.642 327.142 159 323 159C318.858 159 315.5 155.642 315.5 151.5C315.5 147.358 318.858 144 323 144Z" fill="#C368EB"/>
<path d="M323 169C327.142 169 330.5 172.358 330.5 176.5C330.5 180.642 327.142 184 323 184C318.858 184 315.5 180.642 315.5 176.5C315.5 172.358 318.858 169 323 169Z" fill="#449295"/>
<path d="M323 194C327.142 194 330.5 197.358 330.5 201.5C330.5 205.642 327.142 209 323 209C318.858 209 315.5 205.642 315.5 201.5C315.5 197.358 318.858 194 323 194Z" fill="#449295"/>
<path d="M323 219C327.142 219 330.5 222.358 330.5 226.5C330.5 230.642 327.142 234 323 234C318.858 234 315.5 230.642 315.5 226.5C315.5 222.358 318.858 219 323 219Z" fill="#449295"/>
<path d="M323 244C327.142 244 330.5 247.358 330.5 251.5C330.5 255.642 327.142 259 323 259C318.858 259 315.5 255.642 315.5 251.5C315.5 247.358 318.858 244 323 244Z" fill="#449295"/>
<path d="M323 269C327.142 269 330.5 272.358 330.5 276.5C330.5 280.642 327.142 284 323 284C318.858 284 315.5 280.642 315.5 276.5C315.5 272.358 318.858 269 323 269Z" fill="#449295"/>
<path d="M323 294C327.142 294 330.5 297.358 330.5 301.5C330.5 305.642 327.142 309 323 309C318.858 309 315.5 305.642 315.5 301.5C315.5 297.358 318.858 294 323 294Z" fill="#449295"/>
<path d="M323 319C327.142 319 330.5 322.358 330.5 326.5C330.5 330.642 327.142 334 323 334C318.858 334 315.5 330.642 315.5 326.5C315.5 322.358 318.858 319 323 319Z" fill="#449295"/>
<path d="M323 344C327.142 344 330.5 347.358 330.5 351.5C330.5 355.642 327.142 359 323 359C318.858 359 315.5 355.642 315.5 351.5C315.5 347.358 318.858 344 323 344Z" fill="#449295"/>
<path d="M323 369C327.142 369 330.5 372.358 330.5 376.5C330.5 380.642 327.142 384 323 384C318.858 384 315.5 380.642 315.5 376.5C315.5 372.358 318.858 369 323 369Z" fill="#EC9932"/>
<path d="M323 394C327.142 394 330.5 397.358 330.5 401.5C330.5 405.642 327.142 409 323 409C318.858 409 315.5 405.642 315.5 401.5C315.5 397.358 318.858 394 323 394Z" fill="#C368EB"/>
<path d="M323 419C327.142 419 330.5 422.358 330.5 426.5C330.5 430.642 327.142 434 323 434C318.858 434 315.5 430.642 315.5 426.5C315.5 422.358 318.858 419 323 419Z" fill="#EC9932"/>
<path d="M323 444C327.142 444 330.5 447.358 330.5 451.5C330.5 455.642 327.142 459 323 459C318.858 459 315.5 455.642 315.5 451.5C315.5 447.358 318.858 444 323 444Z" fill="#EC9932"/>
<path d="M323 469C327.142 469 330.5 472.358 330.5 476.5C330.5 480.642 327.142 484 323 484C318.858 484 315.5 480.642 315.5 476.5C315.5 472.358 318.858 469 323 469Z" fill="#EC9932"/>
<path d="M323 494C327.142 494 330.5 497.358 330.5 501.5C330.5 505.642 327.142 509 323 509C318.858 509 315.5 505.642 315.5 501.5C315.5 497.358 318.858 494 323 494Z" fill="#EC9932"/>
<path d="M323 519C327.142 519 330.5 522.358 330.5 526.5C330.5 530.642 327.142 534 323 534C318.858 534 315.5 530.642 315.5 526.5C315.5 522.358 318.858 519 323 519Z" fill="#EC9932"/>
<path d="M323 544C327.142 544 330.5 547.358 330.5 551.5C330.5 555.642 327.142 559 323 559C318.858 559 315.5 555.642 315.5 551.5C315.5 547.358 318.858 544 323 544Z" fill="#449295"/>
<path d="M323 569C327.142 569 330.5 572.358 330.5 576.5C330.5 580.642 327.142 584 323 584C318.858 584 315.5 580.642 315.5 576.5C315.5 572.358 318.858 569 323 569Z" fill="#EC9932"/>
<path d="M323 594C327.142 594 330.5 597.358 330.5 601.5C330.5 605.642 327.142 609 323 609C318.858 609 315.5 605.642 315.5 601.5C315.5 597.358 318.858 594 323 594Z" fill="#EC9932"/>
<path d="M323 619C327.142 619 330.5 622.358 330.5 626.5C330.5 630.642 327.142 634 323 634C318.858 634 315.5 630.642 315.5 626.5C315.5 622.358 318.858 619 323 619Z" fill="#449295"/>
<path d="M401 144C405.142 144 408.5 147.358 408.5 151.5C408.5 155.642 405.142 159 401 159C396.858 159 393.5 155.642 393.5 151.5C393.5 147.358 396.858 144 401 144Z" fill="#449295"/>
<path d="M401 169C405.142 169 408.5 172.358 408.5 176.5C408.5 180.642 405.142 184 401 184C396.858 184 393.5 180.642 393.5 176.5C393.5 172.358 396.858 169 401 169Z" fill="#449295"/>
<path d="M401 194C405.142 194 408.5 197.358 408.5 201.5C408.5 205.642 405.142 209 401 209C396.858 209 393.5 205.642 393.5 201.5C393.5 197.358 396.858 194 401 194Z" fill="#449295"/>
<path d="M401 219C405.142 219 408.5 222.358 408.5 226.5C408.5 230.642 405.142 234 401 234C396.858 234 393.5 230.642 393.5 226.5C393.5 222.358 396.858 219 401 219Z" fill="#449295"/>
<path d="M401 244C405.142 244 408.5 247.358 408.5 251.5C408.5 255.642 405.142 259 401 259C396.858 259 393.5 255.642 393.5 251.5C393.5 247.358 396.858 244 401 244Z" fill="#449295"/>
<path d="M401 269C405.142 269 408.5 272.358 408.5 276.5C408.5 280.642 405.142 284 401 284C396.858 284 393.5 280.642 393.5 276.5C393.5 272.358 396.858 269 401 269Z" fill="#C368EB"/>
<path d="M401 294C405.142 294 408.5 297.358 408.5 301.5C408.5 305.642 405.142 309 401 309C396.858 309 393.5 305.642 393.5 301.5C393.5 297.358 396.858 294 401 294Z" fill="#449295"/>
<path d="M401 319C405.142 319 408.5 322.358 408.5 326.5C408.5 330.642 405.142 334 401 334C396.858 334 393.5 330.642 393.5 326.5C393.5 322.358 396.858 319 401 319Z" fill="#449295"/>
<path d="M401 344C405.142 344 408.5 347.358 408.5 351.5C408.5 355.642 405.142 359 401 359C396.858 359 393.5 355.642 393.5 351.5C393.5 347.358 396.858 344 401 344Z" fill="#C368EB"/>
<path d="M401 369C405.142 369 408.5 372.358 408.5 376.5C408.5 380.642 405.142 384 401 384C396.858 384 393.5 380.642 393.5 376.5C393.5 372.358 396.858 369 401 369Z" fill="#C368EB"/>
<path d="M401 394C405.142 394 408.5 397.358 408.5 401.5C408.5 405.642 405.142 409 401 409C396.858 409 393.5 405.642 393.5 401.5C393.5 397.358 396.858 394 401 394Z" fill="#449295"/>
<path d="M401 419C405.142 419 408.5 422.358 408.5 426.5C408.5 430.642 405.142 434 401 434C396.858 434 393.5 430.642 393.5 426.5C393.5 422.358 396.858 419 401 419Z" fill="#449295"/>
<path d="M401 444C405.142 444 408.5 447.358 408.5 451.5C408.5 455.642 405.142 459 401 459C396.858 459 393.5 455.642 393.5 451.5C393.5 447.358 396.858 444 401 444Z" fill="#EC9932"/>
<path d="M401 469C405.142 469 408.5 472.358 408.5 476.5C408.5 480.642 405.142 484 401 484C396.858 484 393.5 480.642 393.5 476.5C393.5 472.358 396.858 469 401 469Z" fill="#449295"/>
<path d="M401 494C405.142 494 408.5 497.358 408.5 501.5C408.5 505.642 405.142 509 401 509C396.858 509 393.5 505.642 393.5 501.5C393.5 497.358 396.858 494 401 494Z" fill="#EC9932"/>
<path d="M401 519C405.142 519 408.5 522.358 408.5 526.5C408.5 530.642 405.142 534 401 534C396.858 534 393.5 530.642 393.5 526.5C393.5 522.358 396.858 519 401 519Z" fill="#EC9932"/>
<path d="M401 544C405.142 544 408.5 547.358 408.5 551.5C408.5 555.642 405.142 559 401 559C396.858 559 393.5 555.642 393.5 551.5C393.5 547.358 396.858 544 401 544Z" fill="#EC9932"/>
<path d="M401 569C405.142 569 408.5 572.358 408.5 576.5C408.5 580.642 405.142 584 401 584C396.858 584 393.5 580.642 393.5 576.5C393.5 572.358 396.858 569 401 569Z" fill="#C368EB"/>
<path d="M401 594C405.142 594 408.5 597.358 408.5 601.5C408.5 605.642 405.142 609 401 609C396.858 609 393.5 605.642 393.5 601.5C393.5 597.358 396.858 594 401 594Z" fill="#EC9932"/>
<path d="M401 619C405.142 619 408.5 622.358 408.5 626.5C408.5 630.642 405.142 634 401 634C396.858 634 393.5 630.642 393.5 626.5C393.5 622.358 396.858 619 401 619Z" fill="#449295"/>
<path d="M479 144C483.142 144 486.5 147.358 486.5 151.5C486.5 155.642 483.142 159 479 159C474.858 159 471.5 155.642 471.5 151.5C471.5 147.358 474.858 144 479 144Z" fill="#449295"/>
<path d="M479 169C483.142 169 486.5 172.358 486.5 176.5C486.5 180.642 483.142 184 479 184C474.858 184 471.5 180.642 471.5 176.5C471.5 172.358 474.858 169 479 169Z" fill="#EC9932"/>
<path d="M479 194C483.142 194 486.5 197.358 486.5 201.5C486.5 205.642 483.142 209 479 209C474.858 209 471.5 205.642 471.5 201.5C471.5 197.358 474.858 194 479 194Z" fill="#449295"/>
<path d="M479 219C483.142 219 486.5 222.358 486.5 226.5C486.5 230.642 483.142 234 479 234C474.858 234 471.5 230.642 471.5 226.5C471.5 222.358 474.858 219 479 219Z" fill="#449295"/>
<path d="M479 244C483.142 244 486.5 247.358 486.5 251.5C486.5 255.642 483.142 259 479 259C474.858 259 471.5 255.642 471.5 251.5C471.5 247.358 474.858 244 479 244Z" fill="#449295"/>
<path d="M479 269C483.142 269 486.5 272.358 486.5 276.5C486.5 280.642 483.142 284 479 284C474.858 284 471.5 280.642 471.5 276.5C471.5 272.358 474.858 269 479 269Z" fill="#449295"/>
<path d="M479 294C483.142 294 486.5 297.358 486.5 301.5C486.5 305.642 483.142 309 479 309C474.858 309 471.5 305.642 471.5 301.5C471.5 297.358 474.858 294 479 294Z" fill="#EC9932"/>
<path d="M479 319C483.142 319 486.5 322.358 486.5 326.5C486.5 330.642 483.142 334 479 334C474.858 334 471.5 330.642 471.5 326.5C471.5 322.358 474.858 319 479 319Z" fill="#449295"/>
<path d="M479 344C483.142 344 486.5 347.358 486.5 351.5C486.5 355.642 483.142 359 479 359C474.858 359 471.5 355.642 471.5 351.5C471.5 347.358 474.858 344 479 344Z" fill="#449295"/>
<path d="M479 369C483.142 369 486.5 372.358 486.5 376.5C486.5 380.642 483.142 384 479 384C474.858 384 471.5 380.642 471.5 376.5C471.5 372.358 474.858 369 479 369Z" fill="#449295"/>
<path d="M479 394C483.142 394 486.5 397.358 486.5 401.5C486.5 405.642 483.142 409 479 409C474.858 409 471.5 405.642 471.5 401.5C471.5 397.358 474.858 394 479 394Z" fill="#449295"/>
<path d="M479 419C483.142 419 486.5 422.358 486.5 426.5C486.5 430.642 483.142 434 479 434C474.858 434 471.5 430.642 471.5 426.5C471.5 422.358 474.858 419 479 419Z" fill="#C368EB"/>
<path d="M479 444C483.142 444 486.5 447.358 486.5 451.5C486.5 455.642 483.142 459 479 459C474.858 459 471.5 455.642 471.5 451.5C471.5 447.358 474.858 444 479 444Z" fill="#C368EB"/>
<path d="M479 469C483.142 469 486.5 472.358 486.5 476.5C486.5 480.642 483.142 484 479 484C474.858 484 471.5 480.642 471.5 476.5C471.5 472.358 474.858 469 479 469Z" fill="#449295"/>
<path d="M479 494C483.142 494 486.5 497.358 486.5 501.5C486.5 505.642 483.142 509 479 509C474.858 509 471.5 505.642 471.5 501.5C471.5 497.358 474.858 494 479 494Z" fill="#C368EB"/>
<path d="M479 519C483.142 519 486.5 522.358 486.5 526.5C486.5 530.642 483.142 534 479 534C474.858 534 471.5 530.642 471.5 526.5C471.5 522.358 474.858 519 479 519Z" fill="#449295"/>
<path d="M479 544C483.142 544 486.5 547.358 486.5 551.5C486.5 555.642 483.142 559 479 559C474.858 559 471.5 555.642 471.5 551.5C471.5 547.358 474.858 544 479 544Z" fill="#449295"/>
<path d="M479 569C483.142 569 486.5 572.358 486.5 576.5C486.5 580.642 483.142 584 479 584C474.858 584 471.5 580.642 471.5 576.5C471.5 572.358 474.858 569 479 569Z" fill="#449295"/>
<path d="M479 594C483.142 594 486.5 597.358 486.5 601.5C486.5 605.642 483.142 609 479 609C474.858 609 471.5 605.642 471.5 601.5C471.5 597.358 474.858 594 479 594Z" fill="#449295"/>
<path d="M479 619C483.142 619 486.5 622.358 486.5 626.5C486.5 630.642 483.142 634 479 634C474.858 634 471.5 630.642 471.5 626.5C471.5 622.358 474.858 619 479 619Z" fill="#EC9932"/>
<path d="M557 144C561.142 144 564.5 147.358 564.5 151.5C564.5 155.642 561.142 159 557 159C552.858 159 549.5 155.642 549.5 151.5C549.5 147.358 552.858 144 557 144Z" fill="#449295"/>
<path d="M557 169C561.142 169 564.5 172.358 564.5 176.5C564.5 180.642 561.142 184 557 184C552.858 184 549.5 180.642 549.5 176.5C549.5 172.358 552.858 169 557 169Z" fill="#449295"/>
<path d="M557 194C561.142 194 564.5 197.358 564.5 201.5C564.5 205.642 561.142 209 557 209C552.858 209 549.5 205.642 549.5 201.5C549.5 197.358 552.858 194 557 194Z" fill="#C368EB"/>
<path d="M557 219C561.142 219 564.5 222.358 564.5 226.5C564.5 230.642 561.142 234 557 234C552.858 234 549.5 230.642 549.5 226.5C549.5 222.358 552.858 219 557 219Z" fill="#449295"/>
<path d="M557 244C561.142 244 564.5 247.358 564.5 251.5C564.5 255.642 561.142 259 557 259C552.858 259 549.5 255.642 549.5 251.5C549.5 247.358 552.858 244 557 244Z" fill="#449295"/>
<path d="M557 269C561.142 269 564.5 272.358 564.5 276.5C564.5 280.642 561.142 284 557 284C552.858 284 549.5 280.642 549.5 276.5C549.5 272.358 552.858 269 557 269Z" fill="#449295"/>
<path d="M557 294C561.142 294 564.5 297.358 564.5 301.5C564.5 305.642 561.142 309 557 309C552.858 309 549.5 305.642 549.5 301.5C549.5 297.358 552.858 294 557 294Z" fill="#EC9932"/>
<path d="M557 319C561.142 319 564.5 322.358 564.5 326.5C564.5 330.642 561.142 334 557 334C552.858 334 549.5 330.642 549.5 326.5C549.5 322.358 552.858 319 557 319Z" fill="#449295"/>
<path d="M557 344C561.142 344 564.5 347.358 564.5 351.5C564.5 355.642 561.142 359 557 359C552.858 359 549.5 355.642 549.5 351.5C549.5 347.358 552.858 344 557 344Z" fill="#EC9932"/>
<path d="M557 369C561.142 369 564.5 372.358 564.5 376.5C564.5 380.642 561.142 384 557 384C552.858 384 549.5 380.642 549.5 376.5C549.5 372.358 552.858 369 557 369Z" fill="#449295"/>
<path d="M557 394C561.142 394 564.5 397.358 564.5 401.5C564.5 405.642 561.142 409 557 409C552.858 409 549.5 405.642 549.5 401.5C549.5 397.358 552.858 394 557 394Z" fill="#EC9932"/>
<path d="M557 419C561.142 419 564.5 422.358 564.5 426.5C564.5 430.642 561.142 434 557 434C552.858 434 549.5 430.642 549.5 426.5C549.5 422.358 552.858 419 557 419Z" fill="#C368EB"/>
<path d="M557 444C561.142 444 564.5 447.358 564.5 451.5C564.5 455.642 561.142 459 557 459C552.858 459 549.5 455.642 549.5 451.5C549.5 447.358 552.858 444 557 444Z" fill="#C368EB"/>
<path d="M557 469C561.142 469 564.5 472.358 564.5 476.5C564.5 480.642 561.142 484 557 484C552.858 484 549.5 480.642 549.5 476.5C549.5 472.358 552.858 469 557 469Z" fill="#449295"/>
<path d="M557 494C561.142 494 564.5 497.358 564.5 501.5C564.5 505.642 561.142 509 557 509C552.858 509 549.5 505.642 549.5 501.5C549.5 497.358 552.858 494 557 494Z" fill="#C368EB"/>
<path d="M557 519C561.142 519 564.5 522.358 564.5 526.5C564.5 530.642 561.142 534 557 534C552.858 534 549.5 530.642 549.5 526.5C549.5 522.358 552.858 519 557 519Z" fill="#449295"/>
<path d="M557 544C561.142 544 564.5 547.358 564.5 551.5C564.5 555.642 561.142 559 557 559C552.858 559 549.5 555.642 549.5 551.5C549.5 547.358 552.858 544 557 544Z" fill="#EC9932"/>
<path d="M557 569C561.142 569 564.5 572.358 564.5 576.5C564.5 580.642 561.142 584 557 584C552.858 584 549.5 580.642 549.5 576.5C549.5 572.358 552.858 569 557 569Z" fill="#449295"/>
<path d="M557 594C561.142 594 564.5 597.358 564.5 601.5C564.5 605.642 561.142 609 557 609C552.858 609 549.5 605.642 549.5 601.5C549.5 597.358 552.858 594 557 594Z" fill="#449295"/>
<path d="M557 619C561.142 619 564.5 622.358 564.5 626.5C564.5 630.642 561.142 634 557 634C552.858 634 549.5 630.642 549.5 626.5C549.5 622.358 552.858 619 557 619Z" fill="#449295"/>
<path d="M634 144C638.142 144 641.5 147.358 641.5 151.5C641.5 155.642 638.142 159 634 159C629.858 159 626.5 155.642 626.5 151.5C626.5 147.358 629.858 144 634 144Z" fill="#EC9932"/>
<path d="M634 169C638.142 169 641.5 172.358 641.5 176.5C641.5 180.642 638.142 184 634 184C629.858 184 626.5 180.642 626.5 176.5C626.5 172.358 629.858 169 634 169Z" fill="#C368EB"/>
<path d="M634 194C638.142 194 641.5 197.358 641.5 201.5C641.5 205.642 638.142 209 634 209C629.858 209 626.5 205.642 626.5 201.5C626.5 197.358 629.858 194 634 194Z" fill="#449295"/>
<path d="M634 219C638.142 219 641.5 222.358 641.5 226.5C641.5 230.642 638.142 234 634 234C629.858 234 626.5 230.642 626.5 226.5C626.5 222.358 629.858 219 634 219Z" fill="#449295"/>
<path d="M634 244C638.142 244 641.5 247.358 641.5 251.5C641.5 255.642 638.142 259 634 259C629.858 259 626.5 255.642 626.5 251.5C626.5 247.358 629.858 244 634 244Z" fill="#449295"/>
<path d="M634 269C638.142 269 641.5 272.358 641.5 276.5C641.5 280.642 638.142 284 634 284C629.858 284 626.5 280.642 626.5 276.5C626.5 272.358 629.858 269 634 269Z" fill="#449295"/>
<path d="M634 294C638.142 294 641.5 297.358 641.5 301.5C641.5 305.642 638.142 309 634 309C629.858 309 626.5 305.642 626.5 301.5C626.5 297.358 629.858 294 634 294Z" fill="#C368EB"/>
<path d="M634 319C638.142 319 641.5 322.358 641.5 326.5C641.5 330.642 638.142 334 634 334C629.858 334 626.5 330.642 626.5 326.5C626.5 322.358 629.858 319 634 319Z" fill="#C368EB"/>
<path d="M634 344C638.142 344 641.5 347.358 641.5 351.5C641.5 355.642 638.142 359 634 359C629.858 359 626.5 355.642 626.5 351.5C626.5 347.358 629.858 344 634 344Z" fill="#449295"/>
<path d="M634 369C638.142 369 641.5 372.358 641.5 376.5C641.5 380.642 638.142 384 634 384C629.858 384 626.5 380.642 626.5 376.5C626.5 372.358 629.858 369 634 369Z" fill="#449295"/>
<path d="M634 394C638.142 394 641.5 397.358 641.5 401.5C641.5 405.642 638.142 409 634 409C629.858 409 626.5 405.642 626.5 401.5C626.5 397.358 629.858 394 634 394Z" fill="#449295"/>
<path d="M634 419C638.142 419 641.5 422.358 641.5 426.5C641.5 430.642 638.142 434 634 434C629.858 434 626.5 430.642 626.5 426.5C626.5 422.358 629.858 419 634 419Z" fill="#C368EB"/>
<path d="M634 444C638.142 444 641.5 447.358 641.5 451.5C641.5 455.642 638.142 459 634 459C629.858 459 626.5 455.642 626.5 451.5C626.5 447.358 629.858 444 634 444Z" fill="#449295"/>
<path d="M634 469C638.142 469 641.5 472.358 641.5 476.5C641.5 480.642 638.142 484 634 484C629.858 484 626.5 480.642 626.5 476.5C626.5 472.358 629.858 469 634 469Z" fill="#449295"/>
<path d="M634 494C638.142 494 641.5 497.358 641.5 501.5C641.5 505.642 638.142 509 634 509C629.858 509 626.5 505.642 626.5 501.5C626.5 497.358 629.858 494 634 494Z" fill="#449295"/>
<path d="M634 519C638.142 519 641.5 522.358 641.5 526.5C641.5 530.642 638.142 534 634 534C629.858 534 626.5 530.642 626.5 526.5C626.5 522.358 629.858 519 634 519Z" fill="#449295"/>
<path d="M634 544C638.142 544 641.5 547.358 641.5 551.5C641.5 555.642 638.142 559 634 559C629.858 559 626.5 555.642 626.5 551.5C626.5 547.358 629.858 544 634 544Z" fill="#449295"/>
<path d="M634 569C638.142 569 641.5 572.358 641.5 576.5C641.5 580.642 638.142 584 634 584C629.858 584 626.5 580.642 626.5 576.5C626.5 572.358 629.858 569 634 569Z" fill="#449295"/>
<path d="M634 594C638.142 594 641.5 597.358 641.5 601.5C641.5 605.642 638.142 609 634 609C629.858 609 626.5 605.642 626.5 601.5C626.5 597.358 629.858 594 634 594Z" fill="#EC9932"/>
<path d="M634 619C638.142 619 641.5 622.358 641.5 626.5C641.5 630.642 638.142 634 634 634C629.858 634 626.5 630.642 626.5 626.5C626.5 622.358 629.858 619 634 619Z" fill="#449295"/>
<path d="M712 144C716.142 144 719.5 147.358 719.5 151.5C719.5 155.642 716.142 159 712 159C707.858 159 704.5 155.642 704.5 151.5C704.5 147.358 707.858 144 712 144Z" fill="#449295"/>
<path d="M712 169C716.142 169 719.5 172.358 719.5 176.5C719.5 180.642 716.142 184 712 184C707.858 184 704.5 180.642 704.5 176.5C704.5 172.358 707.858 169 712 169Z" fill="#C368EB"/>
<path d="M712 194C716.142 194 719.5 197.358 719.5 201.5C719.5 205.642 716.142 209 712 209C707.858 209 704.5 205.642 704.5 201.5C704.5 197.358 707.858 194 712 194Z" fill="#449295"/>
<path d="M712 219C716.142 219 719.5 222.358 719.5 226.5C719.5 230.642 716.142 234 712 234C707.858 234 704.5 230.642 704.5 226.5C704.5 222.358 707.858 219 712 219Z" fill="#449295"/>
<path d="M712 244C716.142 244 719.5 247.358 719.5 251.5C719.5 255.642 716.142 259 712 259C707.858 259 704.5 255.642 704.5 251.5C704.5 247.358 707.858 244 712 244Z" fill="#449295"/>
<path d="M712 269C716.142 269 719.5 272.358 719.5 276.5C719.5 280.642 716.142 284 712 284C707.858 284 704.5 280.642 704.5 276.5C704.5 272.358 707.858 269 712 269Z" fill="#449295"/>
<path d="M712 294C716.142 294 719.5 297.358 719.5 301.5C719.5 305.642 716.142 309 712 309C707.858 309 704.5 305.642 704.5 301.5C704.5 297.358 707.858 294 712 294Z" fill="#C368EB"/>
<path d="M712 319C716.142 319 719.5 322.358 719.5 326.5C719.5 330.642 716.142 334 712 334C707.858 334 704.5 330.642 704.5 326.5C704.5 322.358 707.858 319 712 319Z" fill="#449295"/>
<path d="M712 344C716.142 344 719.5 347.358 719.5 351.5C719.5 355.642 716.142 359 712 359C707.858 359 704.5 355.642 704.5 351.5C704.5 347.358 707.858 344 712 344Z" fill="#C368EB"/>
<path d="M712 369C716.142 369 719.5 372.358 719.5 376.5C719.5 380.642 716.142 384 712 384C707.858 384 704.5 380.642 704.5 376.5C704.5 372.358 707.858 369 712 369Z" fill="#449295"/>
<path d="M712 394C716.142 394 719.5 397.358 719.5 401.5C719.5 405.642 716.142 409 712 409C707.858 409 704.5 405.642 704.5 401.5C704.5 397.358 707.858 394 712 394Z" fill="#449295"/>
<path d="M712 419C716.142 419 719.5 422.358 719.5 426.5C719.5 430.642 716.142 434 712 434C707.858 434 704.5 430.642 704.5 426.5C704.5 422.358 707.858 419 712 419Z" fill="#C368EB"/>
<path d="M712 444C716.142 444 719.5 447.358 719.5 451.5C719.5 455.642 716.142 459 712 459C707.858 459 704.5 455.642 704.5 451.5C704.5 447.358 707.858 444 712 444Z" fill="#449295"/>
<path d="M712 469C716.142 469 719.5 472.358 719.5 476.5C719.5 480.642 716.142 484 712 484C707.858 484 704.5 480.642 704.5 476.5C704.5 472.358 707.858 469 712 469Z" fill="#449295"/>
<path d="M712 494C716.142 494 719.5 497.358 719.5 501.5C719.5 505.642 716.142 509 712 509C707.858 509 704.5 505.642 704.5 501.5C704.5 497.358 707.858 494 712 494Z" fill="#449295"/>
<path d="M712 519C716.142 519 719.5 522.358 719.5 526.5C719.5 530.642 716.142 534 712 534C707.858 534 704.5 530.642 704.5 526.5C704.5 522.358 707.858 519 712 519Z" fill="#449295"/>
<path d="M712 544C716.142 544 719.5 547.358 719.5 551.5C719.5 555.642 716.142 559 712 559C707.858 559 704.5 555.642 704.5 551.5C704.5 547.358 707.858 544 712 544Z" fill="#C368EB"/>
<path d="M712 569C716.142 569 719.5 572.358 719.5 576.5C719.5 580.642 716.142 584 712 584C707.858 584 704.5 580.642 704.5 576.5C704.5 572.358 707.858 569 712 569Z" fill="#449295"/>
<path d="M712 594C716.142 594 719.5 597.358 719.5 601.5C719.5 605.642 716.142 609 712 609C707.858 609 704.5 605.642 704.5 601.5C704.5 597.358 707.858 594 712 594Z" fill="#449295"/>
<path d="M712 619C716.142 619 719.5 622.358 719.5 626.5C719.5 630.642 716.142 634 712 634C707.858 634 704.5 630.642 704.5 626.5C704.5 622.358 707.858 619 712 619Z" fill="#449295"/>
<path d="M790 144C794.142 144 797.5 147.358 797.5 151.5C797.5 155.642 794.142 159 790 159C785.858 159 782.5 155.642 782.5 151.5C782.5 147.358 785.858 144 790 144Z" fill="#449295"/>
<path d="M790 169C794.142 169 797.5 172.358 797.5 176.5C797.5 180.642 794.142 184 790 184C785.858 184 782.5 180.642 782.5 176.5C782.5 172.358 785.858 169 790 169Z" fill="#449295"/>
<path d="M790 194C794.142 194 797.5 197.358 797.5 201.5C797.5 205.642 794.142 209 790 209C785.858 209 782.5 205.642 782.5 201.5C782.5 197.358 785.858 194 790 194Z" fill="#449295"/>
<path d="M790 219C794.142 219 797.5 222.358 797.5 226.5C797.5 230.642 794.142 234 790 234C785.858 234 782.5 230.642 782.5 226.5C782.5 222.358 785.858 219 790 219Z" fill="#449295"/>
<path d="M790 244C794.142 244 797.5 247.358 797.5 251.5C797.5 255.642 794.142 259 790 259C785.858 259 782.5 255.642 782.5 251.5C782.5 247.358 785.858 244 790 244Z" fill="#C368EB"/>
<path d="M790 269C794.142 269 797.5 272.358 797.5 276.5C797.5 280.642 794.142 284 790 284C785.858 284 782.5 280.642 782.5 276.5C782.5 272.358 785.858 269 790 269Z" fill="#449295"/>
<path d="M790 294C794.142 294 797.5 297.358 797.5 301.5C797.5 305.642 794.142 309 790 309C785.858 309 782.5 305.642 782.5 301.5C782.5 297.358 785.858 294 790 294Z" fill="#C368EB"/>
<path d="M790 319C794.142 319 797.5 322.358 797.5 326.5C797.5 330.642 794.142 334 790 334C785.858 334 782.5 330.642 782.5 326.5C782.5 322.358 785.858 319 790 319Z" fill="#449295"/>
<path d="M790 344C794.142 344 797.5 347.358 797.5 351.5C797.5 355.642 794.142 359 790 359C785.858 359 782.5 355.642 782.5 351.5C782.5 347.358 785.858 344 790 344Z" fill="#449295"/>
<path d="M790 369C794.142 369 797.5 372.358 797.5 376.5C797.5 380.642 794.142 384 790 384C785.858 384 782.5 380.642 782.5 376.5C782.5 372.358 785.858 369 790 369Z" fill="#C368EB"/>
<path d="M790 394C794.142 394 797.5 397.358 797.5 401.5C797.5 405.642 794.142 409 790 409C785.858 409 782.5 405.642 782.5 401.5C782.5 397.358 785.858 394 790 394Z" fill="#449295"/>
<path d="M790 419C794.142 419 797.5 422.358 797.5 426.5C797.5 430.642 794.142 434 790 434C785.858 434 782.5 430.642 782.5 426.5C782.5 422.358 785.858 419 790 419Z" fill="#C368EB"/>
<path d="M790 444C794.142 444 797.5 447.358 797.5 451.5C797.5 455.642 794.142 459 790 459C785.858 459 782.5 455.642 782.5 451.5C782.5 447.358 785.858 444 790 444Z" fill="#EC9932"/>
<path d="M790 469C794.142 469 797.5 472.358 797.5 476.5C797.5 480.642 794.142 484 790 484C785.858 484 782.5 480.642 782.5 476.5C782.5 472.358 785.858 469 790 469Z" fill="#EC9932"/>
<path d="M790 494C794.142 494 797.5 497.358 797.5 501.5C797.5 505.642 794.142 509 790 509C785.858 509 782.5 505.642 782.5 501.5C782.5 497.358 785.858 494 790 494Z" fill="#EC9932"/>
<path d="M790 519C794.142 519 797.5 522.358 797.5 526.5C797.5 530.642 794.142 534 790 534C785.858 534 782.5 530.642 782.5 526.5C782.5 522.358 785.858 519 790 519Z" fill="#449295"/>
<path d="M790 544C794.142 544 797.5 547.358 797.5 551.5C797.5 555.642 794.142 559 790 559C785.858 559 782.5 555.642 782.5 551.5C782.5 547.358 785.858 544 790 544Z" fill="#449295"/>
<path d="M790 569C794.142 569 797.5 572.358 797.5 576.5C797.5 580.642 794.142 584 790 584C785.858 584 782.5 580.642 782.5 576.5C782.5 572.358 785.858 569 790 569Z" fill="#449295"/>
<path d="M790 594C794.142 594 797.5 597.358 797.5 601.5C797.5 605.642 794.142 609 790 609C785.858 609 782.5 605.642 782.5 601.5C782.5 597.358 785.858 594 790 594Z" fill="#449295"/>
<path d="M790 619C794.142 619 797.5 622.358 797.5 626.5C797.5 630.642 794.142 634 790 634C785.858 634 782.5 630.642 782.5 626.5C782.5 622.358 785.858 619 790 619Z" fill="#449295"/>
<path d="M808.5 148C810.433 148 812 149.567 812 151.5C812 153.433 810.433 155 808.5 155C806.567 155 805 153.433 805 151.5C805 149.567 806.567 148 808.5 148Z" fill="#7B7B7B" fill-opacity="0.75"/>
<path d="M808.5 248C810.433 248 812 249.567 812 251.5C812 253.433 810.433 255 808.5 255C806.567 255 805 253.433 805 251.5C805 249.567 806.567 248 808.5 248Z" fill="#7B7B7B" fill-opacity="0.75"/>
<path d="M808.5 173C810.433 173 812 174.567 812 176.5C812 178.433 810.433 180 808.5 180C806.567 180 805 178.433 805 176.5C805 174.567 806.567 173 808.5 173Z" fill="#7B7B7B" fill-opacity="0.75"/>
<path d="M647.409 178.5L653.163 178.981L650.703 173.758L647.409 178.5ZM673.409 137C672.909 137 672.909 137 672.909 137C672.909 137 672.909 137 672.909 137C672.909 137.001 672.909 137.002 672.909 137.003C672.909 137.006 672.909 137.011 672.909 137.017C672.909 137.029 672.909 137.048 672.909 137.073C672.908 137.124 672.907 137.2 672.904 137.301C672.899 137.502 672.888 137.8 672.867 138.185C672.825 138.955 672.74 140.071 672.57 141.448C672.231 144.205 671.551 148.003 670.193 152.169C667.475 160.505 662.056 170.269 651.245 176.142L651.722 177.021C662.837 170.983 668.38 160.956 671.144 152.479C672.526 148.238 673.217 144.375 673.563 141.571C673.736 140.168 673.822 139.03 673.866 138.24C673.887 137.845 673.898 137.537 673.904 137.327C673.906 137.222 673.908 137.141 673.908 137.086C673.909 137.059 673.909 137.038 673.909 137.023C673.909 137.016 673.909 137.01 673.909 137.007C673.909 137.005 673.909 137.003 673.909 137.002C673.909 137.001 673.909 137.001 673.909 137.001C673.909 137 673.909 137 673.409 137Z" fill="black"/>
<path d="M699.765 178.5L694.012 178.981L696.472 173.758L699.765 178.5ZM673.765 137C674.265 137 674.265 137 674.265 137C674.265 137 674.265 137 674.265 137C674.265 137.001 674.265 137.002 674.265 137.003C674.265 137.006 674.265 137.011 674.265 137.017C674.266 137.029 674.266 137.048 674.266 137.073C674.267 137.124 674.268 137.2 674.271 137.301C674.276 137.502 674.286 137.8 674.307 138.185C674.35 138.955 674.434 140.071 674.604 141.448C674.944 144.205 675.623 148.003 676.982 152.169C679.699 160.505 685.119 170.269 695.93 176.142L695.453 177.021C684.338 170.983 678.795 160.956 676.031 152.479C674.648 148.238 673.957 144.375 673.612 141.571C673.439 140.168 673.352 139.03 673.309 138.24C673.287 137.845 673.276 137.537 673.271 137.327C673.268 137.222 673.267 137.141 673.266 137.086C673.266 137.059 673.266 137.038 673.266 137.023C673.265 137.016 673.265 137.01 673.265 137.007C673.265 137.005 673.265 137.003 673.265 137.002C673.265 137.001 673.265 137.001 673.265 137.001C673.265 137 673.265 137 673.765 137Z" fill="black"/>
<path d="M873.631 608H854V627.627H873.631V608Z" fill="#C368EB"/>
<path d="M873.631 580.807H854V600.434H873.631V580.807Z" fill="#EC9932"/>
<path d="M873.631 554H854V573.627H873.631V554Z" fill="#459295"/>
<line x1="815" y1="151.5" x2="825" y2="151.5" stroke="black"/>
<path d="M815 176.5H825" stroke="black"/>
<line x1="815" y1="251.5" x2="825" y2="251.5" stroke="black"/>
<line x1="824.5" y1="151" x2="824.5" y2="251" stroke="black"/>
<path d="M263.672 117.02C263.775 116.764 263.65 116.473 263.394 116.37L259.216 114.698C258.96 114.596 258.669 114.72 258.566 114.977C258.463 115.233 258.588 115.524 258.844 115.627L262.558 117.113L261.072 120.827C260.969 121.083 261.094 121.374 261.35 121.477C261.607 121.579 261.898 121.455 262 121.198L263.672 117.02ZM246.248 139.501C247.407 133.035 248.963 128.68 251.567 125.351C254.168 122.025 257.859 119.67 263.405 117.294L263.011 116.375C257.403 118.777 253.533 121.215 250.779 124.735C248.027 128.253 246.434 132.798 245.263 139.324L246.248 139.501Z" fill="black"/>
</g>
<defs>
<clipPath id="clip0_15_9004">
<rect width="960" height="725" fill="white"/>
</clipPath>
</defs>
</svg>
