<svg width="393" height="398" viewBox="0 0 393 398" fill="none" xmlns="http://www.w3.org/2000/svg">
<g clip-path="url(#clip0_35_2)">
<path d="M13.4566 22.432C11.7286 22.432 10.2326 22.016 8.96859 21.184C7.70459 20.352 6.72859 19.2 6.04059 17.728C5.36859 16.24 5.03259 14.528 5.03259 12.592C5.03259 10.688 5.36859 9.008 6.04059 7.552C6.72859 6.08 7.70459 4.928 8.96859 4.096C10.2326 3.248 11.7286 2.824 13.4566 2.824C15.1846 2.824 16.6726 3.248 17.9206 4.096C19.1846 4.928 20.1526 6.08 20.8246 7.552C21.4966 9.024 21.8326 10.704 21.8326 12.592C21.8326 14.528 21.4966 16.24 20.8246 17.728C20.1526 19.2 19.1846 20.352 17.9206 21.184C16.6726 22.016 15.1846 22.432 13.4566 22.432ZM14.0566 19.72C14.9526 19.64 15.7366 19.328 16.4086 18.784C17.0966 18.24 17.6326 17.496 18.0166 16.552C18.4006 15.592 18.5926 14.48 18.5926 13.216C18.5926 13.04 18.5846 12.864 18.5686 12.688C18.5686 12.512 18.5606 12.336 18.5446 12.16C18.4326 10.768 18.1286 9.576 17.6326 8.584C17.1526 7.592 16.5366 6.84 15.7846 6.328C15.0326 5.8 14.2006 5.536 13.2886 5.536C13.2246 5.536 13.1526 5.536 13.0726 5.536C13.0086 5.536 12.9366 5.544 12.8566 5.56C11.9766 5.624 11.1926 5.928 10.5046 6.472C9.81659 7.016 9.27259 7.76 8.87259 8.704C8.47259 9.632 8.27259 10.728 8.27259 11.992C8.27259 12.152 8.27259 12.32 8.27259 12.496C8.28859 12.672 8.30459 12.848 8.32059 13.024C8.43259 14.432 8.73659 15.64 9.23259 16.648C9.72859 17.64 10.3606 18.408 11.1286 18.952C11.8966 19.48 12.7446 19.744 13.6726 19.744C13.7366 19.744 13.8006 19.744 13.8646 19.744C13.9286 19.728 13.9926 19.72 14.0566 19.72ZM33.7777 22.312V13.36C33.7777 12.56 33.5297 11.952 33.0337 11.536C32.5537 11.104 31.9697 10.888 31.2817 10.888C30.5937 10.888 29.9617 11.072 29.3857 11.44C28.8257 11.808 28.4337 12.344 28.2097 13.048V22L25.2817 22.312L24.8017 8.272L28.2097 8.68V10.24C28.5297 9.632 29.0017 9.176 29.6257 8.872C30.2657 8.552 31.1377 8.392 32.2417 8.392C33.2177 8.392 34.0737 8.6 34.8097 9.016C35.5617 9.432 36.1377 10 36.5377 10.72C36.9537 11.424 37.1377 12.224 37.0897 13.12L36.6097 22L33.7777 22.312ZM54.9233 22.264C53.0673 22.264 51.7233 21.896 50.8913 21.16C50.0593 20.424 49.6433 19.36 49.6433 17.968V10.912H47.8193L47.3393 9.064L49.6433 8.824V4.504L53.0273 4.984L52.9073 8.488L55.3073 8.248V10.912H52.8113L52.5713 17.536V17.776C52.5713 18.56 52.7713 19.184 53.1713 19.648C53.5873 20.096 54.3313 20.32 55.4033 20.32L54.9233 22.264ZM67.0823 22.336V13.12C67.0823 12.32 66.8343 11.712 66.3383 11.296C65.8583 10.864 65.2743 10.648 64.5863 10.648C63.8983 10.648 63.2663 10.832 62.6903 11.2C62.1303 11.568 61.7383 12.104 61.5143 12.808V22L58.5863 22.312L58.1063 3.28L61.5143 2.8V10.048C61.8343 9.568 62.3143 9.176 62.9543 8.872C63.6103 8.552 64.4663 8.392 65.5223 8.392C66.4503 8.392 67.2743 8.584 67.9943 8.968C68.7303 9.336 69.3143 9.848 69.7463 10.504C70.1783 11.16 70.3943 11.92 70.3943 12.784V13.048L69.9143 22L67.0823 22.336ZM85.4266 19.648C84.9626 20.272 84.4666 20.776 83.9386 21.16C83.4266 21.544 82.8346 21.824 82.1626 22C81.4906 22.176 80.6666 22.264 79.6906 22.264C78.2986 22.264 77.1066 21.96 76.1146 21.352C75.1226 20.728 74.3626 19.896 73.8346 18.856C73.3066 17.8 73.0426 16.624 73.0426 15.328C73.0426 14.016 73.3146 12.84 73.8586 11.8C74.4026 10.744 75.1626 9.912 76.1386 9.304C77.1306 8.696 78.2826 8.392 79.5946 8.392C80.8746 8.392 81.9706 8.688 82.8826 9.28C83.8106 9.856 84.5226 10.688 85.0186 11.776C85.5146 12.848 85.7626 14.128 85.7626 15.616V16.024H77.0746L76.5466 14.152L82.4506 13.672C82.4026 12.824 82.1626 12.136 81.7306 11.608C81.3146 11.064 80.6426 10.792 79.7146 10.792C78.6426 10.792 77.7546 11.192 77.0506 11.992C76.3626 12.776 76.0186 13.896 76.0186 15.352C76.0186 16.392 76.2106 17.256 76.5946 17.944C76.9946 18.616 77.4906 19.12 78.0826 19.456C78.6906 19.776 79.2986 19.936 79.9066 19.936C80.9306 19.936 81.8426 19.768 82.6426 19.432C83.4586 19.08 84.0986 18.608 84.5626 18.016L85.4266 19.648ZM102.827 22.264C101.435 22.264 100.227 21.984 99.2033 21.424C98.1953 20.848 97.4113 20.04 96.8513 19C96.2913 17.96 96.0113 16.744 96.0113 15.352C96.0113 13.944 96.2913 12.72 96.8513 11.68C97.4113 10.64 98.1953 9.832 99.2033 9.256C100.227 8.68 101.435 8.392 102.827 8.392C104.235 8.392 105.443 8.68 106.451 9.256C107.475 9.832 108.259 10.64 108.803 11.68C109.347 12.72 109.619 13.944 109.619 15.352C109.619 16.744 109.347 17.96 108.803 19C108.259 20.04 107.475 20.848 106.451 21.424C105.443 21.984 104.235 22.264 102.827 22.264ZM103.211 20.056C104.219 19.976 105.003 19.552 105.563 18.784C106.123 18 106.403 17 106.403 15.784C106.403 15.656 106.403 15.536 106.403 15.424C106.403 15.296 106.395 15.168 106.379 15.04C106.267 13.664 105.883 12.584 105.227 11.8C104.587 11.016 103.771 10.624 102.779 10.624C102.715 10.624 102.659 10.632 102.611 10.648C102.563 10.648 102.507 10.648 102.443 10.648C101.467 10.712 100.683 11.136 100.091 11.92C99.5153 12.704 99.2273 13.712 99.2273 14.944C99.2273 15.056 99.2273 15.176 99.2273 15.304C99.2273 15.416 99.2353 15.536 99.2513 15.664C99.3633 17.024 99.7553 18.104 100.427 18.904C101.099 19.688 101.923 20.08 102.899 20.08C102.947 20.08 102.995 20.08 103.043 20.08C103.107 20.064 103.163 20.056 103.211 20.056ZM118.509 22.264C116.653 22.264 115.309 21.896 114.477 21.16C113.645 20.424 113.229 19.36 113.229 17.968V10.912H111.405L110.925 9.064L113.229 8.824V4.504L116.613 4.984L116.493 8.488L118.893 8.248V10.912H116.397L116.157 17.536V17.776C116.157 18.56 116.357 19.184 116.757 19.648C117.173 20.096 117.917 20.32 118.989 20.32L118.509 22.264ZM130.668 22.336V13.12C130.668 12.32 130.42 11.712 129.924 11.296C129.444 10.864 128.86 10.648 128.172 10.648C127.484 10.648 126.852 10.832 126.276 11.2C125.716 11.568 125.324 12.104 125.1 12.808V22L122.172 22.312L121.692 3.28L125.1 2.8V10.048C125.42 9.568 125.9 9.176 126.54 8.872C127.196 8.552 128.052 8.392 129.108 8.392C130.036 8.392 130.86 8.584 131.58 8.968C132.316 9.336 132.9 9.848 133.332 10.504C133.764 11.16 133.98 11.92 133.98 12.784V13.048L133.5 22L130.668 22.336ZM149.013 19.648C148.549 20.272 148.053 20.776 147.525 21.16C147.013 21.544 146.421 21.824 145.749 22C145.077 22.176 144.253 22.264 143.277 22.264C141.885 22.264 140.693 21.96 139.701 21.352C138.709 20.728 137.949 19.896 137.421 18.856C136.893 17.8 136.629 16.624 136.629 15.328C136.629 14.016 136.901 12.84 137.445 11.8C137.989 10.744 138.749 9.912 139.725 9.304C140.717 8.696 141.869 8.392 143.181 8.392C144.461 8.392 145.557 8.688 146.469 9.28C147.397 9.856 148.109 10.688 148.605 11.776C149.101 12.848 149.349 14.128 149.349 15.616V16.024H140.661L140.133 14.152L146.037 13.672C145.989 12.824 145.749 12.136 145.317 11.608C144.901 11.064 144.229 10.792 143.301 10.792C142.229 10.792 141.341 11.192 140.637 11.992C139.949 12.776 139.605 13.896 139.605 15.352C139.605 16.392 139.797 17.256 140.181 17.944C140.581 18.616 141.077 19.12 141.669 19.456C142.277 19.776 142.885 19.936 143.493 19.936C144.517 19.936 145.429 19.768 146.229 19.432C147.045 19.08 147.685 18.608 148.149 18.016L149.013 19.648ZM152.524 22.336L152.044 8.272L155.452 8.68V10.048C155.756 9.664 156.06 9.352 156.364 9.112C156.684 8.872 157.084 8.696 157.564 8.584C158.044 8.472 158.676 8.408 159.46 8.392L160.012 11.32C159.484 11.224 159.004 11.176 158.572 11.176C156.956 11.176 155.916 11.824 155.452 13.12V22L152.524 22.336ZM179.418 22.336V13.12C179.418 12.32 179.17 11.712 178.674 11.296C178.194 10.864 177.61 10.648 176.922 10.648C176.234 10.648 175.602 10.832 175.026 11.2C174.466 11.568 174.074 12.104 173.85 12.808V22L170.922 22.312L170.442 3.28L173.85 2.8V10.048C174.17 9.568 174.65 9.176 175.29 8.872C175.946 8.552 176.802 8.392 177.858 8.392C178.786 8.392 179.61 8.584 180.33 8.968C181.066 9.336 181.65 9.848 182.082 10.504C182.514 11.16 182.73 11.92 182.73 12.784V13.048L182.25 22L179.418 22.336ZM195.963 22.24C195.563 21.92 195.251 21.616 195.027 21.328C194.819 21.024 194.643 20.664 194.499 20.248C194.211 20.744 193.803 21.144 193.275 21.448C192.747 21.736 192.155 21.944 191.499 22.072C190.859 22.2 190.203 22.264 189.531 22.264C188.171 22.264 187.147 21.952 186.459 21.328C185.771 20.704 185.411 19.832 185.379 18.712V18.616C185.379 17.336 185.787 16.328 186.603 15.592C187.419 14.856 188.555 14.328 190.011 14.008C191.003 13.784 191.835 13.544 192.507 13.288C193.195 13.016 193.539 12.712 193.539 12.376C193.539 11.304 192.699 10.768 191.019 10.768C190.171 10.768 189.347 10.936 188.547 11.272C187.747 11.592 187.091 11.976 186.579 12.424L185.619 10.696C186.179 9.96 186.947 9.392 187.923 8.992C188.915 8.592 190.035 8.392 191.283 8.392C193.139 8.392 194.531 8.736 195.459 9.424C196.403 10.096 196.875 11.16 196.875 12.616V18.064C196.875 18.688 196.995 19.304 197.235 19.912C197.475 20.52 197.819 21.048 198.267 21.496L195.963 22.24ZM188.691 18.376C188.707 18.808 188.835 19.176 189.075 19.48C189.315 19.784 189.675 19.936 190.155 19.936C190.859 19.936 191.547 19.736 192.219 19.336C192.891 18.936 193.355 18.432 193.611 17.824C193.691 17.648 193.739 17.432 193.755 17.176C193.787 16.904 193.803 16.624 193.803 16.336C193.803 15.92 193.787 15.544 193.755 15.208C193.723 14.872 193.707 14.704 193.707 14.704C193.355 14.976 192.899 15.208 192.339 15.4C191.795 15.592 191.219 15.776 190.611 15.952C190.019 16.112 189.547 16.376 189.195 16.744C188.859 17.112 188.691 17.6 188.691 18.208V18.376ZM209.512 22.312V13.36C209.512 12.56 209.264 11.952 208.768 11.536C208.288 11.104 207.704 10.888 207.016 10.888C206.328 10.888 205.696 11.072 205.12 11.44C204.56 11.808 204.168 12.344 203.944 13.048V22L201.016 22.312L200.536 8.272L203.944 8.68V10.24C204.264 9.632 204.736 9.176 205.36 8.872C206 8.552 206.872 8.392 207.976 8.392C208.952 8.392 209.808 8.6 210.544 9.016C211.296 9.432 211.872 10 212.272 10.72C212.688 11.424 212.872 12.224 212.824 13.12L212.344 22L209.512 22.312ZM227.16 22.24C226.76 21.92 226.448 21.616 226.224 21.328C226.016 21.024 225.84 20.664 225.696 20.248C225.2 21 224.584 21.528 223.848 21.832C223.128 22.12 222.376 22.264 221.592 22.264C220.408 22.264 219.352 22.008 218.424 21.496C217.512 20.968 216.792 20.192 216.264 19.168C215.736 18.128 215.472 16.856 215.472 15.352C215.472 13.832 215.752 12.56 216.312 11.536C216.872 10.496 217.608 9.712 218.52 9.184C219.448 8.656 220.456 8.392 221.544 8.392C222.392 8.392 223.104 8.504 223.68 8.728C224.256 8.952 224.744 9.344 225.144 9.904V2.8L228.552 3.28L228.072 18.064C228.056 18.688 228.168 19.304 228.408 19.912C228.664 20.52 229.016 21.048 229.464 21.496L227.16 22.24ZM225.24 12.664C224.984 12.152 224.608 11.704 224.112 11.32C223.616 10.92 223.016 10.72 222.312 10.72C221.704 10.72 221.112 10.872 220.536 11.176C219.96 11.464 219.48 11.952 219.096 12.64C218.728 13.312 218.544 14.224 218.544 15.376C218.544 16.512 218.72 17.416 219.072 18.088C219.44 18.744 219.912 19.216 220.488 19.504C221.08 19.792 221.696 19.936 222.336 19.936C222.88 19.936 223.368 19.8 223.8 19.528C224.232 19.24 224.576 18.856 224.832 18.376C225.104 17.896 225.24 17.376 225.24 16.816V12.664ZM233.094 24.304C233.414 24 233.71 23.632 233.982 23.2C234.254 22.784 234.422 22.368 234.486 21.952C233.894 21.952 233.398 21.792 232.998 21.472C232.598 21.152 232.398 20.704 232.398 20.128C232.398 19.552 232.582 19.08 232.95 18.712C233.318 18.344 233.79 18.16 234.366 18.16C234.942 18.16 235.406 18.352 235.758 18.736C236.126 19.12 236.31 19.6 236.31 20.176C236.31 20.704 236.206 21.272 235.998 21.88C235.79 22.472 235.502 23.032 235.134 23.56C234.766 24.088 234.334 24.512 233.838 24.832L233.094 24.304ZM248.969 27.088L248.489 8.272L251.897 8.68V9.976C252.185 9.48 252.665 9.096 253.337 8.824C254.009 8.536 254.753 8.392 255.569 8.392C257.329 8.392 258.737 8.984 259.793 10.168C260.849 11.336 261.377 13.056 261.377 15.328C261.377 17.616 260.841 19.344 259.769 20.512C258.697 21.68 257.305 22.264 255.593 22.264C254.713 22.264 253.945 22.128 253.289 21.856C252.633 21.584 252.169 21.264 251.897 20.896V26.512L248.969 27.088ZM251.849 18.16C252.105 18.672 252.481 19.104 252.977 19.456C253.473 19.808 254.073 19.984 254.777 19.984C255.385 19.984 255.953 19.84 256.481 19.552C257.025 19.248 257.457 18.76 257.777 18.088C258.113 17.4 258.281 16.48 258.281 15.328C258.281 14.192 258.121 13.296 257.801 12.64C257.481 11.968 257.057 11.488 256.529 11.2C256.001 10.912 255.409 10.768 254.753 10.768C254.225 10.768 253.737 10.904 253.289 11.176C252.857 11.432 252.505 11.784 252.233 12.232C251.977 12.68 251.849 13.192 251.849 13.768V18.16ZM270.171 22.264C268.779 22.264 267.571 21.984 266.547 21.424C265.539 20.848 264.755 20.04 264.195 19C263.635 17.96 263.355 16.744 263.355 15.352C263.355 13.944 263.635 12.72 264.195 11.68C264.755 10.64 265.539 9.832 266.547 9.256C267.571 8.68 268.779 8.392 270.171 8.392C271.579 8.392 272.787 8.68 273.795 9.256C274.819 9.832 275.603 10.64 276.147 11.68C276.691 12.72 276.963 13.944 276.963 15.352C276.963 16.744 276.691 17.96 276.147 19C275.603 20.04 274.819 20.848 273.795 21.424C272.787 21.984 271.579 22.264 270.171 22.264ZM270.555 20.056C271.563 19.976 272.347 19.552 272.907 18.784C273.467 18 273.747 17 273.747 15.784C273.747 15.656 273.747 15.536 273.747 15.424C273.747 15.296 273.739 15.168 273.723 15.04C273.611 13.664 273.227 12.584 272.571 11.8C271.931 11.016 271.115 10.624 270.123 10.624C270.059 10.624 270.003 10.632 269.955 10.648C269.907 10.648 269.851 10.648 269.787 10.648C268.811 10.712 268.027 11.136 267.435 11.92C266.859 12.704 266.571 13.712 266.571 14.944C266.571 15.056 266.571 15.176 266.571 15.304C266.571 15.416 266.579 15.536 266.595 15.664C266.707 17.024 267.099 18.104 267.771 18.904C268.443 19.688 269.267 20.08 270.243 20.08C270.291 20.08 270.339 20.08 270.387 20.08C270.451 20.064 270.507 20.056 270.555 20.056ZM280.141 27.088L279.661 8.272L283.069 8.68V9.976C283.357 9.48 283.837 9.096 284.509 8.824C285.181 8.536 285.925 8.392 286.741 8.392C288.501 8.392 289.909 8.984 290.965 10.168C292.021 11.336 292.549 13.056 292.549 15.328C292.549 17.616 292.013 19.344 290.941 20.512C289.869 21.68 288.477 22.264 286.765 22.264C285.885 22.264 285.117 22.128 284.461 21.856C283.805 21.584 283.341 21.264 283.069 20.896V26.512L280.141 27.088ZM283.021 18.16C283.277 18.672 283.653 19.104 284.149 19.456C284.645 19.808 285.245 19.984 285.949 19.984C286.557 19.984 287.125 19.84 287.653 19.552C288.197 19.248 288.629 18.76 288.949 18.088C289.285 17.4 289.453 16.48 289.453 15.328C289.453 14.192 289.293 13.296 288.973 12.64C288.653 11.968 288.229 11.488 287.701 11.2C287.173 10.912 286.581 10.768 285.925 10.768C285.397 10.768 284.909 10.904 284.461 11.176C284.029 11.432 283.677 11.784 283.405 12.232C283.149 12.68 283.021 13.192 283.021 13.768V18.16ZM306.599 22.24C305.623 21.712 304.991 21.032 304.703 20.2C304.479 20.632 304.127 21 303.647 21.304C303.167 21.608 302.615 21.84 301.991 22C301.383 22.176 300.759 22.264 300.119 22.264C298.807 22.264 297.759 21.84 296.975 20.992C296.207 20.128 295.783 19.04 295.703 17.728L295.223 8.272L298.631 8.68V17.176C298.631 17.992 298.847 18.608 299.279 19.024C299.711 19.44 300.295 19.648 301.031 19.648C301.719 19.648 302.343 19.464 302.903 19.096C303.479 18.728 303.871 18.192 304.079 17.488V8.272L307.487 8.68L307.079 17.728V17.872C307.079 18.464 307.231 19.08 307.535 19.72C307.855 20.36 308.311 20.952 308.903 21.496L306.599 22.24ZM311.095 22.312V2.8L314.575 3.28L314.095 22L311.095 22.312ZM327.798 22.24C327.398 21.92 327.086 21.616 326.862 21.328C326.654 21.024 326.478 20.664 326.334 20.248C326.046 20.744 325.638 21.144 325.11 21.448C324.582 21.736 323.99 21.944 323.334 22.072C322.694 22.2 322.038 22.264 321.366 22.264C320.006 22.264 318.982 21.952 318.294 21.328C317.606 20.704 317.246 19.832 317.214 18.712V18.616C317.214 17.336 317.622 16.328 318.438 15.592C319.254 14.856 320.39 14.328 321.846 14.008C322.838 13.784 323.67 13.544 324.342 13.288C325.03 13.016 325.374 12.712 325.374 12.376C325.374 11.304 324.534 10.768 322.854 10.768C322.006 10.768 321.182 10.936 320.382 11.272C319.582 11.592 318.926 11.976 318.414 12.424L317.454 10.696C318.014 9.96 318.782 9.392 319.758 8.992C320.75 8.592 321.87 8.392 323.118 8.392C324.974 8.392 326.366 8.736 327.294 9.424C328.238 10.096 328.71 11.16 328.71 12.616V18.064C328.71 18.688 328.83 19.304 329.07 19.912C329.31 20.52 329.654 21.048 330.102 21.496L327.798 22.24ZM320.526 18.376C320.542 18.808 320.67 19.176 320.91 19.48C321.15 19.784 321.51 19.936 321.99 19.936C322.694 19.936 323.382 19.736 324.054 19.336C324.726 18.936 325.19 18.432 325.446 17.824C325.526 17.648 325.574 17.432 325.59 17.176C325.622 16.904 325.638 16.624 325.638 16.336C325.638 15.92 325.622 15.544 325.59 15.208C325.558 14.872 325.542 14.704 325.542 14.704C325.19 14.976 324.734 15.208 324.174 15.4C323.63 15.592 323.054 15.776 322.446 15.952C321.854 16.112 321.382 16.376 321.03 16.744C320.694 17.112 320.526 17.6 320.526 18.208V18.376ZM332.852 22.336L332.372 8.272L335.78 8.68V10.048C336.084 9.664 336.388 9.352 336.692 9.112C337.012 8.872 337.412 8.696 337.892 8.584C338.372 8.472 339.004 8.408 339.788 8.392L340.34 11.32C339.812 11.224 339.332 11.176 338.9 11.176C337.284 11.176 336.244 11.824 335.78 13.12V22L332.852 22.336ZM354.73 14.368V21.832L351.73 22.288L351.298 6.088H350.266L349.786 3.952L363.466 3.04V6.088H354.73V11.944L362.41 11.176V14.368H354.73ZM364.3 22.528L371.548 2.032L373.876 2.728L366.604 23.224L364.3 22.528ZM379.598 14.368V21.832L376.598 22.288L376.166 6.088H375.134L374.654 3.952L388.334 3.04V6.088H379.598V11.944L387.278 11.176V14.368H379.598ZM11.1696 57.24C10.7696 56.92 10.4576 56.616 10.2336 56.328C10.0256 56.024 9.84956 55.664 9.70556 55.248C9.41756 55.744 9.00956 56.144 8.48156 56.448C7.95356 56.736 7.36156 56.944 6.70556 57.072C6.06556 57.2 5.40956 57.264 4.73756 57.264C3.37756 57.264 2.35356 56.952 1.66556 56.328C0.977563 55.704 0.617563 54.832 0.585563 53.712V53.616C0.585563 52.336 0.993563 51.328 1.80956 50.592C2.62556 49.856 3.76156 49.328 5.21756 49.008C6.20956 48.784 7.04156 48.544 7.71356 48.288C8.40156 48.016 8.74556 47.712 8.74556 47.376C8.74556 46.304 7.90556 45.768 6.22556 45.768C5.37756 45.768 4.55356 45.936 3.75356 46.272C2.95356 46.592 2.29756 46.976 1.78556 47.424L0.825563 45.696C1.38556 44.96 2.15356 44.392 3.12956 43.992C4.12156 43.592 5.24156 43.392 6.48956 43.392C8.34556 43.392 9.73756 43.736 10.6656 44.424C11.6096 45.096 12.0816 46.16 12.0816 47.616V53.064C12.0816 53.688 12.2016 54.304 12.4416 54.912C12.6816 55.52 13.0256 56.048 13.4736 56.496L11.1696 57.24ZM3.89756 53.376C3.91356 53.808 4.04156 54.176 4.28156 54.48C4.52156 54.784 4.88156 54.936 5.36156 54.936C6.06556 54.936 6.75356 54.736 7.42556 54.336C8.09756 53.936 8.56156 53.432 8.81756 52.824C8.89756 52.648 8.94556 52.432 8.96156 52.176C8.99356 51.904 9.00956 51.624 9.00956 51.336C9.00956 50.92 8.99356 50.544 8.96156 50.208C8.92956 49.872 8.91356 49.704 8.91356 49.704C8.56156 49.976 8.10556 50.208 7.54556 50.4C7.00156 50.592 6.42556 50.776 5.81756 50.952C5.22556 51.112 4.75356 51.376 4.40156 51.744C4.06556 52.112 3.89756 52.6 3.89756 53.208V53.376ZM24.7191 57.312V48.36C24.7191 47.56 24.4711 46.952 23.9751 46.536C23.4951 46.104 22.9111 45.888 22.2231 45.888C21.5351 45.888 20.9031 46.072 20.3271 46.44C19.7671 46.808 19.3751 47.344 19.1511 48.048V57L16.2231 57.312L15.7431 43.272L19.1511 43.68V45.24C19.4711 44.632 19.9431 44.176 20.5671 43.872C21.2071 43.552 22.0791 43.392 23.1831 43.392C24.1591 43.392 25.0151 43.6 25.7511 44.016C26.5031 44.432 27.0791 45 27.4791 45.72C27.8951 46.424 28.0791 47.224 28.0311 48.12L27.5511 57L24.7191 57.312ZM42.3673 57.24C41.9673 56.92 41.6553 56.616 41.4313 56.328C41.2233 56.024 41.0473 55.664 40.9033 55.248C40.4073 56 39.7913 56.528 39.0553 56.832C38.3353 57.12 37.5833 57.264 36.7993 57.264C35.6153 57.264 34.5593 57.008 33.6313 56.496C32.7193 55.968 31.9993 55.192 31.4713 54.168C30.9433 53.128 30.6793 51.856 30.6793 50.352C30.6793 48.832 30.9593 47.56 31.5193 46.536C32.0793 45.496 32.8153 44.712 33.7273 44.184C34.6553 43.656 35.6633 43.392 36.7513 43.392C37.5993 43.392 38.3113 43.504 38.8873 43.728C39.4633 43.952 39.9513 44.344 40.3513 44.904V37.8L43.7593 38.28L43.2793 53.064C43.2633 53.688 43.3753 54.304 43.6153 54.912C43.8713 55.52 44.2233 56.048 44.6713 56.496L42.3673 57.24ZM40.4473 47.664C40.1913 47.152 39.8153 46.704 39.3193 46.32C38.8233 45.92 38.2233 45.72 37.5193 45.72C36.9113 45.72 36.3193 45.872 35.7433 46.176C35.1673 46.464 34.6873 46.952 34.3033 47.64C33.9353 48.312 33.7513 49.224 33.7513 50.376C33.7513 51.512 33.9273 52.416 34.2793 53.088C34.6473 53.744 35.1193 54.216 35.6953 54.504C36.2873 54.792 36.9033 54.936 37.5433 54.936C38.0873 54.936 38.5753 54.8 39.0073 54.528C39.4393 54.24 39.7833 53.856 40.0393 53.376C40.3113 52.896 40.4473 52.376 40.4473 51.816V47.664ZM59.3828 49.368V56.832L56.3828 57.288L55.9508 41.088H54.9188L54.4388 38.952L68.1188 38.04V41.088H59.3828V46.944L67.0628 46.176V49.368H59.3828ZM68.9526 57.528L76.2006 37.032L78.5286 37.728L71.2566 58.224L68.9526 57.528ZM96.4659 57.312L95.7939 44.04L91.0899 53.76L91.7139 55.056L88.7139 56.328L83.5299 44.904L81.8019 57.312L79.3779 57L80.6259 39.864L79.8339 38.28L83.5539 37.8L89.7939 51L94.4979 37.8L98.6019 38.28L97.8339 39.84L100.114 57L96.4659 57.312ZM120.354 47.208C119.89 46.76 119.242 46.392 118.41 46.104C117.578 45.816 116.754 45.672 115.938 45.672C115.138 45.672 114.57 45.808 114.234 46.08C113.898 46.352 113.73 46.672 113.73 47.04C113.73 47.392 113.93 47.704 114.33 47.976C114.746 48.248 115.474 48.488 116.514 48.696C118.322 49.048 119.642 49.6 120.474 50.352C121.322 51.088 121.746 52.064 121.746 53.28C121.746 54.56 121.258 55.544 120.282 56.232C119.322 56.92 117.898 57.264 116.01 57.264C115.21 57.264 114.41 57.112 113.61 56.808C112.826 56.488 112.122 56.104 111.498 55.656C110.89 55.192 110.426 54.76 110.106 54.36L111.282 52.8C111.586 53.12 112.018 53.44 112.578 53.76C113.154 54.08 113.762 54.344 114.402 54.552C115.058 54.76 115.634 54.864 116.13 54.864C116.946 54.864 117.538 54.736 117.906 54.48C118.29 54.224 118.482 53.864 118.482 53.4C118.482 52.888 118.21 52.472 117.666 52.152C117.138 51.832 116.306 51.552 115.17 51.312C113.522 50.976 112.338 50.456 111.618 49.752C110.898 49.048 110.538 48.208 110.538 47.232C110.538 46.128 111.01 45.216 111.954 44.496C112.898 43.76 114.242 43.392 115.986 43.392C116.802 43.392 117.57 43.504 118.29 43.728C119.026 43.936 119.658 44.208 120.186 44.544C120.73 44.88 121.122 45.216 121.362 45.552L120.354 47.208ZM133.328 57.336V48.12C133.328 47.32 133.08 46.712 132.584 46.296C132.104 45.864 131.52 45.648 130.832 45.648C130.144 45.648 129.512 45.832 128.936 46.2C128.376 46.568 127.984 47.104 127.76 47.808V57L124.832 57.312L124.352 38.28L127.76 37.8V45.048C128.08 44.568 128.56 44.176 129.2 43.872C129.856 43.552 130.712 43.392 131.768 43.392C132.696 43.392 133.52 43.584 134.24 43.968C134.976 44.336 135.56 44.848 135.992 45.504C136.424 46.16 136.64 46.92 136.64 47.784V48.048L136.16 57L133.328 57.336ZM143.945 39.768C143.945 40.328 143.745 40.808 143.345 41.208C142.945 41.608 142.465 41.808 141.905 41.808C141.345 41.808 140.865 41.608 140.465 41.208C140.065 40.808 139.865 40.328 139.865 39.768C139.865 39.208 140.065 38.728 140.465 38.328C140.865 37.928 141.345 37.728 141.905 37.728C142.465 37.728 142.945 37.928 143.345 38.328C143.745 38.728 143.945 39.208 143.945 39.768ZM140.201 57.336V43.272L143.633 43.68L143.153 57L140.201 57.336ZM147.45 62.088L146.97 43.272L150.378 43.68V44.976C150.666 44.48 151.146 44.096 151.818 43.824C152.49 43.536 153.234 43.392 154.05 43.392C155.81 43.392 157.218 43.984 158.274 45.168C159.33 46.336 159.858 48.056 159.858 50.328C159.858 52.616 159.322 54.344 158.25 55.512C157.178 56.68 155.786 57.264 154.074 57.264C153.194 57.264 152.426 57.128 151.77 56.856C151.114 56.584 150.65 56.264 150.378 55.896V61.512L147.45 62.088ZM150.33 53.16C150.586 53.672 150.962 54.104 151.458 54.456C151.954 54.808 152.554 54.984 153.258 54.984C153.866 54.984 154.434 54.84 154.962 54.552C155.506 54.248 155.938 53.76 156.258 53.088C156.594 52.4 156.762 51.48 156.762 50.328C156.762 49.192 156.602 48.296 156.282 47.64C155.962 46.968 155.538 46.488 155.01 46.2C154.482 45.912 153.89 45.768 153.234 45.768C152.706 45.768 152.218 45.904 151.77 46.176C151.338 46.432 150.986 46.784 150.714 47.232C150.458 47.68 150.33 48.192 150.33 48.768V53.16ZM171.94 47.208C171.476 46.76 170.828 46.392 169.996 46.104C169.164 45.816 168.34 45.672 167.524 45.672C166.724 45.672 166.156 45.808 165.82 46.08C165.484 46.352 165.316 46.672 165.316 47.04C165.316 47.392 165.516 47.704 165.916 47.976C166.332 48.248 167.06 48.488 168.1 48.696C169.908 49.048 171.228 49.6 172.06 50.352C172.908 51.088 173.332 52.064 173.332 53.28C173.332 54.56 172.844 55.544 171.868 56.232C170.908 56.92 169.484 57.264 167.596 57.264C166.796 57.264 165.996 57.112 165.196 56.808C164.412 56.488 163.708 56.104 163.084 55.656C162.476 55.192 162.012 54.76 161.692 54.36L162.868 52.8C163.172 53.12 163.604 53.44 164.164 53.76C164.74 54.08 165.348 54.344 165.988 54.552C166.644 54.76 167.22 54.864 167.716 54.864C168.532 54.864 169.124 54.736 169.492 54.48C169.876 54.224 170.068 53.864 170.068 53.4C170.068 52.888 169.796 52.472 169.252 52.152C168.724 51.832 167.892 51.552 166.756 51.312C165.108 50.976 163.924 50.456 163.204 49.752C162.484 49.048 162.124 48.208 162.124 47.232C162.124 46.128 162.596 45.216 163.54 44.496C164.484 43.76 165.828 43.392 167.572 43.392C168.388 43.392 169.156 43.504 169.876 43.728C170.612 43.936 171.244 44.208 171.772 44.544C172.316 44.88 172.708 45.216 172.948 45.552L171.94 47.208ZM190.404 57.264C188.548 57.264 187.204 56.896 186.372 56.16C185.54 55.424 185.124 54.36 185.124 52.968V45.912H183.3L182.82 44.064L185.124 43.824V39.504L188.508 39.984L188.388 43.488L190.788 43.248V45.912H188.292L188.052 52.536V52.776C188.052 53.56 188.252 54.184 188.652 54.648C189.068 55.096 189.812 55.32 190.884 55.32L190.404 57.264ZM205.251 54.648C204.787 55.272 204.291 55.776 203.763 56.16C203.251 56.544 202.659 56.824 201.987 57C201.315 57.176 200.491 57.264 199.515 57.264C198.123 57.264 196.931 56.96 195.939 56.352C194.947 55.728 194.187 54.896 193.659 53.856C193.131 52.8 192.867 51.624 192.867 50.328C192.867 49.016 193.139 47.84 193.683 46.8C194.227 45.744 194.987 44.912 195.963 44.304C196.955 43.696 198.107 43.392 199.419 43.392C200.699 43.392 201.795 43.688 202.707 44.28C203.635 44.856 204.347 45.688 204.843 46.776C205.339 47.848 205.587 49.128 205.587 50.616V51.024H196.899L196.371 49.152L202.275 48.672C202.227 47.824 201.987 47.136 201.555 46.608C201.139 46.064 200.467 45.792 199.539 45.792C198.467 45.792 197.579 46.192 196.875 46.992C196.187 47.776 195.843 48.896 195.843 50.352C195.843 51.392 196.035 52.256 196.419 52.944C196.819 53.616 197.315 54.12 197.907 54.456C198.515 54.776 199.123 54.936 199.731 54.936C200.755 54.936 201.667 54.768 202.467 54.432C203.283 54.08 203.923 53.608 204.387 53.016L205.251 54.648ZM217.258 57.312V48.36C217.258 47.56 217.01 46.952 216.514 46.536C216.034 46.104 215.45 45.888 214.762 45.888C214.074 45.888 213.442 46.072 212.866 46.44C212.306 46.808 211.914 47.344 211.69 48.048V57L208.762 57.312L208.282 43.272L211.69 43.68V45.24C212.01 44.632 212.482 44.176 213.106 43.872C213.746 43.552 214.618 43.392 215.722 43.392C216.698 43.392 217.554 43.6 218.29 44.016C219.042 44.432 219.618 45 220.018 45.72C220.434 46.424 220.618 47.224 220.57 48.12L220.09 57L217.258 57.312ZM234.906 57.24C234.506 56.92 234.194 56.616 233.97 56.328C233.762 56.024 233.586 55.664 233.442 55.248C232.946 56 232.33 56.528 231.594 56.832C230.874 57.12 230.122 57.264 229.338 57.264C228.154 57.264 227.098 57.008 226.17 56.496C225.258 55.968 224.538 55.192 224.01 54.168C223.482 53.128 223.218 51.856 223.218 50.352C223.218 48.832 223.498 47.56 224.058 46.536C224.618 45.496 225.354 44.712 226.266 44.184C227.194 43.656 228.202 43.392 229.29 43.392C230.138 43.392 230.85 43.504 231.426 43.728C232.002 43.952 232.49 44.344 232.89 44.904V37.8L236.298 38.28L235.818 53.064C235.802 53.688 235.914 54.304 236.154 54.912C236.41 55.52 236.762 56.048 237.21 56.496L234.906 57.24ZM232.986 47.664C232.73 47.152 232.354 46.704 231.858 46.32C231.362 45.92 230.762 45.72 230.058 45.72C229.45 45.72 228.858 45.872 228.282 46.176C227.706 46.464 227.226 46.952 226.842 47.64C226.474 48.312 226.29 49.224 226.29 50.376C226.29 51.512 226.466 52.416 226.818 53.088C227.186 53.744 227.658 54.216 228.234 54.504C228.826 54.792 229.442 54.936 230.082 54.936C230.626 54.936 231.114 54.8 231.546 54.528C231.978 54.24 232.322 53.856 232.578 53.376C232.85 52.896 232.986 52.376 232.986 51.816V47.664ZM254.154 57.264C252.298 57.264 250.954 56.896 250.122 56.16C249.29 55.424 248.874 54.36 248.874 52.968V45.912H247.05L246.57 44.064L248.874 43.824V39.504L252.258 39.984L252.138 43.488L254.538 43.248V45.912H252.042L251.802 52.536V52.776C251.802 53.56 252.002 54.184 252.402 54.648C252.818 55.096 253.562 55.32 254.634 55.32L254.154 57.264ZM263.433 57.264C262.041 57.264 260.833 56.984 259.809 56.424C258.801 55.848 258.017 55.04 257.457 54C256.897 52.96 256.617 51.744 256.617 50.352C256.617 48.944 256.897 47.72 257.457 46.68C258.017 45.64 258.801 44.832 259.809 44.256C260.833 43.68 262.041 43.392 263.433 43.392C264.841 43.392 266.049 43.68 267.057 44.256C268.081 44.832 268.865 45.64 269.409 46.68C269.953 47.72 270.225 48.944 270.225 50.352C270.225 51.744 269.953 52.96 269.409 54C268.865 55.04 268.081 55.848 267.057 56.424C266.049 56.984 264.841 57.264 263.433 57.264ZM263.817 55.056C264.825 54.976 265.609 54.552 266.169 53.784C266.729 53 267.009 52 267.009 50.784C267.009 50.656 267.009 50.536 267.009 50.424C267.009 50.296 267.001 50.168 266.985 50.04C266.873 48.664 266.489 47.584 265.833 46.8C265.193 46.016 264.377 45.624 263.385 45.624C263.321 45.624 263.265 45.632 263.217 45.648C263.169 45.648 263.113 45.648 263.049 45.648C262.073 45.712 261.289 46.136 260.697 46.92C260.121 47.704 259.833 48.712 259.833 49.944C259.833 50.056 259.833 50.176 259.833 50.304C259.833 50.416 259.841 50.536 259.857 50.664C259.969 52.024 260.361 53.104 261.033 53.904C261.705 54.688 262.529 55.08 263.505 55.08C263.553 55.08 263.601 55.08 263.649 55.08C263.713 55.064 263.769 55.056 263.817 55.056ZM281.676 57.24L281.196 37.8L284.604 38.28V44.976C284.892 44.48 285.372 44.096 286.044 43.824C286.716 43.536 287.46 43.392 288.276 43.392C290.036 43.392 291.444 43.984 292.5 45.168C293.556 46.336 294.084 48.056 294.084 50.328C294.084 52.616 293.548 54.344 292.476 55.512C291.404 56.68 290.012 57.264 288.3 57.264C287.42 57.264 286.604 57.104 285.852 56.784C285.116 56.448 284.588 56.008 284.268 55.464L284.028 56.688L281.676 57.24ZM284.532 53.16C284.788 53.672 285.164 54.104 285.66 54.456C286.156 54.808 286.756 54.984 287.46 54.984C288.068 54.984 288.636 54.84 289.164 54.552C289.708 54.248 290.148 53.76 290.484 53.088C290.82 52.4 290.988 51.48 290.988 50.328C290.988 49.192 290.828 48.296 290.508 47.64C290.188 46.968 289.756 46.488 289.212 46.2C288.684 45.912 288.092 45.768 287.436 45.768C286.908 45.768 286.42 45.904 285.972 46.176C285.54 46.432 285.188 46.784 284.916 47.232C284.66 47.68 284.532 48.192 284.532 48.768V53.16ZM308.446 54.648C307.982 55.272 307.486 55.776 306.958 56.16C306.446 56.544 305.854 56.824 305.182 57C304.51 57.176 303.686 57.264 302.71 57.264C301.318 57.264 300.126 56.96 299.134 56.352C298.142 55.728 297.382 54.896 296.854 53.856C296.326 52.8 296.062 51.624 296.062 50.328C296.062 49.016 296.334 47.84 296.878 46.8C297.422 45.744 298.182 44.912 299.158 44.304C300.15 43.696 301.302 43.392 302.614 43.392C303.894 43.392 304.99 43.688 305.902 44.28C306.83 44.856 307.542 45.688 308.038 46.776C308.534 47.848 308.782 49.128 308.782 50.616V51.024H300.094L299.566 49.152L305.47 48.672C305.422 47.824 305.182 47.136 304.75 46.608C304.334 46.064 303.662 45.792 302.734 45.792C301.662 45.792 300.774 46.192 300.07 46.992C299.382 47.776 299.038 48.896 299.038 50.352C299.038 51.392 299.23 52.256 299.614 52.944C300.014 53.616 300.51 54.12 301.102 54.456C301.71 54.776 302.318 54.936 302.926 54.936C303.95 54.936 304.862 54.768 305.662 54.432C306.478 54.08 307.118 53.608 307.582 53.016L308.446 54.648ZM331.127 55.08C330.679 55.72 329.999 56.248 329.087 56.664C328.175 57.064 327.143 57.264 325.991 57.264C324.759 57.264 323.615 57.008 322.559 56.496C321.503 55.968 320.647 55.192 319.991 54.168C319.351 53.144 319.031 51.864 319.031 50.328C319.031 48.872 319.335 47.632 319.943 46.608C320.551 45.568 321.375 44.776 322.415 44.232C323.471 43.672 324.663 43.392 325.991 43.392C327.063 43.392 328.039 43.576 328.919 43.944C329.815 44.296 330.511 44.784 331.007 45.408L330.191 47.232C329.791 46.816 329.231 46.472 328.511 46.2C327.791 45.928 327.103 45.792 326.447 45.792C325.695 45.792 325.007 45.968 324.383 46.32C323.759 46.672 323.263 47.192 322.895 47.88C322.543 48.552 322.367 49.368 322.367 50.328C322.367 51.768 322.759 52.88 323.543 53.664C324.327 54.448 325.319 54.84 326.519 54.84C327.303 54.84 328.031 54.712 328.703 54.456C329.391 54.2 329.935 53.848 330.335 53.4L331.127 55.08ZM343.631 57.24C343.231 56.92 342.919 56.616 342.695 56.328C342.487 56.024 342.311 55.664 342.167 55.248C341.879 55.744 341.471 56.144 340.943 56.448C340.415 56.736 339.823 56.944 339.167 57.072C338.527 57.2 337.871 57.264 337.199 57.264C335.839 57.264 334.815 56.952 334.127 56.328C333.439 55.704 333.079 54.832 333.047 53.712V53.616C333.047 52.336 333.455 51.328 334.271 50.592C335.087 49.856 336.223 49.328 337.679 49.008C338.671 48.784 339.503 48.544 340.175 48.288C340.863 48.016 341.207 47.712 341.207 47.376C341.207 46.304 340.367 45.768 338.687 45.768C337.839 45.768 337.015 45.936 336.215 46.272C335.415 46.592 334.759 46.976 334.247 47.424L333.287 45.696C333.847 44.96 334.615 44.392 335.59 43.992C336.583 43.592 337.703 43.392 338.951 43.392C340.807 43.392 342.199 43.736 343.127 44.424C344.071 45.096 344.543 46.16 344.543 47.616V53.064C344.543 53.688 344.663 54.304 344.903 54.912C345.143 55.52 345.487 56.048 345.935 56.496L343.631 57.24ZM336.359 53.376C336.375 53.808 336.503 54.176 336.743 54.48C336.983 54.784 337.343 54.936 337.823 54.936C338.527 54.936 339.215 54.736 339.887 54.336C340.559 53.936 341.023 53.432 341.279 52.824C341.359 52.648 341.407 52.432 341.423 52.176C341.455 51.904 341.471 51.624 341.471 51.336C341.471 50.92 341.455 50.544 341.423 50.208C341.391 49.872 341.375 49.704 341.375 49.704C341.023 49.976 340.567 50.208 340.007 50.4C339.463 50.592 338.887 50.776 338.279 50.952C337.687 51.112 337.215 51.376 336.863 51.744C336.527 52.112 336.359 52.6 336.359 53.208V53.376ZM357.18 57.312V48.36C357.18 47.56 356.932 46.952 356.436 46.536C355.956 46.104 355.372 45.888 354.684 45.888C353.996 45.888 353.364 46.072 352.788 46.44C352.228 46.808 351.836 47.344 351.612 48.048V57L348.684 57.312L348.204 43.272L351.612 43.68V45.24C351.932 44.632 352.404 44.176 353.028 43.872C353.668 43.552 354.54 43.392 355.644 43.392C356.62 43.392 357.476 43.6 358.212 44.016C358.964 44.432 359.54 45 359.94 45.72C360.356 46.424 360.54 47.224 360.492 48.12L360.012 57L357.18 57.312ZM369.956 57.264C368.564 57.264 367.356 56.984 366.332 56.424C365.324 55.848 364.54 55.04 363.98 54C363.42 52.96 363.14 51.744 363.14 50.352C363.14 48.944 363.42 47.72 363.98 46.68C364.54 45.64 365.324 44.832 366.332 44.256C367.356 43.68 368.564 43.392 369.956 43.392C371.364 43.392 372.572 43.68 373.58 44.256C374.604 44.832 375.388 45.64 375.932 46.68C376.476 47.72 376.748 48.944 376.748 50.352C376.748 51.744 376.476 52.96 375.932 54C375.388 55.04 374.604 55.848 373.58 56.424C372.572 56.984 371.364 57.264 369.956 57.264ZM370.34 55.056C371.348 54.976 372.132 54.552 372.692 53.784C373.252 53 373.532 52 373.532 50.784C373.532 50.656 373.532 50.536 373.532 50.424C373.532 50.296 373.524 50.168 373.508 50.04C373.396 48.664 373.012 47.584 372.356 46.8C371.716 46.016 370.9 45.624 369.908 45.624C369.844 45.624 369.788 45.632 369.74 45.648C369.692 45.648 369.636 45.648 369.572 45.648C368.596 45.712 367.812 46.136 367.22 46.92C366.644 47.704 366.356 48.712 366.356 49.944C366.356 50.056 366.356 50.176 366.356 50.304C366.356 50.416 366.364 50.536 366.38 50.664C366.492 52.024 366.884 53.104 367.556 53.904C368.228 54.688 369.052 55.08 370.028 55.08C370.076 55.08 370.124 55.08 370.172 55.08C370.236 55.064 370.292 55.056 370.34 55.056ZM388.422 57.312V48.36C388.422 47.56 388.174 46.952 387.678 46.536C387.198 46.104 386.614 45.888 385.926 45.888C385.238 45.888 384.606 46.072 384.03 46.44C383.47 46.808 383.078 47.344 382.854 48.048V57L379.926 57.312L379.446 43.272L382.854 43.68V45.24C383.174 44.632 383.646 44.176 384.27 43.872C384.91 43.552 385.782 43.392 386.886 43.392C387.862 43.392 388.718 43.6 389.454 44.016C390.206 44.432 390.782 45 391.182 45.72C391.598 46.424 391.782 47.224 391.734 48.12L391.254 57L388.422 57.312Z" fill="black"/>
<path d="M52.4042 115.08C51.9562 115.72 51.2762 116.248 50.3642 116.664C49.4522 117.064 48.4202 117.264 47.2682 117.264C46.0362 117.264 44.8922 117.008 43.8362 116.496C42.7802 115.968 41.9242 115.192 41.2682 114.168C40.6282 113.144 40.3082 111.864 40.3082 110.328C40.3082 108.872 40.6122 107.632 41.2202 106.608C41.8282 105.568 42.6522 104.776 43.6922 104.232C44.7482 103.672 45.9402 103.392 47.2682 103.392C48.3402 103.392 49.3162 103.576 50.1962 103.944C51.0922 104.296 51.7882 104.784 52.2842 105.408L51.4682 107.232C51.0682 106.816 50.5082 106.472 49.7882 106.2C49.0682 105.928 48.3802 105.792 47.7242 105.792C46.9722 105.792 46.2842 105.968 45.6602 106.32C45.0362 106.672 44.5402 107.192 44.1722 107.88C43.8202 108.552 43.6442 109.368 43.6442 110.328C43.6442 111.768 44.0362 112.88 44.8202 113.664C45.6042 114.448 46.5962 114.84 47.7962 114.84C48.5802 114.84 49.3082 114.712 49.9802 114.456C50.6682 114.2 51.2122 113.848 51.6122 113.4L52.4042 115.08ZM64.9078 117.24C64.5078 116.92 64.1958 116.616 63.9718 116.328C63.7638 116.024 63.5878 115.664 63.4438 115.248C63.1558 115.744 62.7478 116.144 62.2198 116.448C61.6918 116.736 61.0998 116.944 60.4438 117.072C59.8038 117.2 59.1478 117.264 58.4758 117.264C57.1158 117.264 56.0918 116.952 55.4038 116.328C54.7158 115.704 54.3558 114.832 54.3238 113.712V113.616C54.3238 112.336 54.7318 111.328 55.5478 110.592C56.3638 109.856 57.4998 109.328 58.9558 109.008C59.9478 108.784 60.7798 108.544 61.4518 108.288C62.1398 108.016 62.4838 107.712 62.4838 107.376C62.4838 106.304 61.6438 105.768 59.9638 105.768C59.1158 105.768 58.2918 105.936 57.4918 106.272C56.6918 106.592 56.0358 106.976 55.5238 107.424L54.5638 105.696C55.1238 104.96 55.8918 104.392 56.8678 103.992C57.8598 103.592 58.9798 103.392 60.2278 103.392C62.0838 103.392 63.4758 103.736 64.4038 104.424C65.3478 105.096 65.8198 106.16 65.8198 107.616V113.064C65.8198 113.688 65.9398 114.304 66.1798 114.912C66.4198 115.52 66.7638 116.048 67.2118 116.496L64.9078 117.24ZM57.6358 113.376C57.6518 113.808 57.7798 114.176 58.0198 114.48C58.2598 114.784 58.6198 114.936 59.0998 114.936C59.8038 114.936 60.4918 114.736 61.1638 114.336C61.8358 113.936 62.2998 113.432 62.5558 112.824C62.6358 112.648 62.6838 112.432 62.6998 112.176C62.7318 111.904 62.7478 111.624 62.7478 111.336C62.7478 110.92 62.7318 110.544 62.6998 110.208C62.6678 109.872 62.6518 109.704 62.6518 109.704C62.2998 109.976 61.8438 110.208 61.2838 110.4C60.7398 110.592 60.1638 110.776 59.5558 110.952C58.9638 111.112 58.4918 111.376 58.1398 111.744C57.8038 112.112 57.6358 112.6 57.6358 113.208V113.376ZM78.4573 117.312V108.36C78.4573 107.56 78.2093 106.952 77.7133 106.536C77.2333 106.104 76.6493 105.888 75.9613 105.888C75.2733 105.888 74.6413 106.072 74.0653 106.44C73.5053 106.808 73.1133 107.344 72.8893 108.048V117L69.9613 117.312L69.4813 103.272L72.8893 103.68V105.24C73.2093 104.632 73.6813 104.176 74.3053 103.872C74.9453 103.552 75.8173 103.392 76.9213 103.392C77.8973 103.392 78.7533 103.6 79.4893 104.016C80.2413 104.432 80.8173 105 81.2173 105.72C81.6333 106.424 81.8173 107.224 81.7693 108.12L81.2893 117L78.4573 117.312ZM91.2336 117.264C89.8416 117.264 88.6336 116.984 87.6096 116.424C86.6016 115.848 85.8176 115.04 85.2576 114C84.6976 112.96 84.4176 111.744 84.4176 110.352C84.4176 108.944 84.6976 107.72 85.2576 106.68C85.8176 105.64 86.6016 104.832 87.6096 104.256C88.6336 103.68 89.8416 103.392 91.2336 103.392C92.6416 103.392 93.8496 103.68 94.8576 104.256C95.8816 104.832 96.6656 105.64 97.2096 106.68C97.7536 107.72 98.0256 108.944 98.0256 110.352C98.0256 111.744 97.7536 112.96 97.2096 114C96.6656 115.04 95.8816 115.848 94.8576 116.424C93.8496 116.984 92.6416 117.264 91.2336 117.264ZM91.6176 115.056C92.6256 114.976 93.4096 114.552 93.9696 113.784C94.5296 113 94.8096 112 94.8096 110.784C94.8096 110.656 94.8096 110.536 94.8096 110.424C94.8096 110.296 94.8016 110.168 94.7856 110.04C94.6736 108.664 94.2896 107.584 93.6336 106.8C92.9936 106.016 92.1776 105.624 91.1856 105.624C91.1216 105.624 91.0656 105.632 91.0176 105.648C90.9696 105.648 90.9136 105.648 90.8496 105.648C89.8736 105.712 89.0896 106.136 88.4976 106.92C87.9216 107.704 87.6336 108.712 87.6336 109.944C87.6336 110.056 87.6336 110.176 87.6336 110.304C87.6336 110.416 87.6416 110.536 87.6576 110.664C87.7696 112.024 88.1616 113.104 88.8336 113.904C89.5056 114.688 90.3296 115.08 91.3056 115.08C91.3536 115.08 91.4016 115.08 91.4496 115.08C91.5136 115.064 91.5696 115.056 91.6176 115.056ZM109.7 117.312V108.36C109.7 107.56 109.452 106.952 108.956 106.536C108.476 106.104 107.892 105.888 107.204 105.888C106.516 105.888 105.884 106.072 105.308 106.44C104.748 106.808 104.356 107.344 104.132 108.048V117L101.204 117.312L100.724 103.272L104.132 103.68V105.24C104.452 104.632 104.924 104.176 105.548 103.872C106.188 103.552 107.06 103.392 108.164 103.392C109.14 103.392 109.996 103.6 110.732 104.016C111.484 104.432 112.06 105 112.46 105.72C112.876 106.424 113.06 107.224 113.012 108.12L112.532 117L109.7 117.312Z" fill="black"/>
<path d="M264.059 117.312V108.36C264.059 107.56 263.811 106.952 263.315 106.536C262.835 106.104 262.251 105.888 261.563 105.888C260.875 105.888 260.243 106.072 259.667 106.44C259.107 106.808 258.715 107.344 258.491 108.048V117L255.563 117.312L255.083 103.272L258.491 103.68V105.24C258.811 104.632 259.283 104.176 259.907 103.872C260.547 103.552 261.419 103.392 262.523 103.392C263.499 103.392 264.355 103.6 265.091 104.016C265.843 104.432 266.419 105 266.819 105.72C267.235 106.424 267.419 107.224 267.371 108.12L266.891 117L264.059 117.312ZM276.835 117.264C275.443 117.264 274.235 116.984 273.211 116.424C272.203 115.848 271.419 115.04 270.859 114C270.299 112.96 270.019 111.744 270.019 110.352C270.019 108.944 270.299 107.72 270.859 106.68C271.419 105.64 272.203 104.832 273.211 104.256C274.235 103.68 275.443 103.392 276.835 103.392C278.243 103.392 279.451 103.68 280.459 104.256C281.483 104.832 282.267 105.64 282.811 106.68C283.355 107.72 283.627 108.944 283.627 110.352C283.627 111.744 283.355 112.96 282.811 114C282.267 115.04 281.483 115.848 280.459 116.424C279.451 116.984 278.243 117.264 276.835 117.264ZM277.219 115.056C278.227 114.976 279.011 114.552 279.571 113.784C280.131 113 280.411 112 280.411 110.784C280.411 110.656 280.411 110.536 280.411 110.424C280.411 110.296 280.403 110.168 280.387 110.04C280.275 108.664 279.891 107.584 279.235 106.8C278.595 106.016 277.779 105.624 276.787 105.624C276.723 105.624 276.667 105.632 276.619 105.648C276.571 105.648 276.515 105.648 276.451 105.648C275.475 105.712 274.691 106.136 274.099 106.92C273.523 107.704 273.235 108.712 273.235 109.944C273.235 110.056 273.235 110.176 273.235 110.304C273.235 110.416 273.243 110.536 273.259 110.664C273.371 112.024 273.763 113.104 274.435 113.904C275.107 114.688 275.931 115.08 276.907 115.08C276.955 115.08 277.003 115.08 277.051 115.08C277.115 115.064 277.171 115.056 277.219 115.056ZM292.517 117.264C290.661 117.264 289.317 116.896 288.485 116.16C287.653 115.424 287.237 114.36 287.237 112.968V105.912H285.413L284.933 104.064L287.237 103.824V99.504L290.621 99.984L290.501 103.488L292.901 103.248V105.912H290.405L290.165 112.536V112.776C290.165 113.56 290.365 114.184 290.765 114.648C291.181 115.096 291.925 115.32 292.997 115.32L292.517 117.264ZM315.35 115.08C314.902 115.72 314.222 116.248 313.31 116.664C312.398 117.064 311.366 117.264 310.214 117.264C308.982 117.264 307.838 117.008 306.782 116.496C305.726 115.968 304.87 115.192 304.214 114.168C303.574 113.144 303.254 111.864 303.254 110.328C303.254 108.872 303.558 107.632 304.166 106.608C304.774 105.568 305.598 104.776 306.638 104.232C307.694 103.672 308.886 103.392 310.214 103.392C311.286 103.392 312.262 103.576 313.142 103.944C314.038 104.296 314.734 104.784 315.23 105.408L314.414 107.232C314.014 106.816 313.454 106.472 312.734 106.2C312.014 105.928 311.326 105.792 310.67 105.792C309.918 105.792 309.23 105.968 308.606 106.32C307.982 106.672 307.486 107.192 307.118 107.88C306.766 108.552 306.59 109.368 306.59 110.328C306.59 111.768 306.982 112.88 307.766 113.664C308.55 114.448 309.542 114.84 310.742 114.84C311.526 114.84 312.254 114.712 312.926 114.456C313.614 114.2 314.158 113.848 314.558 113.4L315.35 115.08ZM327.853 117.24C327.453 116.92 327.141 116.616 326.917 116.328C326.709 116.024 326.533 115.664 326.389 115.248C326.101 115.744 325.693 116.144 325.165 116.448C324.637 116.736 324.045 116.944 323.389 117.072C322.749 117.2 322.093 117.264 321.421 117.264C320.061 117.264 319.037 116.952 318.349 116.328C317.661 115.704 317.301 114.832 317.269 113.712V113.616C317.269 112.336 317.677 111.328 318.493 110.592C319.309 109.856 320.445 109.328 321.901 109.008C322.893 108.784 323.725 108.544 324.397 108.288C325.085 108.016 325.429 107.712 325.429 107.376C325.429 106.304 324.589 105.768 322.909 105.768C322.061 105.768 321.237 105.936 320.437 106.272C319.637 106.592 318.981 106.976 318.469 107.424L317.509 105.696C318.069 104.96 318.837 104.392 319.813 103.992C320.805 103.592 321.925 103.392 323.173 103.392C325.029 103.392 326.421 103.736 327.349 104.424C328.293 105.096 328.765 106.16 328.765 107.616V113.064C328.765 113.688 328.885 114.304 329.125 114.912C329.365 115.52 329.709 116.048 330.157 116.496L327.853 117.24ZM320.581 113.376C320.597 113.808 320.725 114.176 320.965 114.48C321.205 114.784 321.565 114.936 322.045 114.936C322.749 114.936 323.437 114.736 324.109 114.336C324.781 113.936 325.245 113.432 325.501 112.824C325.581 112.648 325.629 112.432 325.645 112.176C325.677 111.904 325.693 111.624 325.693 111.336C325.693 110.92 325.677 110.544 325.645 110.208C325.613 109.872 325.597 109.704 325.597 109.704C325.245 109.976 324.789 110.208 324.229 110.4C323.685 110.592 323.109 110.776 322.501 110.952C321.909 111.112 321.437 111.376 321.085 111.744C320.749 112.112 320.581 112.6 320.581 113.208V113.376ZM341.403 117.312V108.36C341.403 107.56 341.155 106.952 340.659 106.536C340.179 106.104 339.595 105.888 338.907 105.888C338.219 105.888 337.587 106.072 337.011 106.44C336.451 106.808 336.059 107.344 335.835 108.048V117L332.907 117.312L332.427 103.272L335.835 103.68V105.24C336.155 104.632 336.627 104.176 337.251 103.872C337.891 103.552 338.763 103.392 339.867 103.392C340.843 103.392 341.699 103.6 342.435 104.016C343.187 104.432 343.763 105 344.163 105.72C344.579 106.424 344.763 107.224 344.715 108.12L344.235 117L341.403 117.312ZM354.179 117.264C352.787 117.264 351.579 116.984 350.555 116.424C349.547 115.848 348.763 115.04 348.203 114C347.643 112.96 347.363 111.744 347.363 110.352C347.363 108.944 347.643 107.72 348.203 106.68C348.763 105.64 349.547 104.832 350.555 104.256C351.579 103.68 352.787 103.392 354.179 103.392C355.587 103.392 356.795 103.68 357.803 104.256C358.827 104.832 359.611 105.64 360.155 106.68C360.699 107.72 360.971 108.944 360.971 110.352C360.971 111.744 360.699 112.96 360.155 114C359.611 115.04 358.827 115.848 357.803 116.424C356.795 116.984 355.587 117.264 354.179 117.264ZM354.563 115.056C355.571 114.976 356.355 114.552 356.915 113.784C357.475 113 357.755 112 357.755 110.784C357.755 110.656 357.755 110.536 357.755 110.424C357.755 110.296 357.747 110.168 357.731 110.04C357.619 108.664 357.235 107.584 356.579 106.8C355.939 106.016 355.123 105.624 354.131 105.624C354.067 105.624 354.011 105.632 353.963 105.648C353.915 105.648 353.859 105.648 353.795 105.648C352.819 105.712 352.035 106.136 351.443 106.92C350.867 107.704 350.579 108.712 350.579 109.944C350.579 110.056 350.579 110.176 350.579 110.304C350.579 110.416 350.587 110.536 350.603 110.664C350.715 112.024 351.107 113.104 351.779 113.904C352.451 114.688 353.275 115.08 354.251 115.08C354.299 115.08 354.347 115.08 354.395 115.08C354.459 115.064 354.515 115.056 354.563 115.056ZM372.645 117.312V108.36C372.645 107.56 372.397 106.952 371.901 106.536C371.421 106.104 370.837 105.888 370.149 105.888C369.461 105.888 368.829 106.072 368.253 106.44C367.693 106.808 367.301 107.344 367.077 108.048V117L364.149 117.312L363.669 103.272L367.077 103.68V105.24C367.397 104.632 367.869 104.176 368.493 103.872C369.133 103.552 370.005 103.392 371.109 103.392C372.085 103.392 372.941 103.6 373.677 104.016C374.429 104.432 375.005 105 375.405 105.72C375.821 106.424 376.005 107.224 375.957 108.12L375.477 117L372.645 117.312Z" fill="black"/>
<circle cx="15.5" cy="159.5" r="12.5" fill="#C368EB"/>
<circle cx="15.5" cy="219.5" r="12.5" fill="#C368EB"/>
<circle cx="46.5" cy="219.5" r="12.5" fill="#C368EB"/>
<circle cx="139.5" cy="159.5" r="12.5" fill="#C368EB"/>
<circle cx="108.5" cy="159.5" r="12.5" fill="#C368EB"/>
<circle cx="77.5" cy="159.5" r="12.5" fill="#C368EB"/>
<circle cx="46.5" cy="159.5" r="12.5" fill="#C368EB"/>
<circle cx="15.5" cy="189.5" r="12.5" fill="#C368EB"/>
<circle cx="139.5" cy="189.5" r="12.5" fill="#C368EB"/>
<circle cx="108.5" cy="189.5" r="12.5" fill="#C368EB"/>
<circle cx="77.5" cy="189.5" r="12.5" fill="#C368EB"/>
<circle cx="46.5" cy="189.5" r="12.5" fill="#C368EB"/>
<circle cx="253.5" cy="159.5" r="12.5" fill="#C368EB"/>
<circle cx="346.5" cy="159.5" r="12.5" fill="#C368EB"/>
<circle cx="315.5" cy="159.5" r="12.5" fill="#C368EB"/>
<circle cx="284.5" cy="159.5" r="12.5" fill="#C368EB"/>
<circle cx="16.5" cy="295.5" r="12.5" fill="#EC9932"/>
<circle cx="140.5" cy="295.5" r="12.5" fill="#EC9932"/>
<circle cx="109.5" cy="295.5" r="12.5" fill="#EC9932"/>
<circle cx="78.5" cy="295.5" r="12.5" fill="#EC9932"/>
<circle cx="47.5" cy="295.5" r="12.5" fill="#EC9932"/>
<circle cx="16.5" cy="325.5" r="12.5" fill="#EC9932"/>
<circle cx="15.5" cy="355.5" r="12.5" fill="#EC9932"/>
<circle cx="139.5" cy="355.5" r="12.5" fill="#EC9932"/>
<circle cx="108.5" cy="355.5" r="12.5" fill="#EC9932"/>
<circle cx="77.5" cy="355.5" r="12.5" fill="#EC9932"/>
<circle cx="46.5" cy="355.5" r="12.5" fill="#EC9932"/>
<circle cx="15.5" cy="385.5" r="12.5" fill="#EC9932"/>
<circle cx="140.5" cy="325.5" r="12.5" fill="#EC9932"/>
<circle cx="109.5" cy="325.5" r="12.5" fill="#EC9932"/>
<circle cx="78.5" cy="325.5" r="12.5" fill="#EC9932"/>
<circle cx="47.5" cy="325.5" r="12.5" fill="#EC9932"/>
<circle cx="253.5" cy="295.5" r="12.5" fill="#EC9932"/>
<circle cx="346.5" cy="295.5" r="12.5" fill="#EC9932"/>
<circle cx="315.5" cy="295.5" r="12.5" fill="#EC9932"/>
<circle cx="284.5" cy="295.5" r="12.5" fill="#EC9932"/>
</g>
<defs>
<clipPath id="clip0_35_2">
<rect width="393" height="398" fill="white"/>
</clipPath>
</defs>
</svg>
