<svg width="402" height="439" viewBox="0 0 402 439" fill="none" xmlns="http://www.w3.org/2000/svg">
<g clip-path="url(#clip0_32_2)">
<path d="M8.63447 22.312V6.088H3.45047L2.73047 3.952L17.2985 3.04V6.088H12.2585L11.7785 22L8.63447 22.312ZM28.387 22.336V13.12C28.387 12.32 28.139 11.712 27.643 11.296C27.163 10.864 26.579 10.648 25.891 10.648C25.203 10.648 24.571 10.832 23.995 11.2C23.435 11.568 23.043 12.104 22.819 12.808V22L19.891 22.312L19.411 3.28L22.819 2.8V10.048C23.139 9.568 23.619 9.176 24.259 8.872C24.915 8.552 25.771 8.392 26.827 8.392C27.755 8.392 28.579 8.584 29.299 8.968C30.035 9.336 30.619 9.848 31.051 10.504C31.483 11.16 31.699 11.92 31.699 12.784V13.048L31.219 22L28.387 22.336ZM46.7313 19.648C46.2673 20.272 45.7713 20.776 45.2433 21.16C44.7313 21.544 44.1393 21.824 43.4673 22C42.7953 22.176 41.9713 22.264 40.9953 22.264C39.6033 22.264 38.4113 21.96 37.4193 21.352C36.4273 20.728 35.6673 19.896 35.1393 18.856C34.6113 17.8 34.3473 16.624 34.3473 15.328C34.3473 14.016 34.6193 12.84 35.1633 11.8C35.7073 10.744 36.4673 9.912 37.4433 9.304C38.4353 8.696 39.5873 8.392 40.8993 8.392C42.1793 8.392 43.2753 8.688 44.1873 9.28C45.1153 9.856 45.8273 10.688 46.3233 11.776C46.8193 12.848 47.0673 14.128 47.0673 15.616V16.024H38.3793L37.8513 14.152L43.7553 13.672C43.7073 12.824 43.4673 12.136 43.0353 11.608C42.6193 11.064 41.9473 10.792 41.0193 10.792C39.9473 10.792 39.0593 11.192 38.3553 11.992C37.6673 12.776 37.3233 13.896 37.3233 15.352C37.3233 16.392 37.5153 17.256 37.8993 17.944C38.2993 18.616 38.7953 19.12 39.3873 19.456C39.9953 19.776 40.6033 19.936 41.2113 19.936C42.2353 19.936 43.1473 19.768 43.9473 19.432C44.7633 19.08 45.4033 18.608 45.8673 18.016L46.7313 19.648ZM50.2426 22.336L49.7626 8.272L53.1706 8.68V10.048C53.4746 9.664 53.7786 9.352 54.0826 9.112C54.4026 8.872 54.8026 8.696 55.2826 8.584C55.7626 8.472 56.3946 8.408 57.1786 8.392L57.7306 11.32C57.2026 11.224 56.7226 11.176 56.2906 11.176C54.6746 11.176 53.6346 11.824 53.1706 13.12V22L50.2426 22.336ZM71.5516 19.648C71.0876 20.272 70.5916 20.776 70.0636 21.16C69.5516 21.544 68.9596 21.824 68.2876 22C67.6156 22.176 66.7916 22.264 65.8156 22.264C64.4236 22.264 63.2316 21.96 62.2396 21.352C61.2476 20.728 60.4876 19.896 59.9596 18.856C59.4316 17.8 59.1676 16.624 59.1676 15.328C59.1676 14.016 59.4396 12.84 59.9836 11.8C60.5276 10.744 61.2876 9.912 62.2636 9.304C63.2556 8.696 64.4076 8.392 65.7196 8.392C66.9996 8.392 68.0956 8.688 69.0076 9.28C69.9356 9.856 70.6476 10.688 71.1436 11.776C71.6396 12.848 71.8876 14.128 71.8876 15.616V16.024H63.1996L62.6716 14.152L68.5756 13.672C68.5276 12.824 68.2876 12.136 67.8556 11.608C67.4396 11.064 66.7676 10.792 65.8396 10.792C64.7676 10.792 63.8796 11.192 63.1756 11.992C62.4876 12.776 62.1436 13.896 62.1436 15.352C62.1436 16.392 62.3356 17.256 62.7196 17.944C63.1196 18.616 63.6156 19.12 64.2076 19.456C64.8156 19.776 65.4236 19.936 66.0316 19.936C67.0556 19.936 67.9676 19.768 68.7676 19.432C69.5836 19.08 70.2236 18.608 70.6876 18.016L71.5516 19.648ZM92.7203 22.24C92.3203 21.92 92.0083 21.616 91.7843 21.328C91.5763 21.024 91.4003 20.664 91.2563 20.248C90.9683 20.744 90.5603 21.144 90.0323 21.448C89.5043 21.736 88.9123 21.944 88.2563 22.072C87.6163 22.2 86.9603 22.264 86.2883 22.264C84.9283 22.264 83.9043 21.952 83.2163 21.328C82.5283 20.704 82.1683 19.832 82.1363 18.712V18.616C82.1363 17.336 82.5443 16.328 83.3603 15.592C84.1763 14.856 85.3123 14.328 86.7683 14.008C87.7603 13.784 88.5923 13.544 89.2643 13.288C89.9523 13.016 90.2963 12.712 90.2963 12.376C90.2963 11.304 89.4563 10.768 87.7763 10.768C86.9283 10.768 86.1043 10.936 85.3043 11.272C84.5043 11.592 83.8483 11.976 83.3363 12.424L82.3763 10.696C82.9363 9.96 83.7043 9.392 84.6803 8.992C85.6723 8.592 86.7923 8.392 88.0403 8.392C89.8963 8.392 91.2883 8.736 92.2163 9.424C93.1603 10.096 93.6323 11.16 93.6323 12.616V18.064C93.6323 18.688 93.7523 19.304 93.9923 19.912C94.2323 20.52 94.5763 21.048 95.0243 21.496L92.7203 22.24ZM85.4483 18.376C85.4643 18.808 85.5923 19.176 85.8323 19.48C86.0723 19.784 86.4323 19.936 86.9123 19.936C87.6163 19.936 88.3043 19.736 88.9763 19.336C89.6483 18.936 90.1123 18.432 90.3683 17.824C90.4483 17.648 90.4963 17.432 90.5123 17.176C90.5443 16.904 90.5603 16.624 90.5603 16.336C90.5603 15.92 90.5443 15.544 90.5123 15.208C90.4803 14.872 90.4643 14.704 90.4643 14.704C90.1123 14.976 89.6563 15.208 89.0963 15.4C88.5523 15.592 87.9763 15.776 87.3683 15.952C86.7763 16.112 86.3043 16.376 85.9523 16.744C85.6163 17.112 85.4483 17.6 85.4483 18.208V18.376ZM97.7738 22.336L97.2938 8.272L100.702 8.68V10.048C101.006 9.664 101.31 9.352 101.614 9.112C101.934 8.872 102.334 8.696 102.814 8.584C103.294 8.472 103.926 8.408 104.71 8.392L105.262 11.32C104.734 11.224 104.254 11.176 103.822 11.176C102.206 11.176 101.166 11.824 100.702 13.12V22L97.7738 22.336ZM119.083 19.648C118.619 20.272 118.123 20.776 117.595 21.16C117.083 21.544 116.491 21.824 115.819 22C115.147 22.176 114.323 22.264 113.347 22.264C111.955 22.264 110.763 21.96 109.771 21.352C108.779 20.728 108.019 19.896 107.491 18.856C106.963 17.8 106.699 16.624 106.699 15.328C106.699 14.016 106.971 12.84 107.515 11.8C108.059 10.744 108.819 9.912 109.795 9.304C110.787 8.696 111.939 8.392 113.251 8.392C114.531 8.392 115.627 8.688 116.539 9.28C117.467 9.856 118.179 10.688 118.675 11.776C119.171 12.848 119.419 14.128 119.419 15.616V16.024H110.731L110.203 14.152L116.107 13.672C116.059 12.824 115.819 12.136 115.387 11.608C114.971 11.064 114.299 10.792 113.371 10.792C112.299 10.792 111.411 11.192 110.707 11.992C110.019 12.776 109.675 13.896 109.675 15.352C109.675 16.392 109.867 17.256 110.251 17.944C110.651 18.616 111.147 19.12 111.739 19.456C112.347 19.776 112.955 19.936 113.563 19.936C114.587 19.936 115.499 19.768 116.299 19.432C117.115 19.08 117.755 18.608 118.219 18.016L119.083 19.648ZM134.084 6.28L133.316 11.008L133.388 11.032C133.724 10.712 134.252 10.416 134.972 10.144C135.708 9.872 136.54 9.736 137.468 9.736C138.668 9.736 139.78 9.952 140.804 10.384C141.844 10.8 142.676 11.456 143.3 12.352C143.924 13.232 144.236 14.376 144.236 15.784C144.236 17.224 143.892 18.44 143.204 19.432C142.516 20.424 141.604 21.176 140.468 21.688C139.332 22.184 138.092 22.432 136.748 22.432C135.036 22.432 133.596 22.032 132.428 21.232C131.26 20.432 130.428 19.4 129.932 18.136L131.612 17.032C132.108 17.944 132.812 18.656 133.724 19.168C134.636 19.664 135.652 19.912 136.772 19.912C137.54 19.912 138.236 19.76 138.86 19.456C139.484 19.152 139.98 18.696 140.348 18.088C140.716 17.464 140.9 16.696 140.9 15.784C140.9 14.472 140.524 13.504 139.772 12.88C139.02 12.256 138.1 11.944 137.012 11.944C136.228 11.944 135.468 12.152 134.732 12.568C134.012 12.968 133.5 13.496 133.196 14.152L130.388 13.48L131.228 3.28H134.588L134.444 4.048L142.724 3.28V6.28H134.084ZM161.423 22.264C159.567 22.264 158.223 21.896 157.391 21.16C156.559 20.424 156.143 19.36 156.143 17.968V10.912H154.319L153.839 9.064L156.143 8.824V4.504L159.527 4.984L159.407 8.488L161.807 8.248V10.912H159.311L159.071 17.536V17.776C159.071 18.56 159.271 19.184 159.671 19.648C160.087 20.096 160.831 20.32 161.903 20.32L161.423 22.264ZM168.542 4.768C168.542 5.328 168.342 5.808 167.942 6.208C167.542 6.608 167.062 6.808 166.502 6.808C165.942 6.808 165.462 6.608 165.062 6.208C164.662 5.808 164.462 5.328 164.462 4.768C164.462 4.208 164.662 3.728 165.062 3.328C165.462 2.928 165.942 2.728 166.502 2.728C167.062 2.728 167.542 2.928 167.942 3.328C168.342 3.728 168.542 4.208 168.542 4.768ZM164.798 22.336V8.272L168.23 8.68L167.75 22L164.798 22.336ZM186.495 22.312V13.36C186.495 11.744 185.847 10.936 184.551 10.936C184.151 10.936 183.799 11.072 183.495 11.344C183.191 11.6 182.951 11.928 182.775 12.328C182.615 12.728 182.519 13.136 182.487 13.552L182.007 22L179.103 22.312V13.36C179.103 12.56 178.967 11.96 178.695 11.56C178.423 11.144 177.975 10.936 177.351 10.936C176.807 10.936 176.319 11.112 175.887 11.464C175.455 11.816 175.151 12.272 174.975 12.832V22L172.047 22.312L171.567 8.272L174.975 8.68V10.216C175.247 9.64 175.695 9.192 176.319 8.872C176.943 8.552 177.703 8.392 178.599 8.392C179.447 8.392 180.175 8.584 180.783 8.968C181.407 9.336 181.847 9.84 182.103 10.48C182.375 9.84 182.831 9.336 183.471 8.968C184.111 8.584 184.903 8.392 185.847 8.392C186.631 8.392 187.327 8.56 187.935 8.896C188.543 9.232 189.023 9.704 189.375 10.312C189.727 10.92 189.903 11.64 189.903 12.472V12.784L189.423 22L186.495 22.312ZM204.958 19.648C204.494 20.272 203.998 20.776 203.47 21.16C202.958 21.544 202.366 21.824 201.694 22C201.022 22.176 200.198 22.264 199.222 22.264C197.83 22.264 196.638 21.96 195.646 21.352C194.654 20.728 193.894 19.896 193.366 18.856C192.838 17.8 192.574 16.624 192.574 15.328C192.574 14.016 192.846 12.84 193.39 11.8C193.934 10.744 194.694 9.912 195.67 9.304C196.662 8.696 197.814 8.392 199.126 8.392C200.406 8.392 201.502 8.688 202.414 9.28C203.342 9.856 204.054 10.688 204.55 11.776C205.046 12.848 205.294 14.128 205.294 15.616V16.024H196.606L196.078 14.152L201.982 13.672C201.934 12.824 201.694 12.136 201.262 11.608C200.846 11.064 200.174 10.792 199.246 10.792C198.174 10.792 197.286 11.192 196.582 11.992C195.894 12.776 195.55 13.896 195.55 15.352C195.55 16.392 195.742 17.256 196.126 17.944C196.526 18.616 197.022 19.12 197.614 19.456C198.222 19.776 198.83 19.936 199.438 19.936C200.462 19.936 201.374 19.768 202.174 19.432C202.99 19.08 203.63 18.608 204.094 18.016L204.958 19.648ZM217.373 12.208C216.909 11.76 216.261 11.392 215.429 11.104C214.597 10.816 213.773 10.672 212.957 10.672C212.157 10.672 211.589 10.808 211.253 11.08C210.917 11.352 210.749 11.672 210.749 12.04C210.749 12.392 210.949 12.704 211.349 12.976C211.765 13.248 212.493 13.488 213.533 13.696C215.341 14.048 216.661 14.6 217.493 15.352C218.341 16.088 218.765 17.064 218.765 18.28C218.765 19.56 218.277 20.544 217.301 21.232C216.341 21.92 214.917 22.264 213.029 22.264C212.229 22.264 211.429 22.112 210.629 21.808C209.845 21.488 209.141 21.104 208.517 20.656C207.909 20.192 207.445 19.76 207.125 19.36L208.301 17.8C208.605 18.12 209.037 18.44 209.597 18.76C210.173 19.08 210.781 19.344 211.421 19.552C212.077 19.76 212.653 19.864 213.149 19.864C213.965 19.864 214.557 19.736 214.925 19.48C215.309 19.224 215.501 18.864 215.501 18.4C215.501 17.888 215.229 17.472 214.685 17.152C214.157 16.832 213.325 16.552 212.189 16.312C210.541 15.976 209.357 15.456 208.637 14.752C207.917 14.048 207.557 13.208 207.557 12.232C207.557 11.128 208.029 10.216 208.973 9.496C209.917 8.76 211.261 8.392 213.005 8.392C213.821 8.392 214.589 8.504 215.309 8.728C216.045 8.936 216.677 9.208 217.205 9.544C217.749 9.88 218.141 10.216 218.381 10.552L217.373 12.208ZM239.509 22.24C239.109 21.92 238.797 21.616 238.573 21.328C238.365 21.024 238.189 20.664 238.045 20.248C237.757 20.744 237.349 21.144 236.821 21.448C236.293 21.736 235.701 21.944 235.045 22.072C234.405 22.2 233.749 22.264 233.077 22.264C231.717 22.264 230.693 21.952 230.005 21.328C229.317 20.704 228.957 19.832 228.925 18.712V18.616C228.925 17.336 229.333 16.328 230.149 15.592C230.965 14.856 232.101 14.328 233.557 14.008C234.549 13.784 235.381 13.544 236.053 13.288C236.741 13.016 237.085 12.712 237.085 12.376C237.085 11.304 236.245 10.768 234.565 10.768C233.717 10.768 232.893 10.936 232.093 11.272C231.293 11.592 230.637 11.976 230.125 12.424L229.165 10.696C229.725 9.96 230.493 9.392 231.469 8.992C232.461 8.592 233.581 8.392 234.829 8.392C236.685 8.392 238.077 8.736 239.005 9.424C239.949 10.096 240.421 11.16 240.421 12.616V18.064C240.421 18.688 240.541 19.304 240.781 19.912C241.021 20.52 241.365 21.048 241.813 21.496L239.509 22.24ZM232.237 18.376C232.253 18.808 232.381 19.176 232.621 19.48C232.861 19.784 233.221 19.936 233.701 19.936C234.405 19.936 235.093 19.736 235.765 19.336C236.437 18.936 236.901 18.432 237.157 17.824C237.237 17.648 237.285 17.432 237.301 17.176C237.333 16.904 237.349 16.624 237.349 16.336C237.349 15.92 237.333 15.544 237.301 15.208C237.269 14.872 237.253 14.704 237.253 14.704C236.901 14.976 236.445 15.208 235.885 15.4C235.341 15.592 234.765 15.776 234.157 15.952C233.565 16.112 233.093 16.376 232.741 16.744C232.405 17.112 232.237 17.6 232.237 18.208V18.376ZM253.467 12.208C253.003 11.76 252.355 11.392 251.523 11.104C250.691 10.816 249.867 10.672 249.051 10.672C248.251 10.672 247.683 10.808 247.347 11.08C247.011 11.352 246.843 11.672 246.843 12.04C246.843 12.392 247.043 12.704 247.443 12.976C247.859 13.248 248.587 13.488 249.627 13.696C251.435 14.048 252.755 14.6 253.587 15.352C254.435 16.088 254.859 17.064 254.859 18.28C254.859 19.56 254.371 20.544 253.395 21.232C252.435 21.92 251.011 22.264 249.123 22.264C248.323 22.264 247.523 22.112 246.723 21.808C245.939 21.488 245.235 21.104 244.611 20.656C244.003 20.192 243.539 19.76 243.219 19.36L244.395 17.8C244.699 18.12 245.131 18.44 245.691 18.76C246.267 19.08 246.875 19.344 247.515 19.552C248.171 19.76 248.747 19.864 249.243 19.864C250.059 19.864 250.651 19.736 251.019 19.48C251.403 19.224 251.595 18.864 251.595 18.4C251.595 17.888 251.323 17.472 250.779 17.152C250.251 16.832 249.419 16.552 248.283 16.312C246.635 15.976 245.451 15.456 244.731 14.752C244.011 14.048 243.651 13.208 243.651 12.232C243.651 11.128 244.123 10.216 245.067 9.496C246.011 8.76 247.355 8.392 249.099 8.392C249.915 8.392 250.683 8.504 251.403 8.728C252.139 8.936 252.771 9.208 253.299 9.544C253.843 9.88 254.235 10.216 254.475 10.552L253.467 12.208ZM280.667 22.312V13.36C280.667 11.744 280.019 10.936 278.723 10.936C278.323 10.936 277.971 11.072 277.667 11.344C277.363 11.6 277.123 11.928 276.947 12.328C276.787 12.728 276.691 13.136 276.659 13.552L276.179 22L273.275 22.312V13.36C273.275 12.56 273.139 11.96 272.867 11.56C272.595 11.144 272.147 10.936 271.523 10.936C270.979 10.936 270.491 11.112 270.059 11.464C269.627 11.816 269.323 12.272 269.147 12.832V22L266.219 22.312L265.739 8.272L269.147 8.68V10.216C269.419 9.64 269.867 9.192 270.491 8.872C271.115 8.552 271.875 8.392 272.771 8.392C273.619 8.392 274.347 8.584 274.955 8.968C275.579 9.336 276.019 9.84 276.275 10.48C276.547 9.84 277.003 9.336 277.643 8.968C278.283 8.584 279.075 8.392 280.019 8.392C280.803 8.392 281.499 8.56 282.107 8.896C282.715 9.232 283.195 9.704 283.547 10.312C283.899 10.92 284.075 11.64 284.075 12.472V12.784L283.595 22L280.667 22.312ZM297.33 22.24C296.93 21.92 296.618 21.616 296.394 21.328C296.186 21.024 296.01 20.664 295.866 20.248C295.578 20.744 295.17 21.144 294.642 21.448C294.114 21.736 293.522 21.944 292.866 22.072C292.226 22.2 291.57 22.264 290.898 22.264C289.538 22.264 288.514 21.952 287.826 21.328C287.138 20.704 286.778 19.832 286.746 18.712V18.616C286.746 17.336 287.154 16.328 287.97 15.592C288.786 14.856 289.922 14.328 291.378 14.008C292.37 13.784 293.202 13.544 293.874 13.288C294.562 13.016 294.906 12.712 294.906 12.376C294.906 11.304 294.066 10.768 292.386 10.768C291.538 10.768 290.714 10.936 289.914 11.272C289.114 11.592 288.458 11.976 287.946 12.424L286.986 10.696C287.546 9.96 288.314 9.392 289.29 8.992C290.282 8.592 291.402 8.392 292.65 8.392C294.506 8.392 295.898 8.736 296.826 9.424C297.77 10.096 298.242 11.16 298.242 12.616V18.064C298.242 18.688 298.362 19.304 298.602 19.912C298.842 20.52 299.186 21.048 299.634 21.496L297.33 22.24ZM290.058 18.376C290.074 18.808 290.202 19.176 290.442 19.48C290.682 19.784 291.042 19.936 291.522 19.936C292.226 19.936 292.914 19.736 293.586 19.336C294.258 18.936 294.722 18.432 294.978 17.824C295.058 17.648 295.106 17.432 295.122 17.176C295.154 16.904 295.17 16.624 295.17 16.336C295.17 15.92 295.154 15.544 295.122 15.208C295.09 14.872 295.074 14.704 295.074 14.704C294.722 14.976 294.266 15.208 293.706 15.4C293.162 15.592 292.586 15.776 291.978 15.952C291.386 16.112 290.914 16.376 290.562 16.744C290.226 17.112 290.058 17.6 290.058 18.208V18.376ZM310.879 22.312V13.36C310.879 12.56 310.631 11.952 310.135 11.536C309.655 11.104 309.071 10.888 308.383 10.888C307.695 10.888 307.063 11.072 306.487 11.44C305.927 11.808 305.535 12.344 305.311 13.048V22L302.383 22.312L301.903 8.272L305.311 8.68V10.24C305.631 9.632 306.103 9.176 306.727 8.872C307.367 8.552 308.239 8.392 309.343 8.392C310.319 8.392 311.175 8.6 311.911 9.016C312.663 9.432 313.239 10 313.639 10.72C314.055 11.424 314.239 12.224 314.191 13.12L313.711 22L310.879 22.312ZM317.295 24.736C318.223 24.672 318.975 24.488 319.551 24.184C320.143 23.88 320.623 23.48 320.991 22.984C321.359 22.488 321.663 21.928 321.903 21.304L316.167 8.944L319.791 8.272L323.175 18.016L326.943 8.272L329.559 8.944L324.567 22.672C324.023 24.144 323.207 25.208 322.119 25.864C321.031 26.536 319.631 26.872 317.919 26.872L317.295 24.736ZM348.637 22.312V13.36C348.637 12.56 348.389 11.952 347.893 11.536C347.413 11.104 346.829 10.888 346.141 10.888C345.453 10.888 344.821 11.072 344.245 11.44C343.685 11.808 343.293 12.344 343.069 13.048V22L340.141 22.312L339.661 8.272L343.069 8.68V10.24C343.389 9.632 343.861 9.176 344.485 8.872C345.125 8.552 345.997 8.392 347.101 8.392C348.077 8.392 348.933 8.6 349.669 9.016C350.421 9.432 350.997 10 351.397 10.72C351.813 11.424 351.997 12.224 351.949 13.12L351.469 22L348.637 22.312ZM361.413 22.264C360.021 22.264 358.813 21.984 357.789 21.424C356.781 20.848 355.997 20.04 355.437 19C354.877 17.96 354.597 16.744 354.597 15.352C354.597 13.944 354.877 12.72 355.437 11.68C355.997 10.64 356.781 9.832 357.789 9.256C358.813 8.68 360.021 8.392 361.413 8.392C362.821 8.392 364.029 8.68 365.037 9.256C366.061 9.832 366.845 10.64 367.389 11.68C367.933 12.72 368.205 13.944 368.205 15.352C368.205 16.744 367.933 17.96 367.389 19C366.845 20.04 366.061 20.848 365.037 21.424C364.029 21.984 362.821 22.264 361.413 22.264ZM361.797 20.056C362.805 19.976 363.589 19.552 364.149 18.784C364.709 18 364.989 17 364.989 15.784C364.989 15.656 364.989 15.536 364.989 15.424C364.989 15.296 364.981 15.168 364.965 15.04C364.853 13.664 364.469 12.584 363.813 11.8C363.173 11.016 362.357 10.624 361.365 10.624C361.301 10.624 361.245 10.632 361.197 10.648C361.149 10.648 361.093 10.648 361.029 10.648C360.053 10.712 359.269 11.136 358.677 11.92C358.101 12.704 357.813 13.712 357.813 14.944C357.813 15.056 357.813 15.176 357.813 15.304C357.813 15.416 357.821 15.536 357.837 15.664C357.949 17.024 358.341 18.104 359.013 18.904C359.685 19.688 360.509 20.08 361.485 20.08C361.533 20.08 361.581 20.08 361.629 20.08C361.693 20.064 361.749 20.056 361.797 20.056ZM379.879 22.312V13.36C379.879 12.56 379.631 11.952 379.135 11.536C378.655 11.104 378.071 10.888 377.383 10.888C376.695 10.888 376.063 11.072 375.487 11.44C374.927 11.808 374.535 12.344 374.311 13.048V22L371.383 22.312L370.903 8.272L374.311 8.68V10.24C374.631 9.632 375.103 9.176 375.727 8.872C376.367 8.552 377.239 8.392 378.343 8.392C379.319 8.392 380.175 8.6 380.911 9.016C381.663 9.432 382.239 10 382.639 10.72C383.055 11.424 383.239 12.224 383.191 13.12L382.711 22L379.879 22.312ZM386.103 16.864V14.032H395.031V16.864H386.103ZM13.2792 55.08C12.8312 55.72 12.1512 56.248 11.2392 56.664C10.3272 57.064 9.29522 57.264 8.14322 57.264C6.91122 57.264 5.76722 57.008 4.71122 56.496C3.65522 55.968 2.79922 55.192 2.14322 54.168C1.50322 53.144 1.18322 51.864 1.18322 50.328C1.18322 48.872 1.48722 47.632 2.09522 46.608C2.70322 45.568 3.52722 44.776 4.56722 44.232C5.62322 43.672 6.81522 43.392 8.14322 43.392C9.21522 43.392 10.1912 43.576 11.0712 43.944C11.9672 44.296 12.6632 44.784 13.1592 45.408L12.3432 47.232C11.9432 46.816 11.3832 46.472 10.6632 46.2C9.94322 45.928 9.25522 45.792 8.59922 45.792C7.84722 45.792 7.15922 45.968 6.53522 46.32C5.91122 46.672 5.41522 47.192 5.04722 47.88C4.69522 48.552 4.51922 49.368 4.51922 50.328C4.51922 51.768 4.91122 52.88 5.69522 53.664C6.47922 54.448 7.47122 54.84 8.67122 54.84C9.45522 54.84 10.1832 54.712 10.8552 54.456C11.5432 54.2 12.0872 53.848 12.4872 53.4L13.2792 55.08ZM25.7828 57.24C25.3828 56.92 25.0708 56.616 24.8468 56.328C24.6388 56.024 24.4628 55.664 24.3188 55.248C24.0308 55.744 23.6228 56.144 23.0948 56.448C22.5668 56.736 21.9748 56.944 21.3188 57.072C20.6788 57.2 20.0228 57.264 19.3508 57.264C17.9908 57.264 16.9668 56.952 16.2788 56.328C15.5908 55.704 15.2308 54.832 15.1988 53.712V53.616C15.1988 52.336 15.6068 51.328 16.4228 50.592C17.2388 49.856 18.3748 49.328 19.8308 49.008C20.8228 48.784 21.6548 48.544 22.3268 48.288C23.0148 48.016 23.3588 47.712 23.3588 47.376C23.3588 46.304 22.5188 45.768 20.8388 45.768C19.9908 45.768 19.1668 45.936 18.3668 46.272C17.5668 46.592 16.9108 46.976 16.3988 47.424L15.4388 45.696C15.9988 44.96 16.7668 44.392 17.7428 43.992C18.7348 43.592 19.8548 43.392 21.1028 43.392C22.9588 43.392 24.3508 43.736 25.2788 44.424C26.2228 45.096 26.6948 46.16 26.6948 47.616V53.064C26.6948 53.688 26.8148 54.304 27.0548 54.912C27.2948 55.52 27.6388 56.048 28.0868 56.496L25.7828 57.24ZM18.5108 53.376C18.5268 53.808 18.6548 54.176 18.8948 54.48C19.1348 54.784 19.4948 54.936 19.9748 54.936C20.6788 54.936 21.3668 54.736 22.0388 54.336C22.7108 53.936 23.1748 53.432 23.4308 52.824C23.5108 52.648 23.5588 52.432 23.5748 52.176C23.6068 51.904 23.6228 51.624 23.6228 51.336C23.6228 50.92 23.6068 50.544 23.5748 50.208C23.5428 49.872 23.5268 49.704 23.5268 49.704C23.1748 49.976 22.7188 50.208 22.1588 50.4C21.6148 50.592 21.0388 50.776 20.4308 50.952C19.8388 51.112 19.3668 51.376 19.0148 51.744C18.6788 52.112 18.5108 52.6 18.5108 53.208V53.376ZM39.3323 57.312V48.36C39.3323 47.56 39.0843 46.952 38.5883 46.536C38.1083 46.104 37.5243 45.888 36.8363 45.888C36.1483 45.888 35.5163 46.072 34.9403 46.44C34.3803 46.808 33.9883 47.344 33.7643 48.048V57L30.8363 57.312L30.3563 43.272L33.7643 43.68V45.24C34.0843 44.632 34.5563 44.176 35.1803 43.872C35.8203 43.552 36.6923 43.392 37.7963 43.392C38.7723 43.392 39.6283 43.6 40.3643 44.016C41.1163 44.432 41.6923 45 42.0923 45.72C42.5083 46.424 42.6923 47.224 42.6443 48.12L42.1643 57L39.3323 57.312ZM52.1086 57.264C50.7166 57.264 49.5086 56.984 48.4846 56.424C47.4766 55.848 46.6926 55.04 46.1326 54C45.5726 52.96 45.2926 51.744 45.2926 50.352C45.2926 48.944 45.5726 47.72 46.1326 46.68C46.6926 45.64 47.4766 44.832 48.4846 44.256C49.5086 43.68 50.7166 43.392 52.1086 43.392C53.5166 43.392 54.7246 43.68 55.7326 44.256C56.7566 44.832 57.5406 45.64 58.0846 46.68C58.6286 47.72 58.9006 48.944 58.9006 50.352C58.9006 51.744 58.6286 52.96 58.0846 54C57.5406 55.04 56.7566 55.848 55.7326 56.424C54.7246 56.984 53.5166 57.264 52.1086 57.264ZM52.4926 55.056C53.5006 54.976 54.2846 54.552 54.8446 53.784C55.4046 53 55.6846 52 55.6846 50.784C55.6846 50.656 55.6846 50.536 55.6846 50.424C55.6846 50.296 55.6766 50.168 55.6606 50.04C55.5486 48.664 55.1646 47.584 54.5086 46.8C53.8686 46.016 53.0526 45.624 52.0606 45.624C51.9966 45.624 51.9406 45.632 51.8926 45.648C51.8446 45.648 51.7886 45.648 51.7246 45.648C50.7486 45.712 49.9646 46.136 49.3726 46.92C48.7966 47.704 48.5086 48.712 48.5086 49.944C48.5086 50.056 48.5086 50.176 48.5086 50.304C48.5086 50.416 48.5166 50.536 48.5326 50.664C48.6446 52.024 49.0366 53.104 49.7086 53.904C50.3806 54.688 51.2046 55.08 52.1806 55.08C52.2286 55.08 52.2766 55.08 52.3246 55.08C52.3886 55.064 52.4446 55.056 52.4926 55.056ZM70.5745 57.312V48.36C70.5745 47.56 70.3265 46.952 69.8305 46.536C69.3505 46.104 68.7665 45.888 68.0785 45.888C67.3905 45.888 66.7585 46.072 66.1825 46.44C65.6225 46.808 65.2305 47.344 65.0065 48.048V57L62.0785 57.312L61.5985 43.272L65.0065 43.68V45.24C65.3265 44.632 65.7985 44.176 66.4225 43.872C67.0625 43.552 67.9345 43.392 69.0385 43.392C70.0145 43.392 70.8705 43.6 71.6065 44.016C72.3585 44.432 72.9345 45 73.3345 45.72C73.7505 46.424 73.9345 47.224 73.8865 48.12L73.4065 57L70.5745 57.312ZM101.704 57.312L101.032 44.04L96.3282 53.76L96.9522 55.056L93.9522 56.328L88.7682 44.904L87.0402 57.312L84.6162 57L85.8642 39.864L85.0722 38.28L88.7922 37.8L95.0322 51L99.7362 37.8L103.84 38.28L103.072 39.84L105.352 57L101.704 57.312ZM106.206 57.528L113.454 37.032L115.782 37.728L108.51 58.224L106.206 57.528ZM133.72 57.312L133.048 44.04L128.344 53.76L128.968 55.056L125.968 56.328L120.784 44.904L119.056 57.312L116.632 57L117.88 39.864L117.088 38.28L120.808 37.8L127.048 51L131.752 37.8L135.856 38.28L135.088 39.84L137.368 57L133.72 57.312ZM157.608 47.208C157.144 46.76 156.496 46.392 155.664 46.104C154.832 45.816 154.008 45.672 153.192 45.672C152.392 45.672 151.824 45.808 151.488 46.08C151.152 46.352 150.984 46.672 150.984 47.04C150.984 47.392 151.184 47.704 151.584 47.976C152 48.248 152.728 48.488 153.768 48.696C155.576 49.048 156.896 49.6 157.728 50.352C158.576 51.088 159 52.064 159 53.28C159 54.56 158.512 55.544 157.536 56.232C156.576 56.92 155.152 57.264 153.264 57.264C152.464 57.264 151.664 57.112 150.864 56.808C150.08 56.488 149.376 56.104 148.752 55.656C148.144 55.192 147.68 54.76 147.36 54.36L148.536 52.8C148.84 53.12 149.272 53.44 149.832 53.76C150.408 54.08 151.016 54.344 151.656 54.552C152.312 54.76 152.888 54.864 153.384 54.864C154.2 54.864 154.792 54.736 155.16 54.48C155.544 54.224 155.736 53.864 155.736 53.4C155.736 52.888 155.464 52.472 154.92 52.152C154.392 51.832 153.56 51.552 152.424 51.312C150.776 50.976 149.592 50.456 148.872 49.752C148.152 49.048 147.792 48.208 147.792 47.232C147.792 46.128 148.264 45.216 149.208 44.496C150.152 43.76 151.496 43.392 153.24 43.392C154.056 43.392 154.824 43.504 155.544 43.728C156.28 43.936 156.912 44.208 157.44 44.544C157.984 44.88 158.376 45.216 158.616 45.552L157.608 47.208ZM170.582 57.336V48.12C170.582 47.32 170.334 46.712 169.838 46.296C169.358 45.864 168.774 45.648 168.086 45.648C167.398 45.648 166.766 45.832 166.19 46.2C165.63 46.568 165.238 47.104 165.014 47.808V57L162.086 57.312L161.606 38.28L165.014 37.8V45.048C165.334 44.568 165.814 44.176 166.454 43.872C167.11 43.552 167.966 43.392 169.022 43.392C169.95 43.392 170.774 43.584 171.494 43.968C172.23 44.336 172.814 44.848 173.246 45.504C173.678 46.16 173.894 46.92 173.894 47.784V48.048L173.414 57L170.582 57.336ZM181.199 39.768C181.199 40.328 180.999 40.808 180.599 41.208C180.199 41.608 179.719 41.808 179.159 41.808C178.599 41.808 178.119 41.608 177.719 41.208C177.319 40.808 177.119 40.328 177.119 39.768C177.119 39.208 177.319 38.728 177.719 38.328C178.119 37.928 178.599 37.728 179.159 37.728C179.719 37.728 180.199 37.928 180.599 38.328C180.999 38.728 181.199 39.208 181.199 39.768ZM177.455 57.336V43.272L180.887 43.68L180.407 57L177.455 57.336ZM184.704 62.088L184.224 43.272L187.632 43.68V44.976C187.92 44.48 188.4 44.096 189.072 43.824C189.744 43.536 190.488 43.392 191.304 43.392C193.064 43.392 194.472 43.984 195.528 45.168C196.584 46.336 197.112 48.056 197.112 50.328C197.112 52.616 196.576 54.344 195.504 55.512C194.432 56.68 193.04 57.264 191.328 57.264C190.448 57.264 189.68 57.128 189.024 56.856C188.368 56.584 187.904 56.264 187.632 55.896V61.512L184.704 62.088ZM187.584 53.16C187.84 53.672 188.216 54.104 188.712 54.456C189.208 54.808 189.808 54.984 190.512 54.984C191.12 54.984 191.688 54.84 192.216 54.552C192.76 54.248 193.192 53.76 193.512 53.088C193.848 52.4 194.016 51.48 194.016 50.328C194.016 49.192 193.856 48.296 193.536 47.64C193.216 46.968 192.792 46.488 192.264 46.2C191.736 45.912 191.144 45.768 190.488 45.768C189.96 45.768 189.472 45.904 189.024 46.176C188.592 46.432 188.24 46.784 187.968 47.232C187.712 47.68 187.584 48.192 187.584 48.768V53.16ZM209.193 47.208C208.729 46.76 208.081 46.392 207.249 46.104C206.417 45.816 205.593 45.672 204.777 45.672C203.977 45.672 203.409 45.808 203.073 46.08C202.737 46.352 202.569 46.672 202.569 47.04C202.569 47.392 202.769 47.704 203.169 47.976C203.585 48.248 204.313 48.488 205.353 48.696C207.161 49.048 208.481 49.6 209.313 50.352C210.161 51.088 210.585 52.064 210.585 53.28C210.585 54.56 210.097 55.544 209.121 56.232C208.161 56.92 206.737 57.264 204.849 57.264C204.049 57.264 203.249 57.112 202.449 56.808C201.665 56.488 200.961 56.104 200.337 55.656C199.729 55.192 199.265 54.76 198.945 54.36L200.121 52.8C200.425 53.12 200.857 53.44 201.417 53.76C201.993 54.08 202.601 54.344 203.241 54.552C203.897 54.76 204.473 54.864 204.969 54.864C205.785 54.864 206.377 54.736 206.745 54.48C207.129 54.224 207.321 53.864 207.321 53.4C207.321 52.888 207.049 52.472 206.505 52.152C205.977 51.832 205.145 51.552 204.009 51.312C202.361 50.976 201.177 50.456 200.457 49.752C199.737 49.048 199.377 48.208 199.377 47.232C199.377 46.128 199.849 45.216 200.793 44.496C201.737 43.76 203.081 43.392 204.825 43.392C205.641 43.392 206.409 43.504 207.129 43.728C207.865 43.936 208.497 44.208 209.025 44.544C209.569 44.88 209.961 45.216 210.201 45.552L209.193 47.208ZM231.33 57.24C230.93 56.92 230.618 56.616 230.394 56.328C230.186 56.024 230.01 55.664 229.866 55.248C229.578 55.744 229.17 56.144 228.642 56.448C228.114 56.736 227.522 56.944 226.866 57.072C226.226 57.2 225.57 57.264 224.898 57.264C223.538 57.264 222.514 56.952 221.826 56.328C221.138 55.704 220.778 54.832 220.746 53.712V53.616C220.746 52.336 221.154 51.328 221.97 50.592C222.786 49.856 223.922 49.328 225.378 49.008C226.37 48.784 227.202 48.544 227.874 48.288C228.562 48.016 228.906 47.712 228.906 47.376C228.906 46.304 228.066 45.768 226.386 45.768C225.538 45.768 224.714 45.936 223.914 46.272C223.114 46.592 222.458 46.976 221.946 47.424L220.986 45.696C221.546 44.96 222.314 44.392 223.29 43.992C224.282 43.592 225.402 43.392 226.65 43.392C228.506 43.392 229.898 43.736 230.826 44.424C231.77 45.096 232.242 46.16 232.242 47.616V53.064C232.242 53.688 232.362 54.304 232.602 54.912C232.842 55.52 233.186 56.048 233.634 56.496L231.33 57.24ZM224.058 53.376C224.074 53.808 224.202 54.176 224.442 54.48C224.682 54.784 225.042 54.936 225.522 54.936C226.226 54.936 226.914 54.736 227.586 54.336C228.258 53.936 228.722 53.432 228.978 52.824C229.058 52.648 229.106 52.432 229.122 52.176C229.154 51.904 229.17 51.624 229.17 51.336C229.17 50.92 229.154 50.544 229.122 50.208C229.09 49.872 229.074 49.704 229.074 49.704C228.722 49.976 228.266 50.208 227.706 50.4C227.162 50.592 226.586 50.776 225.978 50.952C225.386 51.112 224.914 51.376 224.562 51.744C224.226 52.112 224.058 52.6 224.058 53.208V53.376ZM245.287 47.208C244.823 46.76 244.175 46.392 243.343 46.104C242.511 45.816 241.687 45.672 240.871 45.672C240.071 45.672 239.503 45.808 239.167 46.08C238.831 46.352 238.663 46.672 238.663 47.04C238.663 47.392 238.863 47.704 239.263 47.976C239.679 48.248 240.407 48.488 241.447 48.696C243.255 49.048 244.575 49.6 245.407 50.352C246.255 51.088 246.679 52.064 246.679 53.28C246.679 54.56 246.191 55.544 245.215 56.232C244.255 56.92 242.831 57.264 240.943 57.264C240.143 57.264 239.343 57.112 238.543 56.808C237.759 56.488 237.055 56.104 236.431 55.656C235.823 55.192 235.359 54.76 235.039 54.36L236.215 52.8C236.519 53.12 236.951 53.44 237.511 53.76C238.087 54.08 238.695 54.344 239.335 54.552C239.991 54.76 240.567 54.864 241.063 54.864C241.879 54.864 242.471 54.736 242.839 54.48C243.223 54.224 243.415 53.864 243.415 53.4C243.415 52.888 243.143 52.472 242.599 52.152C242.071 51.832 241.239 51.552 240.103 51.312C238.455 50.976 237.271 50.456 236.551 49.752C235.831 49.048 235.471 48.208 235.471 47.232C235.471 46.128 235.943 45.216 236.887 44.496C237.831 43.76 239.175 43.392 240.919 43.392C241.735 43.392 242.503 43.504 243.223 43.728C243.959 43.936 244.591 44.208 245.119 44.544C245.663 44.88 246.055 45.216 246.295 45.552L245.287 47.208ZM268.935 55.08C268.487 55.72 267.807 56.248 266.895 56.664C265.983 57.064 264.951 57.264 263.799 57.264C262.567 57.264 261.423 57.008 260.367 56.496C259.311 55.968 258.455 55.192 257.799 54.168C257.159 53.144 256.839 51.864 256.839 50.328C256.839 48.872 257.143 47.632 257.751 46.608C258.359 45.568 259.183 44.776 260.223 44.232C261.279 43.672 262.471 43.392 263.799 43.392C264.871 43.392 265.847 43.576 266.727 43.944C267.623 44.296 268.319 44.784 268.815 45.408L267.999 47.232C267.599 46.816 267.039 46.472 266.319 46.2C265.599 45.928 264.911 45.792 264.255 45.792C263.503 45.792 262.815 45.968 262.191 46.32C261.567 46.672 261.071 47.192 260.703 47.88C260.351 48.552 260.175 49.368 260.175 50.328C260.175 51.768 260.567 52.88 261.351 53.664C262.135 54.448 263.127 54.84 264.327 54.84C265.111 54.84 265.839 54.712 266.511 54.456C267.199 54.2 267.743 53.848 268.143 53.4L268.935 55.08ZM281.439 57.24C281.039 56.92 280.727 56.616 280.503 56.328C280.295 56.024 280.119 55.664 279.975 55.248C279.687 55.744 279.279 56.144 278.751 56.448C278.223 56.736 277.631 56.944 276.975 57.072C276.335 57.2 275.679 57.264 275.007 57.264C273.647 57.264 272.623 56.952 271.935 56.328C271.247 55.704 270.887 54.832 270.855 53.712V53.616C270.855 52.336 271.263 51.328 272.079 50.592C272.895 49.856 274.031 49.328 275.487 49.008C276.479 48.784 277.311 48.544 277.983 48.288C278.671 48.016 279.015 47.712 279.015 47.376C279.015 46.304 278.175 45.768 276.495 45.768C275.647 45.768 274.823 45.936 274.023 46.272C273.223 46.592 272.567 46.976 272.055 47.424L271.095 45.696C271.655 44.96 272.423 44.392 273.399 43.992C274.391 43.592 275.511 43.392 276.759 43.392C278.615 43.392 280.007 43.736 280.935 44.424C281.879 45.096 282.351 46.16 282.351 47.616V53.064C282.351 53.688 282.471 54.304 282.711 54.912C282.951 55.52 283.295 56.048 283.743 56.496L281.439 57.24ZM274.167 53.376C274.183 53.808 274.311 54.176 274.551 54.48C274.791 54.784 275.151 54.936 275.631 54.936C276.335 54.936 277.023 54.736 277.695 54.336C278.367 53.936 278.831 53.432 279.087 52.824C279.167 52.648 279.215 52.432 279.231 52.176C279.263 51.904 279.279 51.624 279.279 51.336C279.279 50.92 279.263 50.544 279.231 50.208C279.199 49.872 279.183 49.704 279.183 49.704C278.831 49.976 278.375 50.208 277.815 50.4C277.271 50.592 276.695 50.776 276.087 50.952C275.495 51.112 275.023 51.376 274.671 51.744C274.335 52.112 274.167 52.6 274.167 53.208V53.376ZM294.989 57.312V48.36C294.989 47.56 294.741 46.952 294.245 46.536C293.765 46.104 293.181 45.888 292.493 45.888C291.805 45.888 291.173 46.072 290.597 46.44C290.037 46.808 289.645 47.344 289.421 48.048V57L286.493 57.312L286.013 43.272L289.421 43.68V45.24C289.741 44.632 290.213 44.176 290.837 43.872C291.477 43.552 292.349 43.392 293.453 43.392C294.429 43.392 295.285 43.6 296.021 44.016C296.773 44.432 297.349 45 297.749 45.72C298.165 46.424 298.349 47.224 298.301 48.12L297.821 57L294.989 57.312ZM307.765 57.264C306.373 57.264 305.165 56.984 304.141 56.424C303.133 55.848 302.349 55.04 301.789 54C301.229 52.96 300.949 51.744 300.949 50.352C300.949 48.944 301.229 47.72 301.789 46.68C302.349 45.64 303.133 44.832 304.141 44.256C305.165 43.68 306.373 43.392 307.765 43.392C309.173 43.392 310.381 43.68 311.389 44.256C312.413 44.832 313.197 45.64 313.741 46.68C314.285 47.72 314.557 48.944 314.557 50.352C314.557 51.744 314.285 52.96 313.741 54C313.197 55.04 312.413 55.848 311.389 56.424C310.381 56.984 309.173 57.264 307.765 57.264ZM308.149 55.056C309.157 54.976 309.941 54.552 310.501 53.784C311.061 53 311.341 52 311.341 50.784C311.341 50.656 311.341 50.536 311.341 50.424C311.341 50.296 311.333 50.168 311.317 50.04C311.205 48.664 310.821 47.584 310.165 46.8C309.525 46.016 308.709 45.624 307.717 45.624C307.653 45.624 307.597 45.632 307.549 45.648C307.501 45.648 307.445 45.648 307.381 45.648C306.405 45.712 305.621 46.136 305.029 46.92C304.453 47.704 304.165 48.712 304.165 49.944C304.165 50.056 304.165 50.176 304.165 50.304C304.165 50.416 304.173 50.536 304.189 50.664C304.301 52.024 304.693 53.104 305.365 53.904C306.037 54.688 306.861 55.08 307.837 55.08C307.885 55.08 307.933 55.08 307.981 55.08C308.045 55.064 308.101 55.056 308.149 55.056ZM326.231 57.312V48.36C326.231 47.56 325.983 46.952 325.487 46.536C325.007 46.104 324.423 45.888 323.735 45.888C323.047 45.888 322.415 46.072 321.839 46.44C321.279 46.808 320.887 47.344 320.663 48.048V57L317.735 57.312L317.255 43.272L320.663 43.68V45.24C320.983 44.632 321.455 44.176 322.079 43.872C322.719 43.552 323.591 43.392 324.695 43.392C325.671 43.392 326.527 43.6 327.263 44.016C328.015 44.432 328.591 45 328.991 45.72C329.407 46.424 329.591 47.224 329.543 48.12L329.063 57L326.231 57.312ZM347.28 57.264C345.888 57.264 344.68 56.984 343.656 56.424C342.648 55.848 341.864 55.04 341.304 54C340.744 52.96 340.464 51.744 340.464 50.352C340.464 48.944 340.744 47.72 341.304 46.68C341.864 45.64 342.648 44.832 343.656 44.256C344.68 43.68 345.888 43.392 347.28 43.392C348.688 43.392 349.896 43.68 350.904 44.256C351.928 44.832 352.712 45.64 353.256 46.68C353.8 47.72 354.072 48.944 354.072 50.352C354.072 51.744 353.8 52.96 353.256 54C352.712 55.04 351.928 55.848 350.904 56.424C349.896 56.984 348.688 57.264 347.28 57.264ZM347.664 55.056C348.672 54.976 349.456 54.552 350.016 53.784C350.576 53 350.856 52 350.856 50.784C350.856 50.656 350.856 50.536 350.856 50.424C350.856 50.296 350.848 50.168 350.832 50.04C350.72 48.664 350.336 47.584 349.68 46.8C349.04 46.016 348.224 45.624 347.232 45.624C347.168 45.624 347.112 45.632 347.064 45.648C347.016 45.648 346.96 45.648 346.896 45.648C345.92 45.712 345.136 46.136 344.544 46.92C343.968 47.704 343.68 48.712 343.68 49.944C343.68 50.056 343.68 50.176 343.68 50.304C343.68 50.416 343.688 50.536 343.704 50.664C343.816 52.024 344.208 53.104 344.88 53.904C345.552 54.688 346.376 55.08 347.352 55.08C347.4 55.08 347.448 55.08 347.496 55.08C347.56 55.064 347.616 55.056 347.664 55.056ZM365.746 57.312V48.36C365.746 47.56 365.498 46.952 365.002 46.536C364.522 46.104 363.938 45.888 363.25 45.888C362.562 45.888 361.93 46.072 361.354 46.44C360.794 46.808 360.402 47.344 360.178 48.048V57L357.25 57.312L356.77 43.272L360.178 43.68V45.24C360.498 44.632 360.97 44.176 361.594 43.872C362.234 43.552 363.106 43.392 364.21 43.392C365.186 43.392 366.042 43.6 366.778 44.016C367.53 44.432 368.106 45 368.506 45.72C368.922 46.424 369.106 47.224 369.058 48.12L368.578 57L365.746 57.312ZM384.091 54.648C383.627 55.272 383.131 55.776 382.603 56.16C382.091 56.544 381.499 56.824 380.827 57C380.155 57.176 379.331 57.264 378.355 57.264C376.963 57.264 375.771 56.96 374.779 56.352C373.787 55.728 373.027 54.896 372.499 53.856C371.971 52.8 371.707 51.624 371.707 50.328C371.707 49.016 371.979 47.84 372.523 46.8C373.067 45.744 373.827 44.912 374.803 44.304C375.795 43.696 376.947 43.392 378.259 43.392C379.539 43.392 380.635 43.688 381.547 44.28C382.475 44.856 383.187 45.688 383.683 46.776C384.179 47.848 384.427 49.128 384.427 50.616V51.024H375.739L375.211 49.152L381.115 48.672C381.067 47.824 380.827 47.136 380.395 46.608C379.979 46.064 379.307 45.792 378.379 45.792C377.307 45.792 376.419 46.192 375.715 46.992C375.027 47.776 374.683 48.896 374.683 50.352C374.683 51.392 374.875 52.256 375.259 52.944C375.659 53.616 376.155 54.12 376.747 54.456C377.355 54.776 377.963 54.936 378.571 54.936C379.595 54.936 380.507 54.768 381.307 54.432C382.123 54.08 382.763 53.608 383.227 53.016L384.091 54.648ZM396.506 47.208C396.042 46.76 395.394 46.392 394.562 46.104C393.73 45.816 392.906 45.672 392.09 45.672C391.29 45.672 390.722 45.808 390.386 46.08C390.05 46.352 389.882 46.672 389.882 47.04C389.882 47.392 390.082 47.704 390.482 47.976C390.898 48.248 391.626 48.488 392.666 48.696C394.474 49.048 395.794 49.6 396.626 50.352C397.474 51.088 397.898 52.064 397.898 53.28C397.898 54.56 397.41 55.544 396.434 56.232C395.474 56.92 394.05 57.264 392.162 57.264C391.362 57.264 390.562 57.112 389.762 56.808C388.978 56.488 388.274 56.104 387.65 55.656C387.042 55.192 386.578 54.76 386.258 54.36L387.434 52.8C387.738 53.12 388.17 53.44 388.73 53.76C389.306 54.08 389.914 54.344 390.554 54.552C391.21 54.76 391.786 54.864 392.282 54.864C393.098 54.864 393.69 54.736 394.058 54.48C394.442 54.224 394.634 53.864 394.634 53.4C394.634 52.888 394.362 52.472 393.818 52.152C393.29 51.832 392.458 51.552 391.322 51.312C389.674 50.976 388.49 50.456 387.77 49.752C387.05 49.048 386.69 48.208 386.69 47.232C386.69 46.128 387.162 45.216 388.106 44.496C389.05 43.76 390.394 43.392 392.138 43.392C392.954 43.392 393.722 43.504 394.442 43.728C395.178 43.936 395.81 44.208 396.338 44.544C396.882 44.88 397.274 45.216 397.514 45.552L396.506 47.208Z" fill="black"/>
<path d="M55.4042 111.08C54.9562 111.72 54.2762 112.248 53.3642 112.664C52.4522 113.064 51.4202 113.264 50.2682 113.264C49.0362 113.264 47.8922 113.008 46.8362 112.496C45.7802 111.968 44.9242 111.192 44.2682 110.168C43.6282 109.144 43.3082 107.864 43.3082 106.328C43.3082 104.872 43.6122 103.632 44.2202 102.608C44.8282 101.568 45.6522 100.776 46.6922 100.232C47.7482 99.672 48.9402 99.392 50.2682 99.392C51.3402 99.392 52.3162 99.576 53.1962 99.944C54.0922 100.296 54.7882 100.784 55.2842 101.408L54.4682 103.232C54.0682 102.816 53.5082 102.472 52.7882 102.2C52.0682 101.928 51.3802 101.792 50.7242 101.792C49.9722 101.792 49.2842 101.968 48.6602 102.32C48.0362 102.672 47.5402 103.192 47.1722 103.88C46.8202 104.552 46.6442 105.368 46.6442 106.328C46.6442 107.768 47.0362 108.88 47.8202 109.664C48.6042 110.448 49.5962 110.84 50.7962 110.84C51.5802 110.84 52.3082 110.712 52.9802 110.456C53.6682 110.2 54.2122 109.848 54.6122 109.4L55.4042 111.08ZM67.9078 113.24C67.5078 112.92 67.1958 112.616 66.9718 112.328C66.7638 112.024 66.5878 111.664 66.4438 111.248C66.1558 111.744 65.7478 112.144 65.2198 112.448C64.6918 112.736 64.0998 112.944 63.4438 113.072C62.8038 113.2 62.1478 113.264 61.4758 113.264C60.1158 113.264 59.0918 112.952 58.4038 112.328C57.7158 111.704 57.3558 110.832 57.3238 109.712V109.616C57.3238 108.336 57.7318 107.328 58.5478 106.592C59.3638 105.856 60.4998 105.328 61.9558 105.008C62.9478 104.784 63.7798 104.544 64.4518 104.288C65.1398 104.016 65.4838 103.712 65.4838 103.376C65.4838 102.304 64.6438 101.768 62.9638 101.768C62.1158 101.768 61.2918 101.936 60.4918 102.272C59.6918 102.592 59.0358 102.976 58.5238 103.424L57.5638 101.696C58.1238 100.96 58.8918 100.392 59.8678 99.992C60.8598 99.592 61.9798 99.392 63.2278 99.392C65.0838 99.392 66.4758 99.736 67.4038 100.424C68.3478 101.096 68.8198 102.16 68.8198 103.616V109.064C68.8198 109.688 68.9398 110.304 69.1798 110.912C69.4198 111.52 69.7638 112.048 70.2118 112.496L67.9078 113.24ZM60.6358 109.376C60.6518 109.808 60.7798 110.176 61.0198 110.48C61.2598 110.784 61.6198 110.936 62.0998 110.936C62.8038 110.936 63.4918 110.736 64.1638 110.336C64.8358 109.936 65.2998 109.432 65.5558 108.824C65.6358 108.648 65.6838 108.432 65.6998 108.176C65.7318 107.904 65.7478 107.624 65.7478 107.336C65.7478 106.92 65.7318 106.544 65.6998 106.208C65.6678 105.872 65.6518 105.704 65.6518 105.704C65.2998 105.976 64.8438 106.208 64.2838 106.4C63.7398 106.592 63.1638 106.776 62.5558 106.952C61.9638 107.112 61.4918 107.376 61.1398 107.744C60.8038 108.112 60.6358 108.6 60.6358 109.208V109.376ZM81.4573 113.312V104.36C81.4573 103.56 81.2093 102.952 80.7133 102.536C80.2333 102.104 79.6493 101.888 78.9613 101.888C78.2733 101.888 77.6413 102.072 77.0653 102.44C76.5053 102.808 76.1133 103.344 75.8893 104.048V113L72.9613 113.312L72.4813 99.272L75.8893 99.68V101.24C76.2093 100.632 76.6813 100.176 77.3053 99.872C77.9453 99.552 78.8173 99.392 79.9213 99.392C80.8973 99.392 81.7533 99.6 82.4893 100.016C83.2413 100.432 83.8173 101 84.2173 101.72C84.6333 102.424 84.8173 103.224 84.7693 104.12L84.2893 113L81.4573 113.312ZM94.2336 113.264C92.8416 113.264 91.6336 112.984 90.6096 112.424C89.6016 111.848 88.8176 111.04 88.2576 110C87.6976 108.96 87.4176 107.744 87.4176 106.352C87.4176 104.944 87.6976 103.72 88.2576 102.68C88.8176 101.64 89.6016 100.832 90.6096 100.256C91.6336 99.68 92.8416 99.392 94.2336 99.392C95.6416 99.392 96.8496 99.68 97.8576 100.256C98.8816 100.832 99.6656 101.64 100.21 102.68C100.754 103.72 101.026 104.944 101.026 106.352C101.026 107.744 100.754 108.96 100.21 110C99.6656 111.04 98.8816 111.848 97.8576 112.424C96.8496 112.984 95.6416 113.264 94.2336 113.264ZM94.6176 111.056C95.6256 110.976 96.4096 110.552 96.9696 109.784C97.5296 109 97.8096 108 97.8096 106.784C97.8096 106.656 97.8096 106.536 97.8096 106.424C97.8096 106.296 97.8016 106.168 97.7856 106.04C97.6736 104.664 97.2896 103.584 96.6336 102.8C95.9936 102.016 95.1776 101.624 94.1856 101.624C94.1216 101.624 94.0656 101.632 94.0176 101.648C93.9696 101.648 93.9136 101.648 93.8496 101.648C92.8736 101.712 92.0896 102.136 91.4976 102.92C90.9216 103.704 90.6336 104.712 90.6336 105.944C90.6336 106.056 90.6336 106.176 90.6336 106.304C90.6336 106.416 90.6416 106.536 90.6576 106.664C90.7696 108.024 91.1616 109.104 91.8336 109.904C92.5056 110.688 93.3296 111.08 94.3056 111.08C94.3536 111.08 94.4016 111.08 94.4496 111.08C94.5136 111.064 94.5696 111.056 94.6176 111.056ZM112.7 113.312V104.36C112.7 103.56 112.452 102.952 111.956 102.536C111.476 102.104 110.892 101.888 110.204 101.888C109.516 101.888 108.884 102.072 108.308 102.44C107.748 102.808 107.356 103.344 107.132 104.048V113L104.204 113.312L103.724 99.272L107.132 99.68V101.24C107.452 100.632 107.924 100.176 108.548 99.872C109.188 99.552 110.06 99.392 111.164 99.392C112.14 99.392 112.996 99.6 113.732 100.016C114.484 100.432 115.06 101 115.46 101.72C115.876 102.424 116.06 103.224 116.012 104.12L115.532 113L112.7 113.312Z" fill="black"/>
<path d="M267.059 113.312V104.36C267.059 103.56 266.811 102.952 266.315 102.536C265.835 102.104 265.251 101.888 264.563 101.888C263.875 101.888 263.243 102.072 262.667 102.44C262.107 102.808 261.715 103.344 261.491 104.048V113L258.563 113.312L258.083 99.272L261.491 99.68V101.24C261.811 100.632 262.283 100.176 262.907 99.872C263.547 99.552 264.419 99.392 265.523 99.392C266.499 99.392 267.355 99.6 268.091 100.016C268.843 100.432 269.419 101 269.819 101.72C270.235 102.424 270.419 103.224 270.371 104.12L269.891 113L267.059 113.312ZM279.835 113.264C278.443 113.264 277.235 112.984 276.211 112.424C275.203 111.848 274.419 111.04 273.859 110C273.299 108.96 273.019 107.744 273.019 106.352C273.019 104.944 273.299 103.72 273.859 102.68C274.419 101.64 275.203 100.832 276.211 100.256C277.235 99.68 278.443 99.392 279.835 99.392C281.243 99.392 282.451 99.68 283.459 100.256C284.483 100.832 285.267 101.64 285.811 102.68C286.355 103.72 286.627 104.944 286.627 106.352C286.627 107.744 286.355 108.96 285.811 110C285.267 111.04 284.483 111.848 283.459 112.424C282.451 112.984 281.243 113.264 279.835 113.264ZM280.219 111.056C281.227 110.976 282.011 110.552 282.571 109.784C283.131 109 283.411 108 283.411 106.784C283.411 106.656 283.411 106.536 283.411 106.424C283.411 106.296 283.403 106.168 283.387 106.04C283.275 104.664 282.891 103.584 282.235 102.8C281.595 102.016 280.779 101.624 279.787 101.624C279.723 101.624 279.667 101.632 279.619 101.648C279.571 101.648 279.515 101.648 279.451 101.648C278.475 101.712 277.691 102.136 277.099 102.92C276.523 103.704 276.235 104.712 276.235 105.944C276.235 106.056 276.235 106.176 276.235 106.304C276.235 106.416 276.243 106.536 276.259 106.664C276.371 108.024 276.763 109.104 277.435 109.904C278.107 110.688 278.931 111.08 279.907 111.08C279.955 111.08 280.003 111.08 280.051 111.08C280.115 111.064 280.171 111.056 280.219 111.056ZM295.517 113.264C293.661 113.264 292.317 112.896 291.485 112.16C290.653 111.424 290.237 110.36 290.237 108.968V101.912H288.413L287.933 100.064L290.237 99.824V95.504L293.621 95.984L293.501 99.488L295.901 99.248V101.912H293.405L293.165 108.536V108.776C293.165 109.56 293.365 110.184 293.765 110.648C294.181 111.096 294.925 111.32 295.997 111.32L295.517 113.264ZM318.35 111.08C317.902 111.72 317.222 112.248 316.31 112.664C315.398 113.064 314.366 113.264 313.214 113.264C311.982 113.264 310.838 113.008 309.782 112.496C308.726 111.968 307.87 111.192 307.214 110.168C306.574 109.144 306.254 107.864 306.254 106.328C306.254 104.872 306.558 103.632 307.166 102.608C307.774 101.568 308.598 100.776 309.638 100.232C310.694 99.672 311.886 99.392 313.214 99.392C314.286 99.392 315.262 99.576 316.142 99.944C317.038 100.296 317.734 100.784 318.23 101.408L317.414 103.232C317.014 102.816 316.454 102.472 315.734 102.2C315.014 101.928 314.326 101.792 313.67 101.792C312.918 101.792 312.23 101.968 311.606 102.32C310.982 102.672 310.486 103.192 310.118 103.88C309.766 104.552 309.59 105.368 309.59 106.328C309.59 107.768 309.982 108.88 310.766 109.664C311.55 110.448 312.542 110.84 313.742 110.84C314.526 110.84 315.254 110.712 315.926 110.456C316.614 110.2 317.158 109.848 317.558 109.4L318.35 111.08ZM330.853 113.24C330.453 112.92 330.141 112.616 329.917 112.328C329.709 112.024 329.533 111.664 329.389 111.248C329.101 111.744 328.693 112.144 328.165 112.448C327.637 112.736 327.045 112.944 326.389 113.072C325.749 113.2 325.093 113.264 324.421 113.264C323.061 113.264 322.037 112.952 321.349 112.328C320.661 111.704 320.301 110.832 320.269 109.712V109.616C320.269 108.336 320.677 107.328 321.493 106.592C322.309 105.856 323.445 105.328 324.901 105.008C325.893 104.784 326.725 104.544 327.397 104.288C328.085 104.016 328.429 103.712 328.429 103.376C328.429 102.304 327.589 101.768 325.909 101.768C325.061 101.768 324.237 101.936 323.437 102.272C322.637 102.592 321.981 102.976 321.469 103.424L320.509 101.696C321.069 100.96 321.837 100.392 322.813 99.992C323.805 99.592 324.925 99.392 326.173 99.392C328.029 99.392 329.421 99.736 330.349 100.424C331.293 101.096 331.765 102.16 331.765 103.616V109.064C331.765 109.688 331.885 110.304 332.125 110.912C332.365 111.52 332.709 112.048 333.157 112.496L330.853 113.24ZM323.581 109.376C323.597 109.808 323.725 110.176 323.965 110.48C324.205 110.784 324.565 110.936 325.045 110.936C325.749 110.936 326.437 110.736 327.109 110.336C327.781 109.936 328.245 109.432 328.501 108.824C328.581 108.648 328.629 108.432 328.645 108.176C328.677 107.904 328.693 107.624 328.693 107.336C328.693 106.92 328.677 106.544 328.645 106.208C328.613 105.872 328.597 105.704 328.597 105.704C328.245 105.976 327.789 106.208 327.229 106.4C326.685 106.592 326.109 106.776 325.501 106.952C324.909 107.112 324.437 107.376 324.085 107.744C323.749 108.112 323.581 108.6 323.581 109.208V109.376ZM344.403 113.312V104.36C344.403 103.56 344.155 102.952 343.659 102.536C343.179 102.104 342.595 101.888 341.907 101.888C341.219 101.888 340.587 102.072 340.011 102.44C339.451 102.808 339.059 103.344 338.835 104.048V113L335.907 113.312L335.427 99.272L338.835 99.68V101.24C339.155 100.632 339.627 100.176 340.251 99.872C340.891 99.552 341.763 99.392 342.867 99.392C343.843 99.392 344.699 99.6 345.435 100.016C346.187 100.432 346.763 101 347.163 101.72C347.579 102.424 347.763 103.224 347.715 104.12L347.235 113L344.403 113.312ZM357.179 113.264C355.787 113.264 354.579 112.984 353.555 112.424C352.547 111.848 351.763 111.04 351.203 110C350.643 108.96 350.363 107.744 350.363 106.352C350.363 104.944 350.643 103.72 351.203 102.68C351.763 101.64 352.547 100.832 353.555 100.256C354.579 99.68 355.787 99.392 357.179 99.392C358.587 99.392 359.795 99.68 360.803 100.256C361.827 100.832 362.611 101.64 363.155 102.68C363.699 103.72 363.971 104.944 363.971 106.352C363.971 107.744 363.699 108.96 363.155 110C362.611 111.04 361.827 111.848 360.803 112.424C359.795 112.984 358.587 113.264 357.179 113.264ZM357.563 111.056C358.571 110.976 359.355 110.552 359.915 109.784C360.475 109 360.755 108 360.755 106.784C360.755 106.656 360.755 106.536 360.755 106.424C360.755 106.296 360.747 106.168 360.731 106.04C360.619 104.664 360.235 103.584 359.579 102.8C358.939 102.016 358.123 101.624 357.131 101.624C357.067 101.624 357.011 101.632 356.963 101.648C356.915 101.648 356.859 101.648 356.795 101.648C355.819 101.712 355.035 102.136 354.443 102.92C353.867 103.704 353.579 104.712 353.579 105.944C353.579 106.056 353.579 106.176 353.579 106.304C353.579 106.416 353.587 106.536 353.603 106.664C353.715 108.024 354.107 109.104 354.779 109.904C355.451 110.688 356.275 111.08 357.251 111.08C357.299 111.08 357.347 111.08 357.395 111.08C357.459 111.064 357.515 111.056 357.563 111.056ZM375.645 113.312V104.36C375.645 103.56 375.397 102.952 374.901 102.536C374.421 102.104 373.837 101.888 373.149 101.888C372.461 101.888 371.829 102.072 371.253 102.44C370.693 102.808 370.301 103.344 370.077 104.048V113L367.149 113.312L366.669 99.272L370.077 99.68V101.24C370.397 100.632 370.869 100.176 371.493 99.872C372.133 99.552 373.005 99.392 374.109 99.392C375.085 99.392 375.941 99.6 376.677 100.016C377.429 100.432 378.005 101 378.405 101.72C378.821 102.424 379.005 103.224 378.957 104.12L378.477 113L375.645 113.312Z" fill="black"/>
<circle cx="18.5" cy="155.5" r="12.5" fill="#428B8E"/>
<circle cx="142.5" cy="155.5" r="12.5" fill="#428B8E"/>
<circle cx="111.5" cy="155.5" r="12.5" fill="#428B8E"/>
<circle cx="80.5" cy="155.5" r="12.5" fill="#428B8E"/>
<circle cx="49.5" cy="155.5" r="12.5" fill="#428B8E"/>
<circle cx="18.5" cy="185.5" r="12.5" fill="#428B8E"/>
<circle cx="142.5" cy="185.5" r="12.5" fill="#428B8E"/>
<circle cx="111.5" cy="185.5" r="12.5" fill="#428B8E"/>
<circle cx="80.5" cy="185.5" r="12.5" fill="#428B8E"/>
<circle cx="49.5" cy="185.5" r="12.5" fill="#428B8E"/>
<circle cx="256.5" cy="155.5" r="12.5" fill="#428B8E"/>
<circle cx="380.5" cy="155.5" r="12.5" fill="#428B8E"/>
<circle cx="349.5" cy="155.5" r="12.5" fill="#428B8E"/>
<circle cx="318.5" cy="155.5" r="12.5" fill="#428B8E"/>
<circle cx="287.5" cy="155.5" r="12.5" fill="#428B8E"/>
<circle cx="256.5" cy="185.5" r="12.5" fill="#428B8E"/>
<circle cx="380.5" cy="185.5" r="12.5" fill="#428B8E"/>
<circle cx="349.5" cy="185.5" r="12.5" fill="#428B8E"/>
<circle cx="318.5" cy="185.5" r="12.5" fill="#428B8E"/>
<circle cx="287.5" cy="185.5" r="12.5" fill="#428B8E"/>
<circle cx="256.5" cy="215.5" r="12.5" fill="#428B8E"/>
<circle cx="380.5" cy="215.5" r="12.5" fill="#428B8E"/>
<circle cx="349.5" cy="215.5" r="12.5" fill="#428B8E"/>
<circle cx="318.5" cy="215.5" r="12.5" fill="#428B8E"/>
<circle cx="287.5" cy="215.5" r="12.5" fill="#428B8E"/>
<circle cx="256.5" cy="245.5" r="12.5" fill="#428B8E"/>
<circle cx="380.5" cy="245.5" r="12.5" fill="#428B8E"/>
<circle cx="349.5" cy="245.5" r="12.5" fill="#428B8E"/>
<circle cx="318.5" cy="245.5" r="12.5" fill="#428B8E"/>
<circle cx="287.5" cy="245.5" r="12.5" fill="#428B8E"/>
<circle cx="256.5" cy="275.5" r="12.5" fill="#428B8E"/>
<circle cx="380.5" cy="275.5" r="12.5" fill="#428B8E"/>
<circle cx="349.5" cy="275.5" r="12.5" fill="#428B8E"/>
<circle cx="318.5" cy="275.5" r="12.5" fill="#428B8E"/>
<circle cx="287.5" cy="275.5" r="12.5" fill="#428B8E"/>
<circle cx="256.5" cy="305.5" r="12.5" fill="#428B8E"/>
<circle cx="380.5" cy="305.5" r="12.5" fill="#428B8E"/>
<circle cx="349.5" cy="305.5" r="12.5" fill="#428B8E"/>
<circle cx="318.5" cy="305.5" r="12.5" fill="#428B8E"/>
<circle cx="287.5" cy="305.5" r="12.5" fill="#428B8E"/>
<circle cx="256.5" cy="335.5" r="12.5" fill="#428B8E"/>
<circle cx="380.5" cy="335.5" r="12.5" fill="#428B8E"/>
<circle cx="349.5" cy="335.5" r="12.5" fill="#428B8E"/>
<circle cx="318.5" cy="335.5" r="12.5" fill="#428B8E"/>
<circle cx="287.5" cy="335.5" r="12.5" fill="#428B8E"/>
<circle cx="256.5" cy="365.5" r="12.5" fill="#428B8E"/>
<circle cx="380.5" cy="365.5" r="12.5" fill="#428B8E"/>
<circle cx="349.5" cy="365.5" r="12.5" fill="#428B8E"/>
<circle cx="318.5" cy="365.5" r="12.5" fill="#428B8E"/>
<circle cx="287.5" cy="365.5" r="12.5" fill="#428B8E"/>
<circle cx="256.5" cy="395.5" r="12.5" fill="#428B8E"/>
<circle cx="380.5" cy="395.5" r="12.5" fill="#428B8E"/>
<circle cx="349.5" cy="395.5" r="12.5" fill="#428B8E"/>
<circle cx="318.5" cy="395.5" r="12.5" fill="#428B8E"/>
<circle cx="287.5" cy="395.5" r="12.5" fill="#428B8E"/>
<circle cx="256.5" cy="425.5" r="12.5" fill="#428B8E"/>
<circle cx="380.5" cy="425.5" r="12.5" fill="#428B8E"/>
<circle cx="349.5" cy="425.5" r="12.5" fill="#428B8E"/>
<circle cx="318.5" cy="425.5" r="12.5" fill="#428B8E"/>
<circle cx="287.5" cy="425.5" r="12.5" fill="#428B8E"/>
</g>
<defs>
<clipPath id="clip0_32_2">
<rect width="402" height="439" fill="white"/>
</clipPath>
</defs>
</svg>
