<svg width="463" height="502" viewBox="0 0 463 502" fill="none" xmlns="http://www.w3.org/2000/svg">
<path d="M48.4566 53.432C46.7286 53.432 45.2326 53.016 43.9686 52.184C42.7046 51.352 41.7286 50.2 41.0406 48.728C40.3686 47.24 40.0326 45.528 40.0326 43.592C40.0326 41.688 40.3686 40.008 41.0406 38.552C41.7286 37.08 42.7046 35.928 43.9686 35.096C45.2326 34.248 46.7286 33.824 48.4566 33.824C50.1846 33.824 51.6726 34.248 52.9206 35.096C54.1846 35.928 55.1526 37.08 55.8246 38.552C56.4966 40.024 56.8326 41.704 56.8326 43.592C56.8326 45.528 56.4966 47.24 55.8246 48.728C55.1526 50.2 54.1846 51.352 52.9206 52.184C51.6726 53.016 50.1846 53.432 48.4566 53.432ZM49.0566 50.72C49.9526 50.64 50.7366 50.328 51.4086 49.784C52.0966 49.24 52.6326 48.496 53.0166 47.552C53.4006 46.592 53.5926 45.48 53.5926 44.216C53.5926 44.04 53.5846 43.864 53.5686 43.688C53.5686 43.512 53.5606 43.336 53.5446 43.16C53.4326 41.768 53.1286 40.576 52.6326 39.584C52.1526 38.592 51.5366 37.84 50.7846 37.328C50.0326 36.8 49.2006 36.536 48.2886 36.536C48.2246 36.536 48.1526 36.536 48.0726 36.536C48.0086 36.536 47.9366 36.544 47.8566 36.56C46.9766 36.624 46.1926 36.928 45.5046 37.472C44.8166 38.016 44.2726 38.76 43.8726 39.704C43.4726 40.632 43.2726 41.728 43.2726 42.992C43.2726 43.152 43.2726 43.32 43.2726 43.496C43.2886 43.672 43.3046 43.848 43.3206 44.024C43.4326 45.432 43.7366 46.64 44.2326 47.648C44.7286 48.64 45.3606 49.408 46.1286 49.952C46.8966 50.48 47.7446 50.744 48.6726 50.744C48.7366 50.744 48.8006 50.744 48.8646 50.744C48.9286 50.728 48.9926 50.72 49.0566 50.72ZM68.7777 53.312V44.36C68.7777 43.56 68.5297 42.952 68.0337 42.536C67.5537 42.104 66.9697 41.888 66.2817 41.888C65.5937 41.888 64.9617 42.072 64.3857 42.44C63.8257 42.808 63.4337 43.344 63.2097 44.048V53L60.2817 53.312L59.8017 39.272L63.2097 39.68V41.24C63.5297 40.632 64.0017 40.176 64.6257 39.872C65.2657 39.552 66.1377 39.392 67.2417 39.392C68.2177 39.392 69.0737 39.6 69.8097 40.016C70.5617 40.432 71.1377 41 71.5377 41.72C71.9537 42.424 72.1377 43.224 72.0897 44.12L71.6097 53L68.7777 53.312ZM89.9233 53.264C88.0673 53.264 86.7233 52.896 85.8913 52.16C85.0593 51.424 84.6433 50.36 84.6433 48.968V41.912H82.8193L82.3393 40.064L84.6433 39.824V35.504L88.0273 35.984L87.9073 39.488L90.3073 39.248V41.912H87.8113L87.5713 48.536V48.776C87.5713 49.56 87.7713 50.184 88.1713 50.648C88.5873 51.096 89.3313 51.32 90.4033 51.32L89.9233 53.264ZM102.082 53.336V44.12C102.082 43.32 101.834 42.712 101.338 42.296C100.858 41.864 100.274 41.648 99.5863 41.648C98.8983 41.648 98.2663 41.832 97.6903 42.2C97.1303 42.568 96.7383 43.104 96.5143 43.808V53L93.5863 53.312L93.1063 34.28L96.5143 33.8V41.048C96.8343 40.568 97.3143 40.176 97.9543 39.872C98.6103 39.552 99.4663 39.392 100.522 39.392C101.45 39.392 102.274 39.584 102.994 39.968C103.73 40.336 104.314 40.848 104.746 41.504C105.178 42.16 105.394 42.92 105.394 43.784V44.048L104.914 53L102.082 53.336ZM120.427 50.648C119.963 51.272 119.467 51.776 118.939 52.16C118.427 52.544 117.835 52.824 117.163 53C116.491 53.176 115.667 53.264 114.691 53.264C113.299 53.264 112.107 52.96 111.115 52.352C110.123 51.728 109.363 50.896 108.835 49.856C108.307 48.8 108.043 47.624 108.043 46.328C108.043 45.016 108.315 43.84 108.859 42.8C109.403 41.744 110.163 40.912 111.139 40.304C112.131 39.696 113.283 39.392 114.595 39.392C115.875 39.392 116.971 39.688 117.883 40.28C118.811 40.856 119.523 41.688 120.019 42.776C120.515 43.848 120.763 45.128 120.763 46.616V47.024H112.075L111.547 45.152L117.451 44.672C117.403 43.824 117.163 43.136 116.731 42.608C116.315 42.064 115.643 41.792 114.715 41.792C113.643 41.792 112.755 42.192 112.051 42.992C111.363 43.776 111.019 44.896 111.019 46.352C111.019 47.392 111.211 48.256 111.595 48.944C111.995 49.616 112.491 50.12 113.083 50.456C113.691 50.776 114.299 50.936 114.907 50.936C115.931 50.936 116.843 50.768 117.643 50.432C118.459 50.08 119.099 49.608 119.563 49.016L120.427 50.648ZM137.827 53.264C136.435 53.264 135.227 52.984 134.203 52.424C133.195 51.848 132.411 51.04 131.851 50C131.291 48.96 131.011 47.744 131.011 46.352C131.011 44.944 131.291 43.72 131.851 42.68C132.411 41.64 133.195 40.832 134.203 40.256C135.227 39.68 136.435 39.392 137.827 39.392C139.235 39.392 140.443 39.68 141.451 40.256C142.475 40.832 143.259 41.64 143.803 42.68C144.347 43.72 144.619 44.944 144.619 46.352C144.619 47.744 144.347 48.96 143.803 50C143.259 51.04 142.475 51.848 141.451 52.424C140.443 52.984 139.235 53.264 137.827 53.264ZM138.211 51.056C139.219 50.976 140.003 50.552 140.563 49.784C141.123 49 141.403 48 141.403 46.784C141.403 46.656 141.403 46.536 141.403 46.424C141.403 46.296 141.395 46.168 141.379 46.04C141.267 44.664 140.883 43.584 140.227 42.8C139.587 42.016 138.771 41.624 137.779 41.624C137.715 41.624 137.659 41.632 137.611 41.648C137.563 41.648 137.507 41.648 137.443 41.648C136.467 41.712 135.683 42.136 135.091 42.92C134.515 43.704 134.227 44.712 134.227 45.944C134.227 46.056 134.227 46.176 134.227 46.304C134.227 46.416 134.235 46.536 134.251 46.664C134.363 48.024 134.755 49.104 135.427 49.904C136.099 50.688 136.923 51.08 137.899 51.08C137.947 51.08 137.995 51.08 138.043 51.08C138.107 51.064 138.163 51.056 138.211 51.056ZM153.509 53.264C151.653 53.264 150.309 52.896 149.477 52.16C148.645 51.424 148.229 50.36 148.229 48.968V41.912H146.405L145.925 40.064L148.229 39.824V35.504L151.613 35.984L151.493 39.488L153.893 39.248V41.912H151.397L151.157 48.536V48.776C151.157 49.56 151.357 50.184 151.757 50.648C152.173 51.096 152.917 51.32 153.989 51.32L153.509 53.264ZM165.668 53.336V44.12C165.668 43.32 165.42 42.712 164.924 42.296C164.444 41.864 163.86 41.648 163.172 41.648C162.484 41.648 161.852 41.832 161.276 42.2C160.716 42.568 160.324 43.104 160.1 43.808V53L157.172 53.312L156.692 34.28L160.1 33.8V41.048C160.42 40.568 160.9 40.176 161.54 39.872C162.196 39.552 163.052 39.392 164.108 39.392C165.036 39.392 165.86 39.584 166.58 39.968C167.316 40.336 167.9 40.848 168.332 41.504C168.764 42.16 168.98 42.92 168.98 43.784V44.048L168.5 53L165.668 53.336ZM184.013 50.648C183.549 51.272 183.053 51.776 182.525 52.16C182.013 52.544 181.421 52.824 180.749 53C180.077 53.176 179.253 53.264 178.277 53.264C176.885 53.264 175.693 52.96 174.701 52.352C173.709 51.728 172.949 50.896 172.421 49.856C171.893 48.8 171.629 47.624 171.629 46.328C171.629 45.016 171.901 43.84 172.445 42.8C172.989 41.744 173.749 40.912 174.725 40.304C175.717 39.696 176.869 39.392 178.181 39.392C179.461 39.392 180.557 39.688 181.469 40.28C182.397 40.856 183.109 41.688 183.605 42.776C184.101 43.848 184.349 45.128 184.349 46.616V47.024H175.661L175.133 45.152L181.037 44.672C180.989 43.824 180.749 43.136 180.317 42.608C179.901 42.064 179.229 41.792 178.301 41.792C177.229 41.792 176.341 42.192 175.637 42.992C174.949 43.776 174.605 44.896 174.605 46.352C174.605 47.392 174.797 48.256 175.181 48.944C175.581 49.616 176.077 50.12 176.669 50.456C177.277 50.776 177.885 50.936 178.493 50.936C179.517 50.936 180.429 50.768 181.229 50.432C182.045 50.08 182.685 49.608 183.149 49.016L184.013 50.648ZM187.524 53.336L187.044 39.272L190.452 39.68V41.048C190.756 40.664 191.06 40.352 191.364 40.112C191.684 39.872 192.084 39.696 192.564 39.584C193.044 39.472 193.676 39.408 194.46 39.392L195.012 42.32C194.484 42.224 194.004 42.176 193.572 42.176C191.956 42.176 190.916 42.824 190.452 44.12V53L187.524 53.336ZM214.418 53.336V44.12C214.418 43.32 214.17 42.712 213.674 42.296C213.194 41.864 212.61 41.648 211.922 41.648C211.234 41.648 210.602 41.832 210.026 42.2C209.466 42.568 209.074 43.104 208.85 43.808V53L205.922 53.312L205.442 34.28L208.85 33.8V41.048C209.17 40.568 209.65 40.176 210.29 39.872C210.946 39.552 211.802 39.392 212.858 39.392C213.786 39.392 214.61 39.584 215.33 39.968C216.066 40.336 216.65 40.848 217.082 41.504C217.514 42.16 217.73 42.92 217.73 43.784V44.048L217.25 53L214.418 53.336ZM230.963 53.24C230.563 52.92 230.251 52.616 230.027 52.328C229.819 52.024 229.643 51.664 229.499 51.248C229.211 51.744 228.803 52.144 228.275 52.448C227.747 52.736 227.155 52.944 226.499 53.072C225.859 53.2 225.203 53.264 224.531 53.264C223.171 53.264 222.147 52.952 221.459 52.328C220.771 51.704 220.411 50.832 220.379 49.712V49.616C220.379 48.336 220.787 47.328 221.603 46.592C222.419 45.856 223.555 45.328 225.011 45.008C226.003 44.784 226.835 44.544 227.507 44.288C228.195 44.016 228.539 43.712 228.539 43.376C228.539 42.304 227.699 41.768 226.019 41.768C225.171 41.768 224.347 41.936 223.547 42.272C222.747 42.592 222.091 42.976 221.579 43.424L220.619 41.696C221.179 40.96 221.947 40.392 222.923 39.992C223.915 39.592 225.035 39.392 226.283 39.392C228.139 39.392 229.531 39.736 230.459 40.424C231.403 41.096 231.875 42.16 231.875 43.616V49.064C231.875 49.688 231.995 50.304 232.235 50.912C232.475 51.52 232.819 52.048 233.267 52.496L230.963 53.24ZM223.691 49.376C223.707 49.808 223.835 50.176 224.075 50.48C224.315 50.784 224.675 50.936 225.155 50.936C225.859 50.936 226.547 50.736 227.219 50.336C227.891 49.936 228.355 49.432 228.611 48.824C228.691 48.648 228.739 48.432 228.755 48.176C228.787 47.904 228.803 47.624 228.803 47.336C228.803 46.92 228.787 46.544 228.755 46.208C228.723 45.872 228.707 45.704 228.707 45.704C228.355 45.976 227.899 46.208 227.339 46.4C226.795 46.592 226.219 46.776 225.611 46.952C225.019 47.112 224.547 47.376 224.195 47.744C223.859 48.112 223.691 48.6 223.691 49.208V49.376ZM244.512 53.312V44.36C244.512 43.56 244.264 42.952 243.768 42.536C243.288 42.104 242.704 41.888 242.016 41.888C241.328 41.888 240.696 42.072 240.12 42.44C239.56 42.808 239.168 43.344 238.944 44.048V53L236.016 53.312L235.536 39.272L238.944 39.68V41.24C239.264 40.632 239.736 40.176 240.36 39.872C241 39.552 241.872 39.392 242.976 39.392C243.952 39.392 244.808 39.6 245.544 40.016C246.296 40.432 246.872 41 247.272 41.72C247.688 42.424 247.872 43.224 247.824 44.12L247.344 53L244.512 53.312ZM262.16 53.24C261.76 52.92 261.448 52.616 261.224 52.328C261.016 52.024 260.84 51.664 260.696 51.248C260.2 52 259.584 52.528 258.848 52.832C258.128 53.12 257.376 53.264 256.592 53.264C255.408 53.264 254.352 53.008 253.424 52.496C252.512 51.968 251.792 51.192 251.264 50.168C250.736 49.128 250.472 47.856 250.472 46.352C250.472 44.832 250.752 43.56 251.312 42.536C251.872 41.496 252.608 40.712 253.52 40.184C254.448 39.656 255.456 39.392 256.544 39.392C257.392 39.392 258.104 39.504 258.68 39.728C259.256 39.952 259.744 40.344 260.144 40.904V33.8L263.552 34.28L263.072 49.064C263.056 49.688 263.168 50.304 263.408 50.912C263.664 51.52 264.016 52.048 264.464 52.496L262.16 53.24ZM260.24 43.664C259.984 43.152 259.608 42.704 259.112 42.32C258.616 41.92 258.016 41.72 257.312 41.72C256.704 41.72 256.112 41.872 255.536 42.176C254.96 42.464 254.48 42.952 254.096 43.64C253.728 44.312 253.544 45.224 253.544 46.376C253.544 47.512 253.72 48.416 254.072 49.088C254.44 49.744 254.912 50.216 255.488 50.504C256.08 50.792 256.696 50.936 257.336 50.936C257.88 50.936 258.368 50.8 258.8 50.528C259.232 50.24 259.576 49.856 259.832 49.376C260.104 48.896 260.24 48.376 260.24 47.816V43.664ZM268.094 55.304C268.414 55 268.71 54.632 268.982 54.2C269.254 53.784 269.422 53.368 269.486 52.952C268.894 52.952 268.398 52.792 267.998 52.472C267.598 52.152 267.398 51.704 267.398 51.128C267.398 50.552 267.582 50.08 267.95 49.712C268.318 49.344 268.79 49.16 269.366 49.16C269.942 49.16 270.406 49.352 270.758 49.736C271.126 50.12 271.31 50.6 271.31 51.176C271.31 51.704 271.206 52.272 270.998 52.88C270.79 53.472 270.502 54.032 270.134 54.56C269.766 55.088 269.334 55.512 268.838 55.832L268.094 55.304ZM283.969 58.088L283.489 39.272L286.897 39.68V40.976C287.185 40.48 287.665 40.096 288.337 39.824C289.009 39.536 289.753 39.392 290.569 39.392C292.329 39.392 293.737 39.984 294.793 41.168C295.849 42.336 296.377 44.056 296.377 46.328C296.377 48.616 295.841 50.344 294.769 51.512C293.697 52.68 292.305 53.264 290.593 53.264C289.713 53.264 288.945 53.128 288.289 52.856C287.633 52.584 287.169 52.264 286.897 51.896V57.512L283.969 58.088ZM286.849 49.16C287.105 49.672 287.481 50.104 287.977 50.456C288.473 50.808 289.073 50.984 289.777 50.984C290.385 50.984 290.953 50.84 291.481 50.552C292.025 50.248 292.457 49.76 292.777 49.088C293.113 48.4 293.281 47.48 293.281 46.328C293.281 45.192 293.121 44.296 292.801 43.64C292.481 42.968 292.057 42.488 291.529 42.2C291.001 41.912 290.409 41.768 289.753 41.768C289.225 41.768 288.737 41.904 288.289 42.176C287.857 42.432 287.505 42.784 287.233 43.232C286.977 43.68 286.849 44.192 286.849 44.768V49.16ZM305.171 53.264C303.779 53.264 302.571 52.984 301.547 52.424C300.539 51.848 299.755 51.04 299.195 50C298.635 48.96 298.355 47.744 298.355 46.352C298.355 44.944 298.635 43.72 299.195 42.68C299.755 41.64 300.539 40.832 301.547 40.256C302.571 39.68 303.779 39.392 305.171 39.392C306.579 39.392 307.787 39.68 308.795 40.256C309.819 40.832 310.603 41.64 311.147 42.68C311.691 43.72 311.963 44.944 311.963 46.352C311.963 47.744 311.691 48.96 311.147 50C310.603 51.04 309.819 51.848 308.795 52.424C307.787 52.984 306.579 53.264 305.171 53.264ZM305.555 51.056C306.563 50.976 307.347 50.552 307.907 49.784C308.467 49 308.747 48 308.747 46.784C308.747 46.656 308.747 46.536 308.747 46.424C308.747 46.296 308.739 46.168 308.723 46.04C308.611 44.664 308.227 43.584 307.571 42.8C306.931 42.016 306.115 41.624 305.123 41.624C305.059 41.624 305.003 41.632 304.955 41.648C304.907 41.648 304.851 41.648 304.787 41.648C303.811 41.712 303.027 42.136 302.435 42.92C301.859 43.704 301.571 44.712 301.571 45.944C301.571 46.056 301.571 46.176 301.571 46.304C301.571 46.416 301.579 46.536 301.595 46.664C301.707 48.024 302.099 49.104 302.771 49.904C303.443 50.688 304.267 51.08 305.243 51.08C305.291 51.08 305.339 51.08 305.387 51.08C305.451 51.064 305.507 51.056 305.555 51.056ZM315.141 58.088L314.661 39.272L318.069 39.68V40.976C318.357 40.48 318.837 40.096 319.509 39.824C320.181 39.536 320.925 39.392 321.741 39.392C323.501 39.392 324.909 39.984 325.965 41.168C327.021 42.336 327.549 44.056 327.549 46.328C327.549 48.616 327.013 50.344 325.941 51.512C324.869 52.68 323.477 53.264 321.765 53.264C320.885 53.264 320.117 53.128 319.461 52.856C318.805 52.584 318.341 52.264 318.069 51.896V57.512L315.141 58.088ZM318.021 49.16C318.277 49.672 318.653 50.104 319.149 50.456C319.645 50.808 320.245 50.984 320.949 50.984C321.557 50.984 322.125 50.84 322.653 50.552C323.197 50.248 323.629 49.76 323.949 49.088C324.285 48.4 324.453 47.48 324.453 46.328C324.453 45.192 324.293 44.296 323.973 43.64C323.653 42.968 323.229 42.488 322.701 42.2C322.173 41.912 321.581 41.768 320.925 41.768C320.397 41.768 319.909 41.904 319.461 42.176C319.029 42.432 318.677 42.784 318.405 43.232C318.149 43.68 318.021 44.192 318.021 44.768V49.16ZM341.599 53.24C340.623 52.712 339.991 52.032 339.703 51.2C339.479 51.632 339.127 52 338.647 52.304C338.167 52.608 337.615 52.84 336.991 53C336.383 53.176 335.759 53.264 335.119 53.264C333.807 53.264 332.759 52.84 331.975 51.992C331.207 51.128 330.783 50.04 330.703 48.728L330.223 39.272L333.631 39.68V48.176C333.631 48.992 333.847 49.608 334.279 50.024C334.711 50.44 335.295 50.648 336.031 50.648C336.719 50.648 337.343 50.464 337.903 50.096C338.479 49.728 338.871 49.192 339.079 48.488V39.272L342.487 39.68L342.079 48.728V48.872C342.079 49.464 342.231 50.08 342.535 50.72C342.855 51.36 343.311 51.952 343.903 52.496L341.599 53.24ZM346.095 53.312V33.8L349.575 34.28L349.095 53L346.095 53.312ZM362.798 53.24C362.398 52.92 362.086 52.616 361.862 52.328C361.654 52.024 361.478 51.664 361.334 51.248C361.046 51.744 360.638 52.144 360.11 52.448C359.582 52.736 358.99 52.944 358.334 53.072C357.694 53.2 357.038 53.264 356.366 53.264C355.006 53.264 353.982 52.952 353.294 52.328C352.606 51.704 352.246 50.832 352.214 49.712V49.616C352.214 48.336 352.622 47.328 353.438 46.592C354.254 45.856 355.39 45.328 356.846 45.008C357.838 44.784 358.67 44.544 359.342 44.288C360.03 44.016 360.374 43.712 360.374 43.376C360.374 42.304 359.534 41.768 357.854 41.768C357.006 41.768 356.182 41.936 355.382 42.272C354.582 42.592 353.926 42.976 353.414 43.424L352.454 41.696C353.014 40.96 353.782 40.392 354.758 39.992C355.75 39.592 356.87 39.392 358.118 39.392C359.974 39.392 361.366 39.736 362.294 40.424C363.238 41.096 363.71 42.16 363.71 43.616V49.064C363.71 49.688 363.83 50.304 364.07 50.912C364.31 51.52 364.654 52.048 365.102 52.496L362.798 53.24ZM355.526 49.376C355.542 49.808 355.67 50.176 355.91 50.48C356.15 50.784 356.51 50.936 356.99 50.936C357.694 50.936 358.382 50.736 359.054 50.336C359.726 49.936 360.19 49.432 360.446 48.824C360.526 48.648 360.574 48.432 360.59 48.176C360.622 47.904 360.638 47.624 360.638 47.336C360.638 46.92 360.622 46.544 360.59 46.208C360.558 45.872 360.542 45.704 360.542 45.704C360.19 45.976 359.734 46.208 359.174 46.4C358.63 46.592 358.054 46.776 357.446 46.952C356.854 47.112 356.382 47.376 356.03 47.744C355.694 48.112 355.526 48.6 355.526 49.208V49.376ZM367.852 53.336L367.372 39.272L370.78 39.68V41.048C371.084 40.664 371.388 40.352 371.692 40.112C372.012 39.872 372.412 39.696 372.892 39.584C373.372 39.472 374.004 39.408 374.788 39.392L375.34 42.32C374.812 42.224 374.332 42.176 373.9 42.176C372.284 42.176 371.244 42.824 370.78 44.12V53L367.852 53.336ZM389.73 45.368V52.832L386.73 53.288L386.298 37.088H385.266L384.786 34.952L398.466 34.04V37.088H389.73V42.944L397.41 42.176V45.368H389.73ZM399.3 53.528L406.548 33.032L408.876 33.728L401.604 54.224L399.3 53.528ZM414.598 45.368V52.832L411.598 53.288L411.166 37.088H410.134L409.654 34.952L423.334 34.04V37.088H414.598V42.944L422.278 42.176V45.368H414.598ZM46.1696 88.24C45.7696 87.92 45.4576 87.616 45.2336 87.328C45.0256 87.024 44.8496 86.664 44.7056 86.248C44.4176 86.744 44.0096 87.144 43.4816 87.448C42.9536 87.736 42.3616 87.944 41.7056 88.072C41.0656 88.2 40.4096 88.264 39.7376 88.264C38.3776 88.264 37.3536 87.952 36.6656 87.328C35.9776 86.704 35.6176 85.832 35.5856 84.712V84.616C35.5856 83.336 35.9936 82.328 36.8096 81.592C37.6256 80.856 38.7616 80.328 40.2176 80.008C41.2096 79.784 42.0416 79.544 42.7136 79.288C43.4016 79.016 43.7456 78.712 43.7456 78.376C43.7456 77.304 42.9056 76.768 41.2256 76.768C40.3776 76.768 39.5536 76.936 38.7536 77.272C37.9536 77.592 37.2976 77.976 36.7856 78.424L35.8256 76.696C36.3856 75.96 37.1536 75.392 38.1296 74.992C39.1216 74.592 40.2416 74.392 41.4896 74.392C43.3456 74.392 44.7376 74.736 45.6656 75.424C46.6096 76.096 47.0816 77.16 47.0816 78.616V84.064C47.0816 84.688 47.2016 85.304 47.4416 85.912C47.6816 86.52 48.0256 87.048 48.4736 87.496L46.1696 88.24ZM38.8976 84.376C38.9136 84.808 39.0416 85.176 39.2816 85.48C39.5216 85.784 39.8816 85.936 40.3616 85.936C41.0656 85.936 41.7536 85.736 42.4256 85.336C43.0976 84.936 43.5616 84.432 43.8176 83.824C43.8976 83.648 43.9456 83.432 43.9616 83.176C43.9936 82.904 44.0096 82.624 44.0096 82.336C44.0096 81.92 43.9936 81.544 43.9616 81.208C43.9296 80.872 43.9136 80.704 43.9136 80.704C43.5616 80.976 43.1056 81.208 42.5456 81.4C42.0016 81.592 41.4256 81.776 40.8176 81.952C40.2256 82.112 39.7536 82.376 39.4016 82.744C39.0656 83.112 38.8976 83.6 38.8976 84.208V84.376ZM59.7191 88.312V79.36C59.7191 78.56 59.4711 77.952 58.9751 77.536C58.4951 77.104 57.9111 76.888 57.2231 76.888C56.5351 76.888 55.9031 77.072 55.3271 77.44C54.7671 77.808 54.3751 78.344 54.1511 79.048V88L51.2231 88.312L50.7431 74.272L54.1511 74.68V76.24C54.4711 75.632 54.9431 75.176 55.5671 74.872C56.2071 74.552 57.0791 74.392 58.1831 74.392C59.1591 74.392 60.0151 74.6 60.7511 75.016C61.5031 75.432 62.0791 76 62.4791 76.72C62.8951 77.424 63.0791 78.224 63.0311 79.12L62.5511 88L59.7191 88.312ZM77.3673 88.24C76.9673 87.92 76.6553 87.616 76.4313 87.328C76.2233 87.024 76.0473 86.664 75.9033 86.248C75.4073 87 74.7913 87.528 74.0553 87.832C73.3353 88.12 72.5833 88.264 71.7993 88.264C70.6153 88.264 69.5593 88.008 68.6313 87.496C67.7193 86.968 66.9993 86.192 66.4713 85.168C65.9433 84.128 65.6793 82.856 65.6793 81.352C65.6793 79.832 65.9593 78.56 66.5193 77.536C67.0793 76.496 67.8153 75.712 68.7273 75.184C69.6553 74.656 70.6633 74.392 71.7513 74.392C72.5993 74.392 73.3113 74.504 73.8873 74.728C74.4633 74.952 74.9513 75.344 75.3513 75.904V68.8L78.7593 69.28L78.2793 84.064C78.2633 84.688 78.3753 85.304 78.6153 85.912C78.8713 86.52 79.2233 87.048 79.6713 87.496L77.3673 88.24ZM75.4473 78.664C75.1913 78.152 74.8153 77.704 74.3193 77.32C73.8233 76.92 73.2233 76.72 72.5193 76.72C71.9113 76.72 71.3193 76.872 70.7433 77.176C70.1673 77.464 69.6873 77.952 69.3033 78.64C68.9353 79.312 68.7513 80.224 68.7513 81.376C68.7513 82.512 68.9273 83.416 69.2793 84.088C69.6473 84.744 70.1193 85.216 70.6953 85.504C71.2873 85.792 71.9033 85.936 72.5433 85.936C73.0873 85.936 73.5753 85.8 74.0073 85.528C74.4393 85.24 74.7833 84.856 75.0393 84.376C75.3113 83.896 75.4473 83.376 75.4473 82.816V78.664ZM94.3828 80.368V87.832L91.3828 88.288L90.9508 72.088H89.9188L89.4388 69.952L103.119 69.04V72.088H94.3828V77.944L102.063 77.176V80.368H94.3828ZM103.953 88.528L111.201 68.032L113.529 68.728L106.257 89.224L103.953 88.528ZM131.466 88.312L130.794 75.04L126.09 84.76L126.714 86.056L123.714 87.328L118.53 75.904L116.802 88.312L114.378 88L115.626 70.864L114.834 69.28L118.554 68.8L124.794 82L129.498 68.8L133.602 69.28L132.834 70.84L135.114 88L131.466 88.312ZM155.354 78.208C154.89 77.76 154.242 77.392 153.41 77.104C152.578 76.816 151.754 76.672 150.938 76.672C150.138 76.672 149.57 76.808 149.234 77.08C148.898 77.352 148.73 77.672 148.73 78.04C148.73 78.392 148.93 78.704 149.33 78.976C149.746 79.248 150.474 79.488 151.514 79.696C153.322 80.048 154.642 80.6 155.474 81.352C156.322 82.088 156.746 83.064 156.746 84.28C156.746 85.56 156.258 86.544 155.282 87.232C154.322 87.92 152.898 88.264 151.01 88.264C150.21 88.264 149.41 88.112 148.61 87.808C147.826 87.488 147.122 87.104 146.498 86.656C145.89 86.192 145.426 85.76 145.106 85.36L146.282 83.8C146.586 84.12 147.018 84.44 147.578 84.76C148.154 85.08 148.762 85.344 149.402 85.552C150.058 85.76 150.634 85.864 151.13 85.864C151.946 85.864 152.538 85.736 152.906 85.48C153.29 85.224 153.482 84.864 153.482 84.4C153.482 83.888 153.21 83.472 152.666 83.152C152.138 82.832 151.306 82.552 150.17 82.312C148.522 81.976 147.338 81.456 146.618 80.752C145.898 80.048 145.538 79.208 145.538 78.232C145.538 77.128 146.01 76.216 146.954 75.496C147.898 74.76 149.242 74.392 150.986 74.392C151.802 74.392 152.57 74.504 153.29 74.728C154.026 74.936 154.658 75.208 155.186 75.544C155.73 75.88 156.122 76.216 156.362 76.552L155.354 78.208ZM168.328 88.336V79.12C168.328 78.32 168.08 77.712 167.584 77.296C167.104 76.864 166.52 76.648 165.832 76.648C165.144 76.648 164.512 76.832 163.936 77.2C163.376 77.568 162.984 78.104 162.76 78.808V88L159.832 88.312L159.352 69.28L162.76 68.8V76.048C163.08 75.568 163.56 75.176 164.2 74.872C164.856 74.552 165.712 74.392 166.768 74.392C167.696 74.392 168.52 74.584 169.24 74.968C169.976 75.336 170.56 75.848 170.992 76.504C171.424 77.16 171.64 77.92 171.64 78.784V79.048L171.16 88L168.328 88.336ZM178.945 70.768C178.945 71.328 178.745 71.808 178.345 72.208C177.945 72.608 177.465 72.808 176.905 72.808C176.345 72.808 175.865 72.608 175.465 72.208C175.065 71.808 174.865 71.328 174.865 70.768C174.865 70.208 175.065 69.728 175.465 69.328C175.865 68.928 176.345 68.728 176.905 68.728C177.465 68.728 177.945 68.928 178.345 69.328C178.745 69.728 178.945 70.208 178.945 70.768ZM175.201 88.336V74.272L178.633 74.68L178.153 88L175.201 88.336ZM182.45 93.088L181.97 74.272L185.378 74.68V75.976C185.666 75.48 186.146 75.096 186.818 74.824C187.49 74.536 188.234 74.392 189.05 74.392C190.81 74.392 192.218 74.984 193.274 76.168C194.33 77.336 194.858 79.056 194.858 81.328C194.858 83.616 194.322 85.344 193.25 86.512C192.178 87.68 190.786 88.264 189.074 88.264C188.194 88.264 187.426 88.128 186.77 87.856C186.114 87.584 185.65 87.264 185.378 86.896V92.512L182.45 93.088ZM185.33 84.16C185.586 84.672 185.962 85.104 186.458 85.456C186.954 85.808 187.554 85.984 188.258 85.984C188.866 85.984 189.434 85.84 189.962 85.552C190.506 85.248 190.938 84.76 191.258 84.088C191.594 83.4 191.762 82.48 191.762 81.328C191.762 80.192 191.602 79.296 191.282 78.64C190.962 77.968 190.538 77.488 190.01 77.2C189.482 76.912 188.89 76.768 188.234 76.768C187.706 76.768 187.218 76.904 186.77 77.176C186.338 77.432 185.986 77.784 185.714 78.232C185.458 78.68 185.33 79.192 185.33 79.768V84.16ZM206.94 78.208C206.476 77.76 205.828 77.392 204.996 77.104C204.164 76.816 203.34 76.672 202.524 76.672C201.724 76.672 201.156 76.808 200.82 77.08C200.484 77.352 200.316 77.672 200.316 78.04C200.316 78.392 200.516 78.704 200.916 78.976C201.332 79.248 202.06 79.488 203.1 79.696C204.908 80.048 206.228 80.6 207.06 81.352C207.908 82.088 208.332 83.064 208.332 84.28C208.332 85.56 207.844 86.544 206.868 87.232C205.908 87.92 204.484 88.264 202.596 88.264C201.796 88.264 200.996 88.112 200.196 87.808C199.412 87.488 198.708 87.104 198.084 86.656C197.476 86.192 197.012 85.76 196.692 85.36L197.868 83.8C198.172 84.12 198.604 84.44 199.164 84.76C199.74 85.08 200.348 85.344 200.988 85.552C201.644 85.76 202.22 85.864 202.716 85.864C203.532 85.864 204.124 85.736 204.492 85.48C204.876 85.224 205.068 84.864 205.068 84.4C205.068 83.888 204.796 83.472 204.252 83.152C203.724 82.832 202.892 82.552 201.756 82.312C200.108 81.976 198.924 81.456 198.204 80.752C197.484 80.048 197.124 79.208 197.124 78.232C197.124 77.128 197.596 76.216 198.54 75.496C199.484 74.76 200.828 74.392 202.572 74.392C203.388 74.392 204.156 74.504 204.876 74.728C205.612 74.936 206.244 75.208 206.772 75.544C207.316 75.88 207.708 76.216 207.948 76.552L206.94 78.208ZM225.404 88.264C223.548 88.264 222.204 87.896 221.372 87.16C220.54 86.424 220.124 85.36 220.124 83.968V76.912H218.3L217.82 75.064L220.124 74.824V70.504L223.508 70.984L223.388 74.488L225.788 74.248V76.912H223.292L223.052 83.536V83.776C223.052 84.56 223.252 85.184 223.652 85.648C224.068 86.096 224.812 86.32 225.884 86.32L225.404 88.264ZM240.251 85.648C239.787 86.272 239.291 86.776 238.763 87.16C238.251 87.544 237.659 87.824 236.987 88C236.315 88.176 235.491 88.264 234.515 88.264C233.123 88.264 231.931 87.96 230.939 87.352C229.947 86.728 229.187 85.896 228.659 84.856C228.131 83.8 227.867 82.624 227.867 81.328C227.867 80.016 228.139 78.84 228.683 77.8C229.227 76.744 229.987 75.912 230.963 75.304C231.955 74.696 233.107 74.392 234.419 74.392C235.699 74.392 236.795 74.688 237.707 75.28C238.635 75.856 239.347 76.688 239.843 77.776C240.339 78.848 240.587 80.128 240.587 81.616V82.024H231.899L231.371 80.152L237.275 79.672C237.227 78.824 236.987 78.136 236.555 77.608C236.139 77.064 235.467 76.792 234.539 76.792C233.467 76.792 232.579 77.192 231.875 77.992C231.187 78.776 230.843 79.896 230.843 81.352C230.843 82.392 231.035 83.256 231.419 83.944C231.819 84.616 232.315 85.12 232.907 85.456C233.515 85.776 234.123 85.936 234.731 85.936C235.755 85.936 236.667 85.768 237.467 85.432C238.283 85.08 238.923 84.608 239.387 84.016L240.251 85.648ZM252.258 88.312V79.36C252.258 78.56 252.01 77.952 251.514 77.536C251.034 77.104 250.45 76.888 249.762 76.888C249.074 76.888 248.442 77.072 247.866 77.44C247.306 77.808 246.914 78.344 246.69 79.048V88L243.762 88.312L243.282 74.272L246.69 74.68V76.24C247.01 75.632 247.482 75.176 248.106 74.872C248.746 74.552 249.618 74.392 250.722 74.392C251.698 74.392 252.554 74.6 253.29 75.016C254.042 75.432 254.618 76 255.018 76.72C255.434 77.424 255.618 78.224 255.57 79.12L255.09 88L252.258 88.312ZM269.906 88.24C269.506 87.92 269.194 87.616 268.97 87.328C268.762 87.024 268.586 86.664 268.442 86.248C267.946 87 267.33 87.528 266.594 87.832C265.874 88.12 265.122 88.264 264.338 88.264C263.154 88.264 262.098 88.008 261.17 87.496C260.258 86.968 259.538 86.192 259.01 85.168C258.482 84.128 258.218 82.856 258.218 81.352C258.218 79.832 258.498 78.56 259.058 77.536C259.618 76.496 260.354 75.712 261.266 75.184C262.194 74.656 263.202 74.392 264.29 74.392C265.138 74.392 265.85 74.504 266.426 74.728C267.002 74.952 267.49 75.344 267.89 75.904V68.8L271.298 69.28L270.818 84.064C270.802 84.688 270.914 85.304 271.154 85.912C271.41 86.52 271.762 87.048 272.21 87.496L269.906 88.24ZM267.986 78.664C267.73 78.152 267.354 77.704 266.858 77.32C266.362 76.92 265.762 76.72 265.058 76.72C264.45 76.72 263.858 76.872 263.282 77.176C262.706 77.464 262.226 77.952 261.842 78.64C261.474 79.312 261.29 80.224 261.29 81.376C261.29 82.512 261.466 83.416 261.818 84.088C262.186 84.744 262.658 85.216 263.234 85.504C263.826 85.792 264.442 85.936 265.082 85.936C265.626 85.936 266.114 85.8 266.546 85.528C266.978 85.24 267.322 84.856 267.578 84.376C267.85 83.896 267.986 83.376 267.986 82.816V78.664ZM289.154 88.264C287.298 88.264 285.954 87.896 285.122 87.16C284.29 86.424 283.874 85.36 283.874 83.968V76.912H282.05L281.57 75.064L283.874 74.824V70.504L287.258 70.984L287.138 74.488L289.538 74.248V76.912H287.042L286.802 83.536V83.776C286.802 84.56 287.002 85.184 287.402 85.648C287.818 86.096 288.562 86.32 289.634 86.32L289.154 88.264ZM298.433 88.264C297.041 88.264 295.833 87.984 294.809 87.424C293.801 86.848 293.017 86.04 292.457 85C291.897 83.96 291.617 82.744 291.617 81.352C291.617 79.944 291.897 78.72 292.457 77.68C293.017 76.64 293.801 75.832 294.809 75.256C295.833 74.68 297.041 74.392 298.433 74.392C299.841 74.392 301.049 74.68 302.057 75.256C303.081 75.832 303.865 76.64 304.409 77.68C304.953 78.72 305.225 79.944 305.225 81.352C305.225 82.744 304.953 83.96 304.409 85C303.865 86.04 303.081 86.848 302.057 87.424C301.049 87.984 299.841 88.264 298.433 88.264ZM298.817 86.056C299.825 85.976 300.609 85.552 301.169 84.784C301.729 84 302.009 83 302.009 81.784C302.009 81.656 302.009 81.536 302.009 81.424C302.009 81.296 302.001 81.168 301.985 81.04C301.873 79.664 301.489 78.584 300.833 77.8C300.193 77.016 299.377 76.624 298.385 76.624C298.321 76.624 298.265 76.632 298.217 76.648C298.169 76.648 298.113 76.648 298.049 76.648C297.073 76.712 296.289 77.136 295.697 77.92C295.121 78.704 294.833 79.712 294.833 80.944C294.833 81.056 294.833 81.176 294.833 81.304C294.833 81.416 294.841 81.536 294.857 81.664C294.969 83.024 295.361 84.104 296.033 84.904C296.705 85.688 297.529 86.08 298.505 86.08C298.553 86.08 298.601 86.08 298.649 86.08C298.713 86.064 298.769 86.056 298.817 86.056ZM316.676 88.24L316.196 68.8L319.604 69.28V75.976C319.892 75.48 320.372 75.096 321.044 74.824C321.716 74.536 322.46 74.392 323.276 74.392C325.036 74.392 326.444 74.984 327.5 76.168C328.556 77.336 329.084 79.056 329.084 81.328C329.084 83.616 328.548 85.344 327.476 86.512C326.404 87.68 325.012 88.264 323.3 88.264C322.42 88.264 321.604 88.104 320.852 87.784C320.116 87.448 319.588 87.008 319.268 86.464L319.028 87.688L316.676 88.24ZM319.532 84.16C319.788 84.672 320.164 85.104 320.66 85.456C321.156 85.808 321.756 85.984 322.46 85.984C323.068 85.984 323.636 85.84 324.164 85.552C324.708 85.248 325.148 84.76 325.484 84.088C325.82 83.4 325.988 82.48 325.988 81.328C325.988 80.192 325.828 79.296 325.508 78.64C325.188 77.968 324.756 77.488 324.212 77.2C323.684 76.912 323.092 76.768 322.436 76.768C321.908 76.768 321.42 76.904 320.972 77.176C320.54 77.432 320.188 77.784 319.916 78.232C319.66 78.68 319.532 79.192 319.532 79.768V84.16ZM343.446 85.648C342.982 86.272 342.486 86.776 341.958 87.16C341.446 87.544 340.854 87.824 340.182 88C339.51 88.176 338.686 88.264 337.71 88.264C336.318 88.264 335.126 87.96 334.134 87.352C333.142 86.728 332.382 85.896 331.854 84.856C331.326 83.8 331.062 82.624 331.062 81.328C331.062 80.016 331.334 78.84 331.878 77.8C332.422 76.744 333.182 75.912 334.158 75.304C335.15 74.696 336.302 74.392 337.614 74.392C338.894 74.392 339.99 74.688 340.902 75.28C341.83 75.856 342.542 76.688 343.038 77.776C343.534 78.848 343.782 80.128 343.782 81.616V82.024H335.094L334.566 80.152L340.47 79.672C340.422 78.824 340.182 78.136 339.75 77.608C339.334 77.064 338.662 76.792 337.734 76.792C336.662 76.792 335.774 77.192 335.07 77.992C334.382 78.776 334.038 79.896 334.038 81.352C334.038 82.392 334.23 83.256 334.614 83.944C335.014 84.616 335.51 85.12 336.102 85.456C336.71 85.776 337.318 85.936 337.926 85.936C338.95 85.936 339.862 85.768 340.662 85.432C341.478 85.08 342.118 84.608 342.582 84.016L343.446 85.648ZM366.127 86.08C365.679 86.72 364.999 87.248 364.087 87.664C363.175 88.064 362.143 88.264 360.991 88.264C359.759 88.264 358.615 88.008 357.559 87.496C356.503 86.968 355.647 86.192 354.991 85.168C354.351 84.144 354.031 82.864 354.031 81.328C354.031 79.872 354.335 78.632 354.943 77.608C355.551 76.568 356.375 75.776 357.415 75.232C358.471 74.672 359.663 74.392 360.991 74.392C362.063 74.392 363.039 74.576 363.919 74.944C364.815 75.296 365.511 75.784 366.007 76.408L365.191 78.232C364.791 77.816 364.231 77.472 363.511 77.2C362.791 76.928 362.103 76.792 361.447 76.792C360.695 76.792 360.007 76.968 359.383 77.32C358.759 77.672 358.263 78.192 357.895 78.88C357.543 79.552 357.367 80.368 357.367 81.328C357.367 82.768 357.759 83.88 358.543 84.664C359.327 85.448 360.319 85.84 361.519 85.84C362.303 85.84 363.031 85.712 363.703 85.456C364.391 85.2 364.935 84.848 365.335 84.4L366.127 86.08ZM378.631 88.24C378.231 87.92 377.919 87.616 377.695 87.328C377.487 87.024 377.311 86.664 377.167 86.248C376.879 86.744 376.471 87.144 375.943 87.448C375.415 87.736 374.823 87.944 374.167 88.072C373.527 88.2 372.871 88.264 372.199 88.264C370.839 88.264 369.815 87.952 369.127 87.328C368.439 86.704 368.079 85.832 368.047 84.712V84.616C368.047 83.336 368.455 82.328 369.271 81.592C370.087 80.856 371.223 80.328 372.679 80.008C373.671 79.784 374.503 79.544 375.175 79.288C375.863 79.016 376.207 78.712 376.207 78.376C376.207 77.304 375.367 76.768 373.687 76.768C372.839 76.768 372.015 76.936 371.215 77.272C370.415 77.592 369.759 77.976 369.247 78.424L368.287 76.696C368.847 75.96 369.615 75.392 370.59 74.992C371.583 74.592 372.703 74.392 373.951 74.392C375.807 74.392 377.199 74.736 378.127 75.424C379.071 76.096 379.543 77.16 379.543 78.616V84.064C379.543 84.688 379.663 85.304 379.903 85.912C380.143 86.52 380.487 87.048 380.935 87.496L378.631 88.24ZM371.359 84.376C371.375 84.808 371.503 85.176 371.743 85.48C371.983 85.784 372.343 85.936 372.823 85.936C373.527 85.936 374.215 85.736 374.887 85.336C375.559 84.936 376.023 84.432 376.279 83.824C376.359 83.648 376.407 83.432 376.423 83.176C376.455 82.904 376.471 82.624 376.471 82.336C376.471 81.92 376.455 81.544 376.423 81.208C376.391 80.872 376.375 80.704 376.375 80.704C376.023 80.976 375.567 81.208 375.007 81.4C374.463 81.592 373.887 81.776 373.279 81.952C372.687 82.112 372.215 82.376 371.863 82.744C371.527 83.112 371.359 83.6 371.359 84.208V84.376ZM392.18 88.312V79.36C392.18 78.56 391.932 77.952 391.436 77.536C390.956 77.104 390.372 76.888 389.684 76.888C388.996 76.888 388.364 77.072 387.788 77.44C387.228 77.808 386.836 78.344 386.612 79.048V88L383.684 88.312L383.204 74.272L386.612 74.68V76.24C386.932 75.632 387.404 75.176 388.028 74.872C388.668 74.552 389.54 74.392 390.644 74.392C391.62 74.392 392.476 74.6 393.212 75.016C393.964 75.432 394.54 76 394.94 76.72C395.356 77.424 395.54 78.224 395.492 79.12L395.012 88L392.18 88.312ZM404.956 88.264C403.564 88.264 402.356 87.984 401.332 87.424C400.324 86.848 399.54 86.04 398.98 85C398.42 83.96 398.14 82.744 398.14 81.352C398.14 79.944 398.42 78.72 398.98 77.68C399.54 76.64 400.324 75.832 401.332 75.256C402.356 74.68 403.564 74.392 404.956 74.392C406.364 74.392 407.572 74.68 408.58 75.256C409.604 75.832 410.388 76.64 410.932 77.68C411.476 78.72 411.748 79.944 411.748 81.352C411.748 82.744 411.476 83.96 410.932 85C410.388 86.04 409.604 86.848 408.58 87.424C407.572 87.984 406.364 88.264 404.956 88.264ZM405.34 86.056C406.348 85.976 407.132 85.552 407.692 84.784C408.252 84 408.532 83 408.532 81.784C408.532 81.656 408.532 81.536 408.532 81.424C408.532 81.296 408.524 81.168 408.508 81.04C408.396 79.664 408.012 78.584 407.356 77.8C406.716 77.016 405.9 76.624 404.908 76.624C404.844 76.624 404.788 76.632 404.74 76.648C404.692 76.648 404.636 76.648 404.572 76.648C403.596 76.712 402.812 77.136 402.22 77.92C401.644 78.704 401.356 79.712 401.356 80.944C401.356 81.056 401.356 81.176 401.356 81.304C401.356 81.416 401.364 81.536 401.38 81.664C401.492 83.024 401.884 84.104 402.556 84.904C403.228 85.688 404.052 86.08 405.028 86.08C405.076 86.08 405.124 86.08 405.172 86.08C405.236 86.064 405.292 86.056 405.34 86.056ZM423.422 88.312V79.36C423.422 78.56 423.174 77.952 422.678 77.536C422.198 77.104 421.614 76.888 420.926 76.888C420.238 76.888 419.606 77.072 419.03 77.44C418.47 77.808 418.078 78.344 417.854 79.048V88L414.926 88.312L414.446 74.272L417.854 74.68V76.24C418.174 75.632 418.646 75.176 419.27 74.872C419.91 74.552 420.782 74.392 421.886 74.392C422.862 74.392 423.718 74.6 424.454 75.016C425.206 75.432 425.782 76 426.182 76.72C426.598 77.424 426.782 78.224 426.734 79.12L426.254 88L423.422 88.312Z" fill="black"/>
<path d="M87.4042 146.08C86.9562 146.72 86.2762 147.248 85.3642 147.664C84.4522 148.064 83.4202 148.264 82.2682 148.264C81.0362 148.264 79.8922 148.008 78.8362 147.496C77.7802 146.968 76.9242 146.192 76.2682 145.168C75.6282 144.144 75.3082 142.864 75.3082 141.328C75.3082 139.872 75.6122 138.632 76.2202 137.608C76.8282 136.568 77.6522 135.776 78.6922 135.232C79.7482 134.672 80.9402 134.392 82.2682 134.392C83.3402 134.392 84.3162 134.576 85.1962 134.944C86.0922 135.296 86.7882 135.784 87.2842 136.408L86.4682 138.232C86.0682 137.816 85.5082 137.472 84.7882 137.2C84.0682 136.928 83.3802 136.792 82.7242 136.792C81.9722 136.792 81.2842 136.968 80.6602 137.32C80.0362 137.672 79.5402 138.192 79.1722 138.88C78.8202 139.552 78.6442 140.368 78.6442 141.328C78.6442 142.768 79.0362 143.88 79.8202 144.664C80.6042 145.448 81.5962 145.84 82.7962 145.84C83.5802 145.84 84.3082 145.712 84.9802 145.456C85.6682 145.2 86.2122 144.848 86.6122 144.4L87.4042 146.08ZM99.9078 148.24C99.5078 147.92 99.1958 147.616 98.9718 147.328C98.7638 147.024 98.5878 146.664 98.4438 146.248C98.1558 146.744 97.7478 147.144 97.2198 147.448C96.6918 147.736 96.0998 147.944 95.4438 148.072C94.8038 148.2 94.1478 148.264 93.4758 148.264C92.1158 148.264 91.0918 147.952 90.4038 147.328C89.7158 146.704 89.3558 145.832 89.3238 144.712V144.616C89.3238 143.336 89.7318 142.328 90.5478 141.592C91.3638 140.856 92.4998 140.328 93.9558 140.008C94.9478 139.784 95.7798 139.544 96.4518 139.288C97.1398 139.016 97.4838 138.712 97.4838 138.376C97.4838 137.304 96.6438 136.768 94.9638 136.768C94.1158 136.768 93.2918 136.936 92.4918 137.272C91.6918 137.592 91.0358 137.976 90.5238 138.424L89.5638 136.696C90.1238 135.96 90.8918 135.392 91.8678 134.992C92.8598 134.592 93.9798 134.392 95.2278 134.392C97.0838 134.392 98.4758 134.736 99.4038 135.424C100.348 136.096 100.82 137.16 100.82 138.616V144.064C100.82 144.688 100.94 145.304 101.18 145.912C101.42 146.52 101.764 147.048 102.212 147.496L99.9078 148.24ZM92.6358 144.376C92.6518 144.808 92.7798 145.176 93.0198 145.48C93.2598 145.784 93.6198 145.936 94.0998 145.936C94.8038 145.936 95.4918 145.736 96.1638 145.336C96.8358 144.936 97.2998 144.432 97.5558 143.824C97.6358 143.648 97.6838 143.432 97.6998 143.176C97.7318 142.904 97.7478 142.624 97.7478 142.336C97.7478 141.92 97.7318 141.544 97.6998 141.208C97.6678 140.872 97.6518 140.704 97.6518 140.704C97.2998 140.976 96.8438 141.208 96.2838 141.4C95.7398 141.592 95.1638 141.776 94.5558 141.952C93.9638 142.112 93.4918 142.376 93.1398 142.744C92.8038 143.112 92.6358 143.6 92.6358 144.208V144.376ZM113.457 148.312V139.36C113.457 138.56 113.209 137.952 112.713 137.536C112.233 137.104 111.649 136.888 110.961 136.888C110.273 136.888 109.641 137.072 109.065 137.44C108.505 137.808 108.113 138.344 107.889 139.048V148L104.961 148.312L104.481 134.272L107.889 134.68V136.24C108.209 135.632 108.681 135.176 109.305 134.872C109.945 134.552 110.817 134.392 111.921 134.392C112.897 134.392 113.753 134.6 114.489 135.016C115.241 135.432 115.817 136 116.217 136.72C116.633 137.424 116.817 138.224 116.769 139.12L116.289 148L113.457 148.312ZM126.234 148.264C124.842 148.264 123.634 147.984 122.61 147.424C121.602 146.848 120.818 146.04 120.258 145C119.698 143.96 119.418 142.744 119.418 141.352C119.418 139.944 119.698 138.72 120.258 137.68C120.818 136.64 121.602 135.832 122.61 135.256C123.634 134.68 124.842 134.392 126.234 134.392C127.642 134.392 128.85 134.68 129.858 135.256C130.882 135.832 131.666 136.64 132.21 137.68C132.754 138.72 133.026 139.944 133.026 141.352C133.026 142.744 132.754 143.96 132.21 145C131.666 146.04 130.882 146.848 129.858 147.424C128.85 147.984 127.642 148.264 126.234 148.264ZM126.618 146.056C127.626 145.976 128.41 145.552 128.97 144.784C129.53 144 129.81 143 129.81 141.784C129.81 141.656 129.81 141.536 129.81 141.424C129.81 141.296 129.802 141.168 129.786 141.04C129.674 139.664 129.29 138.584 128.634 137.8C127.994 137.016 127.178 136.624 126.186 136.624C126.122 136.624 126.066 136.632 126.018 136.648C125.97 136.648 125.914 136.648 125.85 136.648C124.874 136.712 124.09 137.136 123.498 137.92C122.922 138.704 122.634 139.712 122.634 140.944C122.634 141.056 122.634 141.176 122.634 141.304C122.634 141.416 122.642 141.536 122.658 141.664C122.77 143.024 123.162 144.104 123.834 144.904C124.506 145.688 125.33 146.08 126.306 146.08C126.354 146.08 126.402 146.08 126.45 146.08C126.514 146.064 126.57 146.056 126.618 146.056ZM144.7 148.312V139.36C144.7 138.56 144.452 137.952 143.956 137.536C143.476 137.104 142.892 136.888 142.204 136.888C141.516 136.888 140.884 137.072 140.308 137.44C139.748 137.808 139.356 138.344 139.132 139.048V148L136.204 148.312L135.724 134.272L139.132 134.68V136.24C139.452 135.632 139.924 135.176 140.548 134.872C141.188 134.552 142.06 134.392 143.164 134.392C144.14 134.392 144.996 134.6 145.732 135.016C146.484 135.432 147.06 136 147.46 136.72C147.876 137.424 148.06 138.224 148.012 139.12L147.532 148L144.7 148.312Z" fill="black"/>
<path d="M299.059 148.312V139.36C299.059 138.56 298.811 137.952 298.315 137.536C297.835 137.104 297.251 136.888 296.563 136.888C295.875 136.888 295.243 137.072 294.667 137.44C294.107 137.808 293.715 138.344 293.491 139.048V148L290.563 148.312L290.083 134.272L293.491 134.68V136.24C293.811 135.632 294.283 135.176 294.907 134.872C295.547 134.552 296.419 134.392 297.523 134.392C298.499 134.392 299.355 134.6 300.091 135.016C300.843 135.432 301.419 136 301.819 136.72C302.235 137.424 302.419 138.224 302.371 139.12L301.891 148L299.059 148.312ZM311.835 148.264C310.443 148.264 309.235 147.984 308.211 147.424C307.203 146.848 306.419 146.04 305.859 145C305.299 143.96 305.019 142.744 305.019 141.352C305.019 139.944 305.299 138.72 305.859 137.68C306.419 136.64 307.203 135.832 308.211 135.256C309.235 134.68 310.443 134.392 311.835 134.392C313.243 134.392 314.451 134.68 315.459 135.256C316.483 135.832 317.267 136.64 317.811 137.68C318.355 138.72 318.627 139.944 318.627 141.352C318.627 142.744 318.355 143.96 317.811 145C317.267 146.04 316.483 146.848 315.459 147.424C314.451 147.984 313.243 148.264 311.835 148.264ZM312.219 146.056C313.227 145.976 314.011 145.552 314.571 144.784C315.131 144 315.411 143 315.411 141.784C315.411 141.656 315.411 141.536 315.411 141.424C315.411 141.296 315.403 141.168 315.387 141.04C315.275 139.664 314.891 138.584 314.235 137.8C313.595 137.016 312.779 136.624 311.787 136.624C311.723 136.624 311.667 136.632 311.619 136.648C311.571 136.648 311.515 136.648 311.451 136.648C310.475 136.712 309.691 137.136 309.099 137.92C308.523 138.704 308.235 139.712 308.235 140.944C308.235 141.056 308.235 141.176 308.235 141.304C308.235 141.416 308.243 141.536 308.259 141.664C308.371 143.024 308.763 144.104 309.435 144.904C310.107 145.688 310.931 146.08 311.907 146.08C311.955 146.08 312.003 146.08 312.051 146.08C312.115 146.064 312.171 146.056 312.219 146.056ZM327.517 148.264C325.661 148.264 324.317 147.896 323.485 147.16C322.653 146.424 322.237 145.36 322.237 143.968V136.912H320.413L319.933 135.064L322.237 134.824V130.504L325.621 130.984L325.501 134.488L327.901 134.248V136.912H325.405L325.165 143.536V143.776C325.165 144.56 325.365 145.184 325.765 145.648C326.181 146.096 326.925 146.32 327.997 146.32L327.517 148.264ZM350.35 146.08C349.902 146.72 349.222 147.248 348.31 147.664C347.398 148.064 346.366 148.264 345.214 148.264C343.982 148.264 342.838 148.008 341.782 147.496C340.726 146.968 339.87 146.192 339.214 145.168C338.574 144.144 338.254 142.864 338.254 141.328C338.254 139.872 338.558 138.632 339.166 137.608C339.774 136.568 340.598 135.776 341.638 135.232C342.694 134.672 343.886 134.392 345.214 134.392C346.286 134.392 347.262 134.576 348.142 134.944C349.038 135.296 349.734 135.784 350.23 136.408L349.414 138.232C349.014 137.816 348.454 137.472 347.734 137.2C347.014 136.928 346.326 136.792 345.67 136.792C344.918 136.792 344.23 136.968 343.606 137.32C342.982 137.672 342.486 138.192 342.118 138.88C341.766 139.552 341.59 140.368 341.59 141.328C341.59 142.768 341.982 143.88 342.766 144.664C343.55 145.448 344.542 145.84 345.742 145.84C346.526 145.84 347.254 145.712 347.926 145.456C348.614 145.2 349.158 144.848 349.558 144.4L350.35 146.08ZM362.853 148.24C362.453 147.92 362.141 147.616 361.917 147.328C361.709 147.024 361.533 146.664 361.389 146.248C361.101 146.744 360.693 147.144 360.165 147.448C359.637 147.736 359.045 147.944 358.389 148.072C357.749 148.2 357.093 148.264 356.421 148.264C355.061 148.264 354.037 147.952 353.349 147.328C352.661 146.704 352.301 145.832 352.269 144.712V144.616C352.269 143.336 352.677 142.328 353.493 141.592C354.309 140.856 355.445 140.328 356.901 140.008C357.893 139.784 358.725 139.544 359.397 139.288C360.085 139.016 360.429 138.712 360.429 138.376C360.429 137.304 359.589 136.768 357.909 136.768C357.061 136.768 356.237 136.936 355.437 137.272C354.637 137.592 353.981 137.976 353.469 138.424L352.509 136.696C353.069 135.96 353.837 135.392 354.813 134.992C355.805 134.592 356.925 134.392 358.173 134.392C360.029 134.392 361.421 134.736 362.349 135.424C363.293 136.096 363.765 137.16 363.765 138.616V144.064C363.765 144.688 363.885 145.304 364.125 145.912C364.365 146.52 364.709 147.048 365.157 147.496L362.853 148.24ZM355.581 144.376C355.597 144.808 355.725 145.176 355.965 145.48C356.205 145.784 356.565 145.936 357.045 145.936C357.749 145.936 358.437 145.736 359.109 145.336C359.781 144.936 360.245 144.432 360.501 143.824C360.581 143.648 360.629 143.432 360.645 143.176C360.677 142.904 360.693 142.624 360.693 142.336C360.693 141.92 360.677 141.544 360.645 141.208C360.613 140.872 360.597 140.704 360.597 140.704C360.245 140.976 359.789 141.208 359.229 141.4C358.685 141.592 358.109 141.776 357.501 141.952C356.909 142.112 356.437 142.376 356.085 142.744C355.749 143.112 355.581 143.6 355.581 144.208V144.376ZM376.403 148.312V139.36C376.403 138.56 376.155 137.952 375.659 137.536C375.179 137.104 374.595 136.888 373.907 136.888C373.219 136.888 372.587 137.072 372.011 137.44C371.451 137.808 371.059 138.344 370.835 139.048V148L367.907 148.312L367.427 134.272L370.835 134.68V136.24C371.155 135.632 371.627 135.176 372.251 134.872C372.891 134.552 373.763 134.392 374.867 134.392C375.843 134.392 376.699 134.6 377.435 135.016C378.187 135.432 378.763 136 379.163 136.72C379.579 137.424 379.763 138.224 379.715 139.12L379.235 148L376.403 148.312ZM389.179 148.264C387.787 148.264 386.579 147.984 385.555 147.424C384.547 146.848 383.763 146.04 383.203 145C382.643 143.96 382.363 142.744 382.363 141.352C382.363 139.944 382.643 138.72 383.203 137.68C383.763 136.64 384.547 135.832 385.555 135.256C386.579 134.68 387.787 134.392 389.179 134.392C390.587 134.392 391.795 134.68 392.803 135.256C393.827 135.832 394.611 136.64 395.155 137.68C395.699 138.72 395.971 139.944 395.971 141.352C395.971 142.744 395.699 143.96 395.155 145C394.611 146.04 393.827 146.848 392.803 147.424C391.795 147.984 390.587 148.264 389.179 148.264ZM389.563 146.056C390.571 145.976 391.355 145.552 391.915 144.784C392.475 144 392.755 143 392.755 141.784C392.755 141.656 392.755 141.536 392.755 141.424C392.755 141.296 392.747 141.168 392.731 141.04C392.619 139.664 392.235 138.584 391.579 137.8C390.939 137.016 390.123 136.624 389.131 136.624C389.067 136.624 389.011 136.632 388.963 136.648C388.915 136.648 388.859 136.648 388.795 136.648C387.819 136.712 387.035 137.136 386.443 137.92C385.867 138.704 385.579 139.712 385.579 140.944C385.579 141.056 385.579 141.176 385.579 141.304C385.579 141.416 385.587 141.536 385.603 141.664C385.715 143.024 386.107 144.104 386.779 144.904C387.451 145.688 388.275 146.08 389.251 146.08C389.299 146.08 389.347 146.08 389.395 146.08C389.459 146.064 389.515 146.056 389.563 146.056ZM407.645 148.312V139.36C407.645 138.56 407.397 137.952 406.901 137.536C406.421 137.104 405.837 136.888 405.149 136.888C404.461 136.888 403.829 137.072 403.253 137.44C402.693 137.808 402.301 138.344 402.077 139.048V148L399.149 148.312L398.669 134.272L402.077 134.68V136.24C402.397 135.632 402.869 135.176 403.493 134.872C404.133 134.552 405.005 134.392 406.109 134.392C407.085 134.392 407.941 134.6 408.677 135.016C409.429 135.432 410.005 136 410.405 136.72C410.821 137.424 411.005 138.224 410.957 139.12L410.477 148L407.645 148.312Z" fill="black"/>
<circle cx="50.5" cy="190.5" r="12.5" fill="#C368EB"/>
<circle cx="50.5" cy="250.5" r="12.5" fill="#C368EB"/>
<circle cx="81.5" cy="250.5" r="12.5" fill="#C368EB"/>
<circle cx="174.5" cy="190.5" r="12.5" fill="#C368EB"/>
<circle cx="143.5" cy="190.5" r="12.5" fill="#C368EB"/>
<circle cx="112.5" cy="190.5" r="12.5" fill="#C368EB"/>
<circle cx="81.5" cy="190.5" r="12.5" fill="#C368EB"/>
<circle cx="50.5" cy="220.5" r="12.5" fill="#C368EB"/>
<circle cx="174.5" cy="220.5" r="12.5" fill="#C368EB"/>
<circle cx="143.5" cy="220.5" r="12.5" fill="#C368EB"/>
<circle cx="112.5" cy="220.5" r="12.5" fill="#C368EB"/>
<circle cx="81.5" cy="220.5" r="12.5" fill="#C368EB"/>
<circle cx="288.5" cy="190.5" r="12.5" fill="#C368EB"/>
<circle cx="381.5" cy="190.5" r="12.5" fill="#C368EB"/>
<circle cx="350.5" cy="190.5" r="12.5" fill="#C368EB"/>
<circle cx="319.5" cy="190.5" r="12.5" fill="#C368EB"/>
<circle cx="51.5" cy="326.5" r="12.5" fill="#EC9932"/>
<circle cx="175.5" cy="326.5" r="12.5" fill="#EC9932"/>
<circle cx="144.5" cy="326.5" r="12.5" fill="#EC9932"/>
<circle cx="113.5" cy="326.5" r="12.5" fill="#EC9932"/>
<circle cx="82.5" cy="326.5" r="12.5" fill="#EC9932"/>
<circle cx="51.5" cy="356.5" r="12.5" fill="#EC9932"/>
<circle cx="50.5" cy="386.5" r="12.5" fill="#EC9932"/>
<circle cx="174.5" cy="386.5" r="12.5" fill="#EC9932"/>
<circle cx="143.5" cy="386.5" r="12.5" fill="#EC9932"/>
<circle cx="112.5" cy="386.5" r="12.5" fill="#EC9932"/>
<circle cx="81.5" cy="386.5" r="12.5" fill="#EC9932"/>
<circle cx="50.5" cy="416.5" r="12.5" fill="#EC9932"/>
<circle cx="175.5" cy="356.5" r="12.5" fill="#EC9932"/>
<circle cx="144.5" cy="356.5" r="12.5" fill="#EC9932"/>
<circle cx="113.5" cy="356.5" r="12.5" fill="#EC9932"/>
<circle cx="82.5" cy="356.5" r="12.5" fill="#EC9932"/>
<circle cx="288.5" cy="326.5" r="12.5" fill="#EC9932"/>
<circle cx="381.5" cy="326.5" r="12.5" fill="#EC9932"/>
<circle cx="350.5" cy="326.5" r="12.5" fill="#EC9932"/>
<circle cx="319.5" cy="326.5" r="12.5" fill="#EC9932"/>
</svg>
