<svg width="463" height="502" viewBox="0 0 463 502" fill="none" xmlns="http://www.w3.org/2000/svg">
<path d="M40.6345 57.312V41.088H35.4505L34.7305 38.952L49.2985 38.04V41.088H44.2585L43.7785 57L40.6345 57.312ZM60.387 57.336V48.12C60.387 47.32 60.139 46.712 59.643 46.296C59.163 45.864 58.579 45.648 57.891 45.648C57.203 45.648 56.571 45.832 55.995 46.2C55.435 46.568 55.043 47.104 54.819 47.808V57L51.891 57.312L51.411 38.28L54.819 37.8V45.048C55.139 44.568 55.619 44.176 56.259 43.872C56.915 43.552 57.771 43.392 58.827 43.392C59.755 43.392 60.579 43.584 61.299 43.968C62.035 44.336 62.619 44.848 63.051 45.504C63.483 46.16 63.699 46.92 63.699 47.784V48.048L63.219 57L60.387 57.336ZM78.7313 54.648C78.2673 55.272 77.7713 55.776 77.2433 56.16C76.7313 56.544 76.1393 56.824 75.4673 57C74.7953 57.176 73.9713 57.264 72.9953 57.264C71.6033 57.264 70.4113 56.96 69.4193 56.352C68.4273 55.728 67.6673 54.896 67.1393 53.856C66.6113 52.8 66.3473 51.624 66.3473 50.328C66.3473 49.016 66.6193 47.84 67.1633 46.8C67.7073 45.744 68.4673 44.912 69.4433 44.304C70.4353 43.696 71.5873 43.392 72.8993 43.392C74.1793 43.392 75.2753 43.688 76.1873 44.28C77.1153 44.856 77.8273 45.688 78.3233 46.776C78.8193 47.848 79.0673 49.128 79.0673 50.616V51.024H70.3793L69.8513 49.152L75.7553 48.672C75.7073 47.824 75.4673 47.136 75.0353 46.608C74.6193 46.064 73.9473 45.792 73.0193 45.792C71.9473 45.792 71.0593 46.192 70.3553 46.992C69.6673 47.776 69.3233 48.896 69.3233 50.352C69.3233 51.392 69.5153 52.256 69.8993 52.944C70.2993 53.616 70.7953 54.12 71.3873 54.456C71.9953 54.776 72.6033 54.936 73.2113 54.936C74.2353 54.936 75.1473 54.768 75.9473 54.432C76.7633 54.08 77.4033 53.608 77.8673 53.016L78.7313 54.648ZM82.2426 57.336L81.7626 43.272L85.1706 43.68V45.048C85.4746 44.664 85.7786 44.352 86.0826 44.112C86.4026 43.872 86.8026 43.696 87.2826 43.584C87.7626 43.472 88.3946 43.408 89.1786 43.392L89.7306 46.32C89.2026 46.224 88.7226 46.176 88.2906 46.176C86.6746 46.176 85.6346 46.824 85.1706 48.12V57L82.2426 57.336ZM103.552 54.648C103.088 55.272 102.592 55.776 102.064 56.16C101.552 56.544 100.96 56.824 100.288 57C99.6156 57.176 98.7916 57.264 97.8156 57.264C96.4236 57.264 95.2316 56.96 94.2396 56.352C93.2476 55.728 92.4876 54.896 91.9596 53.856C91.4316 52.8 91.1676 51.624 91.1676 50.328C91.1676 49.016 91.4396 47.84 91.9836 46.8C92.5276 45.744 93.2876 44.912 94.2636 44.304C95.2556 43.696 96.4076 43.392 97.7196 43.392C98.9996 43.392 100.096 43.688 101.008 44.28C101.936 44.856 102.648 45.688 103.144 46.776C103.64 47.848 103.888 49.128 103.888 50.616V51.024H95.1996L94.6716 49.152L100.576 48.672C100.528 47.824 100.288 47.136 99.8556 46.608C99.4396 46.064 98.7676 45.792 97.8396 45.792C96.7676 45.792 95.8796 46.192 95.1756 46.992C94.4876 47.776 94.1436 48.896 94.1436 50.352C94.1436 51.392 94.3356 52.256 94.7196 52.944C95.1196 53.616 95.6156 54.12 96.2076 54.456C96.8156 54.776 97.4236 54.936 98.0316 54.936C99.0556 54.936 99.9676 54.768 100.768 54.432C101.584 54.08 102.224 53.608 102.688 53.016L103.552 54.648ZM124.72 57.24C124.32 56.92 124.008 56.616 123.784 56.328C123.576 56.024 123.4 55.664 123.256 55.248C122.968 55.744 122.56 56.144 122.032 56.448C121.504 56.736 120.912 56.944 120.256 57.072C119.616 57.2 118.96 57.264 118.288 57.264C116.928 57.264 115.904 56.952 115.216 56.328C114.528 55.704 114.168 54.832 114.136 53.712V53.616C114.136 52.336 114.544 51.328 115.36 50.592C116.176 49.856 117.312 49.328 118.768 49.008C119.76 48.784 120.592 48.544 121.264 48.288C121.952 48.016 122.296 47.712 122.296 47.376C122.296 46.304 121.456 45.768 119.776 45.768C118.928 45.768 118.104 45.936 117.304 46.272C116.504 46.592 115.848 46.976 115.336 47.424L114.376 45.696C114.936 44.96 115.704 44.392 116.68 43.992C117.672 43.592 118.792 43.392 120.04 43.392C121.896 43.392 123.288 43.736 124.216 44.424C125.16 45.096 125.632 46.16 125.632 47.616V53.064C125.632 53.688 125.752 54.304 125.992 54.912C126.232 55.52 126.576 56.048 127.024 56.496L124.72 57.24ZM117.448 53.376C117.464 53.808 117.592 54.176 117.832 54.48C118.072 54.784 118.432 54.936 118.912 54.936C119.616 54.936 120.304 54.736 120.976 54.336C121.648 53.936 122.112 53.432 122.368 52.824C122.448 52.648 122.496 52.432 122.512 52.176C122.544 51.904 122.56 51.624 122.56 51.336C122.56 50.92 122.544 50.544 122.512 50.208C122.48 49.872 122.464 49.704 122.464 49.704C122.112 49.976 121.656 50.208 121.096 50.4C120.552 50.592 119.976 50.776 119.368 50.952C118.776 51.112 118.304 51.376 117.952 51.744C117.616 52.112 117.448 52.6 117.448 53.208V53.376ZM129.774 57.336L129.294 43.272L132.702 43.68V45.048C133.006 44.664 133.31 44.352 133.614 44.112C133.934 43.872 134.334 43.696 134.814 43.584C135.294 43.472 135.926 43.408 136.71 43.392L137.262 46.32C136.734 46.224 136.254 46.176 135.822 46.176C134.206 46.176 133.166 46.824 132.702 48.12V57L129.774 57.336ZM151.083 54.648C150.619 55.272 150.123 55.776 149.595 56.16C149.083 56.544 148.491 56.824 147.819 57C147.147 57.176 146.323 57.264 145.347 57.264C143.955 57.264 142.763 56.96 141.771 56.352C140.779 55.728 140.019 54.896 139.491 53.856C138.963 52.8 138.699 51.624 138.699 50.328C138.699 49.016 138.971 47.84 139.515 46.8C140.059 45.744 140.819 44.912 141.795 44.304C142.787 43.696 143.939 43.392 145.251 43.392C146.531 43.392 147.627 43.688 148.539 44.28C149.467 44.856 150.179 45.688 150.675 46.776C151.171 47.848 151.419 49.128 151.419 50.616V51.024H142.731L142.203 49.152L148.107 48.672C148.059 47.824 147.819 47.136 147.387 46.608C146.971 46.064 146.299 45.792 145.371 45.792C144.299 45.792 143.411 46.192 142.707 46.992C142.019 47.776 141.675 48.896 141.675 50.352C141.675 51.392 141.867 52.256 142.251 52.944C142.651 53.616 143.147 54.12 143.739 54.456C144.347 54.776 144.955 54.936 145.563 54.936C146.587 54.936 147.499 54.768 148.299 54.432C149.115 54.08 149.755 53.608 150.219 53.016L151.083 54.648ZM166.084 41.28L165.316 46.008L165.388 46.032C165.724 45.712 166.252 45.416 166.972 45.144C167.708 44.872 168.54 44.736 169.468 44.736C170.668 44.736 171.78 44.952 172.804 45.384C173.844 45.8 174.676 46.456 175.3 47.352C175.924 48.232 176.236 49.376 176.236 50.784C176.236 52.224 175.892 53.44 175.204 54.432C174.516 55.424 173.604 56.176 172.468 56.688C171.332 57.184 170.092 57.432 168.748 57.432C167.036 57.432 165.596 57.032 164.428 56.232C163.26 55.432 162.428 54.4 161.932 53.136L163.612 52.032C164.108 52.944 164.812 53.656 165.724 54.168C166.636 54.664 167.652 54.912 168.772 54.912C169.54 54.912 170.236 54.76 170.86 54.456C171.484 54.152 171.98 53.696 172.348 53.088C172.716 52.464 172.9 51.696 172.9 50.784C172.9 49.472 172.524 48.504 171.772 47.88C171.02 47.256 170.1 46.944 169.012 46.944C168.228 46.944 167.468 47.152 166.732 47.568C166.012 47.968 165.5 48.496 165.196 49.152L162.388 48.48L163.228 38.28H166.588L166.444 39.048L174.724 38.28V41.28H166.084ZM193.423 57.264C191.567 57.264 190.223 56.896 189.391 56.16C188.559 55.424 188.143 54.36 188.143 52.968V45.912H186.319L185.839 44.064L188.143 43.824V39.504L191.527 39.984L191.407 43.488L193.807 43.248V45.912H191.311L191.071 52.536V52.776C191.071 53.56 191.271 54.184 191.671 54.648C192.087 55.096 192.831 55.32 193.903 55.32L193.423 57.264ZM200.542 39.768C200.542 40.328 200.342 40.808 199.942 41.208C199.542 41.608 199.062 41.808 198.502 41.808C197.942 41.808 197.462 41.608 197.062 41.208C196.662 40.808 196.462 40.328 196.462 39.768C196.462 39.208 196.662 38.728 197.062 38.328C197.462 37.928 197.942 37.728 198.502 37.728C199.062 37.728 199.542 37.928 199.942 38.328C200.342 38.728 200.542 39.208 200.542 39.768ZM196.798 57.336V43.272L200.23 43.68L199.75 57L196.798 57.336ZM218.495 57.312V48.36C218.495 46.744 217.847 45.936 216.551 45.936C216.151 45.936 215.799 46.072 215.495 46.344C215.191 46.6 214.951 46.928 214.775 47.328C214.615 47.728 214.519 48.136 214.487 48.552L214.007 57L211.103 57.312V48.36C211.103 47.56 210.967 46.96 210.695 46.56C210.423 46.144 209.975 45.936 209.351 45.936C208.807 45.936 208.319 46.112 207.887 46.464C207.455 46.816 207.151 47.272 206.975 47.832V57L204.047 57.312L203.567 43.272L206.975 43.68V45.216C207.247 44.64 207.695 44.192 208.319 43.872C208.943 43.552 209.703 43.392 210.599 43.392C211.447 43.392 212.175 43.584 212.783 43.968C213.407 44.336 213.847 44.84 214.103 45.48C214.375 44.84 214.831 44.336 215.471 43.968C216.111 43.584 216.903 43.392 217.847 43.392C218.631 43.392 219.327 43.56 219.935 43.896C220.543 44.232 221.023 44.704 221.375 45.312C221.727 45.92 221.903 46.64 221.903 47.472V47.784L221.423 57L218.495 57.312ZM236.958 54.648C236.494 55.272 235.998 55.776 235.47 56.16C234.958 56.544 234.366 56.824 233.694 57C233.022 57.176 232.198 57.264 231.222 57.264C229.83 57.264 228.638 56.96 227.646 56.352C226.654 55.728 225.894 54.896 225.366 53.856C224.838 52.8 224.574 51.624 224.574 50.328C224.574 49.016 224.846 47.84 225.39 46.8C225.934 45.744 226.694 44.912 227.67 44.304C228.662 43.696 229.814 43.392 231.126 43.392C232.406 43.392 233.502 43.688 234.414 44.28C235.342 44.856 236.054 45.688 236.55 46.776C237.046 47.848 237.294 49.128 237.294 50.616V51.024H228.606L228.078 49.152L233.982 48.672C233.934 47.824 233.694 47.136 233.262 46.608C232.846 46.064 232.174 45.792 231.246 45.792C230.174 45.792 229.286 46.192 228.582 46.992C227.894 47.776 227.55 48.896 227.55 50.352C227.55 51.392 227.742 52.256 228.126 52.944C228.526 53.616 229.022 54.12 229.614 54.456C230.222 54.776 230.83 54.936 231.438 54.936C232.462 54.936 233.374 54.768 234.174 54.432C234.99 54.08 235.63 53.608 236.094 53.016L236.958 54.648ZM249.373 47.208C248.909 46.76 248.261 46.392 247.429 46.104C246.597 45.816 245.773 45.672 244.957 45.672C244.157 45.672 243.589 45.808 243.253 46.08C242.917 46.352 242.749 46.672 242.749 47.04C242.749 47.392 242.949 47.704 243.349 47.976C243.765 48.248 244.493 48.488 245.533 48.696C247.341 49.048 248.661 49.6 249.493 50.352C250.341 51.088 250.765 52.064 250.765 53.28C250.765 54.56 250.277 55.544 249.301 56.232C248.341 56.92 246.917 57.264 245.029 57.264C244.229 57.264 243.429 57.112 242.629 56.808C241.845 56.488 241.141 56.104 240.517 55.656C239.909 55.192 239.445 54.76 239.125 54.36L240.301 52.8C240.605 53.12 241.037 53.44 241.597 53.76C242.173 54.08 242.781 54.344 243.421 54.552C244.077 54.76 244.653 54.864 245.149 54.864C245.965 54.864 246.557 54.736 246.925 54.48C247.309 54.224 247.501 53.864 247.501 53.4C247.501 52.888 247.229 52.472 246.685 52.152C246.157 51.832 245.325 51.552 244.189 51.312C242.541 50.976 241.357 50.456 240.637 49.752C239.917 49.048 239.557 48.208 239.557 47.232C239.557 46.128 240.029 45.216 240.973 44.496C241.917 43.76 243.261 43.392 245.005 43.392C245.821 43.392 246.589 43.504 247.309 43.728C248.045 43.936 248.677 44.208 249.205 44.544C249.749 44.88 250.141 45.216 250.381 45.552L249.373 47.208ZM271.509 57.24C271.109 56.92 270.797 56.616 270.573 56.328C270.365 56.024 270.189 55.664 270.045 55.248C269.757 55.744 269.349 56.144 268.821 56.448C268.293 56.736 267.701 56.944 267.045 57.072C266.405 57.2 265.749 57.264 265.077 57.264C263.717 57.264 262.693 56.952 262.005 56.328C261.317 55.704 260.957 54.832 260.925 53.712V53.616C260.925 52.336 261.333 51.328 262.149 50.592C262.965 49.856 264.101 49.328 265.557 49.008C266.549 48.784 267.381 48.544 268.053 48.288C268.741 48.016 269.085 47.712 269.085 47.376C269.085 46.304 268.245 45.768 266.565 45.768C265.717 45.768 264.893 45.936 264.093 46.272C263.293 46.592 262.637 46.976 262.125 47.424L261.165 45.696C261.725 44.96 262.493 44.392 263.469 43.992C264.461 43.592 265.581 43.392 266.829 43.392C268.685 43.392 270.077 43.736 271.005 44.424C271.949 45.096 272.421 46.16 272.421 47.616V53.064C272.421 53.688 272.541 54.304 272.781 54.912C273.021 55.52 273.365 56.048 273.813 56.496L271.509 57.24ZM264.237 53.376C264.253 53.808 264.381 54.176 264.621 54.48C264.861 54.784 265.221 54.936 265.701 54.936C266.405 54.936 267.093 54.736 267.765 54.336C268.437 53.936 268.901 53.432 269.157 52.824C269.237 52.648 269.285 52.432 269.301 52.176C269.333 51.904 269.349 51.624 269.349 51.336C269.349 50.92 269.333 50.544 269.301 50.208C269.269 49.872 269.253 49.704 269.253 49.704C268.901 49.976 268.445 50.208 267.885 50.4C267.341 50.592 266.765 50.776 266.157 50.952C265.565 51.112 265.093 51.376 264.741 51.744C264.405 52.112 264.237 52.6 264.237 53.208V53.376ZM285.467 47.208C285.003 46.76 284.355 46.392 283.523 46.104C282.691 45.816 281.867 45.672 281.051 45.672C280.251 45.672 279.683 45.808 279.347 46.08C279.011 46.352 278.843 46.672 278.843 47.04C278.843 47.392 279.043 47.704 279.443 47.976C279.859 48.248 280.587 48.488 281.627 48.696C283.435 49.048 284.755 49.6 285.587 50.352C286.435 51.088 286.859 52.064 286.859 53.28C286.859 54.56 286.371 55.544 285.395 56.232C284.435 56.92 283.011 57.264 281.123 57.264C280.323 57.264 279.523 57.112 278.723 56.808C277.939 56.488 277.235 56.104 276.611 55.656C276.003 55.192 275.539 54.76 275.219 54.36L276.395 52.8C276.699 53.12 277.131 53.44 277.691 53.76C278.267 54.08 278.875 54.344 279.515 54.552C280.171 54.76 280.747 54.864 281.243 54.864C282.059 54.864 282.651 54.736 283.019 54.48C283.403 54.224 283.595 53.864 283.595 53.4C283.595 52.888 283.323 52.472 282.779 52.152C282.251 51.832 281.419 51.552 280.283 51.312C278.635 50.976 277.451 50.456 276.731 49.752C276.011 49.048 275.651 48.208 275.651 47.232C275.651 46.128 276.123 45.216 277.067 44.496C278.011 43.76 279.355 43.392 281.099 43.392C281.915 43.392 282.683 43.504 283.403 43.728C284.139 43.936 284.771 44.208 285.299 44.544C285.843 44.88 286.235 45.216 286.475 45.552L285.467 47.208ZM312.667 57.312V48.36C312.667 46.744 312.019 45.936 310.723 45.936C310.323 45.936 309.971 46.072 309.667 46.344C309.363 46.6 309.123 46.928 308.947 47.328C308.787 47.728 308.691 48.136 308.659 48.552L308.179 57L305.275 57.312V48.36C305.275 47.56 305.139 46.96 304.867 46.56C304.595 46.144 304.147 45.936 303.523 45.936C302.979 45.936 302.491 46.112 302.059 46.464C301.627 46.816 301.323 47.272 301.147 47.832V57L298.219 57.312L297.739 43.272L301.147 43.68V45.216C301.419 44.64 301.867 44.192 302.491 43.872C303.115 43.552 303.875 43.392 304.771 43.392C305.619 43.392 306.347 43.584 306.955 43.968C307.579 44.336 308.019 44.84 308.275 45.48C308.547 44.84 309.003 44.336 309.643 43.968C310.283 43.584 311.075 43.392 312.019 43.392C312.803 43.392 313.499 43.56 314.107 43.896C314.715 44.232 315.195 44.704 315.547 45.312C315.899 45.92 316.075 46.64 316.075 47.472V47.784L315.595 57L312.667 57.312ZM329.33 57.24C328.93 56.92 328.618 56.616 328.394 56.328C328.186 56.024 328.01 55.664 327.866 55.248C327.578 55.744 327.17 56.144 326.642 56.448C326.114 56.736 325.522 56.944 324.866 57.072C324.226 57.2 323.57 57.264 322.898 57.264C321.538 57.264 320.514 56.952 319.826 56.328C319.138 55.704 318.778 54.832 318.746 53.712V53.616C318.746 52.336 319.154 51.328 319.97 50.592C320.786 49.856 321.922 49.328 323.378 49.008C324.37 48.784 325.202 48.544 325.874 48.288C326.562 48.016 326.906 47.712 326.906 47.376C326.906 46.304 326.066 45.768 324.386 45.768C323.538 45.768 322.714 45.936 321.914 46.272C321.114 46.592 320.458 46.976 319.946 47.424L318.986 45.696C319.546 44.96 320.314 44.392 321.29 43.992C322.282 43.592 323.402 43.392 324.65 43.392C326.506 43.392 327.898 43.736 328.826 44.424C329.77 45.096 330.242 46.16 330.242 47.616V53.064C330.242 53.688 330.362 54.304 330.602 54.912C330.842 55.52 331.186 56.048 331.634 56.496L329.33 57.24ZM322.058 53.376C322.074 53.808 322.202 54.176 322.442 54.48C322.682 54.784 323.042 54.936 323.522 54.936C324.226 54.936 324.914 54.736 325.586 54.336C326.258 53.936 326.722 53.432 326.978 52.824C327.058 52.648 327.106 52.432 327.122 52.176C327.154 51.904 327.17 51.624 327.17 51.336C327.17 50.92 327.154 50.544 327.122 50.208C327.09 49.872 327.074 49.704 327.074 49.704C326.722 49.976 326.266 50.208 325.706 50.4C325.162 50.592 324.586 50.776 323.978 50.952C323.386 51.112 322.914 51.376 322.562 51.744C322.226 52.112 322.058 52.6 322.058 53.208V53.376ZM342.879 57.312V48.36C342.879 47.56 342.631 46.952 342.135 46.536C341.655 46.104 341.071 45.888 340.383 45.888C339.695 45.888 339.063 46.072 338.487 46.44C337.927 46.808 337.535 47.344 337.311 48.048V57L334.383 57.312L333.903 43.272L337.311 43.68V45.24C337.631 44.632 338.103 44.176 338.727 43.872C339.367 43.552 340.239 43.392 341.343 43.392C342.319 43.392 343.175 43.6 343.911 44.016C344.663 44.432 345.239 45 345.639 45.72C346.055 46.424 346.239 47.224 346.191 48.12L345.711 57L342.879 57.312ZM349.295 59.736C350.223 59.672 350.975 59.488 351.551 59.184C352.143 58.88 352.623 58.48 352.991 57.984C353.359 57.488 353.663 56.928 353.903 56.304L348.167 43.944L351.791 43.272L355.175 53.016L358.943 43.272L361.559 43.944L356.567 57.672C356.023 59.144 355.207 60.208 354.119 60.864C353.031 61.536 351.631 61.872 349.919 61.872L349.295 59.736ZM380.637 57.312V48.36C380.637 47.56 380.389 46.952 379.893 46.536C379.413 46.104 378.829 45.888 378.141 45.888C377.453 45.888 376.821 46.072 376.245 46.44C375.685 46.808 375.293 47.344 375.069 48.048V57L372.141 57.312L371.661 43.272L375.069 43.68V45.24C375.389 44.632 375.861 44.176 376.485 43.872C377.125 43.552 377.997 43.392 379.101 43.392C380.077 43.392 380.933 43.6 381.669 44.016C382.421 44.432 382.997 45 383.397 45.72C383.813 46.424 383.997 47.224 383.949 48.12L383.469 57L380.637 57.312ZM393.413 57.264C392.021 57.264 390.813 56.984 389.789 56.424C388.781 55.848 387.997 55.04 387.437 54C386.877 52.96 386.597 51.744 386.597 50.352C386.597 48.944 386.877 47.72 387.437 46.68C387.997 45.64 388.781 44.832 389.789 44.256C390.813 43.68 392.021 43.392 393.413 43.392C394.821 43.392 396.029 43.68 397.037 44.256C398.061 44.832 398.845 45.64 399.389 46.68C399.933 47.72 400.205 48.944 400.205 50.352C400.205 51.744 399.933 52.96 399.389 54C398.845 55.04 398.061 55.848 397.037 56.424C396.029 56.984 394.821 57.264 393.413 57.264ZM393.797 55.056C394.805 54.976 395.589 54.552 396.149 53.784C396.709 53 396.989 52 396.989 50.784C396.989 50.656 396.989 50.536 396.989 50.424C396.989 50.296 396.981 50.168 396.965 50.04C396.853 48.664 396.469 47.584 395.813 46.8C395.173 46.016 394.357 45.624 393.365 45.624C393.301 45.624 393.245 45.632 393.197 45.648C393.149 45.648 393.093 45.648 393.029 45.648C392.053 45.712 391.269 46.136 390.677 46.92C390.101 47.704 389.813 48.712 389.813 49.944C389.813 50.056 389.813 50.176 389.813 50.304C389.813 50.416 389.821 50.536 389.837 50.664C389.949 52.024 390.341 53.104 391.013 53.904C391.685 54.688 392.509 55.08 393.485 55.08C393.533 55.08 393.581 55.08 393.629 55.08C393.693 55.064 393.749 55.056 393.797 55.056ZM411.879 57.312V48.36C411.879 47.56 411.631 46.952 411.135 46.536C410.655 46.104 410.071 45.888 409.383 45.888C408.695 45.888 408.063 46.072 407.487 46.44C406.927 46.808 406.535 47.344 406.311 48.048V57L403.383 57.312L402.903 43.272L406.311 43.68V45.24C406.631 44.632 407.103 44.176 407.727 43.872C408.367 43.552 409.239 43.392 410.343 43.392C411.319 43.392 412.175 43.6 412.911 44.016C413.663 44.432 414.239 45 414.639 45.72C415.055 46.424 415.239 47.224 415.191 48.12L414.711 57L411.879 57.312ZM418.103 51.864V49.032H427.031V51.864H418.103ZM45.2792 90.08C44.8312 90.72 44.1512 91.248 43.2392 91.664C42.3272 92.064 41.2952 92.264 40.1432 92.264C38.9112 92.264 37.7672 92.008 36.7112 91.496C35.6552 90.968 34.7992 90.192 34.1432 89.168C33.5032 88.144 33.1832 86.864 33.1832 85.328C33.1832 83.872 33.4872 82.632 34.0952 81.608C34.7032 80.568 35.5272 79.776 36.5672 79.232C37.6232 78.672 38.8152 78.392 40.1432 78.392C41.2152 78.392 42.1912 78.576 43.0712 78.944C43.9672 79.296 44.6632 79.784 45.1592 80.408L44.3432 82.232C43.9432 81.816 43.3832 81.472 42.6632 81.2C41.9432 80.928 41.2552 80.792 40.5992 80.792C39.8472 80.792 39.1592 80.968 38.5352 81.32C37.9112 81.672 37.4152 82.192 37.0472 82.88C36.6952 83.552 36.5192 84.368 36.5192 85.328C36.5192 86.768 36.9112 87.88 37.6952 88.664C38.4792 89.448 39.4712 89.84 40.6712 89.84C41.4552 89.84 42.1832 89.712 42.8552 89.456C43.5432 89.2 44.0872 88.848 44.4872 88.4L45.2792 90.08ZM57.7828 92.24C57.3828 91.92 57.0708 91.616 56.8468 91.328C56.6388 91.024 56.4628 90.664 56.3188 90.248C56.0308 90.744 55.6228 91.144 55.0948 91.448C54.5668 91.736 53.9748 91.944 53.3188 92.072C52.6788 92.2 52.0228 92.264 51.3508 92.264C49.9908 92.264 48.9668 91.952 48.2788 91.328C47.5908 90.704 47.2308 89.832 47.1988 88.712V88.616C47.1988 87.336 47.6068 86.328 48.4228 85.592C49.2388 84.856 50.3748 84.328 51.8308 84.008C52.8228 83.784 53.6548 83.544 54.3268 83.288C55.0148 83.016 55.3588 82.712 55.3588 82.376C55.3588 81.304 54.5188 80.768 52.8388 80.768C51.9908 80.768 51.1668 80.936 50.3668 81.272C49.5668 81.592 48.9108 81.976 48.3988 82.424L47.4388 80.696C47.9988 79.96 48.7668 79.392 49.7428 78.992C50.7348 78.592 51.8548 78.392 53.1028 78.392C54.9588 78.392 56.3508 78.736 57.2788 79.424C58.2228 80.096 58.6948 81.16 58.6948 82.616V88.064C58.6948 88.688 58.8148 89.304 59.0548 89.912C59.2948 90.52 59.6388 91.048 60.0868 91.496L57.7828 92.24ZM50.5108 88.376C50.5268 88.808 50.6548 89.176 50.8948 89.48C51.1348 89.784 51.4948 89.936 51.9748 89.936C52.6788 89.936 53.3668 89.736 54.0388 89.336C54.7108 88.936 55.1748 88.432 55.4308 87.824C55.5108 87.648 55.5588 87.432 55.5748 87.176C55.6068 86.904 55.6228 86.624 55.6228 86.336C55.6228 85.92 55.6068 85.544 55.5748 85.208C55.5428 84.872 55.5268 84.704 55.5268 84.704C55.1748 84.976 54.7188 85.208 54.1588 85.4C53.6148 85.592 53.0388 85.776 52.4308 85.952C51.8388 86.112 51.3668 86.376 51.0148 86.744C50.6788 87.112 50.5108 87.6 50.5108 88.208V88.376ZM71.3323 92.312V83.36C71.3323 82.56 71.0843 81.952 70.5883 81.536C70.1083 81.104 69.5243 80.888 68.8363 80.888C68.1483 80.888 67.5163 81.072 66.9403 81.44C66.3803 81.808 65.9883 82.344 65.7643 83.048V92L62.8363 92.312L62.3563 78.272L65.7643 78.68V80.24C66.0843 79.632 66.5563 79.176 67.1803 78.872C67.8203 78.552 68.6923 78.392 69.7963 78.392C70.7723 78.392 71.6283 78.6 72.3643 79.016C73.1163 79.432 73.6923 80 74.0923 80.72C74.5083 81.424 74.6923 82.224 74.6443 83.12L74.1643 92L71.3323 92.312ZM84.1086 92.264C82.7166 92.264 81.5086 91.984 80.4846 91.424C79.4766 90.848 78.6926 90.04 78.1326 89C77.5726 87.96 77.2926 86.744 77.2926 85.352C77.2926 83.944 77.5726 82.72 78.1326 81.68C78.6926 80.64 79.4766 79.832 80.4846 79.256C81.5086 78.68 82.7166 78.392 84.1086 78.392C85.5166 78.392 86.7246 78.68 87.7326 79.256C88.7566 79.832 89.5406 80.64 90.0846 81.68C90.6286 82.72 90.9006 83.944 90.9006 85.352C90.9006 86.744 90.6286 87.96 90.0846 89C89.5406 90.04 88.7566 90.848 87.7326 91.424C86.7246 91.984 85.5166 92.264 84.1086 92.264ZM84.4926 90.056C85.5006 89.976 86.2846 89.552 86.8446 88.784C87.4046 88 87.6846 87 87.6846 85.784C87.6846 85.656 87.6846 85.536 87.6846 85.424C87.6846 85.296 87.6766 85.168 87.6606 85.04C87.5486 83.664 87.1646 82.584 86.5086 81.8C85.8686 81.016 85.0526 80.624 84.0606 80.624C83.9966 80.624 83.9406 80.632 83.8926 80.648C83.8446 80.648 83.7886 80.648 83.7246 80.648C82.7486 80.712 81.9646 81.136 81.3726 81.92C80.7966 82.704 80.5086 83.712 80.5086 84.944C80.5086 85.056 80.5086 85.176 80.5086 85.304C80.5086 85.416 80.5166 85.536 80.5326 85.664C80.6446 87.024 81.0366 88.104 81.7086 88.904C82.3806 89.688 83.2046 90.08 84.1806 90.08C84.2286 90.08 84.2766 90.08 84.3246 90.08C84.3886 90.064 84.4446 90.056 84.4926 90.056ZM102.575 92.312V83.36C102.575 82.56 102.327 81.952 101.831 81.536C101.351 81.104 100.767 80.888 100.079 80.888C99.3905 80.888 98.7585 81.072 98.1825 81.44C97.6225 81.808 97.2305 82.344 97.0065 83.048V92L94.0785 92.312L93.5985 78.272L97.0065 78.68V80.24C97.3265 79.632 97.7985 79.176 98.4225 78.872C99.0625 78.552 99.9345 78.392 101.039 78.392C102.015 78.392 102.871 78.6 103.607 79.016C104.359 79.432 104.935 80 105.335 80.72C105.751 81.424 105.935 82.224 105.887 83.12L105.407 92L102.575 92.312ZM133.704 92.312L133.032 79.04L128.328 88.76L128.952 90.056L125.952 91.328L120.768 79.904L119.04 92.312L116.616 92L117.864 74.864L117.072 73.28L120.792 72.8L127.032 86L131.736 72.8L135.84 73.28L135.072 74.84L137.352 92L133.704 92.312ZM138.206 92.528L145.454 72.032L147.782 72.728L140.51 93.224L138.206 92.528ZM165.72 92.312L165.048 79.04L160.344 88.76L160.968 90.056L157.968 91.328L152.784 79.904L151.056 92.312L148.632 92L149.88 74.864L149.088 73.28L152.808 72.8L159.048 86L163.752 72.8L167.856 73.28L167.088 74.84L169.368 92L165.72 92.312ZM189.608 82.208C189.144 81.76 188.496 81.392 187.664 81.104C186.832 80.816 186.008 80.672 185.192 80.672C184.392 80.672 183.824 80.808 183.488 81.08C183.152 81.352 182.984 81.672 182.984 82.04C182.984 82.392 183.184 82.704 183.584 82.976C184 83.248 184.728 83.488 185.768 83.696C187.576 84.048 188.896 84.6 189.728 85.352C190.576 86.088 191 87.064 191 88.28C191 89.56 190.512 90.544 189.536 91.232C188.576 91.92 187.152 92.264 185.264 92.264C184.464 92.264 183.664 92.112 182.864 91.808C182.08 91.488 181.376 91.104 180.752 90.656C180.144 90.192 179.68 89.76 179.36 89.36L180.536 87.8C180.84 88.12 181.272 88.44 181.832 88.76C182.408 89.08 183.016 89.344 183.656 89.552C184.312 89.76 184.888 89.864 185.384 89.864C186.2 89.864 186.792 89.736 187.16 89.48C187.544 89.224 187.736 88.864 187.736 88.4C187.736 87.888 187.464 87.472 186.92 87.152C186.392 86.832 185.56 86.552 184.424 86.312C182.776 85.976 181.592 85.456 180.872 84.752C180.152 84.048 179.792 83.208 179.792 82.232C179.792 81.128 180.264 80.216 181.208 79.496C182.152 78.76 183.496 78.392 185.24 78.392C186.056 78.392 186.824 78.504 187.544 78.728C188.28 78.936 188.912 79.208 189.44 79.544C189.984 79.88 190.376 80.216 190.616 80.552L189.608 82.208ZM202.582 92.336V83.12C202.582 82.32 202.334 81.712 201.838 81.296C201.358 80.864 200.774 80.648 200.086 80.648C199.398 80.648 198.766 80.832 198.19 81.2C197.63 81.568 197.238 82.104 197.014 82.808V92L194.086 92.312L193.606 73.28L197.014 72.8V80.048C197.334 79.568 197.814 79.176 198.454 78.872C199.11 78.552 199.966 78.392 201.022 78.392C201.95 78.392 202.774 78.584 203.494 78.968C204.23 79.336 204.814 79.848 205.246 80.504C205.678 81.16 205.894 81.92 205.894 82.784V83.048L205.414 92L202.582 92.336ZM213.199 74.768C213.199 75.328 212.999 75.808 212.599 76.208C212.199 76.608 211.719 76.808 211.159 76.808C210.599 76.808 210.119 76.608 209.719 76.208C209.319 75.808 209.119 75.328 209.119 74.768C209.119 74.208 209.319 73.728 209.719 73.328C210.119 72.928 210.599 72.728 211.159 72.728C211.719 72.728 212.199 72.928 212.599 73.328C212.999 73.728 213.199 74.208 213.199 74.768ZM209.455 92.336V78.272L212.887 78.68L212.407 92L209.455 92.336ZM216.704 97.088L216.224 78.272L219.632 78.68V79.976C219.92 79.48 220.4 79.096 221.072 78.824C221.744 78.536 222.488 78.392 223.304 78.392C225.064 78.392 226.472 78.984 227.528 80.168C228.584 81.336 229.112 83.056 229.112 85.328C229.112 87.616 228.576 89.344 227.504 90.512C226.432 91.68 225.04 92.264 223.328 92.264C222.448 92.264 221.68 92.128 221.024 91.856C220.368 91.584 219.904 91.264 219.632 90.896V96.512L216.704 97.088ZM219.584 88.16C219.84 88.672 220.216 89.104 220.712 89.456C221.208 89.808 221.808 89.984 222.512 89.984C223.12 89.984 223.688 89.84 224.216 89.552C224.76 89.248 225.192 88.76 225.512 88.088C225.848 87.4 226.016 86.48 226.016 85.328C226.016 84.192 225.856 83.296 225.536 82.64C225.216 81.968 224.792 81.488 224.264 81.2C223.736 80.912 223.144 80.768 222.488 80.768C221.96 80.768 221.472 80.904 221.024 81.176C220.592 81.432 220.24 81.784 219.968 82.232C219.712 82.68 219.584 83.192 219.584 83.768V88.16ZM241.193 82.208C240.729 81.76 240.081 81.392 239.249 81.104C238.417 80.816 237.593 80.672 236.777 80.672C235.977 80.672 235.409 80.808 235.073 81.08C234.737 81.352 234.569 81.672 234.569 82.04C234.569 82.392 234.769 82.704 235.169 82.976C235.585 83.248 236.313 83.488 237.353 83.696C239.161 84.048 240.481 84.6 241.313 85.352C242.161 86.088 242.585 87.064 242.585 88.28C242.585 89.56 242.097 90.544 241.121 91.232C240.161 91.92 238.737 92.264 236.849 92.264C236.049 92.264 235.249 92.112 234.449 91.808C233.665 91.488 232.961 91.104 232.337 90.656C231.729 90.192 231.265 89.76 230.945 89.36L232.121 87.8C232.425 88.12 232.857 88.44 233.417 88.76C233.993 89.08 234.601 89.344 235.241 89.552C235.897 89.76 236.473 89.864 236.969 89.864C237.785 89.864 238.377 89.736 238.745 89.48C239.129 89.224 239.321 88.864 239.321 88.4C239.321 87.888 239.049 87.472 238.505 87.152C237.977 86.832 237.145 86.552 236.009 86.312C234.361 85.976 233.177 85.456 232.457 84.752C231.737 84.048 231.377 83.208 231.377 82.232C231.377 81.128 231.849 80.216 232.793 79.496C233.737 78.76 235.081 78.392 236.825 78.392C237.641 78.392 238.409 78.504 239.129 78.728C239.865 78.936 240.497 79.208 241.025 79.544C241.569 79.88 241.961 80.216 242.201 80.552L241.193 82.208ZM263.33 92.24C262.93 91.92 262.618 91.616 262.394 91.328C262.186 91.024 262.01 90.664 261.866 90.248C261.578 90.744 261.17 91.144 260.642 91.448C260.114 91.736 259.522 91.944 258.866 92.072C258.226 92.2 257.57 92.264 256.898 92.264C255.538 92.264 254.514 91.952 253.826 91.328C253.138 90.704 252.778 89.832 252.746 88.712V88.616C252.746 87.336 253.154 86.328 253.97 85.592C254.786 84.856 255.922 84.328 257.378 84.008C258.37 83.784 259.202 83.544 259.874 83.288C260.562 83.016 260.906 82.712 260.906 82.376C260.906 81.304 260.066 80.768 258.386 80.768C257.538 80.768 256.714 80.936 255.914 81.272C255.114 81.592 254.458 81.976 253.946 82.424L252.986 80.696C253.546 79.96 254.314 79.392 255.29 78.992C256.282 78.592 257.402 78.392 258.65 78.392C260.506 78.392 261.898 78.736 262.826 79.424C263.77 80.096 264.242 81.16 264.242 82.616V88.064C264.242 88.688 264.362 89.304 264.602 89.912C264.842 90.52 265.186 91.048 265.634 91.496L263.33 92.24ZM256.058 88.376C256.074 88.808 256.202 89.176 256.442 89.48C256.682 89.784 257.042 89.936 257.522 89.936C258.226 89.936 258.914 89.736 259.586 89.336C260.258 88.936 260.722 88.432 260.978 87.824C261.058 87.648 261.106 87.432 261.122 87.176C261.154 86.904 261.17 86.624 261.17 86.336C261.17 85.92 261.154 85.544 261.122 85.208C261.09 84.872 261.074 84.704 261.074 84.704C260.722 84.976 260.266 85.208 259.706 85.4C259.162 85.592 258.586 85.776 257.978 85.952C257.386 86.112 256.914 86.376 256.562 86.744C256.226 87.112 256.058 87.6 256.058 88.208V88.376ZM277.287 82.208C276.823 81.76 276.175 81.392 275.343 81.104C274.511 80.816 273.687 80.672 272.871 80.672C272.071 80.672 271.503 80.808 271.167 81.08C270.831 81.352 270.663 81.672 270.663 82.04C270.663 82.392 270.863 82.704 271.263 82.976C271.679 83.248 272.407 83.488 273.447 83.696C275.255 84.048 276.575 84.6 277.407 85.352C278.255 86.088 278.679 87.064 278.679 88.28C278.679 89.56 278.191 90.544 277.215 91.232C276.255 91.92 274.831 92.264 272.943 92.264C272.143 92.264 271.343 92.112 270.543 91.808C269.759 91.488 269.055 91.104 268.431 90.656C267.823 90.192 267.359 89.76 267.039 89.36L268.215 87.8C268.519 88.12 268.951 88.44 269.511 88.76C270.087 89.08 270.695 89.344 271.335 89.552C271.991 89.76 272.567 89.864 273.063 89.864C273.879 89.864 274.471 89.736 274.839 89.48C275.223 89.224 275.415 88.864 275.415 88.4C275.415 87.888 275.143 87.472 274.599 87.152C274.071 86.832 273.239 86.552 272.103 86.312C270.455 85.976 269.271 85.456 268.551 84.752C267.831 84.048 267.471 83.208 267.471 82.232C267.471 81.128 267.943 80.216 268.887 79.496C269.831 78.76 271.175 78.392 272.919 78.392C273.735 78.392 274.503 78.504 275.223 78.728C275.959 78.936 276.591 79.208 277.119 79.544C277.663 79.88 278.055 80.216 278.295 80.552L277.287 82.208ZM300.935 90.08C300.487 90.72 299.807 91.248 298.895 91.664C297.983 92.064 296.951 92.264 295.799 92.264C294.567 92.264 293.423 92.008 292.367 91.496C291.311 90.968 290.455 90.192 289.799 89.168C289.159 88.144 288.839 86.864 288.839 85.328C288.839 83.872 289.143 82.632 289.751 81.608C290.359 80.568 291.183 79.776 292.223 79.232C293.279 78.672 294.471 78.392 295.799 78.392C296.871 78.392 297.847 78.576 298.727 78.944C299.623 79.296 300.319 79.784 300.815 80.408L299.999 82.232C299.599 81.816 299.039 81.472 298.319 81.2C297.599 80.928 296.911 80.792 296.255 80.792C295.503 80.792 294.815 80.968 294.191 81.32C293.567 81.672 293.071 82.192 292.703 82.88C292.351 83.552 292.175 84.368 292.175 85.328C292.175 86.768 292.567 87.88 293.351 88.664C294.135 89.448 295.127 89.84 296.327 89.84C297.111 89.84 297.839 89.712 298.511 89.456C299.199 89.2 299.743 88.848 300.143 88.4L300.935 90.08ZM313.439 92.24C313.039 91.92 312.727 91.616 312.503 91.328C312.295 91.024 312.119 90.664 311.975 90.248C311.687 90.744 311.279 91.144 310.751 91.448C310.223 91.736 309.631 91.944 308.975 92.072C308.335 92.2 307.679 92.264 307.007 92.264C305.647 92.264 304.623 91.952 303.935 91.328C303.247 90.704 302.887 89.832 302.855 88.712V88.616C302.855 87.336 303.263 86.328 304.079 85.592C304.895 84.856 306.031 84.328 307.487 84.008C308.479 83.784 309.311 83.544 309.983 83.288C310.671 83.016 311.015 82.712 311.015 82.376C311.015 81.304 310.175 80.768 308.495 80.768C307.647 80.768 306.823 80.936 306.023 81.272C305.223 81.592 304.567 81.976 304.055 82.424L303.095 80.696C303.655 79.96 304.423 79.392 305.399 78.992C306.391 78.592 307.511 78.392 308.759 78.392C310.615 78.392 312.007 78.736 312.935 79.424C313.879 80.096 314.351 81.16 314.351 82.616V88.064C314.351 88.688 314.471 89.304 314.711 89.912C314.951 90.52 315.295 91.048 315.743 91.496L313.439 92.24ZM306.167 88.376C306.183 88.808 306.311 89.176 306.551 89.48C306.791 89.784 307.151 89.936 307.631 89.936C308.335 89.936 309.023 89.736 309.695 89.336C310.367 88.936 310.831 88.432 311.087 87.824C311.167 87.648 311.215 87.432 311.231 87.176C311.263 86.904 311.279 86.624 311.279 86.336C311.279 85.92 311.263 85.544 311.231 85.208C311.199 84.872 311.183 84.704 311.183 84.704C310.831 84.976 310.375 85.208 309.815 85.4C309.271 85.592 308.695 85.776 308.087 85.952C307.495 86.112 307.023 86.376 306.671 86.744C306.335 87.112 306.167 87.6 306.167 88.208V88.376ZM326.989 92.312V83.36C326.989 82.56 326.741 81.952 326.245 81.536C325.765 81.104 325.181 80.888 324.493 80.888C323.805 80.888 323.173 81.072 322.597 81.44C322.037 81.808 321.645 82.344 321.421 83.048V92L318.493 92.312L318.013 78.272L321.421 78.68V80.24C321.741 79.632 322.213 79.176 322.837 78.872C323.477 78.552 324.349 78.392 325.453 78.392C326.429 78.392 327.285 78.6 328.021 79.016C328.773 79.432 329.349 80 329.749 80.72C330.165 81.424 330.349 82.224 330.301 83.12L329.821 92L326.989 92.312ZM339.765 92.264C338.373 92.264 337.165 91.984 336.141 91.424C335.133 90.848 334.349 90.04 333.789 89C333.229 87.96 332.949 86.744 332.949 85.352C332.949 83.944 333.229 82.72 333.789 81.68C334.349 80.64 335.133 79.832 336.141 79.256C337.165 78.68 338.373 78.392 339.765 78.392C341.173 78.392 342.381 78.68 343.389 79.256C344.413 79.832 345.197 80.64 345.741 81.68C346.285 82.72 346.557 83.944 346.557 85.352C346.557 86.744 346.285 87.96 345.741 89C345.197 90.04 344.413 90.848 343.389 91.424C342.381 91.984 341.173 92.264 339.765 92.264ZM340.149 90.056C341.157 89.976 341.941 89.552 342.501 88.784C343.061 88 343.341 87 343.341 85.784C343.341 85.656 343.341 85.536 343.341 85.424C343.341 85.296 343.333 85.168 343.317 85.04C343.205 83.664 342.821 82.584 342.165 81.8C341.525 81.016 340.709 80.624 339.717 80.624C339.653 80.624 339.597 80.632 339.549 80.648C339.501 80.648 339.445 80.648 339.381 80.648C338.405 80.712 337.621 81.136 337.029 81.92C336.453 82.704 336.165 83.712 336.165 84.944C336.165 85.056 336.165 85.176 336.165 85.304C336.165 85.416 336.173 85.536 336.189 85.664C336.301 87.024 336.693 88.104 337.365 88.904C338.037 89.688 338.861 90.08 339.837 90.08C339.885 90.08 339.933 90.08 339.981 90.08C340.045 90.064 340.101 90.056 340.149 90.056ZM358.231 92.312V83.36C358.231 82.56 357.983 81.952 357.487 81.536C357.007 81.104 356.423 80.888 355.735 80.888C355.047 80.888 354.415 81.072 353.839 81.44C353.279 81.808 352.887 82.344 352.663 83.048V92L349.735 92.312L349.255 78.272L352.663 78.68V80.24C352.983 79.632 353.455 79.176 354.079 78.872C354.719 78.552 355.591 78.392 356.695 78.392C357.671 78.392 358.527 78.6 359.263 79.016C360.015 79.432 360.591 80 360.991 80.72C361.407 81.424 361.591 82.224 361.543 83.12L361.063 92L358.231 92.312ZM379.28 92.264C377.888 92.264 376.68 91.984 375.656 91.424C374.648 90.848 373.864 90.04 373.304 89C372.744 87.96 372.464 86.744 372.464 85.352C372.464 83.944 372.744 82.72 373.304 81.68C373.864 80.64 374.648 79.832 375.656 79.256C376.68 78.68 377.888 78.392 379.28 78.392C380.688 78.392 381.896 78.68 382.904 79.256C383.928 79.832 384.712 80.64 385.256 81.68C385.8 82.72 386.072 83.944 386.072 85.352C386.072 86.744 385.8 87.96 385.256 89C384.712 90.04 383.928 90.848 382.904 91.424C381.896 91.984 380.688 92.264 379.28 92.264ZM379.664 90.056C380.672 89.976 381.456 89.552 382.016 88.784C382.576 88 382.856 87 382.856 85.784C382.856 85.656 382.856 85.536 382.856 85.424C382.856 85.296 382.848 85.168 382.832 85.04C382.72 83.664 382.336 82.584 381.68 81.8C381.04 81.016 380.224 80.624 379.232 80.624C379.168 80.624 379.112 80.632 379.064 80.648C379.016 80.648 378.96 80.648 378.896 80.648C377.92 80.712 377.136 81.136 376.544 81.92C375.968 82.704 375.68 83.712 375.68 84.944C375.68 85.056 375.68 85.176 375.68 85.304C375.68 85.416 375.688 85.536 375.704 85.664C375.816 87.024 376.208 88.104 376.88 88.904C377.552 89.688 378.376 90.08 379.352 90.08C379.4 90.08 379.448 90.08 379.496 90.08C379.56 90.064 379.616 90.056 379.664 90.056ZM397.746 92.312V83.36C397.746 82.56 397.498 81.952 397.002 81.536C396.522 81.104 395.938 80.888 395.25 80.888C394.562 80.888 393.93 81.072 393.354 81.44C392.794 81.808 392.402 82.344 392.178 83.048V92L389.25 92.312L388.77 78.272L392.178 78.68V80.24C392.498 79.632 392.97 79.176 393.594 78.872C394.234 78.552 395.106 78.392 396.21 78.392C397.186 78.392 398.042 78.6 398.778 79.016C399.53 79.432 400.106 80 400.506 80.72C400.922 81.424 401.106 82.224 401.058 83.12L400.578 92L397.746 92.312ZM416.091 89.648C415.627 90.272 415.131 90.776 414.603 91.16C414.091 91.544 413.499 91.824 412.827 92C412.155 92.176 411.331 92.264 410.355 92.264C408.963 92.264 407.771 91.96 406.779 91.352C405.787 90.728 405.027 89.896 404.499 88.856C403.971 87.8 403.707 86.624 403.707 85.328C403.707 84.016 403.979 82.84 404.523 81.8C405.067 80.744 405.827 79.912 406.803 79.304C407.795 78.696 408.947 78.392 410.259 78.392C411.539 78.392 412.635 78.688 413.547 79.28C414.475 79.856 415.187 80.688 415.683 81.776C416.179 82.848 416.427 84.128 416.427 85.616V86.024H407.739L407.211 84.152L413.115 83.672C413.067 82.824 412.827 82.136 412.395 81.608C411.979 81.064 411.307 80.792 410.379 80.792C409.307 80.792 408.419 81.192 407.715 81.992C407.027 82.776 406.683 83.896 406.683 85.352C406.683 86.392 406.875 87.256 407.259 87.944C407.659 88.616 408.155 89.12 408.747 89.456C409.355 89.776 409.963 89.936 410.571 89.936C411.595 89.936 412.507 89.768 413.307 89.432C414.123 89.08 414.763 88.608 415.227 88.016L416.091 89.648ZM428.506 82.208C428.042 81.76 427.394 81.392 426.562 81.104C425.73 80.816 424.906 80.672 424.09 80.672C423.29 80.672 422.722 80.808 422.386 81.08C422.05 81.352 421.882 81.672 421.882 82.04C421.882 82.392 422.082 82.704 422.482 82.976C422.898 83.248 423.626 83.488 424.666 83.696C426.474 84.048 427.794 84.6 428.626 85.352C429.474 86.088 429.898 87.064 429.898 88.28C429.898 89.56 429.41 90.544 428.434 91.232C427.474 91.92 426.05 92.264 424.162 92.264C423.362 92.264 422.562 92.112 421.762 91.808C420.978 91.488 420.274 91.104 419.65 90.656C419.042 90.192 418.578 89.76 418.258 89.36L419.434 87.8C419.738 88.12 420.17 88.44 420.73 88.76C421.306 89.08 421.914 89.344 422.554 89.552C423.21 89.76 423.786 89.864 424.282 89.864C425.098 89.864 425.69 89.736 426.058 89.48C426.442 89.224 426.634 88.864 426.634 88.4C426.634 87.888 426.362 87.472 425.818 87.152C425.29 86.832 424.458 86.552 423.322 86.312C421.674 85.976 420.49 85.456 419.77 84.752C419.05 84.048 418.69 83.208 418.69 82.232C418.69 81.128 419.162 80.216 420.106 79.496C421.05 78.76 422.394 78.392 424.138 78.392C424.954 78.392 425.722 78.504 426.442 78.728C427.178 78.936 427.81 79.208 428.338 79.544C428.882 79.88 429.274 80.216 429.514 80.552L428.506 82.208Z" fill="black"/>
<path d="M87.4042 146.08C86.9562 146.72 86.2762 147.248 85.3642 147.664C84.4522 148.064 83.4202 148.264 82.2682 148.264C81.0362 148.264 79.8922 148.008 78.8362 147.496C77.7802 146.968 76.9242 146.192 76.2682 145.168C75.6282 144.144 75.3082 142.864 75.3082 141.328C75.3082 139.872 75.6122 138.632 76.2202 137.608C76.8282 136.568 77.6522 135.776 78.6922 135.232C79.7482 134.672 80.9402 134.392 82.2682 134.392C83.3402 134.392 84.3162 134.576 85.1962 134.944C86.0922 135.296 86.7882 135.784 87.2842 136.408L86.4682 138.232C86.0682 137.816 85.5082 137.472 84.7882 137.2C84.0682 136.928 83.3802 136.792 82.7242 136.792C81.9722 136.792 81.2842 136.968 80.6602 137.32C80.0362 137.672 79.5402 138.192 79.1722 138.88C78.8202 139.552 78.6442 140.368 78.6442 141.328C78.6442 142.768 79.0362 143.88 79.8202 144.664C80.6042 145.448 81.5962 145.84 82.7962 145.84C83.5802 145.84 84.3082 145.712 84.9802 145.456C85.6682 145.2 86.2122 144.848 86.6122 144.4L87.4042 146.08ZM99.9078 148.24C99.5078 147.92 99.1958 147.616 98.9718 147.328C98.7638 147.024 98.5878 146.664 98.4438 146.248C98.1558 146.744 97.7478 147.144 97.2198 147.448C96.6918 147.736 96.0998 147.944 95.4438 148.072C94.8038 148.2 94.1478 148.264 93.4758 148.264C92.1158 148.264 91.0918 147.952 90.4038 147.328C89.7158 146.704 89.3558 145.832 89.3238 144.712V144.616C89.3238 143.336 89.7318 142.328 90.5478 141.592C91.3638 140.856 92.4998 140.328 93.9558 140.008C94.9478 139.784 95.7798 139.544 96.4518 139.288C97.1398 139.016 97.4838 138.712 97.4838 138.376C97.4838 137.304 96.6438 136.768 94.9638 136.768C94.1158 136.768 93.2918 136.936 92.4918 137.272C91.6918 137.592 91.0358 137.976 90.5238 138.424L89.5638 136.696C90.1238 135.96 90.8918 135.392 91.8678 134.992C92.8598 134.592 93.9798 134.392 95.2278 134.392C97.0838 134.392 98.4758 134.736 99.4038 135.424C100.348 136.096 100.82 137.16 100.82 138.616V144.064C100.82 144.688 100.94 145.304 101.18 145.912C101.42 146.52 101.764 147.048 102.212 147.496L99.9078 148.24ZM92.6358 144.376C92.6518 144.808 92.7798 145.176 93.0198 145.48C93.2598 145.784 93.6198 145.936 94.0998 145.936C94.8038 145.936 95.4918 145.736 96.1638 145.336C96.8358 144.936 97.2998 144.432 97.5558 143.824C97.6358 143.648 97.6838 143.432 97.6998 143.176C97.7318 142.904 97.7478 142.624 97.7478 142.336C97.7478 141.92 97.7318 141.544 97.6998 141.208C97.6678 140.872 97.6518 140.704 97.6518 140.704C97.2998 140.976 96.8438 141.208 96.2838 141.4C95.7398 141.592 95.1638 141.776 94.5558 141.952C93.9638 142.112 93.4918 142.376 93.1398 142.744C92.8038 143.112 92.6358 143.6 92.6358 144.208V144.376ZM113.457 148.312V139.36C113.457 138.56 113.209 137.952 112.713 137.536C112.233 137.104 111.649 136.888 110.961 136.888C110.273 136.888 109.641 137.072 109.065 137.44C108.505 137.808 108.113 138.344 107.889 139.048V148L104.961 148.312L104.481 134.272L107.889 134.68V136.24C108.209 135.632 108.681 135.176 109.305 134.872C109.945 134.552 110.817 134.392 111.921 134.392C112.897 134.392 113.753 134.6 114.489 135.016C115.241 135.432 115.817 136 116.217 136.72C116.633 137.424 116.817 138.224 116.769 139.12L116.289 148L113.457 148.312ZM126.234 148.264C124.842 148.264 123.634 147.984 122.61 147.424C121.602 146.848 120.818 146.04 120.258 145C119.698 143.96 119.418 142.744 119.418 141.352C119.418 139.944 119.698 138.72 120.258 137.68C120.818 136.64 121.602 135.832 122.61 135.256C123.634 134.68 124.842 134.392 126.234 134.392C127.642 134.392 128.85 134.68 129.858 135.256C130.882 135.832 131.666 136.64 132.21 137.68C132.754 138.72 133.026 139.944 133.026 141.352C133.026 142.744 132.754 143.96 132.21 145C131.666 146.04 130.882 146.848 129.858 147.424C128.85 147.984 127.642 148.264 126.234 148.264ZM126.618 146.056C127.626 145.976 128.41 145.552 128.97 144.784C129.53 144 129.81 143 129.81 141.784C129.81 141.656 129.81 141.536 129.81 141.424C129.81 141.296 129.802 141.168 129.786 141.04C129.674 139.664 129.29 138.584 128.634 137.8C127.994 137.016 127.178 136.624 126.186 136.624C126.122 136.624 126.066 136.632 126.018 136.648C125.97 136.648 125.914 136.648 125.85 136.648C124.874 136.712 124.09 137.136 123.498 137.92C122.922 138.704 122.634 139.712 122.634 140.944C122.634 141.056 122.634 141.176 122.634 141.304C122.634 141.416 122.642 141.536 122.658 141.664C122.77 143.024 123.162 144.104 123.834 144.904C124.506 145.688 125.33 146.08 126.306 146.08C126.354 146.08 126.402 146.08 126.45 146.08C126.514 146.064 126.57 146.056 126.618 146.056ZM144.7 148.312V139.36C144.7 138.56 144.452 137.952 143.956 137.536C143.476 137.104 142.892 136.888 142.204 136.888C141.516 136.888 140.884 137.072 140.308 137.44C139.748 137.808 139.356 138.344 139.132 139.048V148L136.204 148.312L135.724 134.272L139.132 134.68V136.24C139.452 135.632 139.924 135.176 140.548 134.872C141.188 134.552 142.06 134.392 143.164 134.392C144.14 134.392 144.996 134.6 145.732 135.016C146.484 135.432 147.06 136 147.46 136.72C147.876 137.424 148.06 138.224 148.012 139.12L147.532 148L144.7 148.312Z" fill="black"/>
<path d="M299.059 148.312V139.36C299.059 138.56 298.811 137.952 298.315 137.536C297.835 137.104 297.251 136.888 296.563 136.888C295.875 136.888 295.243 137.072 294.667 137.44C294.107 137.808 293.715 138.344 293.491 139.048V148L290.563 148.312L290.083 134.272L293.491 134.68V136.24C293.811 135.632 294.283 135.176 294.907 134.872C295.547 134.552 296.419 134.392 297.523 134.392C298.499 134.392 299.355 134.6 300.091 135.016C300.843 135.432 301.419 136 301.819 136.72C302.235 137.424 302.419 138.224 302.371 139.12L301.891 148L299.059 148.312ZM311.835 148.264C310.443 148.264 309.235 147.984 308.211 147.424C307.203 146.848 306.419 146.04 305.859 145C305.299 143.96 305.019 142.744 305.019 141.352C305.019 139.944 305.299 138.72 305.859 137.68C306.419 136.64 307.203 135.832 308.211 135.256C309.235 134.68 310.443 134.392 311.835 134.392C313.243 134.392 314.451 134.68 315.459 135.256C316.483 135.832 317.267 136.64 317.811 137.68C318.355 138.72 318.627 139.944 318.627 141.352C318.627 142.744 318.355 143.96 317.811 145C317.267 146.04 316.483 146.848 315.459 147.424C314.451 147.984 313.243 148.264 311.835 148.264ZM312.219 146.056C313.227 145.976 314.011 145.552 314.571 144.784C315.131 144 315.411 143 315.411 141.784C315.411 141.656 315.411 141.536 315.411 141.424C315.411 141.296 315.403 141.168 315.387 141.04C315.275 139.664 314.891 138.584 314.235 137.8C313.595 137.016 312.779 136.624 311.787 136.624C311.723 136.624 311.667 136.632 311.619 136.648C311.571 136.648 311.515 136.648 311.451 136.648C310.475 136.712 309.691 137.136 309.099 137.92C308.523 138.704 308.235 139.712 308.235 140.944C308.235 141.056 308.235 141.176 308.235 141.304C308.235 141.416 308.243 141.536 308.259 141.664C308.371 143.024 308.763 144.104 309.435 144.904C310.107 145.688 310.931 146.08 311.907 146.08C311.955 146.08 312.003 146.08 312.051 146.08C312.115 146.064 312.171 146.056 312.219 146.056ZM327.517 148.264C325.661 148.264 324.317 147.896 323.485 147.16C322.653 146.424 322.237 145.36 322.237 143.968V136.912H320.413L319.933 135.064L322.237 134.824V130.504L325.621 130.984L325.501 134.488L327.901 134.248V136.912H325.405L325.165 143.536V143.776C325.165 144.56 325.365 145.184 325.765 145.648C326.181 146.096 326.925 146.32 327.997 146.32L327.517 148.264ZM350.35 146.08C349.902 146.72 349.222 147.248 348.31 147.664C347.398 148.064 346.366 148.264 345.214 148.264C343.982 148.264 342.838 148.008 341.782 147.496C340.726 146.968 339.87 146.192 339.214 145.168C338.574 144.144 338.254 142.864 338.254 141.328C338.254 139.872 338.558 138.632 339.166 137.608C339.774 136.568 340.598 135.776 341.638 135.232C342.694 134.672 343.886 134.392 345.214 134.392C346.286 134.392 347.262 134.576 348.142 134.944C349.038 135.296 349.734 135.784 350.23 136.408L349.414 138.232C349.014 137.816 348.454 137.472 347.734 137.2C347.014 136.928 346.326 136.792 345.67 136.792C344.918 136.792 344.23 136.968 343.606 137.32C342.982 137.672 342.486 138.192 342.118 138.88C341.766 139.552 341.59 140.368 341.59 141.328C341.59 142.768 341.982 143.88 342.766 144.664C343.55 145.448 344.542 145.84 345.742 145.84C346.526 145.84 347.254 145.712 347.926 145.456C348.614 145.2 349.158 144.848 349.558 144.4L350.35 146.08ZM362.853 148.24C362.453 147.92 362.141 147.616 361.917 147.328C361.709 147.024 361.533 146.664 361.389 146.248C361.101 146.744 360.693 147.144 360.165 147.448C359.637 147.736 359.045 147.944 358.389 148.072C357.749 148.2 357.093 148.264 356.421 148.264C355.061 148.264 354.037 147.952 353.349 147.328C352.661 146.704 352.301 145.832 352.269 144.712V144.616C352.269 143.336 352.677 142.328 353.493 141.592C354.309 140.856 355.445 140.328 356.901 140.008C357.893 139.784 358.725 139.544 359.397 139.288C360.085 139.016 360.429 138.712 360.429 138.376C360.429 137.304 359.589 136.768 357.909 136.768C357.061 136.768 356.237 136.936 355.437 137.272C354.637 137.592 353.981 137.976 353.469 138.424L352.509 136.696C353.069 135.96 353.837 135.392 354.813 134.992C355.805 134.592 356.925 134.392 358.173 134.392C360.029 134.392 361.421 134.736 362.349 135.424C363.293 136.096 363.765 137.16 363.765 138.616V144.064C363.765 144.688 363.885 145.304 364.125 145.912C364.365 146.52 364.709 147.048 365.157 147.496L362.853 148.24ZM355.581 144.376C355.597 144.808 355.725 145.176 355.965 145.48C356.205 145.784 356.565 145.936 357.045 145.936C357.749 145.936 358.437 145.736 359.109 145.336C359.781 144.936 360.245 144.432 360.501 143.824C360.581 143.648 360.629 143.432 360.645 143.176C360.677 142.904 360.693 142.624 360.693 142.336C360.693 141.92 360.677 141.544 360.645 141.208C360.613 140.872 360.597 140.704 360.597 140.704C360.245 140.976 359.789 141.208 359.229 141.4C358.685 141.592 358.109 141.776 357.501 141.952C356.909 142.112 356.437 142.376 356.085 142.744C355.749 143.112 355.581 143.6 355.581 144.208V144.376ZM376.403 148.312V139.36C376.403 138.56 376.155 137.952 375.659 137.536C375.179 137.104 374.595 136.888 373.907 136.888C373.219 136.888 372.587 137.072 372.011 137.44C371.451 137.808 371.059 138.344 370.835 139.048V148L367.907 148.312L367.427 134.272L370.835 134.68V136.24C371.155 135.632 371.627 135.176 372.251 134.872C372.891 134.552 373.763 134.392 374.867 134.392C375.843 134.392 376.699 134.6 377.435 135.016C378.187 135.432 378.763 136 379.163 136.72C379.579 137.424 379.763 138.224 379.715 139.12L379.235 148L376.403 148.312ZM389.179 148.264C387.787 148.264 386.579 147.984 385.555 147.424C384.547 146.848 383.763 146.04 383.203 145C382.643 143.96 382.363 142.744 382.363 141.352C382.363 139.944 382.643 138.72 383.203 137.68C383.763 136.64 384.547 135.832 385.555 135.256C386.579 134.68 387.787 134.392 389.179 134.392C390.587 134.392 391.795 134.68 392.803 135.256C393.827 135.832 394.611 136.64 395.155 137.68C395.699 138.72 395.971 139.944 395.971 141.352C395.971 142.744 395.699 143.96 395.155 145C394.611 146.04 393.827 146.848 392.803 147.424C391.795 147.984 390.587 148.264 389.179 148.264ZM389.563 146.056C390.571 145.976 391.355 145.552 391.915 144.784C392.475 144 392.755 143 392.755 141.784C392.755 141.656 392.755 141.536 392.755 141.424C392.755 141.296 392.747 141.168 392.731 141.04C392.619 139.664 392.235 138.584 391.579 137.8C390.939 137.016 390.123 136.624 389.131 136.624C389.067 136.624 389.011 136.632 388.963 136.648C388.915 136.648 388.859 136.648 388.795 136.648C387.819 136.712 387.035 137.136 386.443 137.92C385.867 138.704 385.579 139.712 385.579 140.944C385.579 141.056 385.579 141.176 385.579 141.304C385.579 141.416 385.587 141.536 385.603 141.664C385.715 143.024 386.107 144.104 386.779 144.904C387.451 145.688 388.275 146.08 389.251 146.08C389.299 146.08 389.347 146.08 389.395 146.08C389.459 146.064 389.515 146.056 389.563 146.056ZM407.645 148.312V139.36C407.645 138.56 407.397 137.952 406.901 137.536C406.421 137.104 405.837 136.888 405.149 136.888C404.461 136.888 403.829 137.072 403.253 137.44C402.693 137.808 402.301 138.344 402.077 139.048V148L399.149 148.312L398.669 134.272L402.077 134.68V136.24C402.397 135.632 402.869 135.176 403.493 134.872C404.133 134.552 405.005 134.392 406.109 134.392C407.085 134.392 407.941 134.6 408.677 135.016C409.429 135.432 410.005 136 410.405 136.72C410.821 137.424 411.005 138.224 410.957 139.12L410.477 148L407.645 148.312Z" fill="black"/>
<circle cx="50.5" cy="190.5" r="12.5" fill="#428B8E"/>
<circle cx="174.5" cy="190.5" r="12.5" fill="#428B8E"/>
<circle cx="143.5" cy="190.5" r="12.5" fill="#428B8E"/>
<circle cx="112.5" cy="190.5" r="12.5" fill="#428B8E"/>
<circle cx="81.5" cy="190.5" r="12.5" fill="#428B8E"/>
<circle cx="50.5" cy="220.5" r="12.5" fill="#428B8E"/>
<circle cx="174.5" cy="220.5" r="12.5" fill="#428B8E"/>
<circle cx="143.5" cy="220.5" r="12.5" fill="#428B8E"/>
<circle cx="112.5" cy="220.5" r="12.5" fill="#428B8E"/>
<circle cx="81.5" cy="220.5" r="12.5" fill="#428B8E"/>
<circle cx="288.5" cy="190.5" r="12.5" fill="#428B8E"/>
<circle cx="412.5" cy="190.5" r="12.5" fill="#428B8E"/>
<circle cx="381.5" cy="190.5" r="12.5" fill="#428B8E"/>
<circle cx="350.5" cy="190.5" r="12.5" fill="#428B8E"/>
<circle cx="319.5" cy="190.5" r="12.5" fill="#428B8E"/>
<circle cx="288.5" cy="220.5" r="12.5" fill="#428B8E"/>
<circle cx="412.5" cy="220.5" r="12.5" fill="#428B8E"/>
<circle cx="381.5" cy="220.5" r="12.5" fill="#428B8E"/>
<circle cx="350.5" cy="220.5" r="12.5" fill="#428B8E"/>
<circle cx="319.5" cy="220.5" r="12.5" fill="#428B8E"/>
<circle cx="288.5" cy="250.5" r="12.5" fill="#428B8E"/>
<circle cx="412.5" cy="250.5" r="12.5" fill="#428B8E"/>
<circle cx="381.5" cy="250.5" r="12.5" fill="#428B8E"/>
<circle cx="350.5" cy="250.5" r="12.5" fill="#428B8E"/>
<circle cx="319.5" cy="250.5" r="12.5" fill="#428B8E"/>
<circle cx="288.5" cy="280.5" r="12.5" fill="#428B8E"/>
<circle cx="412.5" cy="280.5" r="12.5" fill="#428B8E"/>
<circle cx="381.5" cy="280.5" r="12.5" fill="#428B8E"/>
<circle cx="350.5" cy="280.5" r="12.5" fill="#428B8E"/>
<circle cx="319.5" cy="280.5" r="12.5" fill="#428B8E"/>
<circle cx="288.5" cy="310.5" r="12.5" fill="#428B8E"/>
<circle cx="412.5" cy="310.5" r="12.5" fill="#428B8E"/>
<circle cx="381.5" cy="310.5" r="12.5" fill="#428B8E"/>
<circle cx="350.5" cy="310.5" r="12.5" fill="#428B8E"/>
<circle cx="319.5" cy="310.5" r="12.5" fill="#428B8E"/>
<circle cx="288.5" cy="340.5" r="12.5" fill="#428B8E"/>
<circle cx="412.5" cy="340.5" r="12.5" fill="#428B8E"/>
<circle cx="381.5" cy="340.5" r="12.5" fill="#428B8E"/>
<circle cx="350.5" cy="340.5" r="12.5" fill="#428B8E"/>
<circle cx="319.5" cy="340.5" r="12.5" fill="#428B8E"/>
<circle cx="288.5" cy="370.5" r="12.5" fill="#428B8E"/>
<circle cx="412.5" cy="370.5" r="12.5" fill="#428B8E"/>
<circle cx="381.5" cy="370.5" r="12.5" fill="#428B8E"/>
<circle cx="350.5" cy="370.5" r="12.5" fill="#428B8E"/>
<circle cx="319.5" cy="370.5" r="12.5" fill="#428B8E"/>
<circle cx="288.5" cy="400.5" r="12.5" fill="#428B8E"/>
<circle cx="412.5" cy="400.5" r="12.5" fill="#428B8E"/>
<circle cx="381.5" cy="400.5" r="12.5" fill="#428B8E"/>
<circle cx="350.5" cy="400.5" r="12.5" fill="#428B8E"/>
<circle cx="319.5" cy="400.5" r="12.5" fill="#428B8E"/>
<circle cx="288.5" cy="430.5" r="12.5" fill="#428B8E"/>
<circle cx="412.5" cy="430.5" r="12.5" fill="#428B8E"/>
<circle cx="381.5" cy="430.5" r="12.5" fill="#428B8E"/>
<circle cx="350.5" cy="430.5" r="12.5" fill="#428B8E"/>
<circle cx="319.5" cy="430.5" r="12.5" fill="#428B8E"/>
<circle cx="288.5" cy="460.5" r="12.5" fill="#428B8E"/>
<circle cx="412.5" cy="460.5" r="12.5" fill="#428B8E"/>
<circle cx="381.5" cy="460.5" r="12.5" fill="#428B8E"/>
<circle cx="350.5" cy="460.5" r="12.5" fill="#428B8E"/>
<circle cx="319.5" cy="460.5" r="12.5" fill="#428B8E"/>
</svg>
