<svg width="2684" height="663" viewBox="0 0 2684 663" fill="none" xmlns="http://www.w3.org/2000/svg">
<path d="M181.441 430.582C176.57 423.382 171.81 418.111 167.162 414.771C162.655 411.356 158.46 409.223 154.578 408.372C149.616 407.185 144.604 407.109 139.544 408.143C134.551 408.96 128.797 411.082 122.283 414.507C113.219 419.273 107.691 425.433 105.698 432.989C103.631 440.402 104.384 447.508 107.959 454.306C110.267 458.696 114.659 461.719 121.134 463.376C127.676 464.817 135.262 464.805 143.892 463.341L173.739 458.222C189.143 455.546 202.318 455.849 213.264 459.133C224.351 462.341 233.245 470.319 239.947 483.064C248.436 499.208 249.752 514.605 243.896 529.253C238.108 543.685 225.442 556.039 205.899 566.315C189.33 575.027 173.474 578.392 158.333 576.411C143.333 574.356 130.321 568.002 119.296 557.348L129.543 538.674C138.638 546.003 148.853 550.303 160.187 551.575C171.588 552.63 182.953 550.179 194.283 544.222C203.913 539.159 210.399 532.585 213.74 524.501C217.008 516.276 216.743 508.552 212.945 501.329C209.818 495.381 204.659 491.586 197.468 489.944C190.278 488.301 181.473 488.231 171.055 489.732L142.695 494.068C127.283 496.387 114.82 495.89 105.305 492.578C95.7904 489.265 87.9428 481.732 81.7625 469.978C77.2203 461.339 75.2827 452.325 75.9497 442.936C76.6168 433.547 80.011 424.531 86.1326 415.89C92.3958 407.173 101.404 399.725 113.159 393.545C126.471 386.545 139.45 382.523 152.096 381.477C164.743 380.432 175.186 381.9 183.426 385.883L195.461 423.211L181.441 430.582Z" fill="black"/>
<path d="M403.005 472.016L369.165 394.086L301.141 423.625L333.739 498.693L306.364 513.982L224.242 336.92L259.175 326.984L291.582 401.611L357.215 366.569L325.286 293.042L360.439 283.01L430.601 456.631L403.005 472.016Z" fill="black"/>
<path d="M481.274 441.193L413.925 258.065L450.27 249.812L508.128 427.992L481.274 441.193Z" fill="black"/>
<path d="M565.076 410.934L512.799 255.52L502.058 260.596L491.239 241.834C495.236 239.594 500.609 236.93 507.358 233.84C514.212 230.551 521.702 227.149 529.827 223.634C537.904 219.967 545.9 216.576 553.813 213.462C561.726 210.348 568.817 207.823 575.085 205.887C586.703 202.298 598.136 201.362 609.384 203.079C620.631 204.795 630.559 209.014 639.165 215.733C647.771 222.452 653.822 231.468 657.316 242.781C661.613 256.692 662.221 269.231 659.14 280.398C656.011 291.412 650.187 300.747 641.667 308.402C633.299 316.011 623.077 321.68 611 325.411C605.955 326.969 600.034 328.128 593.235 328.889C586.437 329.649 578.949 329.534 570.773 328.543L592.518 398.941L565.076 410.934ZM564.044 306.758C567.785 306.943 571.884 306.932 576.342 306.727C580.753 306.37 584.94 305.83 588.904 305.108C593.02 304.339 596.225 303.6 598.518 302.892C609.678 299.444 617.929 293.63 623.273 285.449C628.722 277.067 629.51 266.608 625.638 254.073C623.466 247.041 619.919 241.522 614.997 237.516C610.076 233.51 604.515 230.957 598.314 229.858C592.114 228.759 586.033 229.131 580.07 230.972C574.72 232.625 568.781 234.543 562.255 236.727C555.682 238.757 549.714 240.852 544.352 243.01L564.044 306.758Z" fill="black"/>
<path d="M923.898 320.056L904.058 284.804L823.497 300.526L814.364 341.433L789.269 343.152L820.331 141.468L858.589 143.293L855.803 155.33L959.294 309.725L923.898 320.056ZM848.927 186.504L828.547 277.533L889.4 258.566L848.927 186.504Z" fill="black"/>
<path d="M1100.8 296.057L999.44 176.041L1017.25 302.747L990.681 309.016L963.854 140.597L954.081 129.422L990.998 112.512L1090.49 243.381L1072.52 102.919L1106.21 103.788L1121.65 290.462L1100.8 296.057Z" fill="black"/>
<path d="M1179.1 285.863L1168.6 125.588C1166.37 125.834 1164.22 126.157 1162.15 126.557C1160.09 126.957 1158.18 127.35 1156.43 127.738L1150.82 106.818C1155.42 105.68 1161.06 104.422 1167.73 103.045C1174.4 101.667 1181.64 100.347 1189.43 99.0861C1197.23 97.825 1204.96 96.7268 1212.6 95.7916C1220.41 94.8503 1227.6 94.2533 1234.15 94.0008C1252.38 93.2986 1268.11 96.5351 1281.36 103.71C1294.76 110.72 1305.26 121.364 1312.85 135.642C1320.44 149.76 1324.64 167.211 1325.44 187.996C1325.96 201.586 1324.28 214.06 1320.4 225.418C1316.67 236.77 1311.13 246.75 1303.78 255.36C1296.42 263.81 1287.63 270.473 1277.41 275.35C1267.19 280.227 1255.92 282.903 1243.61 283.377L1179.1 285.863ZM1207.69 261.223C1215.84 260.909 1223.99 260.435 1232.13 259.801C1240.27 259.008 1247.43 257.771 1253.61 256.092C1260.42 254.228 1266.84 250.458 1272.87 244.782C1278.89 238.946 1283.64 231.318 1287.12 221.897C1290.75 212.469 1292.33 201.521 1291.85 189.05C1291.23 172.742 1288.15 159.41 1282.63 149.055C1277.26 138.694 1270.25 131.119 1261.58 126.329C1252.9 121.379 1243.21 119.111 1232.49 119.524C1222.42 119.912 1212.36 120.539 1202.3 121.407L1207.69 261.223Z" fill="black"/>
<path d="M1453.94 283.386L1466.9 91.8237L1503.69 99.1233L1485.64 259.31L1576.16 258.217L1573.91 291.501L1453.94 283.386Z" fill="black"/>
<path d="M1610.98 295.623L1627.8 136.854L1617.57 135.489L1615.58 114.158L1756.67 123.784L1752.7 153.521L1662.54 141.489L1655.46 194.539L1734.68 197.846L1730.49 229.248L1652.22 218.804L1644.76 274.708L1740.39 280.206L1736.11 312.321L1610.98 295.623Z" fill="black"/>
<path d="M1806.09 328.981L1837.97 169.904L1787.14 159.718L1784.28 137.359L1928.91 157.043L1922.92 186.928L1873.5 177.025L1837.53 332.1L1806.09 328.981Z" fill="black"/>
<path d="M2139.75 280.711C2141.38 272.172 2141.73 265.079 2140.79 259.432C2140.01 253.832 2138.54 249.36 2136.39 246.017C2133.71 241.674 2130.22 238.083 2125.9 235.245C2121.79 232.3 2116.21 229.742 2109.18 227.572C2099.4 224.551 2091.13 225.014 2084.39 228.961C2077.69 232.754 2073.21 238.32 2070.94 245.659C2069.48 250.398 2070.46 255.64 2073.88 261.383C2077.5 267.021 2082.88 272.367 2090.03 277.42L2114.78 294.858C2127.59 303.833 2136.71 313.346 2142.14 323.397C2147.73 333.495 2148.41 345.423 2144.16 359.183C2138.78 376.611 2128.85 388.448 2114.36 394.693C2100.07 400.833 2082.38 400.647 2061.28 394.134C2043.4 388.613 2029.79 379.807 2020.46 367.718C2011.28 355.676 2006.55 341.991 2006.26 326.663L2026.69 320.664C2027.97 332.276 2032.17 342.531 2039.3 351.431C2046.63 360.225 2056.41 366.509 2068.65 370.285C2079.04 373.493 2088.28 373.414 2096.35 370.045C2104.47 366.523 2109.73 360.864 2112.14 353.067C2114.12 346.645 2113.14 340.316 2109.21 334.078C2105.27 327.84 2099.09 321.576 2090.64 315.287L2067.49 298.344C2054.94 289.11 2046.46 279.963 2042.05 270.901C2037.65 261.839 2037.41 250.963 2041.33 238.274C2044.2 228.948 2049.19 221.195 2056.29 215.014C2063.39 208.832 2072.16 204.841 2082.59 203.039C2093.18 201.284 2104.82 202.364 2117.51 206.281C2131.88 210.717 2143.92 217.027 2153.61 225.212C2163.31 233.396 2169.67 241.807 2172.7 250.444L2154.88 285.383L2139.75 280.711Z" fill="black"/>
<path d="M2267.48 466.432L2298.5 387.339L2229.46 360.259L2199.58 436.448L2169.39 427.96L2236.17 244.561L2267.93 262.174L2238.23 337.916L2309.46 359.41L2338.73 284.785L2370.71 302.487L2297.89 475.008L2267.48 466.432Z" fill="black"/>
<path d="M2344.68 499.833L2426.21 322.561L2457.78 342.364L2373.02 509.433L2344.68 499.833Z" fill="black"/>
<path d="M2425.41 537.537L2498.05 390.537L2486.86 386.553L2492.44 365.625C2496.85 366.859 2502.54 368.764 2509.5 371.338C2516.68 373.845 2524.38 376.72 2532.62 379.964C2540.93 383.067 2548.99 386.307 2556.79 389.685C2564.6 393.064 2571.4 396.279 2577.21 399.331C2587.97 404.988 2596.73 412.393 2603.49 421.548C2610.25 430.702 2614.3 440.696 2615.66 451.531C2617.01 462.365 2614.94 473.023 2609.43 483.503C2602.66 496.392 2594.24 505.704 2584.17 511.441C2574.18 517.036 2563.47 519.539 2552.03 518.95C2540.73 518.435 2529.49 515.238 2518.3 509.357C2513.63 506.901 2508.61 503.543 2503.26 499.284C2497.91 495.025 2492.68 489.659 2487.59 483.186L2453.31 548.408L2425.41 537.537ZM2498.2 463.003C2500.72 465.774 2503.63 468.66 2506.93 471.661C2510.31 474.521 2513.66 477.093 2516.98 479.379C2520.43 481.739 2523.23 483.477 2525.35 484.594C2535.69 490.028 2545.64 491.732 2555.2 489.706C2564.97 487.614 2572.91 480.761 2579.02 469.147C2582.44 462.632 2583.82 456.219 2583.16 449.907C2582.5 443.596 2580.37 437.863 2576.75 432.708C2573.13 427.554 2568.56 423.525 2563.04 420.622C2558.08 418.017 2552.52 415.185 2546.35 412.126C2540.26 408.925 2534.56 406.198 2529.24 403.943L2498.2 463.003Z" fill="black"/>
</svg>
