<svg width="671" height="495" viewBox="0 0 671 495" fill="none" xmlns="http://www.w3.org/2000/svg">
<g clip-path="url(#clip0_21_12439)">
<path d="M35.1238 484.26V480H559.603V484.26" stroke="black" stroke-width="0.75"/>
<path d="M35.1238 480V484.26" stroke="black" stroke-width="0.75"/>
<path d="M93.3992 480V484.26" stroke="black" stroke-width="0.75"/>
<path d="M151.675 480V484.26" stroke="black" stroke-width="0.75"/>
<path d="M209.95 480V484.26" stroke="black" stroke-width="0.75"/>
<path d="M268.226 480V484.26" stroke="black" stroke-width="0.75"/>
<path d="M326.501 480V484.26" stroke="black" stroke-width="0.75"/>
<path d="M384.776 480V484.26" stroke="black" stroke-width="0.75"/>
<path d="M443.052 480V484.26" stroke="black" stroke-width="0.75"/>
<path d="M501.327 480V484.26" stroke="black" stroke-width="0.75"/>
<path d="M559.603 480V484.26" stroke="black" stroke-width="0.75"/>
<line x1="0.625" y1="449.25" x2="560.125" y2="449.25" stroke="#7B7B7B" stroke-opacity="0.5" stroke-width="0.75"/>
<line x1="0.625" y1="354.75" x2="560.125" y2="354.75" stroke="#7B7B7B" stroke-opacity="0.5" stroke-width="0.75"/>
<line x1="1.375" y1="261" x2="560.875" y2="261" stroke="#7B7B7B" stroke-opacity="0.5" stroke-width="0.75"/>
<line x1="0.625" y1="167.25" x2="560.125" y2="167.25" stroke="#7B7B7B" stroke-opacity="0.5" stroke-width="0.75"/>
<line x1="0.625" y1="92.25" x2="560.125" y2="92.25" stroke="#7B7B7B" stroke-opacity="0.5" stroke-width="0.75"/>
<path d="M34.375 86.625C37.4816 86.625 40 89.1434 40 92.25C40 95.3566 37.4816 97.875 34.375 97.875C31.2684 97.875 28.75 95.3566 28.75 92.25C28.75 89.1434 31.2684 86.625 34.375 86.625Z" fill="#449295"/>
<path d="M34.375 105.375C37.4816 105.375 40 107.893 40 111C40 114.107 37.4816 116.625 34.375 116.625C31.2684 116.625 28.75 114.107 28.75 111C28.75 107.893 31.2684 105.375 34.375 105.375Z" fill="#449295"/>
<path d="M34.375 124.125C37.4816 124.125 40 126.643 40 129.75C40 132.857 37.4816 135.375 34.375 135.375C31.2684 135.375 28.75 132.857 28.75 129.75C28.75 126.643 31.2684 124.125 34.375 124.125Z" fill="#449295"/>
<path d="M34.375 142.875C37.4816 142.875 40 145.393 40 148.5C40 151.607 37.4816 154.125 34.375 154.125C31.2684 154.125 28.75 151.607 28.75 148.5C28.75 145.393 31.2684 142.875 34.375 142.875Z" fill="#449295"/>
<path d="M34.375 161.625C37.4816 161.625 40 164.143 40 167.25C40 170.357 37.4816 172.875 34.375 172.875C31.2684 172.875 28.75 170.357 28.75 167.25C28.75 164.143 31.2684 161.625 34.375 161.625Z" fill="#449295"/>
<path d="M34.375 180.375C37.4816 180.375 40 182.893 40 186C40 189.107 37.4816 191.625 34.375 191.625C31.2684 191.625 28.75 189.107 28.75 186C28.75 182.893 31.2684 180.375 34.375 180.375Z" fill="#449295"/>
<path d="M34.375 199.125C37.4816 199.125 40 201.643 40 204.75C40 207.857 37.4816 210.375 34.375 210.375C31.2684 210.375 28.75 207.857 28.75 204.75C28.75 201.643 31.2684 199.125 34.375 199.125Z" fill="#449295"/>
<path d="M34.375 217.875C37.4816 217.875 40 220.393 40 223.5C40 226.607 37.4816 229.125 34.375 229.125C31.2684 229.125 28.75 226.607 28.75 223.5C28.75 220.393 31.2684 217.875 34.375 217.875Z" fill="#449295"/>
<path d="M34.375 236.625C37.4816 236.625 40 239.143 40 242.25C40 245.357 37.4816 247.875 34.375 247.875C31.2684 247.875 28.75 245.357 28.75 242.25C28.75 239.143 31.2684 236.625 34.375 236.625Z" fill="#449295"/>
<path d="M34.375 255.375C37.4816 255.375 40 257.893 40 261C40 264.107 37.4816 266.625 34.375 266.625C31.2684 266.625 28.75 264.107 28.75 261C28.75 257.893 31.2684 255.375 34.375 255.375Z" fill="#449295"/>
<path d="M34.375 274.125C37.4816 274.125 40 276.643 40 279.75C40 282.857 37.4816 285.375 34.375 285.375C31.2684 285.375 28.75 282.857 28.75 279.75C28.75 276.643 31.2684 274.125 34.375 274.125Z" fill="#449295"/>
<path d="M34.375 292.875C37.4816 292.875 40 295.393 40 298.5C40 301.607 37.4816 304.125 34.375 304.125C31.2684 304.125 28.75 301.607 28.75 298.5C28.75 295.393 31.2684 292.875 34.375 292.875Z" fill="#449295"/>
<path d="M34.375 311.625C37.4816 311.625 40 314.143 40 317.25C40 320.357 37.4816 322.875 34.375 322.875C31.2684 322.875 28.75 320.357 28.75 317.25C28.75 314.143 31.2684 311.625 34.375 311.625Z" fill="#EC9932"/>
<path d="M34.375 330.375C37.4816 330.375 40 332.893 40 336C40 339.107 37.4816 341.625 34.375 341.625C31.2684 341.625 28.75 339.107 28.75 336C28.75 332.893 31.2684 330.375 34.375 330.375Z" fill="#449295"/>
<path d="M34.375 349.125C37.4816 349.125 40 351.643 40 354.75C40 357.857 37.4816 360.375 34.375 360.375C31.2684 360.375 28.75 357.857 28.75 354.75C28.75 351.643 31.2684 349.125 34.375 349.125Z" fill="#449295"/>
<path d="M34.375 367.875C37.4816 367.875 40 370.393 40 373.5C40 376.607 37.4816 379.125 34.375 379.125C31.2684 379.125 28.75 376.607 28.75 373.5C28.75 370.393 31.2684 367.875 34.375 367.875Z" fill="#449295"/>
<path d="M34.375 386.625C37.4816 386.625 40 389.143 40 392.25C40 395.357 37.4816 397.875 34.375 397.875C31.2684 397.875 28.75 395.357 28.75 392.25C28.75 389.143 31.2684 386.625 34.375 386.625Z" fill="#449295"/>
<path d="M34.375 405.375C37.4816 405.375 40 407.893 40 411C40 414.107 37.4816 416.625 34.375 416.625C31.2684 416.625 28.75 414.107 28.75 411C28.75 407.893 31.2684 405.375 34.375 405.375Z" fill="#449295"/>
<path d="M34.375 424.125C37.4816 424.125 40 426.643 40 429.75C40 432.857 37.4816 435.375 34.375 435.375C31.2684 435.375 28.75 432.857 28.75 429.75C28.75 426.643 31.2684 424.125 34.375 424.125Z" fill="#EC9932"/>
<path d="M34.375 442.875C37.4816 442.875 40 445.393 40 448.5C40 451.607 37.4816 454.125 34.375 454.125C31.2684 454.125 28.75 451.607 28.75 448.5C28.75 445.393 31.2684 442.875 34.375 442.875Z" fill="#449295"/>
<path d="M92.875 86.625C95.9816 86.625 98.5 89.1434 98.5 92.25C98.5 95.3566 95.9816 97.875 92.875 97.875C89.7684 97.875 87.25 95.3566 87.25 92.25C87.25 89.1434 89.7684 86.625 92.875 86.625Z" fill="#449295"/>
<path d="M92.875 105.375C95.9816 105.375 98.5 107.893 98.5 111C98.5 114.107 95.9816 116.625 92.875 116.625C89.7684 116.625 87.25 114.107 87.25 111C87.25 107.893 89.7684 105.375 92.875 105.375Z" fill="#449295"/>
<path d="M92.875 124.125C95.9816 124.125 98.5 126.643 98.5 129.75C98.5 132.857 95.9816 135.375 92.875 135.375C89.7684 135.375 87.25 132.857 87.25 129.75C87.25 126.643 89.7684 124.125 92.875 124.125Z" fill="#449295"/>
<path d="M92.875 142.875C95.9816 142.875 98.5 145.393 98.5 148.5C98.5 151.607 95.9816 154.125 92.875 154.125C89.7684 154.125 87.25 151.607 87.25 148.5C87.25 145.393 89.7684 142.875 92.875 142.875Z" fill="#EC9932"/>
<path d="M92.875 161.625C95.9816 161.625 98.5 164.143 98.5 167.25C98.5 170.357 95.9816 172.875 92.875 172.875C89.7684 172.875 87.25 170.357 87.25 167.25C87.25 164.143 89.7684 161.625 92.875 161.625Z" fill="#449295"/>
<path d="M92.875 180.375C95.9816 180.375 98.5 182.893 98.5 186C98.5 189.107 95.9816 191.625 92.875 191.625C89.7684 191.625 87.25 189.107 87.25 186C87.25 182.893 89.7684 180.375 92.875 180.375Z" fill="#449295"/>
<path d="M92.875 199.125C95.9816 199.125 98.5 201.643 98.5 204.75C98.5 207.857 95.9816 210.375 92.875 210.375C89.7684 210.375 87.25 207.857 87.25 204.75C87.25 201.643 89.7684 199.125 92.875 199.125Z" fill="#449295"/>
<path d="M92.875 217.875C95.9816 217.875 98.5 220.393 98.5 223.5C98.5 226.607 95.9816 229.125 92.875 229.125C89.7684 229.125 87.25 226.607 87.25 223.5C87.25 220.393 89.7684 217.875 92.875 217.875Z" fill="#449295"/>
<path d="M92.875 236.625C95.9816 236.625 98.5 239.143 98.5 242.25C98.5 245.357 95.9816 247.875 92.875 247.875C89.7684 247.875 87.25 245.357 87.25 242.25C87.25 239.143 89.7684 236.625 92.875 236.625Z" fill="#449295"/>
<path d="M92.875 255.375C95.9816 255.375 98.5 257.893 98.5 261C98.5 264.107 95.9816 266.625 92.875 266.625C89.7684 266.625 87.25 264.107 87.25 261C87.25 257.893 89.7684 255.375 92.875 255.375Z" fill="#449295"/>
<path d="M92.875 274.125C95.9816 274.125 98.5 276.643 98.5 279.75C98.5 282.857 95.9816 285.375 92.875 285.375C89.7684 285.375 87.25 282.857 87.25 279.75C87.25 276.643 89.7684 274.125 92.875 274.125Z" fill="#449295"/>
<path d="M92.875 292.875C95.9816 292.875 98.5 295.393 98.5 298.5C98.5 301.607 95.9816 304.125 92.875 304.125C89.7684 304.125 87.25 301.607 87.25 298.5C87.25 295.393 89.7684 292.875 92.875 292.875Z" fill="#EC9932"/>
<path d="M92.875 311.625C95.9816 311.625 98.5 314.143 98.5 317.25C98.5 320.357 95.9816 322.875 92.875 322.875C89.7684 322.875 87.25 320.357 87.25 317.25C87.25 314.143 89.7684 311.625 92.875 311.625Z" fill="#EC9932"/>
<path d="M92.875 330.375C95.9816 330.375 98.5 332.893 98.5 336C98.5 339.107 95.9816 341.625 92.875 341.625C89.7684 341.625 87.25 339.107 87.25 336C87.25 332.893 89.7684 330.375 92.875 330.375Z" fill="#449295"/>
<path d="M92.875 349.125C95.9816 349.125 98.5 351.643 98.5 354.75C98.5 357.857 95.9816 360.375 92.875 360.375C89.7684 360.375 87.25 357.857 87.25 354.75C87.25 351.643 89.7684 349.125 92.875 349.125Z" fill="#449295"/>
<path d="M92.875 367.875C95.9816 367.875 98.5 370.393 98.5 373.5C98.5 376.607 95.9816 379.125 92.875 379.125C89.7684 379.125 87.25 376.607 87.25 373.5C87.25 370.393 89.7684 367.875 92.875 367.875Z" fill="#EC9932"/>
<path d="M92.875 386.625C95.9816 386.625 98.5 389.143 98.5 392.25C98.5 395.357 95.9816 397.875 92.875 397.875C89.7684 397.875 87.25 395.357 87.25 392.25C87.25 389.143 89.7684 386.625 92.875 386.625Z" fill="#449295"/>
<path d="M92.875 405.375C95.9816 405.375 98.5 407.893 98.5 411C98.5 414.107 95.9816 416.625 92.875 416.625C89.7684 416.625 87.25 414.107 87.25 411C87.25 407.893 89.7684 405.375 92.875 405.375Z" fill="#EC9932"/>
<path d="M92.875 424.125C95.9816 424.125 98.5 426.643 98.5 429.75C98.5 432.857 95.9816 435.375 92.875 435.375C89.7684 435.375 87.25 432.857 87.25 429.75C87.25 426.643 89.7684 424.125 92.875 424.125Z" fill="#449295"/>
<path d="M92.875 442.875C95.9816 442.875 98.5 445.393 98.5 448.5C98.5 451.607 95.9816 454.125 92.875 454.125C89.7684 454.125 87.25 451.607 87.25 448.5C87.25 445.393 89.7684 442.875 92.875 442.875Z" fill="#C368EB"/>
<path d="M151.375 86.625C154.482 86.625 157 89.1434 157 92.25C157 95.3566 154.482 97.875 151.375 97.875C148.268 97.875 145.75 95.3566 145.75 92.25C145.75 89.1434 148.268 86.625 151.375 86.625Z" fill="#449295"/>
<path d="M151.375 105.375C154.482 105.375 157 107.893 157 111C157 114.107 154.482 116.625 151.375 116.625C148.268 116.625 145.75 114.107 145.75 111C145.75 107.893 148.268 105.375 151.375 105.375Z" fill="#449295"/>
<path d="M151.375 124.125C154.482 124.125 157 126.643 157 129.75C157 132.857 154.482 135.375 151.375 135.375C148.268 135.375 145.75 132.857 145.75 129.75C145.75 126.643 148.268 124.125 151.375 124.125Z" fill="#449295"/>
<path d="M151.375 142.875C154.482 142.875 157 145.393 157 148.5C157 151.607 154.482 154.125 151.375 154.125C148.268 154.125 145.75 151.607 145.75 148.5C145.75 145.393 148.268 142.875 151.375 142.875Z" fill="#EC9932"/>
<path d="M151.375 161.625C154.482 161.625 157 164.143 157 167.25C157 170.357 154.482 172.875 151.375 172.875C148.268 172.875 145.75 170.357 145.75 167.25C145.75 164.143 148.268 161.625 151.375 161.625Z" fill="#EC9932"/>
<path d="M151.375 180.375C154.482 180.375 157 182.893 157 186C157 189.107 154.482 191.625 151.375 191.625C148.268 191.625 145.75 189.107 145.75 186C145.75 182.893 148.268 180.375 151.375 180.375Z" fill="#C368EB"/>
<path d="M151.375 199.125C154.482 199.125 157 201.643 157 204.75C157 207.857 154.482 210.375 151.375 210.375C148.268 210.375 145.75 207.857 145.75 204.75C145.75 201.643 148.268 199.125 151.375 199.125Z" fill="#EC9932"/>
<path d="M151.375 217.875C154.482 217.875 157 220.393 157 223.5C157 226.607 154.482 229.125 151.375 229.125C148.268 229.125 145.75 226.607 145.75 223.5C145.75 220.393 148.268 217.875 151.375 217.875Z" fill="#C368EB"/>
<path d="M151.375 236.625C154.482 236.625 157 239.143 157 242.25C157 245.357 154.482 247.875 151.375 247.875C148.268 247.875 145.75 245.357 145.75 242.25C145.75 239.143 148.268 236.625 151.375 236.625Z" fill="#449295"/>
<path d="M151.375 255.375C154.482 255.375 157 257.893 157 261C157 264.107 154.482 266.625 151.375 266.625C148.268 266.625 145.75 264.107 145.75 261C145.75 257.893 148.268 255.375 151.375 255.375Z" fill="#C368EB"/>
<path d="M151.375 274.125C154.482 274.125 157 276.643 157 279.75C157 282.857 154.482 285.375 151.375 285.375C148.268 285.375 145.75 282.857 145.75 279.75C145.75 276.643 148.268 274.125 151.375 274.125Z" fill="#EC9932"/>
<path d="M151.375 292.875C154.482 292.875 157 295.393 157 298.5C157 301.607 154.482 304.125 151.375 304.125C148.268 304.125 145.75 301.607 145.75 298.5C145.75 295.393 148.268 292.875 151.375 292.875Z" fill="#449295"/>
<path d="M151.375 311.625C154.482 311.625 157 314.143 157 317.25C157 320.357 154.482 322.875 151.375 322.875C148.268 322.875 145.75 320.357 145.75 317.25C145.75 314.143 148.268 311.625 151.375 311.625Z" fill="#449295"/>
<path d="M151.375 330.375C154.482 330.375 157 332.893 157 336C157 339.107 154.482 341.625 151.375 341.625C148.268 341.625 145.75 339.107 145.75 336C145.75 332.893 148.268 330.375 151.375 330.375Z" fill="#C368EB"/>
<path d="M151.375 349.125C154.482 349.125 157 351.643 157 354.75C157 357.857 154.482 360.375 151.375 360.375C148.268 360.375 145.75 357.857 145.75 354.75C145.75 351.643 148.268 349.125 151.375 349.125Z" fill="#449295"/>
<path d="M151.375 367.875C154.482 367.875 157 370.393 157 373.5C157 376.607 154.482 379.125 151.375 379.125C148.268 379.125 145.75 376.607 145.75 373.5C145.75 370.393 148.268 367.875 151.375 367.875Z" fill="#449295"/>
<path d="M151.375 386.625C154.482 386.625 157 389.143 157 392.25C157 395.357 154.482 397.875 151.375 397.875C148.268 397.875 145.75 395.357 145.75 392.25C145.75 389.143 148.268 386.625 151.375 386.625Z" fill="#EC9932"/>
<path d="M151.375 405.375C154.482 405.375 157 407.893 157 411C157 414.107 154.482 416.625 151.375 416.625C148.268 416.625 145.75 414.107 145.75 411C145.75 407.893 148.268 405.375 151.375 405.375Z" fill="#449295"/>
<path d="M151.375 424.125C154.482 424.125 157 426.643 157 429.75C157 432.857 154.482 435.375 151.375 435.375C148.268 435.375 145.75 432.857 145.75 429.75C145.75 426.643 148.268 424.125 151.375 424.125Z" fill="#449295"/>
<path d="M151.375 442.875C154.482 442.875 157 445.393 157 448.5C157 451.607 154.482 454.125 151.375 454.125C148.268 454.125 145.75 451.607 145.75 448.5C145.75 445.393 148.268 442.875 151.375 442.875Z" fill="#449295"/>
<path d="M209.125 86.625C212.232 86.625 214.75 89.1434 214.75 92.25C214.75 95.3566 212.232 97.875 209.125 97.875C206.018 97.875 203.5 95.3566 203.5 92.25C203.5 89.1434 206.018 86.625 209.125 86.625Z" fill="#C368EB"/>
<path d="M209.125 105.375C212.232 105.375 214.75 107.893 214.75 111C214.75 114.107 212.232 116.625 209.125 116.625C206.018 116.625 203.5 114.107 203.5 111C203.5 107.893 206.018 105.375 209.125 105.375Z" fill="#449295"/>
<path d="M209.125 124.125C212.232 124.125 214.75 126.643 214.75 129.75C214.75 132.857 212.232 135.375 209.125 135.375C206.018 135.375 203.5 132.857 203.5 129.75C203.5 126.643 206.018 124.125 209.125 124.125Z" fill="#449295"/>
<path d="M209.125 142.875C212.232 142.875 214.75 145.393 214.75 148.5C214.75 151.607 212.232 154.125 209.125 154.125C206.018 154.125 203.5 151.607 203.5 148.5C203.5 145.393 206.018 142.875 209.125 142.875Z" fill="#449295"/>
<path d="M209.125 161.625C212.232 161.625 214.75 164.143 214.75 167.25C214.75 170.357 212.232 172.875 209.125 172.875C206.018 172.875 203.5 170.357 203.5 167.25C203.5 164.143 206.018 161.625 209.125 161.625Z" fill="#449295"/>
<path d="M209.125 180.375C212.232 180.375 214.75 182.893 214.75 186C214.75 189.107 212.232 191.625 209.125 191.625C206.018 191.625 203.5 189.107 203.5 186C203.5 182.893 206.018 180.375 209.125 180.375Z" fill="#449295"/>
<path d="M209.125 199.125C212.232 199.125 214.75 201.643 214.75 204.75C214.75 207.857 212.232 210.375 209.125 210.375C206.018 210.375 203.5 207.857 203.5 204.75C203.5 201.643 206.018 199.125 209.125 199.125Z" fill="#449295"/>
<path d="M209.125 217.875C212.232 217.875 214.75 220.393 214.75 223.5C214.75 226.607 212.232 229.125 209.125 229.125C206.018 229.125 203.5 226.607 203.5 223.5C203.5 220.393 206.018 217.875 209.125 217.875Z" fill="#449295"/>
<path d="M209.125 236.625C212.232 236.625 214.75 239.143 214.75 242.25C214.75 245.357 212.232 247.875 209.125 247.875C206.018 247.875 203.5 245.357 203.5 242.25C203.5 239.143 206.018 236.625 209.125 236.625Z" fill="#449295"/>
<path d="M209.125 255.375C212.232 255.375 214.75 257.893 214.75 261C214.75 264.107 212.232 266.625 209.125 266.625C206.018 266.625 203.5 264.107 203.5 261C203.5 257.893 206.018 255.375 209.125 255.375Z" fill="#EC9932"/>
<path d="M209.125 274.125C212.232 274.125 214.75 276.643 214.75 279.75C214.75 282.857 212.232 285.375 209.125 285.375C206.018 285.375 203.5 282.857 203.5 279.75C203.5 276.643 206.018 274.125 209.125 274.125Z" fill="#C368EB"/>
<path d="M209.125 292.875C212.232 292.875 214.75 295.393 214.75 298.5C214.75 301.607 212.232 304.125 209.125 304.125C206.018 304.125 203.5 301.607 203.5 298.5C203.5 295.393 206.018 292.875 209.125 292.875Z" fill="#EC9932"/>
<path d="M209.125 311.625C212.232 311.625 214.75 314.143 214.75 317.25C214.75 320.357 212.232 322.875 209.125 322.875C206.018 322.875 203.5 320.357 203.5 317.25C203.5 314.143 206.018 311.625 209.125 311.625Z" fill="#EC9932"/>
<path d="M209.125 330.375C212.232 330.375 214.75 332.893 214.75 336C214.75 339.107 212.232 341.625 209.125 341.625C206.018 341.625 203.5 339.107 203.5 336C203.5 332.893 206.018 330.375 209.125 330.375Z" fill="#EC9932"/>
<path d="M209.125 349.125C212.232 349.125 214.75 351.643 214.75 354.75C214.75 357.857 212.232 360.375 209.125 360.375C206.018 360.375 203.5 357.857 203.5 354.75C203.5 351.643 206.018 349.125 209.125 349.125Z" fill="#EC9932"/>
<path d="M209.125 367.875C212.232 367.875 214.75 370.393 214.75 373.5C214.75 376.607 212.232 379.125 209.125 379.125C206.018 379.125 203.5 376.607 203.5 373.5C203.5 370.393 206.018 367.875 209.125 367.875Z" fill="#EC9932"/>
<path d="M209.125 386.625C212.232 386.625 214.75 389.143 214.75 392.25C214.75 395.357 212.232 397.875 209.125 397.875C206.018 397.875 203.5 395.357 203.5 392.25C203.5 389.143 206.018 386.625 209.125 386.625Z" fill="#449295"/>
<path d="M209.125 405.375C212.232 405.375 214.75 407.893 214.75 411C214.75 414.107 212.232 416.625 209.125 416.625C206.018 416.625 203.5 414.107 203.5 411C203.5 407.893 206.018 405.375 209.125 405.375Z" fill="#EC9932"/>
<path d="M209.125 424.125C212.232 424.125 214.75 426.643 214.75 429.75C214.75 432.857 212.232 435.375 209.125 435.375C206.018 435.375 203.5 432.857 203.5 429.75C203.5 426.643 206.018 424.125 209.125 424.125Z" fill="#EC9932"/>
<path d="M209.125 442.875C212.232 442.875 214.75 445.393 214.75 448.5C214.75 451.607 212.232 454.125 209.125 454.125C206.018 454.125 203.5 451.607 203.5 448.5C203.5 445.393 206.018 442.875 209.125 442.875Z" fill="#449295"/>
<path d="M267.625 86.625C270.732 86.625 273.25 89.1434 273.25 92.25C273.25 95.3566 270.732 97.875 267.625 97.875C264.518 97.875 262 95.3566 262 92.25C262 89.1434 264.518 86.625 267.625 86.625Z" fill="#449295"/>
<path d="M267.625 105.375C270.732 105.375 273.25 107.893 273.25 111C273.25 114.107 270.732 116.625 267.625 116.625C264.518 116.625 262 114.107 262 111C262 107.893 264.518 105.375 267.625 105.375Z" fill="#449295"/>
<path d="M267.625 124.125C270.732 124.125 273.25 126.643 273.25 129.75C273.25 132.857 270.732 135.375 267.625 135.375C264.518 135.375 262 132.857 262 129.75C262 126.643 264.518 124.125 267.625 124.125Z" fill="#449295"/>
<path d="M267.625 142.875C270.732 142.875 273.25 145.393 273.25 148.5C273.25 151.607 270.732 154.125 267.625 154.125C264.518 154.125 262 151.607 262 148.5C262 145.393 264.518 142.875 267.625 142.875Z" fill="#449295"/>
<path d="M267.625 161.625C270.732 161.625 273.25 164.143 273.25 167.25C273.25 170.357 270.732 172.875 267.625 172.875C264.518 172.875 262 170.357 262 167.25C262 164.143 264.518 161.625 267.625 161.625Z" fill="#449295"/>
<path d="M267.625 180.375C270.732 180.375 273.25 182.893 273.25 186C273.25 189.107 270.732 191.625 267.625 191.625C264.518 191.625 262 189.107 262 186C262 182.893 264.518 180.375 267.625 180.375Z" fill="#C368EB"/>
<path d="M267.625 199.125C270.732 199.125 273.25 201.643 273.25 204.75C273.25 207.857 270.732 210.375 267.625 210.375C264.518 210.375 262 207.857 262 204.75C262 201.643 264.518 199.125 267.625 199.125Z" fill="#449295"/>
<path d="M267.625 217.875C270.732 217.875 273.25 220.393 273.25 223.5C273.25 226.607 270.732 229.125 267.625 229.125C264.518 229.125 262 226.607 262 223.5C262 220.393 264.518 217.875 267.625 217.875Z" fill="#449295"/>
<path d="M267.625 236.625C270.732 236.625 273.25 239.143 273.25 242.25C273.25 245.357 270.732 247.875 267.625 247.875C264.518 247.875 262 245.357 262 242.25C262 239.143 264.518 236.625 267.625 236.625Z" fill="#C368EB"/>
<path d="M267.625 255.375C270.732 255.375 273.25 257.893 273.25 261C273.25 264.107 270.732 266.625 267.625 266.625C264.518 266.625 262 264.107 262 261C262 257.893 264.518 255.375 267.625 255.375Z" fill="#C368EB"/>
<path d="M267.625 274.125C270.732 274.125 273.25 276.643 273.25 279.75C273.25 282.857 270.732 285.375 267.625 285.375C264.518 285.375 262 282.857 262 279.75C262 276.643 264.518 274.125 267.625 274.125Z" fill="#449295"/>
<path d="M267.625 292.875C270.732 292.875 273.25 295.393 273.25 298.5C273.25 301.607 270.732 304.125 267.625 304.125C264.518 304.125 262 301.607 262 298.5C262 295.393 264.518 292.875 267.625 292.875Z" fill="#449295"/>
<path d="M267.625 311.625C270.732 311.625 273.25 314.143 273.25 317.25C273.25 320.357 270.732 322.875 267.625 322.875C264.518 322.875 262 320.357 262 317.25C262 314.143 264.518 311.625 267.625 311.625Z" fill="#EC9932"/>
<path d="M267.625 330.375C270.732 330.375 273.25 332.893 273.25 336C273.25 339.107 270.732 341.625 267.625 341.625C264.518 341.625 262 339.107 262 336C262 332.893 264.518 330.375 267.625 330.375Z" fill="#449295"/>
<path d="M267.625 349.125C270.732 349.125 273.25 351.643 273.25 354.75C273.25 357.857 270.732 360.375 267.625 360.375C264.518 360.375 262 357.857 262 354.75C262 351.643 264.518 349.125 267.625 349.125Z" fill="#EC9932"/>
<path d="M267.625 367.875C270.732 367.875 273.25 370.393 273.25 373.5C273.25 376.607 270.732 379.125 267.625 379.125C264.518 379.125 262 376.607 262 373.5C262 370.393 264.518 367.875 267.625 367.875Z" fill="#EC9932"/>
<path d="M267.625 386.625C270.732 386.625 273.25 389.143 273.25 392.25C273.25 395.357 270.732 397.875 267.625 397.875C264.518 397.875 262 395.357 262 392.25C262 389.143 264.518 386.625 267.625 386.625Z" fill="#EC9932"/>
<path d="M267.625 405.375C270.732 405.375 273.25 407.893 273.25 411C273.25 414.107 270.732 416.625 267.625 416.625C264.518 416.625 262 414.107 262 411C262 407.893 264.518 405.375 267.625 405.375Z" fill="#C368EB"/>
<path d="M267.625 424.125C270.732 424.125 273.25 426.643 273.25 429.75C273.25 432.857 270.732 435.375 267.625 435.375C264.518 435.375 262 432.857 262 429.75C262 426.643 264.518 424.125 267.625 424.125Z" fill="#EC9932"/>
<path d="M267.625 442.875C270.732 442.875 273.25 445.393 273.25 448.5C273.25 451.607 270.732 454.125 267.625 454.125C264.518 454.125 262 451.607 262 448.5C262 445.393 264.518 442.875 267.625 442.875Z" fill="#449295"/>
<path d="M326.125 86.625C329.232 86.625 331.75 89.1434 331.75 92.25C331.75 95.3566 329.232 97.875 326.125 97.875C323.018 97.875 320.5 95.3566 320.5 92.25C320.5 89.1434 323.018 86.625 326.125 86.625Z" fill="#449295"/>
<path d="M326.125 105.375C329.232 105.375 331.75 107.893 331.75 111C331.75 114.107 329.232 116.625 326.125 116.625C323.018 116.625 320.5 114.107 320.5 111C320.5 107.893 323.018 105.375 326.125 105.375Z" fill="#EC9932"/>
<path d="M326.125 124.125C329.232 124.125 331.75 126.643 331.75 129.75C331.75 132.857 329.232 135.375 326.125 135.375C323.018 135.375 320.5 132.857 320.5 129.75C320.5 126.643 323.018 124.125 326.125 124.125Z" fill="#449295"/>
<path d="M326.125 142.875C329.232 142.875 331.75 145.393 331.75 148.5C331.75 151.607 329.232 154.125 326.125 154.125C323.018 154.125 320.5 151.607 320.5 148.5C320.5 145.393 323.018 142.875 326.125 142.875Z" fill="#449295"/>
<path d="M326.125 161.625C329.232 161.625 331.75 164.143 331.75 167.25C331.75 170.357 329.232 172.875 326.125 172.875C323.018 172.875 320.5 170.357 320.5 167.25C320.5 164.143 323.018 161.625 326.125 161.625Z" fill="#449295"/>
<path d="M326.125 180.375C329.232 180.375 331.75 182.893 331.75 186C331.75 189.107 329.232 191.625 326.125 191.625C323.018 191.625 320.5 189.107 320.5 186C320.5 182.893 323.018 180.375 326.125 180.375Z" fill="#449295"/>
<path d="M326.125 199.125C329.232 199.125 331.75 201.643 331.75 204.75C331.75 207.857 329.232 210.375 326.125 210.375C323.018 210.375 320.5 207.857 320.5 204.75C320.5 201.643 323.018 199.125 326.125 199.125Z" fill="#EC9932"/>
<path d="M326.125 217.875C329.232 217.875 331.75 220.393 331.75 223.5C331.75 226.607 329.232 229.125 326.125 229.125C323.018 229.125 320.5 226.607 320.5 223.5C320.5 220.393 323.018 217.875 326.125 217.875Z" fill="#449295"/>
<path d="M326.125 236.625C329.232 236.625 331.75 239.143 331.75 242.25C331.75 245.357 329.232 247.875 326.125 247.875C323.018 247.875 320.5 245.357 320.5 242.25C320.5 239.143 323.018 236.625 326.125 236.625Z" fill="#449295"/>
<path d="M326.125 255.375C329.232 255.375 331.75 257.893 331.75 261C331.75 264.107 329.232 266.625 326.125 266.625C323.018 266.625 320.5 264.107 320.5 261C320.5 257.893 323.018 255.375 326.125 255.375Z" fill="#449295"/>
<path d="M326.125 274.125C329.232 274.125 331.75 276.643 331.75 279.75C331.75 282.857 329.232 285.375 326.125 285.375C323.018 285.375 320.5 282.857 320.5 279.75C320.5 276.643 323.018 274.125 326.125 274.125Z" fill="#449295"/>
<path d="M326.125 292.875C329.232 292.875 331.75 295.393 331.75 298.5C331.75 301.607 329.232 304.125 326.125 304.125C323.018 304.125 320.5 301.607 320.5 298.5C320.5 295.393 323.018 292.875 326.125 292.875Z" fill="#C368EB"/>
<path d="M326.125 311.625C329.232 311.625 331.75 314.143 331.75 317.25C331.75 320.357 329.232 322.875 326.125 322.875C323.018 322.875 320.5 320.357 320.5 317.25C320.5 314.143 323.018 311.625 326.125 311.625Z" fill="#C368EB"/>
<path d="M326.125 330.375C329.232 330.375 331.75 332.893 331.75 336C331.75 339.107 329.232 341.625 326.125 341.625C323.018 341.625 320.5 339.107 320.5 336C320.5 332.893 323.018 330.375 326.125 330.375Z" fill="#449295"/>
<path d="M326.125 349.125C329.232 349.125 331.75 351.643 331.75 354.75C331.75 357.857 329.232 360.375 326.125 360.375C323.018 360.375 320.5 357.857 320.5 354.75C320.5 351.643 323.018 349.125 326.125 349.125Z" fill="#C368EB"/>
<path d="M326.125 367.875C329.232 367.875 331.75 370.393 331.75 373.5C331.75 376.607 329.232 379.125 326.125 379.125C323.018 379.125 320.5 376.607 320.5 373.5C320.5 370.393 323.018 367.875 326.125 367.875Z" fill="#449295"/>
<path d="M326.125 386.625C329.232 386.625 331.75 389.143 331.75 392.25C331.75 395.357 329.232 397.875 326.125 397.875C323.018 397.875 320.5 395.357 320.5 392.25C320.5 389.143 323.018 386.625 326.125 386.625Z" fill="#449295"/>
<path d="M326.125 405.375C329.232 405.375 331.75 407.893 331.75 411C331.75 414.107 329.232 416.625 326.125 416.625C323.018 416.625 320.5 414.107 320.5 411C320.5 407.893 323.018 405.375 326.125 405.375Z" fill="#449295"/>
<path d="M326.125 424.125C329.232 424.125 331.75 426.643 331.75 429.75C331.75 432.857 329.232 435.375 326.125 435.375C323.018 435.375 320.5 432.857 320.5 429.75C320.5 426.643 323.018 424.125 326.125 424.125Z" fill="#449295"/>
<path d="M326.125 442.875C329.232 442.875 331.75 445.393 331.75 448.5C331.75 451.607 329.232 454.125 326.125 454.125C323.018 454.125 320.5 451.607 320.5 448.5C320.5 445.393 323.018 442.875 326.125 442.875Z" fill="#EC9932"/>
<path d="M384.625 86.625C387.732 86.625 390.25 89.1434 390.25 92.25C390.25 95.3566 387.732 97.875 384.625 97.875C381.518 97.875 379 95.3566 379 92.25C379 89.1434 381.518 86.625 384.625 86.625Z" fill="#449295"/>
<path d="M384.625 105.375C387.732 105.375 390.25 107.893 390.25 111C390.25 114.107 387.732 116.625 384.625 116.625C381.518 116.625 379 114.107 379 111C379 107.893 381.518 105.375 384.625 105.375Z" fill="#449295"/>
<path d="M384.625 124.125C387.732 124.125 390.25 126.643 390.25 129.75C390.25 132.857 387.732 135.375 384.625 135.375C381.518 135.375 379 132.857 379 129.75C379 126.643 381.518 124.125 384.625 124.125Z" fill="#C368EB"/>
<path d="M384.625 142.875C387.732 142.875 390.25 145.393 390.25 148.5C390.25 151.607 387.732 154.125 384.625 154.125C381.518 154.125 379 151.607 379 148.5C379 145.393 381.518 142.875 384.625 142.875Z" fill="#449295"/>
<path d="M384.625 161.625C387.732 161.625 390.25 164.143 390.25 167.25C390.25 170.357 387.732 172.875 384.625 172.875C381.518 172.875 379 170.357 379 167.25C379 164.143 381.518 161.625 384.625 161.625Z" fill="#449295"/>
<path d="M384.625 180.375C387.732 180.375 390.25 182.893 390.25 186C390.25 189.107 387.732 191.625 384.625 191.625C381.518 191.625 379 189.107 379 186C379 182.893 381.518 180.375 384.625 180.375Z" fill="#449295"/>
<path d="M384.625 199.125C387.732 199.125 390.25 201.643 390.25 204.75C390.25 207.857 387.732 210.375 384.625 210.375C381.518 210.375 379 207.857 379 204.75C379 201.643 381.518 199.125 384.625 199.125Z" fill="#EC9932"/>
<path d="M384.625 217.875C387.732 217.875 390.25 220.393 390.25 223.5C390.25 226.607 387.732 229.125 384.625 229.125C381.518 229.125 379 226.607 379 223.5C379 220.393 381.518 217.875 384.625 217.875Z" fill="#449295"/>
<path d="M384.625 236.625C387.732 236.625 390.25 239.143 390.25 242.25C390.25 245.357 387.732 247.875 384.625 247.875C381.518 247.875 379 245.357 379 242.25C379 239.143 381.518 236.625 384.625 236.625Z" fill="#EC9932"/>
<path d="M384.625 255.375C387.732 255.375 390.25 257.893 390.25 261C390.25 264.107 387.732 266.625 384.625 266.625C381.518 266.625 379 264.107 379 261C379 257.893 381.518 255.375 384.625 255.375Z" fill="#449295"/>
<path d="M384.625 274.125C387.732 274.125 390.25 276.643 390.25 279.75C390.25 282.857 387.732 285.375 384.625 285.375C381.518 285.375 379 282.857 379 279.75C379 276.643 381.518 274.125 384.625 274.125Z" fill="#EC9932"/>
<path d="M384.625 292.875C387.732 292.875 390.25 295.393 390.25 298.5C390.25 301.607 387.732 304.125 384.625 304.125C381.518 304.125 379 301.607 379 298.5C379 295.393 381.518 292.875 384.625 292.875Z" fill="#C368EB"/>
<path d="M384.625 311.625C387.732 311.625 390.25 314.143 390.25 317.25C390.25 320.357 387.732 322.875 384.625 322.875C381.518 322.875 379 320.357 379 317.25C379 314.143 381.518 311.625 384.625 311.625Z" fill="#C368EB"/>
<path d="M384.625 330.375C387.732 330.375 390.25 332.893 390.25 336C390.25 339.107 387.732 341.625 384.625 341.625C381.518 341.625 379 339.107 379 336C379 332.893 381.518 330.375 384.625 330.375Z" fill="#449295"/>
<path d="M384.625 349.125C387.732 349.125 390.25 351.643 390.25 354.75C390.25 357.857 387.732 360.375 384.625 360.375C381.518 360.375 379 357.857 379 354.75C379 351.643 381.518 349.125 384.625 349.125Z" fill="#C368EB"/>
<path d="M384.625 367.875C387.732 367.875 390.25 370.393 390.25 373.5C390.25 376.607 387.732 379.125 384.625 379.125C381.518 379.125 379 376.607 379 373.5C379 370.393 381.518 367.875 384.625 367.875Z" fill="#449295"/>
<path d="M384.625 386.625C387.732 386.625 390.25 389.143 390.25 392.25C390.25 395.357 387.732 397.875 384.625 397.875C381.518 397.875 379 395.357 379 392.25C379 389.143 381.518 386.625 384.625 386.625Z" fill="#EC9932"/>
<path d="M384.625 405.375C387.732 405.375 390.25 407.893 390.25 411C390.25 414.107 387.732 416.625 384.625 416.625C381.518 416.625 379 414.107 379 411C379 407.893 381.518 405.375 384.625 405.375Z" fill="#449295"/>
<path d="M384.625 424.125C387.732 424.125 390.25 426.643 390.25 429.75C390.25 432.857 387.732 435.375 384.625 435.375C381.518 435.375 379 432.857 379 429.75C379 426.643 381.518 424.125 384.625 424.125Z" fill="#449295"/>
<path d="M384.625 442.875C387.732 442.875 390.25 445.393 390.25 448.5C390.25 451.607 387.732 454.125 384.625 454.125C381.518 454.125 379 451.607 379 448.5C379 445.393 381.518 442.875 384.625 442.875Z" fill="#449295"/>
<path d="M442.375 86.625C445.482 86.625 448 89.1434 448 92.25C448 95.3566 445.482 97.875 442.375 97.875C439.268 97.875 436.75 95.3566 436.75 92.25C436.75 89.1434 439.268 86.625 442.375 86.625Z" fill="#EC9932"/>
<path d="M442.375 105.375C445.482 105.375 448 107.893 448 111C448 114.107 445.482 116.625 442.375 116.625C439.268 116.625 436.75 114.107 436.75 111C436.75 107.893 439.268 105.375 442.375 105.375Z" fill="#C368EB"/>
<path d="M442.375 124.125C445.482 124.125 448 126.643 448 129.75C448 132.857 445.482 135.375 442.375 135.375C439.268 135.375 436.75 132.857 436.75 129.75C436.75 126.643 439.268 124.125 442.375 124.125Z" fill="#449295"/>
<path d="M442.375 142.875C445.482 142.875 448 145.393 448 148.5C448 151.607 445.482 154.125 442.375 154.125C439.268 154.125 436.75 151.607 436.75 148.5C436.75 145.393 439.268 142.875 442.375 142.875Z" fill="#449295"/>
<path d="M442.375 161.625C445.482 161.625 448 164.143 448 167.25C448 170.357 445.482 172.875 442.375 172.875C439.268 172.875 436.75 170.357 436.75 167.25C436.75 164.143 439.268 161.625 442.375 161.625Z" fill="#449295"/>
<path d="M442.375 180.375C445.482 180.375 448 182.893 448 186C448 189.107 445.482 191.625 442.375 191.625C439.268 191.625 436.75 189.107 436.75 186C436.75 182.893 439.268 180.375 442.375 180.375Z" fill="#449295"/>
<path d="M442.375 199.125C445.482 199.125 448 201.643 448 204.75C448 207.857 445.482 210.375 442.375 210.375C439.268 210.375 436.75 207.857 436.75 204.75C436.75 201.643 439.268 199.125 442.375 199.125Z" fill="#C368EB"/>
<path d="M442.375 217.875C445.482 217.875 448 220.393 448 223.5C448 226.607 445.482 229.125 442.375 229.125C439.268 229.125 436.75 226.607 436.75 223.5C436.75 220.393 439.268 217.875 442.375 217.875Z" fill="#C368EB"/>
<path d="M442.375 236.625C445.482 236.625 448 239.143 448 242.25C448 245.357 445.482 247.875 442.375 247.875C439.268 247.875 436.75 245.357 436.75 242.25C436.75 239.143 439.268 236.625 442.375 236.625Z" fill="#449295"/>
<path d="M442.375 255.375C445.482 255.375 448 257.893 448 261C448 264.107 445.482 266.625 442.375 266.625C439.268 266.625 436.75 264.107 436.75 261C436.75 257.893 439.268 255.375 442.375 255.375Z" fill="#449295"/>
<path d="M442.375 274.125C445.482 274.125 448 276.643 448 279.75C448 282.857 445.482 285.375 442.375 285.375C439.268 285.375 436.75 282.857 436.75 279.75C436.75 276.643 439.268 274.125 442.375 274.125Z" fill="#449295"/>
<path d="M442.375 292.875C445.482 292.875 448 295.393 448 298.5C448 301.607 445.482 304.125 442.375 304.125C439.268 304.125 436.75 301.607 436.75 298.5C436.75 295.393 439.268 292.875 442.375 292.875Z" fill="#C368EB"/>
<path d="M442.375 311.625C445.482 311.625 448 314.143 448 317.25C448 320.357 445.482 322.875 442.375 322.875C439.268 322.875 436.75 320.357 436.75 317.25C436.75 314.143 439.268 311.625 442.375 311.625Z" fill="#449295"/>
<path d="M442.375 330.375C445.482 330.375 448 332.893 448 336C448 339.107 445.482 341.625 442.375 341.625C439.268 341.625 436.75 339.107 436.75 336C436.75 332.893 439.268 330.375 442.375 330.375Z" fill="#449295"/>
<path d="M442.375 349.125C445.482 349.125 448 351.643 448 354.75C448 357.857 445.482 360.375 442.375 360.375C439.268 360.375 436.75 357.857 436.75 354.75C436.75 351.643 439.268 349.125 442.375 349.125Z" fill="#449295"/>
<path d="M442.375 367.875C445.482 367.875 448 370.393 448 373.5C448 376.607 445.482 379.125 442.375 379.125C439.268 379.125 436.75 376.607 436.75 373.5C436.75 370.393 439.268 367.875 442.375 367.875Z" fill="#449295"/>
<path d="M442.375 386.625C445.482 386.625 448 389.143 448 392.25C448 395.357 445.482 397.875 442.375 397.875C439.268 397.875 436.75 395.357 436.75 392.25C436.75 389.143 439.268 386.625 442.375 386.625Z" fill="#449295"/>
<path d="M442.375 405.375C445.482 405.375 448 407.893 448 411C448 414.107 445.482 416.625 442.375 416.625C439.268 416.625 436.75 414.107 436.75 411C436.75 407.893 439.268 405.375 442.375 405.375Z" fill="#449295"/>
<path d="M442.375 424.125C445.482 424.125 448 426.643 448 429.75C448 432.857 445.482 435.375 442.375 435.375C439.268 435.375 436.75 432.857 436.75 429.75C436.75 426.643 439.268 424.125 442.375 424.125Z" fill="#EC9932"/>
<path d="M442.375 442.875C445.482 442.875 448 445.393 448 448.5C448 451.607 445.482 454.125 442.375 454.125C439.268 454.125 436.75 451.607 436.75 448.5C436.75 445.393 439.268 442.875 442.375 442.875Z" fill="#449295"/>
<path d="M500.875 86.625C503.982 86.625 506.5 89.1434 506.5 92.25C506.5 95.3566 503.982 97.875 500.875 97.875C497.768 97.875 495.25 95.3566 495.25 92.25C495.25 89.1434 497.768 86.625 500.875 86.625Z" fill="#449295"/>
<path d="M500.875 105.375C503.982 105.375 506.5 107.893 506.5 111C506.5 114.107 503.982 116.625 500.875 116.625C497.768 116.625 495.25 114.107 495.25 111C495.25 107.893 497.768 105.375 500.875 105.375Z" fill="#C368EB"/>
<path d="M500.875 124.125C503.982 124.125 506.5 126.643 506.5 129.75C506.5 132.857 503.982 135.375 500.875 135.375C497.768 135.375 495.25 132.857 495.25 129.75C495.25 126.643 497.768 124.125 500.875 124.125Z" fill="#449295"/>
<path d="M500.875 142.875C503.982 142.875 506.5 145.393 506.5 148.5C506.5 151.607 503.982 154.125 500.875 154.125C497.768 154.125 495.25 151.607 495.25 148.5C495.25 145.393 497.768 142.875 500.875 142.875Z" fill="#449295"/>
<path d="M500.875 161.625C503.982 161.625 506.5 164.143 506.5 167.25C506.5 170.357 503.982 172.875 500.875 172.875C497.768 172.875 495.25 170.357 495.25 167.25C495.25 164.143 497.768 161.625 500.875 161.625Z" fill="#449295"/>
<path d="M500.875 180.375C503.982 180.375 506.5 182.893 506.5 186C506.5 189.107 503.982 191.625 500.875 191.625C497.768 191.625 495.25 189.107 495.25 186C495.25 182.893 497.768 180.375 500.875 180.375Z" fill="#449295"/>
<path d="M500.875 199.125C503.982 199.125 506.5 201.643 506.5 204.75C506.5 207.857 503.982 210.375 500.875 210.375C497.768 210.375 495.25 207.857 495.25 204.75C495.25 201.643 497.768 199.125 500.875 199.125Z" fill="#C368EB"/>
<path d="M500.875 217.875C503.982 217.875 506.5 220.393 506.5 223.5C506.5 226.607 503.982 229.125 500.875 229.125C497.768 229.125 495.25 226.607 495.25 223.5C495.25 220.393 497.768 217.875 500.875 217.875Z" fill="#449295"/>
<path d="M500.875 236.625C503.982 236.625 506.5 239.143 506.5 242.25C506.5 245.357 503.982 247.875 500.875 247.875C497.768 247.875 495.25 245.357 495.25 242.25C495.25 239.143 497.768 236.625 500.875 236.625Z" fill="#C368EB"/>
<path d="M500.875 255.375C503.982 255.375 506.5 257.893 506.5 261C506.5 264.107 503.982 266.625 500.875 266.625C497.768 266.625 495.25 264.107 495.25 261C495.25 257.893 497.768 255.375 500.875 255.375Z" fill="#449295"/>
<path d="M500.875 274.125C503.982 274.125 506.5 276.643 506.5 279.75C506.5 282.857 503.982 285.375 500.875 285.375C497.768 285.375 495.25 282.857 495.25 279.75C495.25 276.643 497.768 274.125 500.875 274.125Z" fill="#449295"/>
<path d="M500.875 292.875C503.982 292.875 506.5 295.393 506.5 298.5C506.5 301.607 503.982 304.125 500.875 304.125C497.768 304.125 495.25 301.607 495.25 298.5C495.25 295.393 497.768 292.875 500.875 292.875Z" fill="#C368EB"/>
<path d="M500.875 311.625C503.982 311.625 506.5 314.143 506.5 317.25C506.5 320.357 503.982 322.875 500.875 322.875C497.768 322.875 495.25 320.357 495.25 317.25C495.25 314.143 497.768 311.625 500.875 311.625Z" fill="#449295"/>
<path d="M500.875 330.375C503.982 330.375 506.5 332.893 506.5 336C506.5 339.107 503.982 341.625 500.875 341.625C497.768 341.625 495.25 339.107 495.25 336C495.25 332.893 497.768 330.375 500.875 330.375Z" fill="#449295"/>
<path d="M500.875 349.125C503.982 349.125 506.5 351.643 506.5 354.75C506.5 357.857 503.982 360.375 500.875 360.375C497.768 360.375 495.25 357.857 495.25 354.75C495.25 351.643 497.768 349.125 500.875 349.125Z" fill="#449295"/>
<path d="M500.875 367.875C503.982 367.875 506.5 370.393 506.5 373.5C506.5 376.607 503.982 379.125 500.875 379.125C497.768 379.125 495.25 376.607 495.25 373.5C495.25 370.393 497.768 367.875 500.875 367.875Z" fill="#449295"/>
<path d="M500.875 386.625C503.982 386.625 506.5 389.143 506.5 392.25C506.5 395.357 503.982 397.875 500.875 397.875C497.768 397.875 495.25 395.357 495.25 392.25C495.25 389.143 497.768 386.625 500.875 386.625Z" fill="#C368EB"/>
<path d="M500.875 405.375C503.982 405.375 506.5 407.893 506.5 411C506.5 414.107 503.982 416.625 500.875 416.625C497.768 416.625 495.25 414.107 495.25 411C495.25 407.893 497.768 405.375 500.875 405.375Z" fill="#449295"/>
<path d="M500.875 424.125C503.982 424.125 506.5 426.643 506.5 429.75C506.5 432.857 503.982 435.375 500.875 435.375C497.768 435.375 495.25 432.857 495.25 429.75C495.25 426.643 497.768 424.125 500.875 424.125Z" fill="#449295"/>
<path d="M500.875 442.875C503.982 442.875 506.5 445.393 506.5 448.5C506.5 451.607 503.982 454.125 500.875 454.125C497.768 454.125 495.25 451.607 495.25 448.5C495.25 445.393 497.768 442.875 500.875 442.875Z" fill="#449295"/>
<path d="M559.375 86.625C562.482 86.625 565 89.1434 565 92.25C565 95.3566 562.482 97.875 559.375 97.875C556.268 97.875 553.75 95.3566 553.75 92.25C553.75 89.1434 556.268 86.625 559.375 86.625Z" fill="#449295"/>
<path d="M559.375 105.375C562.482 105.375 565 107.893 565 111C565 114.107 562.482 116.625 559.375 116.625C556.268 116.625 553.75 114.107 553.75 111C553.75 107.893 556.268 105.375 559.375 105.375Z" fill="#449295"/>
<path d="M559.375 124.125C562.482 124.125 565 126.643 565 129.75C565 132.857 562.482 135.375 559.375 135.375C556.268 135.375 553.75 132.857 553.75 129.75C553.75 126.643 556.268 124.125 559.375 124.125Z" fill="#449295"/>
<path d="M559.375 142.875C562.482 142.875 565 145.393 565 148.5C565 151.607 562.482 154.125 559.375 154.125C556.268 154.125 553.75 151.607 553.75 148.5C553.75 145.393 556.268 142.875 559.375 142.875Z" fill="#449295"/>
<path d="M559.375 161.625C562.482 161.625 565 164.143 565 167.25C565 170.357 562.482 172.875 559.375 172.875C556.268 172.875 553.75 170.357 553.75 167.25C553.75 164.143 556.268 161.625 559.375 161.625Z" fill="#C368EB"/>
<path d="M559.375 180.375C562.482 180.375 565 182.893 565 186C565 189.107 562.482 191.625 559.375 191.625C556.268 191.625 553.75 189.107 553.75 186C553.75 182.893 556.268 180.375 559.375 180.375Z" fill="#449295"/>
<path d="M559.375 199.125C562.482 199.125 565 201.643 565 204.75C565 207.857 562.482 210.375 559.375 210.375C556.268 210.375 553.75 207.857 553.75 204.75C553.75 201.643 556.268 199.125 559.375 199.125Z" fill="#C368EB"/>
<path d="M559.375 217.875C562.482 217.875 565 220.393 565 223.5C565 226.607 562.482 229.125 559.375 229.125C556.268 229.125 553.75 226.607 553.75 223.5C553.75 220.393 556.268 217.875 559.375 217.875Z" fill="#449295"/>
<path d="M559.375 236.625C562.482 236.625 565 239.143 565 242.25C565 245.357 562.482 247.875 559.375 247.875C556.268 247.875 553.75 245.357 553.75 242.25C553.75 239.143 556.268 236.625 559.375 236.625Z" fill="#449295"/>
<path d="M559.375 255.375C562.482 255.375 565 257.893 565 261C565 264.107 562.482 266.625 559.375 266.625C556.268 266.625 553.75 264.107 553.75 261C553.75 257.893 556.268 255.375 559.375 255.375Z" fill="#C368EB"/>
<path d="M559.375 274.125C562.482 274.125 565 276.643 565 279.75C565 282.857 562.482 285.375 559.375 285.375C556.268 285.375 553.75 282.857 553.75 279.75C553.75 276.643 556.268 274.125 559.375 274.125Z" fill="#449295"/>
<path d="M559.375 292.875C562.482 292.875 565 295.393 565 298.5C565 301.607 562.482 304.125 559.375 304.125C556.268 304.125 553.75 301.607 553.75 298.5C553.75 295.393 556.268 292.875 559.375 292.875Z" fill="#C368EB"/>
<path d="M559.375 311.625C562.482 311.625 565 314.143 565 317.25C565 320.357 562.482 322.875 559.375 322.875C556.268 322.875 553.75 320.357 553.75 317.25C553.75 314.143 556.268 311.625 559.375 311.625Z" fill="#EC9932"/>
<path d="M559.375 330.375C562.482 330.375 565 332.893 565 336C565 339.107 562.482 341.625 559.375 341.625C556.268 341.625 553.75 339.107 553.75 336C553.75 332.893 556.268 330.375 559.375 330.375Z" fill="#EC9932"/>
<path d="M559.375 349.125C562.482 349.125 565 351.643 565 354.75C565 357.857 562.482 360.375 559.375 360.375C556.268 360.375 553.75 357.857 553.75 354.75C553.75 351.643 556.268 349.125 559.375 349.125Z" fill="#EC9932"/>
<path d="M559.375 367.875C562.482 367.875 565 370.393 565 373.5C565 376.607 562.482 379.125 559.375 379.125C556.268 379.125 553.75 376.607 553.75 373.5C553.75 370.393 556.268 367.875 559.375 367.875Z" fill="#449295"/>
<path d="M559.375 386.625C562.482 386.625 565 389.143 565 392.25C565 395.357 562.482 397.875 559.375 397.875C556.268 397.875 553.75 395.357 553.75 392.25C553.75 389.143 556.268 386.625 559.375 386.625Z" fill="#449295"/>
<path d="M559.375 405.375C562.482 405.375 565 407.893 565 411C565 414.107 562.482 416.625 559.375 416.625C556.268 416.625 553.75 414.107 553.75 411C553.75 407.893 556.268 405.375 559.375 405.375Z" fill="#449295"/>
<path d="M559.375 424.125C562.482 424.125 565 426.643 565 429.75C565 432.857 562.482 435.375 559.375 435.375C556.268 435.375 553.75 432.857 553.75 429.75C553.75 426.643 556.268 424.125 559.375 424.125Z" fill="#449295"/>
<path d="M559.375 442.875C562.482 442.875 565 445.393 565 448.5C565 451.607 562.482 454.125 559.375 454.125C556.268 454.125 553.75 451.607 553.75 448.5C553.75 445.393 556.268 442.875 559.375 442.875Z" fill="#449295"/>
<path d="M574.75 89.625C576.2 89.625 577.375 90.8003 577.375 92.25C577.375 93.6997 576.2 94.875 574.75 94.875C573.3 94.875 572.125 93.6997 572.125 92.25C572.125 90.8003 573.3 89.625 574.75 89.625Z" fill="#7B7B7B" fill-opacity="0.75"/>
<path d="M574.75 164.625C576.2 164.625 577.375 165.8 577.375 167.25C577.375 168.7 576.2 169.875 574.75 169.875C573.3 169.875 572.125 168.7 572.125 167.25C572.125 165.8 573.3 164.625 574.75 164.625Z" fill="#7B7B7B" fill-opacity="0.75"/>
<path d="M574.75 108.375C576.2 108.375 577.375 109.55 577.375 111C577.375 112.45 576.2 113.625 574.75 113.625C573.3 113.625 572.125 112.45 572.125 111C572.125 109.55 573.3 108.375 574.75 108.375Z" fill="#7B7B7B" fill-opacity="0.75"/>
<path d="M452.432 112.5L456.747 112.861L454.902 108.943L452.432 112.5ZM471.932 81.375C471.557 81.375 471.557 81.3749 471.557 81.3749C471.557 81.3751 471.557 81.3752 471.557 81.3754C471.557 81.3758 471.557 81.3766 471.557 81.3776C471.557 81.3797 471.557 81.3831 471.557 81.3877C471.557 81.3969 471.557 81.4111 471.556 81.43C471.556 81.468 471.555 81.5251 471.553 81.6005C471.549 81.7513 471.541 81.9749 471.525 82.2636C471.494 82.841 471.43 83.6781 471.303 84.7114C471.048 86.7786 470.538 89.6274 469.52 92.7519C467.481 99.0037 463.417 106.327 455.308 110.731L455.666 111.391C464.002 106.862 468.16 99.3423 470.233 92.9843C471.27 89.8039 471.788 86.9062 472.047 84.8031C472.177 83.7512 472.242 82.8972 472.274 82.3047C472.29 82.0085 472.299 81.7776 472.303 81.62C472.305 81.5412 472.306 81.4807 472.306 81.4396C472.307 81.419 472.307 81.4032 472.307 81.3924C472.307 81.387 472.307 81.3829 472.307 81.38C472.307 81.3785 472.307 81.3774 472.307 81.3765C472.307 81.3761 472.307 81.3757 472.307 81.3755C472.307 81.3752 472.307 81.375 471.932 81.375Z" fill="black"/>
<path d="M491.699 112.5L487.384 112.861L489.229 108.943L491.699 112.5ZM472.199 81.375C472.574 81.375 472.574 81.3749 472.574 81.3749C472.574 81.3751 472.574 81.3752 472.574 81.3754C472.574 81.3758 472.574 81.3766 472.574 81.3776C472.574 81.3797 472.574 81.3831 472.574 81.3877C472.574 81.3969 472.574 81.4111 472.575 81.43C472.575 81.468 472.576 81.5251 472.578 81.6005C472.582 81.7513 472.59 81.9749 472.606 82.2636C472.637 82.841 472.701 83.6781 472.828 84.7114C473.083 86.7786 473.593 89.6274 474.611 92.7519C476.649 99.0037 480.714 106.327 488.823 110.731L488.465 111.391C480.128 106.862 475.971 99.3423 473.898 92.9843C472.861 89.8039 472.343 86.9062 472.084 84.8031C471.954 83.7512 471.889 82.8972 471.857 82.3047C471.84 82.0085 471.832 81.7776 471.828 81.62C471.826 81.5412 471.825 81.4807 471.825 81.4396C471.824 81.419 471.824 81.4032 471.824 81.3924C471.824 81.387 471.824 81.3829 471.824 81.38C471.824 81.3785 471.824 81.3774 471.824 81.3765C471.824 81.3761 471.824 81.3757 471.824 81.3755C471.824 81.3752 471.824 81.375 472.199 81.375Z" fill="black"/>
<path d="M622.098 434.625H607.375V449.345H622.098V434.625Z" fill="#C368EB"/>
<path d="M622.098 414.23H607.375V428.951H622.098V414.23Z" fill="#EC9932"/>
<path d="M622.098 394.125H607.375V408.845H622.098V394.125Z" fill="#459295"/>
<line x1="578.125" y1="92.25" x2="585.625" y2="92.25" stroke="black" stroke-width="0.75"/>
<path d="M578.125 111H585.625" stroke="black" stroke-width="0.75"/>
<line x1="578.125" y1="167.25" x2="585.625" y2="167.25" stroke="black" stroke-width="0.75"/>
<line x1="585.25" y1="91.875" x2="585.25" y2="166.875" stroke="black" stroke-width="0.75"/>
<path d="M164.629 66.3902C164.706 66.1979 164.613 65.9797 164.42 65.9027L161.287 64.6488C161.095 64.5719 160.876 64.6654 160.799 64.8577C160.722 65.0499 160.816 65.2682 161.008 65.3451L163.794 66.4597L162.679 69.245C162.602 69.4373 162.696 69.6555 162.888 69.7325C163.08 69.8094 163.298 69.7159 163.375 69.5236L164.629 66.3902ZM151.561 83.2504C152.43 78.4015 153.597 75.135 155.55 72.6386C157.501 70.144 160.269 68.3775 164.429 66.5956L164.133 65.9062C159.928 67.7079 157.025 69.5362 154.959 72.1765C152.896 74.8149 151.7 78.2232 150.822 83.118L151.561 83.2504Z" fill="black"/>
</g>
<defs>
<clipPath id="clip0_21_12439">
<rect width="669.75" height="494.25" fill="white" transform="translate(0.625 0.375)"/>
</clipPath>
</defs>
</svg>
