<svg width="893" height="659" viewBox="0 0 893 659" fill="none" xmlns="http://www.w3.org/2000/svg">
<path d="M45.9983 645.18V639.5H745.304V645.18" stroke="black"/>
<path d="M45.9983 639.5V645.18" stroke="black"/>
<path d="M123.699 639.5V645.18" stroke="black"/>
<path d="M201.4 639.5V645.18" stroke="black"/>
<path d="M279.1 639.5V645.18" stroke="black"/>
<path d="M356.801 639.5V645.18" stroke="black"/>
<path d="M434.501 639.5V645.18" stroke="black"/>
<path d="M512.202 639.5V645.18" stroke="black"/>
<path d="M589.902 639.5V645.18" stroke="black"/>
<path d="M667.603 639.5V645.18" stroke="black"/>
<path d="M745.304 639.5V645.18" stroke="black"/>
<line y1="598.5" x2="746.001" y2="598.5" stroke="#7B7B7B" stroke-opacity="0.5"/>
<line y1="472.5" x2="746.001" y2="472.5" stroke="#7B7B7B" stroke-opacity="0.5"/>
<line x1="1" y1="347.5" x2="747.001" y2="347.5" stroke="#7B7B7B" stroke-opacity="0.5"/>
<line y1="222.5" x2="746.001" y2="222.5" stroke="#7B7B7B" stroke-opacity="0.5"/>
<line y1="122.5" x2="746.001" y2="122.5" stroke="#7B7B7B" stroke-opacity="0.5"/>
<path d="M45 115C49.1421 115 52.5 118.358 52.5 122.5C52.5 126.642 49.1421 130 45 130C40.8579 130 37.5 126.642 37.5 122.5C37.5 118.358 40.8579 115 45 115Z" fill="#449295"/>
<path d="M45 140C49.1421 140 52.5 143.358 52.5 147.5C52.5 151.642 49.1421 155 45 155C40.8579 155 37.5 151.642 37.5 147.5C37.5 143.358 40.8579 140 45 140Z" fill="#449295"/>
<path d="M45 165C49.1421 165 52.5 168.358 52.5 172.5C52.5 176.642 49.1421 180 45 180C40.8579 180 37.5 176.642 37.5 172.5C37.5 168.358 40.8579 165 45 165Z" fill="#449295"/>
<path d="M45 190C49.1421 190 52.5 193.358 52.5 197.5C52.5 201.642 49.1421 205 45 205C40.8579 205 37.5 201.642 37.5 197.5C37.5 193.358 40.8579 190 45 190Z" fill="#449295"/>
<path d="M45 215C49.1421 215 52.5 218.358 52.5 222.5C52.5 226.642 49.1421 230 45 230C40.8579 230 37.5 226.642 37.5 222.5C37.5 218.358 40.8579 215 45 215Z" fill="#449295"/>
<path d="M45 240C49.1421 240 52.5 243.358 52.5 247.5C52.5 251.642 49.1421 255 45 255C40.8579 255 37.5 251.642 37.5 247.5C37.5 243.358 40.8579 240 45 240Z" fill="#449295"/>
<path d="M45 265C49.1421 265 52.5 268.358 52.5 272.5C52.5 276.642 49.1421 280 45 280C40.8579 280 37.5 276.642 37.5 272.5C37.5 268.358 40.8579 265 45 265Z" fill="#449295"/>
<path d="M45 290C49.1421 290 52.5 293.358 52.5 297.5C52.5 301.642 49.1421 305 45 305C40.8579 305 37.5 301.642 37.5 297.5C37.5 293.358 40.8579 290 45 290Z" fill="#449295"/>
<path d="M45 315C49.1421 315 52.5 318.358 52.5 322.5C52.5 326.642 49.1421 330 45 330C40.8579 330 37.5 326.642 37.5 322.5C37.5 318.358 40.8579 315 45 315Z" fill="#449295"/>
<path d="M45 340C49.1421 340 52.5 343.358 52.5 347.5C52.5 351.642 49.1421 355 45 355C40.8579 355 37.5 351.642 37.5 347.5C37.5 343.358 40.8579 340 45 340Z" fill="#449295"/>
<path d="M45 365C49.1421 365 52.5 368.358 52.5 372.5C52.5 376.642 49.1421 380 45 380C40.8579 380 37.5 376.642 37.5 372.5C37.5 368.358 40.8579 365 45 365Z" fill="#449295"/>
<path d="M45 390C49.1421 390 52.5 393.358 52.5 397.5C52.5 401.642 49.1421 405 45 405C40.8579 405 37.5 401.642 37.5 397.5C37.5 393.358 40.8579 390 45 390Z" fill="#449295"/>
<path d="M45 415C49.1421 415 52.5 418.358 52.5 422.5C52.5 426.642 49.1421 430 45 430C40.8579 430 37.5 426.642 37.5 422.5C37.5 418.358 40.8579 415 45 415Z" fill="#EC9932"/>
<path d="M45 440C49.1421 440 52.5 443.358 52.5 447.5C52.5 451.642 49.1421 455 45 455C40.8579 455 37.5 451.642 37.5 447.5C37.5 443.358 40.8579 440 45 440Z" fill="#449295"/>
<path d="M45 465C49.1421 465 52.5 468.358 52.5 472.5C52.5 476.642 49.1421 480 45 480C40.8579 480 37.5 476.642 37.5 472.5C37.5 468.358 40.8579 465 45 465Z" fill="#449295"/>
<path d="M45 490C49.1421 490 52.5 493.358 52.5 497.5C52.5 501.642 49.1421 505 45 505C40.8579 505 37.5 501.642 37.5 497.5C37.5 493.358 40.8579 490 45 490Z" fill="#449295"/>
<path d="M45 515C49.1421 515 52.5 518.358 52.5 522.5C52.5 526.642 49.1421 530 45 530C40.8579 530 37.5 526.642 37.5 522.5C37.5 518.358 40.8579 515 45 515Z" fill="#449295"/>
<path d="M45 540C49.1421 540 52.5 543.358 52.5 547.5C52.5 551.642 49.1421 555 45 555C40.8579 555 37.5 551.642 37.5 547.5C37.5 543.358 40.8579 540 45 540Z" fill="#449295"/>
<path d="M45 565C49.1421 565 52.5 568.358 52.5 572.5C52.5 576.642 49.1421 580 45 580C40.8579 580 37.5 576.642 37.5 572.5C37.5 568.358 40.8579 565 45 565Z" fill="#EC9932"/>
<path d="M45 590C49.1421 590 52.5 593.358 52.5 597.5C52.5 601.642 49.1421 605 45 605C40.8579 605 37.5 601.642 37.5 597.5C37.5 593.358 40.8579 590 45 590Z" fill="#449295"/>
<path d="M123 115C127.142 115 130.5 118.358 130.5 122.5C130.5 126.642 127.142 130 123 130C118.858 130 115.5 126.642 115.5 122.5C115.5 118.358 118.858 115 123 115Z" fill="#449295"/>
<path d="M123 140C127.142 140 130.5 143.358 130.5 147.5C130.5 151.642 127.142 155 123 155C118.858 155 115.5 151.642 115.5 147.5C115.5 143.358 118.858 140 123 140Z" fill="#449295"/>
<path d="M123 165C127.142 165 130.5 168.358 130.5 172.5C130.5 176.642 127.142 180 123 180C118.858 180 115.5 176.642 115.5 172.5C115.5 168.358 118.858 165 123 165Z" fill="#449295"/>
<path d="M123 190C127.142 190 130.5 193.358 130.5 197.5C130.5 201.642 127.142 205 123 205C118.858 205 115.5 201.642 115.5 197.5C115.5 193.358 118.858 190 123 190Z" fill="#EC9932"/>
<path d="M123 215C127.142 215 130.5 218.358 130.5 222.5C130.5 226.642 127.142 230 123 230C118.858 230 115.5 226.642 115.5 222.5C115.5 218.358 118.858 215 123 215Z" fill="#449295"/>
<path d="M123 240C127.142 240 130.5 243.358 130.5 247.5C130.5 251.642 127.142 255 123 255C118.858 255 115.5 251.642 115.5 247.5C115.5 243.358 118.858 240 123 240Z" fill="#449295"/>
<path d="M123 265C127.142 265 130.5 268.358 130.5 272.5C130.5 276.642 127.142 280 123 280C118.858 280 115.5 276.642 115.5 272.5C115.5 268.358 118.858 265 123 265Z" fill="#449295"/>
<path d="M123 290C127.142 290 130.5 293.358 130.5 297.5C130.5 301.642 127.142 305 123 305C118.858 305 115.5 301.642 115.5 297.5C115.5 293.358 118.858 290 123 290Z" fill="#449295"/>
<path d="M123 315C127.142 315 130.5 318.358 130.5 322.5C130.5 326.642 127.142 330 123 330C118.858 330 115.5 326.642 115.5 322.5C115.5 318.358 118.858 315 123 315Z" fill="#449295"/>
<path d="M123 340C127.142 340 130.5 343.358 130.5 347.5C130.5 351.642 127.142 355 123 355C118.858 355 115.5 351.642 115.5 347.5C115.5 343.358 118.858 340 123 340Z" fill="#449295"/>
<path d="M123 365C127.142 365 130.5 368.358 130.5 372.5C130.5 376.642 127.142 380 123 380C118.858 380 115.5 376.642 115.5 372.5C115.5 368.358 118.858 365 123 365Z" fill="#449295"/>
<path d="M123 390C127.142 390 130.5 393.358 130.5 397.5C130.5 401.642 127.142 405 123 405C118.858 405 115.5 401.642 115.5 397.5C115.5 393.358 118.858 390 123 390Z" fill="#EC9932"/>
<path d="M123 415C127.142 415 130.5 418.358 130.5 422.5C130.5 426.642 127.142 430 123 430C118.858 430 115.5 426.642 115.5 422.5C115.5 418.358 118.858 415 123 415Z" fill="#EC9932"/>
<path d="M123 440C127.142 440 130.5 443.358 130.5 447.5C130.5 451.642 127.142 455 123 455C118.858 455 115.5 451.642 115.5 447.5C115.5 443.358 118.858 440 123 440Z" fill="#449295"/>
<path d="M123 465C127.142 465 130.5 468.358 130.5 472.5C130.5 476.642 127.142 480 123 480C118.858 480 115.5 476.642 115.5 472.5C115.5 468.358 118.858 465 123 465Z" fill="#449295"/>
<path d="M123 490C127.142 490 130.5 493.358 130.5 497.5C130.5 501.642 127.142 505 123 505C118.858 505 115.5 501.642 115.5 497.5C115.5 493.358 118.858 490 123 490Z" fill="#EC9932"/>
<path d="M123 515C127.142 515 130.5 518.358 130.5 522.5C130.5 526.642 127.142 530 123 530C118.858 530 115.5 526.642 115.5 522.5C115.5 518.358 118.858 515 123 515Z" fill="#449295"/>
<path d="M123 540C127.142 540 130.5 543.358 130.5 547.5C130.5 551.642 127.142 555 123 555C118.858 555 115.5 551.642 115.5 547.5C115.5 543.358 118.858 540 123 540Z" fill="#EC9932"/>
<path d="M123 565C127.142 565 130.5 568.358 130.5 572.5C130.5 576.642 127.142 580 123 580C118.858 580 115.5 576.642 115.5 572.5C115.5 568.358 118.858 565 123 565Z" fill="#449295"/>
<path d="M123 590C127.142 590 130.5 593.358 130.5 597.5C130.5 601.642 127.142 605 123 605C118.858 605 115.5 601.642 115.5 597.5C115.5 593.358 118.858 590 123 590Z" fill="#C368EB"/>
<path d="M201 115C205.142 115 208.5 118.358 208.5 122.5C208.5 126.642 205.142 130 201 130C196.858 130 193.5 126.642 193.5 122.5C193.5 118.358 196.858 115 201 115Z" fill="#449295"/>
<path d="M201 140C205.142 140 208.5 143.358 208.5 147.5C208.5 151.642 205.142 155 201 155C196.858 155 193.5 151.642 193.5 147.5C193.5 143.358 196.858 140 201 140Z" fill="#449295"/>
<path d="M201 165C205.142 165 208.5 168.358 208.5 172.5C208.5 176.642 205.142 180 201 180C196.858 180 193.5 176.642 193.5 172.5C193.5 168.358 196.858 165 201 165Z" fill="#449295"/>
<path d="M201 190C205.142 190 208.5 193.358 208.5 197.5C208.5 201.642 205.142 205 201 205C196.858 205 193.5 201.642 193.5 197.5C193.5 193.358 196.858 190 201 190Z" fill="#EC9932"/>
<path d="M201 215C205.142 215 208.5 218.358 208.5 222.5C208.5 226.642 205.142 230 201 230C196.858 230 193.5 226.642 193.5 222.5C193.5 218.358 196.858 215 201 215Z" fill="#EC9932"/>
<path d="M201 240C205.142 240 208.5 243.358 208.5 247.5C208.5 251.642 205.142 255 201 255C196.858 255 193.5 251.642 193.5 247.5C193.5 243.358 196.858 240 201 240Z" fill="#C368EB"/>
<path d="M201 265C205.142 265 208.5 268.358 208.5 272.5C208.5 276.642 205.142 280 201 280C196.858 280 193.5 276.642 193.5 272.5C193.5 268.358 196.858 265 201 265Z" fill="#EC9932"/>
<path d="M201 290C205.142 290 208.5 293.358 208.5 297.5C208.5 301.642 205.142 305 201 305C196.858 305 193.5 301.642 193.5 297.5C193.5 293.358 196.858 290 201 290Z" fill="#C368EB"/>
<path d="M201 315C205.142 315 208.5 318.358 208.5 322.5C208.5 326.642 205.142 330 201 330C196.858 330 193.5 326.642 193.5 322.5C193.5 318.358 196.858 315 201 315Z" fill="#449295"/>
<path d="M201 340C205.142 340 208.5 343.358 208.5 347.5C208.5 351.642 205.142 355 201 355C196.858 355 193.5 351.642 193.5 347.5C193.5 343.358 196.858 340 201 340Z" fill="#C368EB"/>
<path d="M201 365C205.142 365 208.5 368.358 208.5 372.5C208.5 376.642 205.142 380 201 380C196.858 380 193.5 376.642 193.5 372.5C193.5 368.358 196.858 365 201 365Z" fill="#EC9932"/>
<path d="M201 390C205.142 390 208.5 393.358 208.5 397.5C208.5 401.642 205.142 405 201 405C196.858 405 193.5 401.642 193.5 397.5C193.5 393.358 196.858 390 201 390Z" fill="#449295"/>
<path d="M201 415C205.142 415 208.5 418.358 208.5 422.5C208.5 426.642 205.142 430 201 430C196.858 430 193.5 426.642 193.5 422.5C193.5 418.358 196.858 415 201 415Z" fill="#449295"/>
<path d="M201 440C205.142 440 208.5 443.358 208.5 447.5C208.5 451.642 205.142 455 201 455C196.858 455 193.5 451.642 193.5 447.5C193.5 443.358 196.858 440 201 440Z" fill="#C368EB"/>
<path d="M201 465C205.142 465 208.5 468.358 208.5 472.5C208.5 476.642 205.142 480 201 480C196.858 480 193.5 476.642 193.5 472.5C193.5 468.358 196.858 465 201 465Z" fill="#449295"/>
<path d="M201 490C205.142 490 208.5 493.358 208.5 497.5C208.5 501.642 205.142 505 201 505C196.858 505 193.5 501.642 193.5 497.5C193.5 493.358 196.858 490 201 490Z" fill="#449295"/>
<path d="M201 515C205.142 515 208.5 518.358 208.5 522.5C208.5 526.642 205.142 530 201 530C196.858 530 193.5 526.642 193.5 522.5C193.5 518.358 196.858 515 201 515Z" fill="#EC9932"/>
<path d="M201 540C205.142 540 208.5 543.358 208.5 547.5C208.5 551.642 205.142 555 201 555C196.858 555 193.5 551.642 193.5 547.5C193.5 543.358 196.858 540 201 540Z" fill="#449295"/>
<path d="M201 565C205.142 565 208.5 568.358 208.5 572.5C208.5 576.642 205.142 580 201 580C196.858 580 193.5 576.642 193.5 572.5C193.5 568.358 196.858 565 201 565Z" fill="#449295"/>
<path d="M201 590C205.142 590 208.5 593.358 208.5 597.5C208.5 601.642 205.142 605 201 605C196.858 605 193.5 601.642 193.5 597.5C193.5 593.358 196.858 590 201 590Z" fill="#449295"/>
<path d="M278 115C282.142 115 285.5 118.358 285.5 122.5C285.5 126.642 282.142 130 278 130C273.858 130 270.5 126.642 270.5 122.5C270.5 118.358 273.858 115 278 115Z" fill="#C368EB"/>
<path d="M278 140C282.142 140 285.5 143.358 285.5 147.5C285.5 151.642 282.142 155 278 155C273.858 155 270.5 151.642 270.5 147.5C270.5 143.358 273.858 140 278 140Z" fill="#449295"/>
<path d="M278 165C282.142 165 285.5 168.358 285.5 172.5C285.5 176.642 282.142 180 278 180C273.858 180 270.5 176.642 270.5 172.5C270.5 168.358 273.858 165 278 165Z" fill="#449295"/>
<path d="M278 190C282.142 190 285.5 193.358 285.5 197.5C285.5 201.642 282.142 205 278 205C273.858 205 270.5 201.642 270.5 197.5C270.5 193.358 273.858 190 278 190Z" fill="#449295"/>
<path d="M278 215C282.142 215 285.5 218.358 285.5 222.5C285.5 226.642 282.142 230 278 230C273.858 230 270.5 226.642 270.5 222.5C270.5 218.358 273.858 215 278 215Z" fill="#449295"/>
<path d="M278 240C282.142 240 285.5 243.358 285.5 247.5C285.5 251.642 282.142 255 278 255C273.858 255 270.5 251.642 270.5 247.5C270.5 243.358 273.858 240 278 240Z" fill="#449295"/>
<path d="M278 265C282.142 265 285.5 268.358 285.5 272.5C285.5 276.642 282.142 280 278 280C273.858 280 270.5 276.642 270.5 272.5C270.5 268.358 273.858 265 278 265Z" fill="#449295"/>
<path d="M278 290C282.142 290 285.5 293.358 285.5 297.5C285.5 301.642 282.142 305 278 305C273.858 305 270.5 301.642 270.5 297.5C270.5 293.358 273.858 290 278 290Z" fill="#449295"/>
<path d="M278 315C282.142 315 285.5 318.358 285.5 322.5C285.5 326.642 282.142 330 278 330C273.858 330 270.5 326.642 270.5 322.5C270.5 318.358 273.858 315 278 315Z" fill="#449295"/>
<path d="M278 340C282.142 340 285.5 343.358 285.5 347.5C285.5 351.642 282.142 355 278 355C273.858 355 270.5 351.642 270.5 347.5C270.5 343.358 273.858 340 278 340Z" fill="#EC9932"/>
<path d="M278 365C282.142 365 285.5 368.358 285.5 372.5C285.5 376.642 282.142 380 278 380C273.858 380 270.5 376.642 270.5 372.5C270.5 368.358 273.858 365 278 365Z" fill="#C368EB"/>
<path d="M278 390C282.142 390 285.5 393.358 285.5 397.5C285.5 401.642 282.142 405 278 405C273.858 405 270.5 401.642 270.5 397.5C270.5 393.358 273.858 390 278 390Z" fill="#EC9932"/>
<path d="M278 415C282.142 415 285.5 418.358 285.5 422.5C285.5 426.642 282.142 430 278 430C273.858 430 270.5 426.642 270.5 422.5C270.5 418.358 273.858 415 278 415Z" fill="#EC9932"/>
<path d="M278 440C282.142 440 285.5 443.358 285.5 447.5C285.5 451.642 282.142 455 278 455C273.858 455 270.5 451.642 270.5 447.5C270.5 443.358 273.858 440 278 440Z" fill="#EC9932"/>
<path d="M278 465C282.142 465 285.5 468.358 285.5 472.5C285.5 476.642 282.142 480 278 480C273.858 480 270.5 476.642 270.5 472.5C270.5 468.358 273.858 465 278 465Z" fill="#EC9932"/>
<path d="M278 490C282.142 490 285.5 493.358 285.5 497.5C285.5 501.642 282.142 505 278 505C273.858 505 270.5 501.642 270.5 497.5C270.5 493.358 273.858 490 278 490Z" fill="#EC9932"/>
<path d="M278 515C282.142 515 285.5 518.358 285.5 522.5C285.5 526.642 282.142 530 278 530C273.858 530 270.5 526.642 270.5 522.5C270.5 518.358 273.858 515 278 515Z" fill="#449295"/>
<path d="M278 540C282.142 540 285.5 543.358 285.5 547.5C285.5 551.642 282.142 555 278 555C273.858 555 270.5 551.642 270.5 547.5C270.5 543.358 273.858 540 278 540Z" fill="#EC9932"/>
<path d="M278 565C282.142 565 285.5 568.358 285.5 572.5C285.5 576.642 282.142 580 278 580C273.858 580 270.5 576.642 270.5 572.5C270.5 568.358 273.858 565 278 565Z" fill="#EC9932"/>
<path d="M278 590C282.142 590 285.5 593.358 285.5 597.5C285.5 601.642 282.142 605 278 605C273.858 605 270.5 601.642 270.5 597.5C270.5 593.358 273.858 590 278 590Z" fill="#449295"/>
<path d="M356 115C360.142 115 363.5 118.358 363.5 122.5C363.5 126.642 360.142 130 356 130C351.858 130 348.5 126.642 348.5 122.5C348.5 118.358 351.858 115 356 115Z" fill="#449295"/>
<path d="M356 140C360.142 140 363.5 143.358 363.5 147.5C363.5 151.642 360.142 155 356 155C351.858 155 348.5 151.642 348.5 147.5C348.5 143.358 351.858 140 356 140Z" fill="#449295"/>
<path d="M356 165C360.142 165 363.5 168.358 363.5 172.5C363.5 176.642 360.142 180 356 180C351.858 180 348.5 176.642 348.5 172.5C348.5 168.358 351.858 165 356 165Z" fill="#449295"/>
<path d="M356 190C360.142 190 363.5 193.358 363.5 197.5C363.5 201.642 360.142 205 356 205C351.858 205 348.5 201.642 348.5 197.5C348.5 193.358 351.858 190 356 190Z" fill="#449295"/>
<path d="M356 215C360.142 215 363.5 218.358 363.5 222.5C363.5 226.642 360.142 230 356 230C351.858 230 348.5 226.642 348.5 222.5C348.5 218.358 351.858 215 356 215Z" fill="#449295"/>
<path d="M356 240C360.142 240 363.5 243.358 363.5 247.5C363.5 251.642 360.142 255 356 255C351.858 255 348.5 251.642 348.5 247.5C348.5 243.358 351.858 240 356 240Z" fill="#C368EB"/>
<path d="M356 265C360.142 265 363.5 268.358 363.5 272.5C363.5 276.642 360.142 280 356 280C351.858 280 348.5 276.642 348.5 272.5C348.5 268.358 351.858 265 356 265Z" fill="#449295"/>
<path d="M356 290C360.142 290 363.5 293.358 363.5 297.5C363.5 301.642 360.142 305 356 305C351.858 305 348.5 301.642 348.5 297.5C348.5 293.358 351.858 290 356 290Z" fill="#449295"/>
<path d="M356 315C360.142 315 363.5 318.358 363.5 322.5C363.5 326.642 360.142 330 356 330C351.858 330 348.5 326.642 348.5 322.5C348.5 318.358 351.858 315 356 315Z" fill="#C368EB"/>
<path d="M356 340C360.142 340 363.5 343.358 363.5 347.5C363.5 351.642 360.142 355 356 355C351.858 355 348.5 351.642 348.5 347.5C348.5 343.358 351.858 340 356 340Z" fill="#C368EB"/>
<path d="M356 365C360.142 365 363.5 368.358 363.5 372.5C363.5 376.642 360.142 380 356 380C351.858 380 348.5 376.642 348.5 372.5C348.5 368.358 351.858 365 356 365Z" fill="#449295"/>
<path d="M356 390C360.142 390 363.5 393.358 363.5 397.5C363.5 401.642 360.142 405 356 405C351.858 405 348.5 401.642 348.5 397.5C348.5 393.358 351.858 390 356 390Z" fill="#449295"/>
<path d="M356 415C360.142 415 363.5 418.358 363.5 422.5C363.5 426.642 360.142 430 356 430C351.858 430 348.5 426.642 348.5 422.5C348.5 418.358 351.858 415 356 415Z" fill="#EC9932"/>
<path d="M356 440C360.142 440 363.5 443.358 363.5 447.5C363.5 451.642 360.142 455 356 455C351.858 455 348.5 451.642 348.5 447.5C348.5 443.358 351.858 440 356 440Z" fill="#449295"/>
<path d="M356 465C360.142 465 363.5 468.358 363.5 472.5C363.5 476.642 360.142 480 356 480C351.858 480 348.5 476.642 348.5 472.5C348.5 468.358 351.858 465 356 465Z" fill="#EC9932"/>
<path d="M356 490C360.142 490 363.5 493.358 363.5 497.5C363.5 501.642 360.142 505 356 505C351.858 505 348.5 501.642 348.5 497.5C348.5 493.358 351.858 490 356 490Z" fill="#EC9932"/>
<path d="M356 515C360.142 515 363.5 518.358 363.5 522.5C363.5 526.642 360.142 530 356 530C351.858 530 348.5 526.642 348.5 522.5C348.5 518.358 351.858 515 356 515Z" fill="#EC9932"/>
<path d="M356 540C360.142 540 363.5 543.358 363.5 547.5C363.5 551.642 360.142 555 356 555C351.858 555 348.5 551.642 348.5 547.5C348.5 543.358 351.858 540 356 540Z" fill="#C368EB"/>
<path d="M356 565C360.142 565 363.5 568.358 363.5 572.5C363.5 576.642 360.142 580 356 580C351.858 580 348.5 576.642 348.5 572.5C348.5 568.358 351.858 565 356 565Z" fill="#EC9932"/>
<path d="M356 590C360.142 590 363.5 593.358 363.5 597.5C363.5 601.642 360.142 605 356 605C351.858 605 348.5 601.642 348.5 597.5C348.5 593.358 351.858 590 356 590Z" fill="#449295"/>
<path d="M434 115C438.142 115 441.5 118.358 441.5 122.5C441.5 126.642 438.142 130 434 130C429.858 130 426.5 126.642 426.5 122.5C426.5 118.358 429.858 115 434 115Z" fill="#449295"/>
<path d="M434 140C438.142 140 441.5 143.358 441.5 147.5C441.5 151.642 438.142 155 434 155C429.858 155 426.5 151.642 426.5 147.5C426.5 143.358 429.858 140 434 140Z" fill="#EC9932"/>
<path d="M434 165C438.142 165 441.5 168.358 441.5 172.5C441.5 176.642 438.142 180 434 180C429.858 180 426.5 176.642 426.5 172.5C426.5 168.358 429.858 165 434 165Z" fill="#449295"/>
<path d="M434 190C438.142 190 441.5 193.358 441.5 197.5C441.5 201.642 438.142 205 434 205C429.858 205 426.5 201.642 426.5 197.5C426.5 193.358 429.858 190 434 190Z" fill="#449295"/>
<path d="M434 215C438.142 215 441.5 218.358 441.5 222.5C441.5 226.642 438.142 230 434 230C429.858 230 426.5 226.642 426.5 222.5C426.5 218.358 429.858 215 434 215Z" fill="#449295"/>
<path d="M434 240C438.142 240 441.5 243.358 441.5 247.5C441.5 251.642 438.142 255 434 255C429.858 255 426.5 251.642 426.5 247.5C426.5 243.358 429.858 240 434 240Z" fill="#449295"/>
<path d="M434 265C438.142 265 441.5 268.358 441.5 272.5C441.5 276.642 438.142 280 434 280C429.858 280 426.5 276.642 426.5 272.5C426.5 268.358 429.858 265 434 265Z" fill="#EC9932"/>
<path d="M434 290C438.142 290 441.5 293.358 441.5 297.5C441.5 301.642 438.142 305 434 305C429.858 305 426.5 301.642 426.5 297.5C426.5 293.358 429.858 290 434 290Z" fill="#449295"/>
<path d="M434 315C438.142 315 441.5 318.358 441.5 322.5C441.5 326.642 438.142 330 434 330C429.858 330 426.5 326.642 426.5 322.5C426.5 318.358 429.858 315 434 315Z" fill="#449295"/>
<path d="M434 340C438.142 340 441.5 343.358 441.5 347.5C441.5 351.642 438.142 355 434 355C429.858 355 426.5 351.642 426.5 347.5C426.5 343.358 429.858 340 434 340Z" fill="#449295"/>
<path d="M434 365C438.142 365 441.5 368.358 441.5 372.5C441.5 376.642 438.142 380 434 380C429.858 380 426.5 376.642 426.5 372.5C426.5 368.358 429.858 365 434 365Z" fill="#449295"/>
<path d="M434 390C438.142 390 441.5 393.358 441.5 397.5C441.5 401.642 438.142 405 434 405C429.858 405 426.5 401.642 426.5 397.5C426.5 393.358 429.858 390 434 390Z" fill="#C368EB"/>
<path d="M434 415C438.142 415 441.5 418.358 441.5 422.5C441.5 426.642 438.142 430 434 430C429.858 430 426.5 426.642 426.5 422.5C426.5 418.358 429.858 415 434 415Z" fill="#C368EB"/>
<path d="M434 440C438.142 440 441.5 443.358 441.5 447.5C441.5 451.642 438.142 455 434 455C429.858 455 426.5 451.642 426.5 447.5C426.5 443.358 429.858 440 434 440Z" fill="#449295"/>
<path d="M434 465C438.142 465 441.5 468.358 441.5 472.5C441.5 476.642 438.142 480 434 480C429.858 480 426.5 476.642 426.5 472.5C426.5 468.358 429.858 465 434 465Z" fill="#C368EB"/>
<path d="M434 490C438.142 490 441.5 493.358 441.5 497.5C441.5 501.642 438.142 505 434 505C429.858 505 426.5 501.642 426.5 497.5C426.5 493.358 429.858 490 434 490Z" fill="#449295"/>
<path d="M434 515C438.142 515 441.5 518.358 441.5 522.5C441.5 526.642 438.142 530 434 530C429.858 530 426.5 526.642 426.5 522.5C426.5 518.358 429.858 515 434 515Z" fill="#449295"/>
<path d="M434 540C438.142 540 441.5 543.358 441.5 547.5C441.5 551.642 438.142 555 434 555C429.858 555 426.5 551.642 426.5 547.5C426.5 543.358 429.858 540 434 540Z" fill="#449295"/>
<path d="M434 565C438.142 565 441.5 568.358 441.5 572.5C441.5 576.642 438.142 580 434 580C429.858 580 426.5 576.642 426.5 572.5C426.5 568.358 429.858 565 434 565Z" fill="#449295"/>
<path d="M434 590C438.142 590 441.5 593.358 441.5 597.5C441.5 601.642 438.142 605 434 605C429.858 605 426.5 601.642 426.5 597.5C426.5 593.358 429.858 590 434 590Z" fill="#EC9932"/>
<path d="M512 115C516.142 115 519.5 118.358 519.5 122.5C519.5 126.642 516.142 130 512 130C507.858 130 504.5 126.642 504.5 122.5C504.5 118.358 507.858 115 512 115Z" fill="#449295"/>
<path d="M512 140C516.142 140 519.5 143.358 519.5 147.5C519.5 151.642 516.142 155 512 155C507.858 155 504.5 151.642 504.5 147.5C504.5 143.358 507.858 140 512 140Z" fill="#449295"/>
<path d="M512 165C516.142 165 519.5 168.358 519.5 172.5C519.5 176.642 516.142 180 512 180C507.858 180 504.5 176.642 504.5 172.5C504.5 168.358 507.858 165 512 165Z" fill="#C368EB"/>
<path d="M512 190C516.142 190 519.5 193.358 519.5 197.5C519.5 201.642 516.142 205 512 205C507.858 205 504.5 201.642 504.5 197.5C504.5 193.358 507.858 190 512 190Z" fill="#449295"/>
<path d="M512 215C516.142 215 519.5 218.358 519.5 222.5C519.5 226.642 516.142 230 512 230C507.858 230 504.5 226.642 504.5 222.5C504.5 218.358 507.858 215 512 215Z" fill="#449295"/>
<path d="M512 240C516.142 240 519.5 243.358 519.5 247.5C519.5 251.642 516.142 255 512 255C507.858 255 504.5 251.642 504.5 247.5C504.5 243.358 507.858 240 512 240Z" fill="#449295"/>
<path d="M512 265C516.142 265 519.5 268.358 519.5 272.5C519.5 276.642 516.142 280 512 280C507.858 280 504.5 276.642 504.5 272.5C504.5 268.358 507.858 265 512 265Z" fill="#EC9932"/>
<path d="M512 290C516.142 290 519.5 293.358 519.5 297.5C519.5 301.642 516.142 305 512 305C507.858 305 504.5 301.642 504.5 297.5C504.5 293.358 507.858 290 512 290Z" fill="#449295"/>
<path d="M512 315C516.142 315 519.5 318.358 519.5 322.5C519.5 326.642 516.142 330 512 330C507.858 330 504.5 326.642 504.5 322.5C504.5 318.358 507.858 315 512 315Z" fill="#EC9932"/>
<path d="M512 340C516.142 340 519.5 343.358 519.5 347.5C519.5 351.642 516.142 355 512 355C507.858 355 504.5 351.642 504.5 347.5C504.5 343.358 507.858 340 512 340Z" fill="#449295"/>
<path d="M512 365C516.142 365 519.5 368.358 519.5 372.5C519.5 376.642 516.142 380 512 380C507.858 380 504.5 376.642 504.5 372.5C504.5 368.358 507.858 365 512 365Z" fill="#EC9932"/>
<path d="M512 390C516.142 390 519.5 393.358 519.5 397.5C519.5 401.642 516.142 405 512 405C507.858 405 504.5 401.642 504.5 397.5C504.5 393.358 507.858 390 512 390Z" fill="#C368EB"/>
<path d="M512 415C516.142 415 519.5 418.358 519.5 422.5C519.5 426.642 516.142 430 512 430C507.858 430 504.5 426.642 504.5 422.5C504.5 418.358 507.858 415 512 415Z" fill="#C368EB"/>
<path d="M512 440C516.142 440 519.5 443.358 519.5 447.5C519.5 451.642 516.142 455 512 455C507.858 455 504.5 451.642 504.5 447.5C504.5 443.358 507.858 440 512 440Z" fill="#449295"/>
<path d="M512 465C516.142 465 519.5 468.358 519.5 472.5C519.5 476.642 516.142 480 512 480C507.858 480 504.5 476.642 504.5 472.5C504.5 468.358 507.858 465 512 465Z" fill="#C368EB"/>
<path d="M512 490C516.142 490 519.5 493.358 519.5 497.5C519.5 501.642 516.142 505 512 505C507.858 505 504.5 501.642 504.5 497.5C504.5 493.358 507.858 490 512 490Z" fill="#449295"/>
<path d="M512 515C516.142 515 519.5 518.358 519.5 522.5C519.5 526.642 516.142 530 512 530C507.858 530 504.5 526.642 504.5 522.5C504.5 518.358 507.858 515 512 515Z" fill="#EC9932"/>
<path d="M512 540C516.142 540 519.5 543.358 519.5 547.5C519.5 551.642 516.142 555 512 555C507.858 555 504.5 551.642 504.5 547.5C504.5 543.358 507.858 540 512 540Z" fill="#449295"/>
<path d="M512 565C516.142 565 519.5 568.358 519.5 572.5C519.5 576.642 516.142 580 512 580C507.858 580 504.5 576.642 504.5 572.5C504.5 568.358 507.858 565 512 565Z" fill="#449295"/>
<path d="M512 590C516.142 590 519.5 593.358 519.5 597.5C519.5 601.642 516.142 605 512 605C507.858 605 504.5 601.642 504.5 597.5C504.5 593.358 507.858 590 512 590Z" fill="#449295"/>
<path d="M589 115C593.142 115 596.5 118.358 596.5 122.5C596.5 126.642 593.142 130 589 130C584.858 130 581.5 126.642 581.5 122.5C581.5 118.358 584.858 115 589 115Z" fill="#EC9932"/>
<path d="M589 140C593.142 140 596.5 143.358 596.5 147.5C596.5 151.642 593.142 155 589 155C584.858 155 581.5 151.642 581.5 147.5C581.5 143.358 584.858 140 589 140Z" fill="#C368EB"/>
<path d="M589 165C593.142 165 596.5 168.358 596.5 172.5C596.5 176.642 593.142 180 589 180C584.858 180 581.5 176.642 581.5 172.5C581.5 168.358 584.858 165 589 165Z" fill="#449295"/>
<path d="M589 190C593.142 190 596.5 193.358 596.5 197.5C596.5 201.642 593.142 205 589 205C584.858 205 581.5 201.642 581.5 197.5C581.5 193.358 584.858 190 589 190Z" fill="#449295"/>
<path d="M589 215C593.142 215 596.5 218.358 596.5 222.5C596.5 226.642 593.142 230 589 230C584.858 230 581.5 226.642 581.5 222.5C581.5 218.358 584.858 215 589 215Z" fill="#449295"/>
<path d="M589 240C593.142 240 596.5 243.358 596.5 247.5C596.5 251.642 593.142 255 589 255C584.858 255 581.5 251.642 581.5 247.5C581.5 243.358 584.858 240 589 240Z" fill="#449295"/>
<path d="M589 265C593.142 265 596.5 268.358 596.5 272.5C596.5 276.642 593.142 280 589 280C584.858 280 581.5 276.642 581.5 272.5C581.5 268.358 584.858 265 589 265Z" fill="#C368EB"/>
<path d="M589 290C593.142 290 596.5 293.358 596.5 297.5C596.5 301.642 593.142 305 589 305C584.858 305 581.5 301.642 581.5 297.5C581.5 293.358 584.858 290 589 290Z" fill="#C368EB"/>
<path d="M589 315C593.142 315 596.5 318.358 596.5 322.5C596.5 326.642 593.142 330 589 330C584.858 330 581.5 326.642 581.5 322.5C581.5 318.358 584.858 315 589 315Z" fill="#449295"/>
<path d="M589 340C593.142 340 596.5 343.358 596.5 347.5C596.5 351.642 593.142 355 589 355C584.858 355 581.5 351.642 581.5 347.5C581.5 343.358 584.858 340 589 340Z" fill="#449295"/>
<path d="M589 365C593.142 365 596.5 368.358 596.5 372.5C596.5 376.642 593.142 380 589 380C584.858 380 581.5 376.642 581.5 372.5C581.5 368.358 584.858 365 589 365Z" fill="#449295"/>
<path d="M589 390C593.142 390 596.5 393.358 596.5 397.5C596.5 401.642 593.142 405 589 405C584.858 405 581.5 401.642 581.5 397.5C581.5 393.358 584.858 390 589 390Z" fill="#C368EB"/>
<path d="M589 415C593.142 415 596.5 418.358 596.5 422.5C596.5 426.642 593.142 430 589 430C584.858 430 581.5 426.642 581.5 422.5C581.5 418.358 584.858 415 589 415Z" fill="#449295"/>
<path d="M589 440C593.142 440 596.5 443.358 596.5 447.5C596.5 451.642 593.142 455 589 455C584.858 455 581.5 451.642 581.5 447.5C581.5 443.358 584.858 440 589 440Z" fill="#449295"/>
<path d="M589 465C593.142 465 596.5 468.358 596.5 472.5C596.5 476.642 593.142 480 589 480C584.858 480 581.5 476.642 581.5 472.5C581.5 468.358 584.858 465 589 465Z" fill="#449295"/>
<path d="M589 490C593.142 490 596.5 493.358 596.5 497.5C596.5 501.642 593.142 505 589 505C584.858 505 581.5 501.642 581.5 497.5C581.5 493.358 584.858 490 589 490Z" fill="#449295"/>
<path d="M589 515C593.142 515 596.5 518.358 596.5 522.5C596.5 526.642 593.142 530 589 530C584.858 530 581.5 526.642 581.5 522.5C581.5 518.358 584.858 515 589 515Z" fill="#449295"/>
<path d="M589 540C593.142 540 596.5 543.358 596.5 547.5C596.5 551.642 593.142 555 589 555C584.858 555 581.5 551.642 581.5 547.5C581.5 543.358 584.858 540 589 540Z" fill="#449295"/>
<path d="M589 565C593.142 565 596.5 568.358 596.5 572.5C596.5 576.642 593.142 580 589 580C584.858 580 581.5 576.642 581.5 572.5C581.5 568.358 584.858 565 589 565Z" fill="#EC9932"/>
<path d="M589 590C593.142 590 596.5 593.358 596.5 597.5C596.5 601.642 593.142 605 589 605C584.858 605 581.5 601.642 581.5 597.5C581.5 593.358 584.858 590 589 590Z" fill="#449295"/>
<path d="M667 115C671.142 115 674.5 118.358 674.5 122.5C674.5 126.642 671.142 130 667 130C662.858 130 659.5 126.642 659.5 122.5C659.5 118.358 662.858 115 667 115Z" fill="#449295"/>
<path d="M667 140C671.142 140 674.5 143.358 674.5 147.5C674.5 151.642 671.142 155 667 155C662.858 155 659.5 151.642 659.5 147.5C659.5 143.358 662.858 140 667 140Z" fill="#C368EB"/>
<path d="M667 165C671.142 165 674.5 168.358 674.5 172.5C674.5 176.642 671.142 180 667 180C662.858 180 659.5 176.642 659.5 172.5C659.5 168.358 662.858 165 667 165Z" fill="#449295"/>
<path d="M667 190C671.142 190 674.5 193.358 674.5 197.5C674.5 201.642 671.142 205 667 205C662.858 205 659.5 201.642 659.5 197.5C659.5 193.358 662.858 190 667 190Z" fill="#449295"/>
<path d="M667 215C671.142 215 674.5 218.358 674.5 222.5C674.5 226.642 671.142 230 667 230C662.858 230 659.5 226.642 659.5 222.5C659.5 218.358 662.858 215 667 215Z" fill="#449295"/>
<path d="M667 240C671.142 240 674.5 243.358 674.5 247.5C674.5 251.642 671.142 255 667 255C662.858 255 659.5 251.642 659.5 247.5C659.5 243.358 662.858 240 667 240Z" fill="#449295"/>
<path d="M667 265C671.142 265 674.5 268.358 674.5 272.5C674.5 276.642 671.142 280 667 280C662.858 280 659.5 276.642 659.5 272.5C659.5 268.358 662.858 265 667 265Z" fill="#C368EB"/>
<path d="M667 290C671.142 290 674.5 293.358 674.5 297.5C674.5 301.642 671.142 305 667 305C662.858 305 659.5 301.642 659.5 297.5C659.5 293.358 662.858 290 667 290Z" fill="#449295"/>
<path d="M667 315C671.142 315 674.5 318.358 674.5 322.5C674.5 326.642 671.142 330 667 330C662.858 330 659.5 326.642 659.5 322.5C659.5 318.358 662.858 315 667 315Z" fill="#C368EB"/>
<path d="M667 340C671.142 340 674.5 343.358 674.5 347.5C674.5 351.642 671.142 355 667 355C662.858 355 659.5 351.642 659.5 347.5C659.5 343.358 662.858 340 667 340Z" fill="#449295"/>
<path d="M667 365C671.142 365 674.5 368.358 674.5 372.5C674.5 376.642 671.142 380 667 380C662.858 380 659.5 376.642 659.5 372.5C659.5 368.358 662.858 365 667 365Z" fill="#449295"/>
<path d="M667 390C671.142 390 674.5 393.358 674.5 397.5C674.5 401.642 671.142 405 667 405C662.858 405 659.5 401.642 659.5 397.5C659.5 393.358 662.858 390 667 390Z" fill="#C368EB"/>
<path d="M667 415C671.142 415 674.5 418.358 674.5 422.5C674.5 426.642 671.142 430 667 430C662.858 430 659.5 426.642 659.5 422.5C659.5 418.358 662.858 415 667 415Z" fill="#449295"/>
<path d="M667 440C671.142 440 674.5 443.358 674.5 447.5C674.5 451.642 671.142 455 667 455C662.858 455 659.5 451.642 659.5 447.5C659.5 443.358 662.858 440 667 440Z" fill="#449295"/>
<path d="M667 465C671.142 465 674.5 468.358 674.5 472.5C674.5 476.642 671.142 480 667 480C662.858 480 659.5 476.642 659.5 472.5C659.5 468.358 662.858 465 667 465Z" fill="#449295"/>
<path d="M667 490C671.142 490 674.5 493.358 674.5 497.5C674.5 501.642 671.142 505 667 505C662.858 505 659.5 501.642 659.5 497.5C659.5 493.358 662.858 490 667 490Z" fill="#449295"/>
<path d="M667 515C671.142 515 674.5 518.358 674.5 522.5C674.5 526.642 671.142 530 667 530C662.858 530 659.5 526.642 659.5 522.5C659.5 518.358 662.858 515 667 515Z" fill="#C368EB"/>
<path d="M667 540C671.142 540 674.5 543.358 674.5 547.5C674.5 551.642 671.142 555 667 555C662.858 555 659.5 551.642 659.5 547.5C659.5 543.358 662.858 540 667 540Z" fill="#449295"/>
<path d="M667 565C671.142 565 674.5 568.358 674.5 572.5C674.5 576.642 671.142 580 667 580C662.858 580 659.5 576.642 659.5 572.5C659.5 568.358 662.858 565 667 565Z" fill="#449295"/>
<path d="M667 590C671.142 590 674.5 593.358 674.5 597.5C674.5 601.642 671.142 605 667 605C662.858 605 659.5 601.642 659.5 597.5C659.5 593.358 662.858 590 667 590Z" fill="#449295"/>
<path d="M745 115C749.142 115 752.5 118.358 752.5 122.5C752.5 126.642 749.142 130 745 130C740.858 130 737.5 126.642 737.5 122.5C737.5 118.358 740.858 115 745 115Z" fill="#449295"/>
<path d="M745 140C749.142 140 752.5 143.358 752.5 147.5C752.5 151.642 749.142 155 745 155C740.858 155 737.5 151.642 737.5 147.5C737.5 143.358 740.858 140 745 140Z" fill="#449295"/>
<path d="M745 165C749.142 165 752.5 168.358 752.5 172.5C752.5 176.642 749.142 180 745 180C740.858 180 737.5 176.642 737.5 172.5C737.5 168.358 740.858 165 745 165Z" fill="#449295"/>
<path d="M745 190C749.142 190 752.5 193.358 752.5 197.5C752.5 201.642 749.142 205 745 205C740.858 205 737.5 201.642 737.5 197.5C737.5 193.358 740.858 190 745 190Z" fill="#449295"/>
<path d="M745 215C749.142 215 752.5 218.358 752.5 222.5C752.5 226.642 749.142 230 745 230C740.858 230 737.5 226.642 737.5 222.5C737.5 218.358 740.858 215 745 215Z" fill="#C368EB"/>
<path d="M745 240C749.142 240 752.5 243.358 752.5 247.5C752.5 251.642 749.142 255 745 255C740.858 255 737.5 251.642 737.5 247.5C737.5 243.358 740.858 240 745 240Z" fill="#449295"/>
<path d="M745 265C749.142 265 752.5 268.358 752.5 272.5C752.5 276.642 749.142 280 745 280C740.858 280 737.5 276.642 737.5 272.5C737.5 268.358 740.858 265 745 265Z" fill="#C368EB"/>
<path d="M745 290C749.142 290 752.5 293.358 752.5 297.5C752.5 301.642 749.142 305 745 305C740.858 305 737.5 301.642 737.5 297.5C737.5 293.358 740.858 290 745 290Z" fill="#449295"/>
<path d="M745 315C749.142 315 752.5 318.358 752.5 322.5C752.5 326.642 749.142 330 745 330C740.858 330 737.5 326.642 737.5 322.5C737.5 318.358 740.858 315 745 315Z" fill="#449295"/>
<path d="M745 340C749.142 340 752.5 343.358 752.5 347.5C752.5 351.642 749.142 355 745 355C740.858 355 737.5 351.642 737.5 347.5C737.5 343.358 740.858 340 745 340Z" fill="#C368EB"/>
<path d="M745 365C749.142 365 752.5 368.358 752.5 372.5C752.5 376.642 749.142 380 745 380C740.858 380 737.5 376.642 737.5 372.5C737.5 368.358 740.858 365 745 365Z" fill="#449295"/>
<path d="M745 390C749.142 390 752.5 393.358 752.5 397.5C752.5 401.642 749.142 405 745 405C740.858 405 737.5 401.642 737.5 397.5C737.5 393.358 740.858 390 745 390Z" fill="#C368EB"/>
<path d="M745 415C749.142 415 752.5 418.358 752.5 422.5C752.5 426.642 749.142 430 745 430C740.858 430 737.5 426.642 737.5 422.5C737.5 418.358 740.858 415 745 415Z" fill="#EC9932"/>
<path d="M745 440C749.142 440 752.5 443.358 752.5 447.5C752.5 451.642 749.142 455 745 455C740.858 455 737.5 451.642 737.5 447.5C737.5 443.358 740.858 440 745 440Z" fill="#EC9932"/>
<path d="M745 465C749.142 465 752.5 468.358 752.5 472.5C752.5 476.642 749.142 480 745 480C740.858 480 737.5 476.642 737.5 472.5C737.5 468.358 740.858 465 745 465Z" fill="#EC9932"/>
<path d="M745 490C749.142 490 752.5 493.358 752.5 497.5C752.5 501.642 749.142 505 745 505C740.858 505 737.5 501.642 737.5 497.5C737.5 493.358 740.858 490 745 490Z" fill="#449295"/>
<path d="M745 515C749.142 515 752.5 518.358 752.5 522.5C752.5 526.642 749.142 530 745 530C740.858 530 737.5 526.642 737.5 522.5C737.5 518.358 740.858 515 745 515Z" fill="#449295"/>
<path d="M745 540C749.142 540 752.5 543.358 752.5 547.5C752.5 551.642 749.142 555 745 555C740.858 555 737.5 551.642 737.5 547.5C737.5 543.358 740.858 540 745 540Z" fill="#449295"/>
<path d="M745 565C749.142 565 752.5 568.358 752.5 572.5C752.5 576.642 749.142 580 745 580C740.858 580 737.5 576.642 737.5 572.5C737.5 568.358 740.858 565 745 565Z" fill="#449295"/>
<path d="M745 590C749.142 590 752.5 593.358 752.5 597.5C752.5 601.642 749.142 605 745 605C740.858 605 737.5 601.642 737.5 597.5C737.5 593.358 740.858 590 745 590Z" fill="#449295"/>
<path d="M765.5 119C767.433 119 769 120.567 769 122.5C769 124.433 767.433 126 765.5 126C763.567 126 762 124.433 762 122.5C762 120.567 763.567 119 765.5 119Z" fill="#7B7B7B" fill-opacity="0.75"/>
<path d="M765.5 219C767.433 219 769 220.567 769 222.5C769 224.433 767.433 226 765.5 226C763.567 226 762 224.433 762 222.5C762 220.567 763.567 219 765.5 219Z" fill="#7B7B7B" fill-opacity="0.75"/>
<path d="M765.5 144C767.433 144 769 145.567 769 147.5C769 149.433 767.433 151 765.5 151C763.567 151 762 149.433 762 147.5C762 145.567 763.567 144 765.5 144Z" fill="#7B7B7B" fill-opacity="0.75"/>
<path d="M602.409 149.5L608.163 149.981L605.703 144.758L602.409 149.5ZM628.409 108C627.909 108 627.909 108 627.909 108C627.909 108 627.909 108 627.909 108C627.909 108.001 627.909 108.002 627.909 108.003C627.909 108.006 627.909 108.011 627.909 108.017C627.909 108.029 627.909 108.048 627.909 108.073C627.908 108.124 627.907 108.2 627.904 108.301C627.899 108.502 627.888 108.8 627.867 109.185C627.825 109.955 627.74 111.071 627.57 112.448C627.231 115.205 626.551 119.003 625.193 123.169C622.475 131.505 617.056 141.269 606.244 147.142L606.722 148.021C617.837 141.983 623.38 131.956 626.144 123.479C627.526 119.239 628.217 115.375 628.563 112.571C628.736 111.168 628.822 110.03 628.866 109.24C628.887 108.845 628.898 108.537 628.904 108.327C628.906 108.222 628.908 108.141 628.908 108.086C628.909 108.059 628.909 108.038 628.909 108.023C628.909 108.016 628.909 108.01 628.909 108.007C628.909 108.005 628.909 108.003 628.909 108.002C628.909 108.001 628.909 108.001 628.909 108.001C628.909 108 628.909 108 628.409 108Z" fill="black"/>
<path d="M654.765 149.5L649.012 149.981L651.472 144.758L654.765 149.5ZM628.765 108C629.265 108 629.265 108 629.265 108C629.265 108 629.265 108 629.265 108C629.265 108.001 629.265 108.002 629.265 108.003C629.265 108.006 629.265 108.011 629.265 108.017C629.266 108.029 629.266 108.048 629.266 108.073C629.267 108.124 629.268 108.2 629.271 108.301C629.276 108.502 629.286 108.8 629.307 109.185C629.35 109.955 629.434 111.071 629.604 112.448C629.944 115.205 630.623 119.003 631.982 123.169C634.699 131.505 640.119 141.269 650.93 147.142L650.453 148.021C639.338 141.983 633.795 131.956 631.031 123.479C629.648 119.239 628.957 115.375 628.612 112.571C628.439 111.168 628.352 110.03 628.309 109.24C628.287 108.845 628.276 108.537 628.271 108.327C628.268 108.222 628.267 108.141 628.266 108.086C628.266 108.059 628.266 108.038 628.266 108.023C628.265 108.016 628.265 108.01 628.265 108.007C628.265 108.005 628.265 108.003 628.265 108.002C628.265 108.001 628.265 108.001 628.265 108.001C628.265 108 628.265 108 628.765 108Z" fill="black"/>
<path d="M828.631 579H809V598.627H828.631V579Z" fill="#C368EB"/>
<path d="M828.631 551.807H809V571.434H828.631V551.807Z" fill="#EC9932"/>
<path d="M828.631 525H809V544.627H828.631V525Z" fill="#459295"/>
<line x1="770" y1="122.5" x2="780" y2="122.5" stroke="black"/>
<path d="M770 147.5H780" stroke="black"/>
<line x1="770" y1="222.5" x2="780" y2="222.5" stroke="black"/>
<line x1="779.5" y1="122" x2="779.5" y2="222" stroke="black"/>
<path d="M218.672 88.0203C218.775 87.7639 218.65 87.4729 218.394 87.3703L214.216 85.6984C213.96 85.5958 213.669 85.7205 213.566 85.9769C213.463 86.2332 213.588 86.5243 213.844 86.6268L217.558 88.113L216.072 91.8266C215.969 92.083 216.094 92.374 216.35 92.4766C216.607 92.5792 216.898 92.4545 217 92.1982L218.672 88.0203ZM201.248 110.501C202.407 104.035 203.963 99.68 206.567 96.3514C209.168 93.0253 212.859 90.67 218.405 88.2941L218.011 87.3749C212.403 89.7772 208.533 92.215 205.779 95.7353C203.027 99.2532 201.434 103.798 200.263 110.324L201.248 110.501Z" fill="black"/>
</svg>
